<svg xmlns="http://www.w3.org/2000/svg" viewBox="0 0 96 96"><path fill="#efd0a0" fill-rule="evenodd" d="M50.97 89.05 L50.89 89.21 L50.76 89.33 L50.55 89.6 L50.45 89.57 L50.37 89.49 L50.28 89.48 L50.07 89.34 L49.89 89.36 L49.79 89.48 L49.75 89.49 L49.6 89.39 L49.54 89.28 L49.42 89.27 L49.26 89.33 L49.11 89.52 L48.92 89.5 L48.79 89.53 L48.51 89.74 L48.35 89.82 L48.16 89.86 L47.91 90 L47.82 89.99 L47.74 89.86 L47.52 89.7 L47.17 89.76 L46.7 89.49 L46.51 89.51 L46.38 89.61 L46.34 89.43 L46.43 89.29 L46.35 89.14 L46.39 89.08 L46.27 88.94 L46.1 88.92 L46.06 88.83 L46.24 88.62 L46.26 88.47 L46.42 88.4 L46.45 88.3 L46.41 88.16 L46.24 88.04 L46.24 87.97 L46.37 87.81 L46.21 87.72 L46.37 87.49 L46.12 87.19 L45.78 87.13 L45.71 87.07 L45.72 87 L45.85 86.93 L45.86 86.87 L46.03 86.74 L46.01 86.66 L46.06 86.55 L46.04 86.49 L45.96 86.49 L45.92 86.45 L45.99 86.22 L45.86 86.01 L45.92 85.92 L45.86 85.72 L45.9 85.6 L45.8 85.52 L45.88 85.48 L45.89 85.43 L45.86 85.38 L45.78 85.43 L45.72 85.36 L45.69 85.28 L45.74 85.2 L45.64 85.11 L45.56 84.93 L45.56 84.89 L45.65 84.81 L45.53 84.63 L45.56 84.51 L45.51 84.38 L45.53 84.3 L45.42 84.22 L45.38 84.03 L45.39 83.78 L45.14 83.46 L44.98 83.48 L44.82 83.41 L44.73 83.33 L44.7 83.25 L44.77 83.12 L44.66 83.03 L44.37 83.07 L44.3 82.91 L44.09 82.77 L44.1 82.69 L44.18 82.6 L44.14 82.47 L44.16 82.37 L44.11 82.26 L43.96 82.11 L43.94 81.97 L43.83 81.85 L43.79 81.68 L43.81 81.59 L43.9 81.45 L43.9 81.4 L43.47 81.1 L43.49 80.97 L43.58 80.86 L43.46 80.79 L43.49 80.69 L43.44 80.55 L43.52 80.51 L43.5 80.34 L43.32 80.18 L43.29 80.03 L43.17 80.01 L43.16 79.74 L43.07 79.72 L43.04 79.66 L42.93 79.58 L42.8 79.64 L42.71 79.6 L42.7 79.48 L42.65 79.41 L42.64 79.23 L42.43 79.11 L42.41 78.93 L42.36 78.86 L42.23 78.91 L42.12 78.82 L42.06 78.9 L41.96 78.89 L41.94 78.81 L41.95 78.7 L41.79 78.64 L41.72 78.3 L41.28 77.87 L41.23 77.68 L41.1 77.66 L41.03 77.57 L40.86 77.54 L40.7 77.47 L40.65 77.52 L40.64 77.64 L40.52 77.64 L40.47 77.58 L40.52 77.45 L40.25 77.1 L40.18 77.08 L40.09 77.16 L40.03 77.15 L39.97 76.98 L39.9 76.93 L39.67 76.75 L39.55 76.79 L39.38 76.65 L39.38 76.55 L39.34 76.43 L39.4 76.29 L39.31 76.1 L39.29 75.92 L39.2 75.88 L39.16 75.75 L39.06 75.66 L39.04 75.54 L38.87 75.49 L38.83 75.41 L38.85 75.27 L38.82 75.15 L38.72 75.18 L38.68 75.13 L38.57 74.58 L38.6 74.48 L38.59 74.31 L38.49 74.26 L38.37 74.13 L38.28 74.14 L38.1 74.06 L37.98 74.08 L37.89 73.85 L37.81 73.78 L37.69 73.79 L37.64 73.75 L37.57 73.59 L37.62 73.48 L37.6 73.3 L37.45 73.17 L37.41 73.08 L37.3 72.98 L37.19 72.93 L37.16 72.76 L37.12 72.71 L36.62 72.34 L36.56 72.12 L36.42 72.12 L36.34 72.04 L36.31 71.96 L36.33 71.67 L36.25 71.57 L36.14 71.54 L36.06 71.48 L35.92 71.45 L35.91 71.2 L35.69 71.07 L35.64 70.89 L35.54 70.79 L35.35 70.83 L35.23 70.78 L35.02 70.83 L34.71 70.78 L34.47 70.91 L34.12 70.94 L33.99 70.88 L33.74 70.65 L33.7 70.52 L33.57 70.44 L33.58 70.15 L33.52 69.62 L33.35 69.53 L33.26 69.42 L33.19 69.25 L33.16 69.08 L32.99 69.02 L32.92 68.67 L32.83 68.57 L32.64 68.49 L32.53 68.39 L32.49 68.3 L32.49 68.13 L32.33 67.83 L32.26 67.58 L32.03 67.38 L31.96 67.17 L31.75 66.93 L31.76 66.8 L31.83 66.64 L31.74 66.44 L31.75 66.28 L31.7 66.15 L31.7 65.98 L31.58 65.78 L31.47 65.71 L31.44 65.64 L31.47 65.43 L31.58 65.2 L31.63 64.85 L31.82 64.54 L31.87 64.03 L32 63.92 L32.6 63.74 L32.69 63.63 L32.7 63.51 L32.67 63.42 L32.6 63.37 L32.34 63.35 L32.21 63.28 L31.99 63.08 L31.98 62.91 L32.36 62.63 L32.51 62.59 L32.71 62.47 L32.77 62.32 L32.76 62.13 L32.97 61.86 L33.17 61.81 L33.29 61.71 L33.41 61.34 L33.67 61.07 L33.58 60.87 L33.6 60.79 L33.76 60.64 L33.9 60.46 L33.96 60.23 L34.06 60.13 L34.09 59.96 L34.14 59.85 L34.24 59.78 L34.41 59.73 L34.49 59.61 L34.73 59.6 L34.82 59.49 L34.83 59.46 L34.77 59.4 L34.82 59.16 L34.8 59.08 L34.6 58.9 L34.55 58.71 L34.64 58.52 L35.11 58.04 L35.25 57.99 L35.47 57.85 L35.73 57.53 L35.93 57.41 L35.97 57.23 L35.93 56.94 L35.71 56.73 L35.5 56.46 L35.36 56.26 L35.12 55.8 L34.84 55.72 L34.72 55.45 L34.07 54.74 L33.66 54.13 L33.54 54.07 L33.42 54.11 L33.2 54.5 L33.05 54.55 L32.93 54.5 L32.85 54.43 L32.67 54.09 L32.55 53.99 L32.47 53.96 L32.11 53.99 L32.02 53.91 L31.86 53.43 L31.77 53.3 L31.77 53.05 L31.7 52.91 L31.7 52.78 L31.61 52.62 L31.58 52.34 L31.63 52.2 L31.57 51.9 L31.56 51.49 L31.59 51.31 L31.56 50.96 L31.62 50.59 L31.75 50.4 L31.78 50.23 L32.45 49.44 L32.66 49.3 L33.14 49.05 L33.23 48.95 L33.31 48.69 L33.27 48.58 L33.11 48.47 L32.62 48.53 L32.49 48.5 L32.46 48.44 L32.49 48.22 L32.63 48.07 L32.63 47.92 L32.56 47.68 L32.57 47.18 L32.77 46.28 L32.81 45.94 L32.81 45.41 L32.84 45.33 L33.01 45.11 L32.99 44.59 L32.86 44.31 L32.85 44.19 L32.91 44 L33.11 43.75 L33.19 43.53 L33.15 43.28 L32.93 42.67 L32.93 42.05 L32.86 41.41 L32.74 41.1 L32.61 40.98 L32.47 40.99 L32.38 41.05 L32.2 41.27 L32.1 41.28 L31.99 41.15 L31.85 40.8 L31.56 40.37 L31.58 40.27 L31.75 40.1 L32.05 39.91 L32.09 39.8 L32.14 39.75 L32.2 39.74 L32.32 39.78 L32.46 39.69 L32.51 39.47 L32.46 39.25 L32.59 39.13 L32.5 38.92 L32.53 38.82 L32.51 38.69 L32.45 38.61 L32.5 38.38 L32.7 38.16 L32.78 37.98 L33.04 37.83 L32.97 37.74 L32.95 37.66 L32.99 37.59 L32.96 37.46 L32.99 37.34 L33.06 37.25 L33.03 37.07 L33.12 36.93 L33.22 36.86 L33.28 36.67 L33.26 36.6 L33.32 36.47 L33.37 36.42 L33.44 36.46 L33.55 36.42 L33.74 36.23 L33.69 35.91 L33.59 35.99 L33.33 36.01 L33.28 36.06 L33.07 36.02 L33.04 35.9 L32.91 35.74 L32.9 35.65 L33 35.5 L32.9 35.11 L32.85 35.02 L32.7 34.91 L32.72 34.73 L32.8 34.71 L32.83 34.65 L32.74 34.44 L32.89 34.28 L32.8 34.07 L32.83 33.92 L32.94 33.82 L32.94 33.73 L32.97 33.68 L33.17 33.55 L33.37 33.48 L33.46 33.41 L33.44 33.31 L33.5 33.27 L33.48 33.17 L33.55 33.02 L33.54 32.87 L33.65 32.85 L33.73 32.74 L33.74 32.59 L33.59 32.26 L33.59 32.08 L33.63 31.92 L33.8 31.7 L33.91 31.7 L33.98 31.59 L34.19 31.51 L34.24 31.44 L34.22 31.06 L34.28 30.72 L34.17 30.47 L34.19 30.32 L34.14 30.16 L34.26 29.91 L34.32 29.86 L34.43 29.47 L34.45 29.44 L34.57 29.43 L34.66 29.17 L34.76 29.13 L34.91 28.94 L35 28.88 L35.02 28.72 L34.94 28.73 L34.86 28.65 L34.83 28.53 L34.76 28.43 L34.66 28.37 L34.56 28.38 L34.44 28.29 L34.43 28.16 L34.39 28.11 L34.51 27.81 L34.48 27.65 L34.52 27.63 L34.53 27.5 L34.51 27.44 L34.57 27.37 L34.49 27.29 L34.47 27.17 L34.61 26.99 L34.76 26.9 L34.83 26.79 L34.96 26.79 L35 26.73 L34.97 26.58 L35.26 26.26 L35.27 26.14 L35.37 26 L35.47 26 L35.6 25.95 L35.72 25.93 L35.82 25.95 L35.96 25.91 L36.07 25.97 L36.35 25.38 L36.35 25.32 L36.29 25.28 L36.3 25.16 L36.2 25.16 L36.17 25.05 L36.23 25.03 L36.26 24.88 L36.35 24.83 L36.3 24.71 L36.33 24.61 L36.31 24.55 L36.35 24.52 L36.4 24.32 L36.42 24.32 L36.43 24.24 L36.52 24.14 L36.51 24.09 L36.61 24.04 L36.67 23.93 L36.73 23.9 L36.67 23.87 L36.72 23.81 L36.61 23.69 L36.82 23.69 L37.29 23.46 L37.36 23.27 L37.63 23.01 L37.78 22.73 L37.76 22.66 L37.79 22.59 L37.77 22.5 L37.6 22.42 L37.71 22.22 L37.78 22.15 L37.84 21.94 L37.77 21.83 L37.79 21.74 L37.69 21.68 L37.6 21.56 L37.51 21.52 L37.62 21.42 L37.58 21.3 L37.58 21.13 L37.48 21.04 L37.52 21 L37.47 20.87 L37.5 20.8 L37.61 20.72 L37.72 20.8 L37.88 20.78 L37.97 20.81 L37.97 20.77 L38.04 20.74 L38.04 20.65 L38.12 20.56 L38.09 20.45 L37.98 20.39 L38.06 20.27 L38.05 20.22 L38.08 20.17 L37.92 20 L38.1 19.84 L38.18 19.83 L38.24 19.78 L38.19 19.67 L38.08 19.58 L38.08 19.51 L38 19.37 L38.06 19.28 L38.04 19.19 L38 19.15 L38.06 19.13 L38.13 18.99 L38.11 18.88 L38.04 18.82 L38.12 18.78 L38.09 18.72 L38.15 18.65 L38.11 18.6 L38.1 18.53 L38.19 18.52 L38.16 18.46 L38.23 18.37 L38.22 18.27 L38.3 18.24 L38.23 18.14 L38.24 18.11 L38.18 18.12 L38.13 18.08 L38.22 17.98 L38.34 17.89 L38.39 17.9 L38.48 17.77 L38.46 17.73 L38.58 17.7 L38.62 17.64 L38.57 17.55 L38.7 17.48 L38.65 17.27 L38.67 17.08 L38.8 16.91 L38.9 16.55 L38.88 16.53 L38.94 16.42 L38.84 16.33 L38.84 16.25 L38.9 16.13 L38.9 16.04 L38.97 16.02 L39.02 15.94 L38.94 15.1 L38.96 14.94 L38.9 14.79 L39.14 14.54 L39.08 14.32 L39.45 14.44 L39.7 14.64 L39.85 14.63 L40.03 14.72 L40.14 14.65 L40.22 14.68 L40.27 14.63 L40.38 14.66 L40.44 14.74 L40.75 14.83 L40.9 14.78 L40.94 14.8 L41.07 14.79 L41.12 14.74 L41.18 14.77 L41.2 14.87 L41.3 14.91 L41.3 15.09 L41.26 15.17 L41.28 15.32 L41.36 15.53 L41.43 15.82 L41.44 16.18 L41.55 16.43 L41.52 16.53 L41.61 16.63 L41.56 16.73 L41.48 16.75 L41.52 16.82 L41.61 16.84 L41.78 17.01 L41.9 17 L42.04 16.93 L42.15 16.73 L42.32 16.83 L42.44 16.77 L42.49 16.81 L42.57 16.65 L42.76 16.6 L42.92 16.41 L43.2 16.35 L43.25 16.26 L43.28 15.98 L43.25 15.95 L43.22 15.67 L43.15 15.61 L43.2 15.42 L43.14 15.38 L43.11 15.18 L43.04 15.12 L42.98 15.01 L42.86 14.98 L42.84 14.92 L42.72 14.98 L42.57 14.9 L42.53 14.77 L42.43 14.67 L42.44 14.58 L42.34 14.25 L42.28 14.19 L42.34 14.13 L42.29 14.01 L42.32 13.92 L42.56 13.78 L42.64 13.78 L42.7 13.7 L42.78 13.67 L42.83 13.57 L42.99 13.47 L43.05 13.37 L43.18 13.32 L43.19 13.24 L43.35 13.19 L43.58 12.74 L43.76 12.5 L43.85 12.49 L43.85 12.44 L43.98 12.34 L43.99 12.22 L44.09 12.15 L44.12 12.08 L44.08 12.01 L44.1 11.85 L44.28 11.81 L44.25 11.69 L44.36 11.63 L44.38 11.42 L44.48 11.37 L44.43 11.27 L44.54 11.16 L44.5 11.04 L44.41 10.92 L44.45 10.87 L44.48 10.85 L44.59 10.9 L44.77 11.1 L45 11.06 L45.06 11.09 L45.05 10.97 L45.23 10.67 L45.35 10.66 L45.48 10.69 L45.53 10.42 L45.58 10.32 L45.74 10.26 L45.93 10.24 L46.11 10.06 L46.15 9.98 L46.11 9.79 L46.18 9.61 L46.43 9.42 L46.48 9.29 L46.65 9.13 L46.72 8.84 L46.8 8.79 L46.94 8.82 L46.98 8.8 L47 8.68 L47.15 8.44 L47.17 8.32 L47.37 8.23 L47.46 8.1 L47.49 8 L47.47 7.84 L47.61 7.7 L48.72 7.07 L49.6 6.3 L49.84 6.16 L50.29 6 L50.33 6.08 L50.3 6.09 L50.4 6.23 L50.39 6.43 L50.43 6.67 L50.58 6.96 L50.73 7.46 L50.78 8.83 L50.95 10.08 L50.91 10.43 L50.93 10.96 L50.98 11.43 L50.97 12.07 L51.06 12.6 L51.04 13.71 L51.15 14.92 L51.32 15.58 L51.54 16.09 L52 16.77 L52.12 17.27 L52.24 17.46 L52.48 17.71 L53.3 18.23 L53.41 18.33 L53.86 19.37 L54.16 19.96 L54.24 20.57 L54.22 21.26 L54.11 21.79 L53.86 22.51 L53.87 22.7 L54.02 23.22 L54.16 23.47 L54.41 23.75 L54.8 24.04 L55.1 24.33 L55.41 24.9 L55.56 25.07 L55.7 25.29 L55.89 25.86 L55.93 26.84 L56.06 27.37 L56.01 27.7 L56.01 28.45 L55.94 28.93 L55.76 29.73 L55.56 30.37 L55.5 30.95 L55.24 31.77 L55.1 32.77 L55.1 33.08 L55.21 33.87 L55.41 34.61 L55.43 35.65 L55.38 36.02 L55.25 36.5 L54.89 37.32 L54.75 37.5 L54.44 37.73 L54.03 37.84 L53.85 37.98 L53.75 38.24 L53.66 38.83 L53.62 39.18 L53.61 39.74 L53.46 40.15 L53.09 40.82 L52.93 41.02 L52.82 41.09 L52.42 41.11 L52.24 41.19 L52.08 41.36 L51.85 41.71 L51.56 42.02 L51.24 42.28 L50.86 42.85 L50.68 43.24 L50.67 43.48 L50.76 43.75 L50.75 43.98 L50.53 44.33 L50.4 44.77 L50.4 45.01 L50.47 45.22 L50.62 45.53 L51.01 46.08 L51.05 46.24 L51.19 46.45 L51.32 46.77 L51.45 46.93 L51.67 47.03 L51.91 47.25 L51.94 47.58 L51.87 47.87 L51.8 47.98 L52 48.13 L52.1 48.64 L52.19 48.91 L52.34 50.15 L52.32 50.88 L52.39 51.62 L52.6 52.5 L52.74 52.88 L52.88 53.44 L53.01 53.77 L53.13 54.29 L53.1 55.17 L52.86 55.79 L52.74 56.26 L52.77 56.92 L52.57 56.95 L52.24 56.91 L52.13 56.84 L52 56.68 L51.79 56.74 L51.72 56.81 L51.7 56.9 L51.74 57.19 L51.6 57.59 L51.66 57.83 L51.66 57.93 L51.49 58.1 L51.29 58.23 L51.26 58.35 L51.3 58.47 L51.58 58.78 L51.64 58.89 L51.53 59.28 L51.52 59.42 L51.76 60.39 L51.93 60.65 L51.93 60.87 L51.98 61.15 L51.91 61.34 L51.62 61.62 L51.57 61.72 L51.61 62.08 L51.6 62.15 L51.23 62.57 L51.13 62.75 L51.12 62.92 L51.16 63.33 L51.35 63.81 L51.32 63.91 L51.18 64.1 L51.15 64.28 L51.23 64.84 L51.3 65.06 L51.33 65.4 L51.41 65.45 L51.58 65.49 L51.93 65.69 L52.43 65.67 L52.74 65.71 L52.87 65.75 L52.94 65.84 L53.08 66.11 L53.14 66.46 L53.34 66.73 L53.44 67.32 L53.5 67.55 L53.67 67.88 L53.67 68.08 L53.54 68.43 L53.57 68.6 L53.73 68.84 L53.95 68.98 L54.13 69.4 L54.19 69.47 L54.35 69.49 L54.64 69.37 L54.77 69.36 L54.95 69.23 L55.05 69.2 L55.24 69.44 L55.22 69.67 L55.45 69.86 L55.7 69.89 L55.85 69.87 L56.01 69.75 L56.09 69.77 L56.29 70 L56.26 70.08 L56.15 70.18 L56.19 70.32 L56.14 70.49 L56.22 70.59 L56.35 70.65 L56.48 70.48 L56.57 70.25 L56.67 70.17 L56.75 70.04 L57.01 69.87 L57.11 69.86 L57.25 69.77 L57.29 69.39 L57.5 69.31 L57.59 69.45 L57.75 69.61 L57.73 69.73 L57.93 69.92 L57.88 70.07 L57.96 70.13 L57.99 70.25 L58.06 70.28 L58.12 70.37 L58.26 70.44 L58.44 70.64 L58.51 70.61 L58.48 70.48 L58.49 70.36 L58.53 70.34 L58.6 70.37 L58.63 70.32 L58.64 69.98 L58.67 69.96 L58.77 69.99 L58.86 69.83 L58.92 69.84 L59.03 69.95 L59.11 70.1 L59.19 70.11 L59.28 70.21 L59.25 70.26 L59.35 70.53 L59.39 70.58 L59.38 70.71 L59.44 70.76 L59.49 70.89 L59.6 70.92 L59.77 70.79 L59.92 70.78 L59.94 71.02 L60.07 71.47 L60.35 71.72 L60.49 71.91 L60.84 71.95 L61.07 72.09 L61.27 72.11 L61.46 72.27 L61.79 72.18 L62 72.19 L62.26 72.41 L62.45 72.44 L62.85 72.6 L62.92 72.76 L63.06 72.94 L63.09 73.05 L63.08 73.1 L62.82 73.28 L62.75 73.37 L62.83 73.52 L62.9 73.81 L63.28 74.25 L63.5 74.39 L63.69 74.47 L63.88 74.88 L64.01 74.97 L64.26 75.3 L64.44 75.43 L64.56 75.62 L64.52 75.91 L64.56 76.04 L64.3 76.48 L64.2 77.04 L64.09 77.13 L63.93 77.18 L63.94 77.27 L64.02 77.41 L64.05 77.54 L64.01 77.73 L63.74 77.9 L63.47 77.94 L63.38 78.03 L63.19 78.14 L62.91 78.15 L62.72 78.09 L62.57 77.91 L62.41 77.88 L62.35 77.84 L62.09 77.45 L61.81 77.3 L61.65 77.37 L61.55 77.37 L61.52 77.45 L61.6 77.82 L61.29 78.09 L61.1 78.18 L60.99 78.52 L60.95 78.76 L60.84 78.88 L60.71 78.94 L60.5 79.11 L60.46 79.28 L60.36 79.52 L60.41 79.94 L60.28 80.17 L60.32 80.33 L60.3 80.58 L60.07 80.75 L59.86 81.08 L59.82 81.21 L59.55 81.31 L59.47 81.42 L59.31 81.53 L59.14 81.72 L59.09 81.9 L59 81.97 L58.87 81.98 L58.78 81.89 L58.7 81.93 L58.61 81.9 L58.24 81.92 L58.22 81.98 L58.28 82.11 L58.27 82.26 L58.34 82.34 L58.37 82.62 L58.46 82.66 L58.43 82.73 L58.6 82.75 L58.67 82.72 L58.78 82.79 L58.87 83 L58.79 83.04 L58.81 83.09 L58.95 83.23 L59.05 83.46 L59.14 83.53 L59.29 83.84 L59.46 84.07 L59.41 84.37 L59.42 84.53 L59.32 84.54 L59.29 84.68 L59.2 84.79 L58.94 84.8 L58.79 84.49 L58.65 84.32 L58.59 84.28 L58.38 84.3 L58.32 84.26 L58.01 83.8 L57.75 83.56 L57.67 83.58 L57.59 83.55 L57.55 83.58 L57.56 83.78 L57.38 83.69 L57.27 83.71 L57.22 83.77 L57.19 83.93 L57.13 84.02 L57.13 84.19 L57.04 84.25 L57.02 84.32 L56.91 84.32 L56.86 84.38 L56.84 84.23 L56.59 83.94 L56.58 83.84 L56.44 83.56 L56.17 83.41 L55.96 83.47 L55.79 83.33 L55.71 83.31 L55.5 82.77 L55.29 82.6 L55.14 82.62 L55.03 82.55 L54.8 82.36 L54.72 82.2 L54.5 82.15 L54.37 82.18 L54.3 82.14 L54.18 82.13 L53.79 82.45 L53.48 82.82 L53.36 82.88 L53.19 82.87 L53 82.92 L52.91 82.91 L52.79 82.85 L52.65 82.67 L52.5 82.61 L52.35 82.64 L52.25 83.19 L52.18 83.27 L52 83.35 L51.87 83.5 L51.87 83.6 L51.97 83.78 L51.83 83.87 L51.83 83.98 L51.97 84.16 L51.78 84.54 L51.78 84.72 L51.72 84.88 L51.75 85.09 L51.93 85.25 L51.97 85.44 L52.04 85.59 L52.14 85.66 L52.14 85.72 L52.04 85.88 L51.91 85.97 L51.64 85.81 L51.48 85.85 L51.42 85.91 L51.39 86.04 L51.42 86.16 L51.78 86.77 L51.77 86.85 L51.84 86.94 L51.87 87.12 L51.93 87.2 L51.96 87.16 L51.99 87.18 L52.02 87.31 L51.94 87.32 L51.94 87.39 L51.96 87.42 L52.03 87.41 L52.02 87.58 L52.17 87.73 L52.26 88.07 L52.41 88.29 L52.32 88.44 L52.21 88.46 L52.16 88.57 L51.95 88.69 L52 88.83 L51.84 88.99 L51.82 89.19 L51.75 89.26 L51.64 89.52 L51.6 89.54 L51.59 89.39 L51.47 89.2 L51.46 89.06 L51.36 88.86 L51.22 88.72 L51.17 88.75 L51.16 88.87 L50.97 89.05 Z" /></svg>