<svg xmlns="http://www.w3.org/2000/svg" viewBox="0 0 96 96"><path fill="#efd0a0" fill-rule="evenodd" d="M60.81 82.94 L60.63 82.89 L60.17 83.18 L60.01 83.35 L59.91 83.65 L59.76 83.85 L59.54 84.03 L59.21 84.12 L59.08 84.44 L59.02 84.48 L58.93 84.43 L58.54 84.91 L58.36 85.39 L58.23 85.45 L57.98 85.39 L57.94 85.42 L57.83 85.71 L57.71 85.93 L57.55 86.04 L57.21 86.73 L57.21 86.93 L57.37 87.28 L57.45 87.36 L57.73 87.44 L57.81 87.53 L57.65 87.59 L57.43 87.93 L56.83 88.24 L56.66 88.16 L56.49 88.18 L56.33 88.05 L56.2 88.02 L56.05 88.1 L55.79 88.14 L55.57 88.29 L55.49 88.41 L55.32 88.4 L55.18 88.55 L54.99 88.54 L54.59 88.68 L54.33 88.63 L54.2 88.54 L54.12 88.39 L54 88.33 L53.49 88.35 L52.9 88.83 L52.52 88.97 L52.38 89.06 L51.86 89.52 L51.47 89.96 L51.38 90 L51.19 89.66 L50.84 89.25 L51.55 89.03 L51.64 88.89 L51.91 88.09 L51.99 87.41 L51.99 86.21 L51.92 86 L51.63 85.58 L51.7 85.4 L51.72 84.97 L51.94 84.77 L52.01 84.64 L52.05 84.26 L52.02 83.98 L51.94 83.77 L51.9 83.72 L51.41 83.74 L51.02 83.89 L50.84 84.07 L50.59 84.2 L50.04 84.28 L49.97 83.04 L49.76 81.85 L49.66 81.91 L49.56 82.08 L49.25 82.14 L49.01 82.36 L48.81 82.27 L48.59 82.32 L48.41 82.26 L47.88 82.65 L47.72 82.95 L47.46 82.99 L46.97 83.24 L46.95 82.92 L46.81 82.62 L46.71 82.11 L47.13 81.64 L47.41 81.54 L47.61 81.26 L47.9 81.1 L47.86 80.69 L47.96 80.58 L48.17 80.08 L48.28 80.01 L48.38 79.76 L48.5 79.64 L48.4 79.36 L48.52 79.11 L48.62 79.04 L48.87 79.03 L49.13 78.89 L49.28 78.62 L49.54 78.56 L49.82 78.34 L50.07 78.45 L50.16 78.41 L50.99 77.84 L51.24 77.49 L51.22 76.95 L50.66 76.11 L50.59 75.88 L50.28 75.7 L50.14 75.75 L49.95 76.03 L49.76 76.18 L49.74 76.27 L49.6 76.38 L49.15 76.2 L48.78 75.84 L48.61 75.8 L48.35 75.66 L47.96 75.79 L47.49 75.7 L47.31 75.75 L46.96 75.74 L46.77 75.82 L46.51 75.68 L46.39 75.88 L46.46 76.04 L46.36 76.4 L46.44 76.58 L46.42 76.7 L46.52 76.9 L46.48 77.03 L46.52 77.26 L46.41 77.59 L46.49 77.73 L46.51 78.11 L46.56 78.29 L46.33 78.54 L46.28 78.97 L46.02 78.97 L46.13 79.18 L46.12 79.27 L45.8 79.49 L45.64 79.74 L45.43 79.83 L45.34 79.98 L45.35 80.14 L45.29 80.29 L45.07 80.44 L45.17 80.65 L45.45 80.82 L45.47 80.95 L45.55 81.01 L45.61 81.37 L45.91 81.58 L45.91 81.94 L45.84 82.14 L45.88 82.24 L45.87 82.54 L45.81 82.84 L45.84 83.16 L45.95 83.29 L45.75 83.42 L45.51 83.36 L45.28 83.73 L44.95 83.75 L44.44 83.58 L44.09 83.22 L43.82 83.23 L43.33 83.5 L42.82 84.25 L42.6 84.48 L42.41 84.58 L42.36 84.32 L41.69 83.28 L41.75 83.18 L41.9 83.1 L41.84 82.77 L41.74 82.57 L41.52 82.35 L41.54 82.31 L41.46 82.22 L41.1 81.9 L41.02 81.88 L40.93 81.71 L40.75 81.64 L40.79 81.54 L40.69 81.5 L40.49 81.3 L40.43 81.3 L40.33 81.16 L40.36 81.13 L39.95 80.95 L40.06 80.72 L40.01 80.42 L39.96 80.38 L40.01 80.27 L39.94 80.15 L39.79 80.08 L39.79 80 L39.61 79.81 L39.57 79.62 L39.5 79.59 L39.55 79.56 L39.49 79.36 L39.09 79.03 L39.02 79.02 L38.99 79.07 L38.97 78.98 L38.88 78.98 L38.88 78.92 L38.94 78.87 L38.88 78.88 L38.68 78.73 L38.64 78.64 L38.57 78.66 L38.6 78.55 L38.49 78.51 L38.44 78.35 L38.51 78.16 L38.74 78.16 L38.77 78.04 L38.85 77.99 L38.76 77.59 L38.67 77.47 L38.59 77.46 L38.54 77.32 L38.07 76.93 L37.97 76.87 L37.78 76.87 L37.77 76.81 L37.58 76.74 L37.57 76.62 L37.37 76.57 L37.18 76.41 L37.23 76.32 L37.19 76.32 L37.15 75.98 L37 75.98 L37.07 75.88 L37.16 75.91 L37.25 75.86 L37.21 75.81 L37.25 75.76 L37.21 75.63 L37.11 75.58 L37.17 75.51 L37.14 75.47 L37.06 75.49 L36.99 75.28 L37.02 75.21 L37.12 75.21 L37.12 75.07 L36.56 74.52 L36.35 74.47 L36.21 74.31 L36.29 73.95 L36.18 73.9 L36.2 73.76 L36.31 73.62 L36.32 73.51 L36.4 73.4 L36.21 73.45 L36.14 73.38 L36.17 73.24 L36.08 73.28 L36.03 73.26 L36.14 72.94 L36.21 72.94 L36.24 72.87 L36.16 72.85 L36.18 72.81 L36.07 72.75 L35.99 72.62 L35.92 72.62 L35.94 72.31 L35.89 72.17 L35.82 72.14 L35.72 71.97 L35.67 71.99 L35.61 71.89 L35.38 71.83 L35.33 71.54 L35.3 71.49 L35.18 71.47 L35.2 71.37 L35.11 71.37 L35.11 71.26 L34.89 71.26 L34.8 71.18 L34.78 71.07 L34.61 71.03 L34.45 70.83 L34.34 70.85 L34.23 70.64 L34.15 70.62 L34.19 70.54 L33.87 70.33 L33.81 70.22 L33.83 70.1 L33.71 70.01 L33.72 69.81 L33.61 69.75 L33.61 69.68 L33.54 69.6 L33.6 69.52 L33.6 69.46 L33.54 69.46 L33.59 69.35 L33.49 69.32 L33.39 69.41 L33.34 69.2 L33.2 69.17 L33.3 68.89 L33.56 68.77 L33.69 68.77 L33.75 68.59 L33.73 68.33 L33.65 68.1 L33.56 67.96 L33.49 67.96 L33.49 67.9 L33.42 67.91 L33.39 67.87 L33.51 67.84 L33.6 67.72 L33.57 67.56 L33.5 67.52 L33.49 67.43 L33.44 67.44 L33.5 67.3 L33.49 67.16 L33.33 66.99 L33.28 66.81 L33.15 66.67 L33.01 66.64 L33 66.56 L33.1 66.51 L33.06 66.43 L32.99 66.41 L32.95 66.48 L32.84 66.39 L32.92 66.36 L32.83 66.18 L32.88 66.12 L32.85 66.01 L32.95 65.84 L32.91 65.74 L32.83 65.71 L32.85 65.63 L32.69 65.68 L32.68 65.59 L32.74 65.56 L32.67 65.29 L32.75 65.24 L32.68 65.25 L32.62 65.19 L32.65 65.24 L32.6 65.26 L32.52 65.2 L32.42 65 L32.48 64.9 L32.45 64.78 L32.25 64.66 L32.21 64.58 L32.1 64.6 L32.05 64.55 L32.06 64.52 L31.94 64.53 L31.92 64.43 L31.98 64.42 L31.84 64.4 L31.7 64.31 L31.7 64.25 L31.85 64.2 L31.83 64.1 L31.75 64.07 L31.74 64.01 L31.92 64.01 L31.98 63.8 L31.86 63.59 L32.02 63.55 L31.99 63.41 L31.92 63.28 L31.82 63.27 L31.77 63.32 L31.87 63.16 L31.82 63.16 L31.81 63.07 L31.9 63.05 L31.97 62.96 L31.95 62.88 L31.91 62.88 L31.93 62.82 L31.85 62.69 L31.87 62.59 L31.83 62.53 L31.62 62.5 L31.72 62.39 L31.69 62.31 L31.72 62.21 L31.4 61.93 L31.42 61.8 L31.38 61.75 L31.47 61.68 L31.44 61.38 L31.62 61.38 L31.68 61.34 L31.68 61.2 L31.57 61.03 L31.67 60.97 L31.59 60.86 L31.58 60.69 L31.61 60.65 L31.74 60.69 L31.65 60.58 L31.77 60.6 L31.77 60.48 L31.85 60.42 L31.84 60.36 L31.92 60.35 L31.87 60.11 L31.94 60.09 L31.9 59.91 L31.97 59.87 L31.92 59.7 L31.96 59.59 L31.78 59.35 L31.65 59.29 L31.66 59.14 L31.53 59.11 L31.45 58.98 L31.36 59 L31.35 58.95 L31.4 58.9 L31.37 58.81 L30.87 58.4 L30.78 58.38 L30.66 58.47 L30.71 58.41 L30.59 58.39 L30.47 58.28 L30.51 58.24 L30.44 58.2 L30.47 58.15 L30.43 58.09 L30.45 57.96 L30.32 57.91 L30.26 58 L30.24 57.92 L30.31 57.89 L30.27 57.79 L30.21 57.74 L30.04 57.77 L30.08 57.59 L29.99 57.62 L30.04 57.51 L29.94 57.55 L29.78 57.37 L29.81 57.28 L29.75 57.17 L29.9 57.12 L29.91 57 L29.82 56.99 L29.86 56.86 L29.77 56.89 L29.75 56.84 L29.86 56.82 L29.85 56.76 L29.74 56.76 L29.74 56.58 L29.69 56.54 L29.59 56.54 L29.55 56.47 L29.44 56.46 L29.55 56.34 L29.43 56.13 L29.37 56.1 L29.28 56.15 L29.24 56.11 L29.27 56.03 L29.2 56.11 L29.05 56.06 L29.09 56.01 L29.06 55.88 L28.98 55.87 L28.97 55.83 L29.13 55.73 L29.09 55.59 L28.99 55.58 L29.04 55.49 L29.01 55.42 L28.95 55.43 L28.94 55.36 L28.88 55.33 L28.78 55.36 L28.77 55.25 L28.63 55.29 L28.58 55.24 L28.64 55.04 L28.51 55.03 L28.47 54.89 L28.5 54.77 L28.32 54.77 L28.35 54.57 L28.28 54.59 L28.23 54.5 L28.19 54.59 L28.17 54.53 L28.07 54.5 L28.1 54.44 L28.01 54.42 L28.04 54.35 L27.94 54.36 L27.85 54.27 L27.77 54.32 L27.76 54.49 L27.7 54.52 L27.65 54.5 L27.64 54.41 L27.57 54.39 L27.59 54.3 L27.75 54.21 L27.67 54.16 L27.78 53.97 L27.75 53.88 L27.81 53.81 L27.76 53.79 L27.66 53.87 L27.59 53.86 L27.61 53.79 L27.71 53.75 L27.7 53.63 L27.59 53.69 L27.65 53.51 L27.71 53.47 L27.65 53.39 L27.56 53.4 L27.6 53.26 L27.54 53.21 L27.56 53.16 L27.47 53.12 L27.54 53.06 L27.65 53.08 L27.63 53.03 L27.69 52.97 L27.62 52.79 L27.66 52.77 L27.62 52.74 L27.66 52.64 L27.59 52.69 L27.55 52.64 L27.6 52.6 L27.51 52.54 L27.56 52.46 L27.53 52.43 L27.66 52.31 L27.59 52.16 L27.47 52.1 L27.48 52.04 L27.42 52.06 L27.42 51.97 L27.18 51.92 L27.11 51.79 L27.19 51.74 L27.19 51.67 L26.99 51.57 L27.02 51.47 L26.85 51.46 L26.9 51.39 L27.01 51.39 L27.07 51.09 L27.02 50.96 L26.87 50.79 L26.88 50.74 L26.79 50.7 L26.87 50.62 L26.79 50.61 L26.71 50.47 L26.72 50.42 L26.79 50.46 L26.78 50.4 L26.82 50.42 L26.79 50.36 L26.85 50.25 L26.84 50.19 L26.73 50.18 L26.68 50.11 L26.71 50.05 L26.66 50.04 L26.68 49.95 L26.76 49.9 L26.7 49.83 L26.79 49.79 L26.63 49.79 L26.59 49.75 L26.56 49.83 L26.48 49.72 L26.49 49.67 L26.53 49.69 L26.56 49.55 L26.72 49.6 L26.72 49.45 L26.66 49.39 L26.77 49.29 L26.83 49.3 L26.85 49.18 L26.95 49.13 L26.94 49.08 L27.08 49.1 L27.13 49.06 L27.13 48.8 L26.98 48.53 L26.77 48.34 L26.61 48.39 L26.39 48.54 L26.42 48.17 L26.31 48.21 L26.2 48.1 L26.11 48.26 L26.08 48.18 L26.15 48.11 L26.14 47.94 L26.03 47.96 L26.02 48.1 L25.94 48.09 L25.98 47.98 L25.88 47.97 L25.82 47.89 L25.9 47.91 L25.9 47.86 L25.77 47.74 L25.86 47.7 L25.77 47.66 L25.79 47.57 L25.69 47.4 L25.8 47.41 L25.83 47.24 L25.8 47.15 L25.69 47.17 L25.64 47.23 L25.67 47.1 L25.6 47.12 L25.57 47.03 L25.63 46.97 L25.59 46.91 L25.64 46.9 L25.64 46.82 L25.68 46.82 L25.65 46.73 L25.74 46.72 L25.71 46.67 L25.8 46.67 L25.73 46.52 L25.93 46.49 L25.92 46.44 L26.27 46.46 L26.34 46.39 L26.36 46.27 L26.21 46.16 L25.92 46.25 L25.88 46.24 L25.92 46.11 L25.82 46.2 L25.79 46.19 L25.82 46.01 L25.76 46.01 L25.76 46.05 L25.69 46.01 L25.7 45.97 L25.77 45.97 L25.76 45.81 L25.81 45.87 L25.9 45.82 L25.87 45.61 L25.67 45.55 L25.69 45.63 L25.69 45.66 L25.57 45.51 L25.51 45.59 L25.45 45.57 L25.39 45.46 L25.42 45.36 L25.31 45.28 L25.3 45.22 L25.35 45.21 L25.32 45.14 L25.13 45.14 L25.17 45.21 L25.04 45.28 L24.98 45.15 L24.94 45.16 L24.93 45.24 L24.84 45.13 L24.81 45.05 L24.86 45.03 L24.82 44.98 L24.55 44.94 L24.42 45.04 L24.41 45.18 L24.45 45.18 L24.45 45.23 L24.38 45.26 L24.36 45.32 L24.26 45.29 L24.25 45.41 L24.19 45.36 L24.13 45.37 L24.2 45.21 L24.18 45.03 L24.06 45 L24.01 45.05 L23.96 44.99 L23.98 44.89 L23.92 44.87 L23.91 44.76 L23.81 44.68 L23.77 44.75 L23.62 44.72 L23.61 44.65 L23.72 44.6 L23.72 44.47 L23.68 44.43 L23.53 44.45 L23.59 44.4 L23.52 44.35 L23.56 44.31 L23.55 44.2 L23.65 44.24 L23.68 44.17 L23.6 43.9 L23.21 43.63 L23.13 43.62 L23.1 43.69 L23.04 43.69 L22.96 43.62 L22.86 43.65 L22.8 43.61 L22.79 43.52 L22.83 43.48 L22.79 43.32 L23.03 43.41 L23.04 43.29 L23.08 43.26 L23.16 43.28 L23.21 43.14 L23.26 43.13 L23.31 43.02 L23.44 42.97 L23.59 43.01 L23.7 42.96 L23.71 42.86 L23.76 42.88 L23.84 42.8 L23.83 42.56 L23.89 42.57 L23.87 42.37 L23.92 42.36 L23.99 41.88 L24.05 41.87 L24.03 41.7 L23.96 41.65 L24.03 41.6 L24.03 41.53 L23.95 41.3 L23.74 41.17 L23.79 41.04 L23.68 40.91 L23.41 40.76 L23.35 40.79 L23.31 40.62 L22.51 40.49 L22.05 40.52 L21.63 40.76 L21.48 40.94 L21.6 40.91 L21.54 40.97 L21.55 41.08 L21.75 41.19 L21.83 41.34 L21.74 41.55 L21.87 41.85 L21.88 42.06 L21.95 42.11 L21.93 42.29 L22.03 42.43 L22.03 42.57 L21.94 42.57 L21.93 42.67 L21.84 42.69 L21.66 42.46 L21.77 42.49 L21.77 42.38 L21.88 42.38 L21.87 42.29 L21.77 42.18 L21.59 42.17 L21.53 42.14 L21.53 42.08 L21.48 42.09 L21.41 41.97 L21.47 41.92 L21.45 41.8 L21.22 41.76 L21.18 41.66 L21.25 41.45 L21.13 41.51 L21.06 41.45 L21.06 41.36 L20.98 41.4 L20.96 41.36 L20.97 41.28 L21.17 41.2 L21.21 41.1 L21.09 41.11 L21.07 41.19 L21.02 41.19 L21.01 41.09 L20.82 41.14 L20.76 41.05 L20.66 41.05 L20.64 40.93 L20.55 40.84 L20.4 40.84 L20.41 40.78 L20.47 40.77 L20.39 40.72 L20.4 40.68 L20.47 40.64 L20.41 40.63 L20.38 40.53 L20.32 40.54 L20.3 40.5 L20.25 40.57 L20.18 40.54 L20.18 40.48 L20.32 40.38 L20.25 40.33 L20.27 40.16 L20.16 40.14 L20.16 40.03 L20.27 40.03 L20.39 40.19 L20.55 40.12 L20.55 40.27 L20.9 40.14 L20.96 40.15 L20.99 40.31 L21.11 40.37 L21.19 40.32 L21.41 40.38 L21.52 40.29 L21.77 39.68 L21.79 39.29 L21.72 38.99 L21.49 38.29 L21.09 37.77 L20.87 37.59 L20.39 37.45 L20.33 37.45 L20.21 37.58 L20.14 37.55 L20.18 37.48 L20.14 37.45 L19.97 37.59 L20.11 37.41 L20.05 37.36 L19.84 37.49 L19.84 37.57 L19.75 37.6 L19.56 37.43 L19.56 37.34 L19.44 37.2 L19.5 36.9 L19.29 36.55 L19.39 36.33 L19.43 36 L19.6 35.83 L19.69 35.86 L19.73 35.74 L19.81 35.74 L19.81 35.65 L19.74 35.51 L19.53 35.35 L19.27 35.22 L19.09 35.19 L18.94 35.07 L18.76 35.05 L18.7 34.99 L18.69 34.7 L18.94 34.84 L19.05 34.68 L19.08 34.49 L19.01 34.18 L19.63 34.17 L19.91 34.08 L20.39 33.77 L20.77 33.39 L20.8 32.87 L20.95 32.67 L21.03 32.31 L21.11 32.22 L21.21 31.77 L21.13 31.38 L21.01 30.97 L20.9 30.84 L20.9 30.74 L20.97 30.47 L21.06 30.38 L21.1 29.99 L21.3 29.46 L21.39 29.35 L21.57 28.94 L21.6 28.72 L22.01 28.2 L22.31 27.99 L22.62 27.88 L22.77 27.65 L22.99 27.55 L23.77 27.45 L24.08 27.46 L24.77 27.14 L25.44 26.95 L26.29 26.27 L26.57 26.15 L26.7 26.03 L26.95 25.98 L27.09 25.87 L27.31 25.85 L27.51 25.48 L27.76 25.36 L28.06 25.1 L28.2 25.09 L28.33 25.18 L28.48 25.19 L28.57 25.15 L28.67 24.9 L28.85 24.92 L28.95 24.85 L29.39 24.9 L29.65 24.82 L29.84 24.67 L30.05 24.76 L30.52 24.59 L31.36 24.65 L31.45 24.55 L31.67 24.48 L31.94 24.2 L32.63 23.76 L32.73 23.57 L32.7 23.33 L32.93 22.99 L32.94 22.81 L32.82 22.46 L32.71 22.31 L32.69 22.05 L32.52 21.84 L32.32 21.82 L32.25 21.53 L32.4 21.22 L32.41 21.11 L32.51 21.03 L32.57 20.84 L32.65 20.77 L32.69 20.59 L32.87 20.44 L32.95 20.28 L33.07 20.21 L33.12 20.07 L33.27 20.1 L33.57 19.89 L33.67 19.74 L33.68 19.46 L33.82 19.32 L33.93 19.31 L34.07 19.12 L34.1 18.63 L34.16 18.52 L34.26 18.48 L34.33 18.17 L34.63 17.57 L34.64 17.33 L34.6 17.17 L34.69 16.91 L34.71 16.62 L34.79 16.53 L34.62 16.38 L34.72 16.03 L34.68 15.78 L34.96 15.52 L35.13 15.52 L35.2 15.4 L35.38 15.25 L35.38 14.98 L35.53 14.9 L35.59 14.81 L35.41 14.5 L35.39 14.34 L35.21 14.24 L35.22 14.09 L35.38 13.94 L35.78 13.82 L36.04 13.46 L36.15 13.45 L36.26 13.2 L36.4 13.07 L36.64 13.08 L36.83 12.99 L36.98 12.74 L37.21 12.62 L37.51 12.36 L37.84 12.24 L37.84 12.02 L38.06 11.81 L38.31 11.39 L38.49 11.26 L39.18 11.15 L39.45 11.05 L39.54 10.91 L40.24 10.82 L40.35 10.73 L40.45 10.76 L40.58 10.65 L40.93 10.5 L41.04 9.78 L41.18 9.26 L41.35 8.99 L41.34 8.85 L41.41 8.77 L41.42 8.57 L41.48 8.48 L41.55 8.17 L41.65 8.13 L41.74 7.79 L41.84 7.68 L41.82 7.35 L42.03 6.87 L42.07 6.36 L42.12 6.32 L42.48 6.41 L42.69 6.26 L42.98 6.16 L43.13 6.29 L43.2 6.54 L43.56 6.91 L43.62 6.94 L43.81 6.72 L43.99 6.81 L44.14 7.01 L44.73 6.47 L44.87 6.59 L45.27 6.62 L45.3 6.82 L45.41 6.92 L45.72 6.84 L46.07 6.85 L46.24 6.76 L46.4 6.83 L46.69 6.84 L46.83 6.6 L47.02 6.68 L47.22 6.64 L47.61 6.71 L47.81 6.57 L48.09 6.48 L48.41 6.31 L48.68 6.38 L49.18 6.25 L49.42 6.08 L49.74 6 L49.75 6.33 L49.83 6.48 L50.21 6.59 L50.52 6.75 L50.62 6.93 L50.6 7.02 L50.42 7.35 L50.2 7.55 L50.06 7.79 L50.26 7.98 L50.49 8.09 L50.67 8.47 L50.88 8.5 L51.11 8.64 L51.11 8.77 L50.93 9 L51.02 9.24 L51.34 9.43 L51.93 9.61 L52.12 9.87 L52.27 10.21 L52.49 10.41 L52.03 10.92 L51.96 11.56 L52.3 11.75 L52.71 11.7 L52.98 11.84 L53.29 11.92 L53.43 12.18 L53.4 12.64 L53.69 12.79 L54.09 12.85 L54.26 13 L54.49 13.05 L54.67 13.55 L54.64 13.75 L54.77 13.92 L54.83 14.12 L54.99 14.17 L55.06 14.26 L55.07 14.35 L54.93 14.38 L54.92 14.43 L55.13 14.63 L55.38 14.6 L55.5 14.69 L55.55 15.07 L55.5 15.35 L55.53 15.39 L55.68 15.38 L55.72 15.56 L55.87 15.76 L55.79 16.02 L56.15 16.69 L56.19 17.05 L56.13 17.37 L56.42 17.69 L56.65 17.78 L56.79 17.94 L57.14 17.97 L57.2 18.32 L57.34 18.54 L57.34 18.71 L57.24 18.94 L57.35 19.28 L57.67 19.55 L58.31 19.79 L58.42 20.07 L58.7 20.16 L58.81 20.29 L58.9 20.3 L59.04 20.53 L59.16 20.61 L59.3 20.81 L59.62 20.68 L59.96 20.71 L60.06 20.8 L60.06 20.97 L59.97 21.04 L59.94 21.2 L60.08 21.37 L60.04 21.47 L60.19 21.74 L60.52 21.97 L60.52 22.28 L60.75 22.58 L60.76 22.72 L60.66 23.01 L60.67 23.33 L60.62 23.48 L60.65 23.59 L60.55 23.72 L60.56 23.95 L60.7 24.12 L60.89 24.23 L61.4 24.25 L61.59 24.35 L61.67 24.58 L61.6 24.65 L61.57 24.91 L61.86 25.4 L61.83 25.57 L61.9 25.73 L61.87 25.85 L62.03 26.01 L61.98 26.25 L62.02 26.49 L61.93 26.58 L61.98 26.78 L62.3 27.01 L62.47 27.2 L62.62 27.27 L62.62 27.44 L62.69 27.58 L62.74 27.87 L62.65 27.98 L62.72 28.03 L62.78 28.18 L63.26 28.45 L63.35 28.71 L63.45 28.82 L63.56 29.4 L63.93 29.85 L64.24 30.03 L64.24 30.15 L64.15 30.22 L64.15 30.51 L64.35 30.76 L64.24 30.99 L64.35 31.17 L64.33 31.32 L64.51 31.49 L64.56 31.82 L64.8 32.08 L64.87 32.08 L65.02 31.94 L65.18 32.06 L65.18 32.12 L65.32 32.3 L65.31 32.41 L65.6 32.62 L65.5 32.84 L65.56 33.04 L65.73 33.09 L65.77 33.44 L65.85 33.49 L65.99 33.45 L66.14 33.57 L66.29 33.58 L66.42 33.75 L66.37 33.81 L66.42 33.96 L66.3 34 L66.21 34.2 L66.6 34.37 L66.72 34.27 L66.77 34.27 L66.96 34.46 L67.29 34.62 L67.55 34.88 L67.72 34.92 L67.9 34.89 L67.98 34.97 L68.11 34.97 L68.46 35.11 L68.58 35.25 L68.53 35.49 L68.56 35.57 L68.7 35.62 L68.77 35.72 L68.94 35.74 L69.07 35.97 L69.21 35.97 L69.35 36.08 L69.5 36.13 L69.57 36.19 L69.58 36.38 L69.73 36.53 L69.98 36.66 L70.15 36.82 L70.23 37.05 L70.4 37.05 L70.51 36.98 L70.64 36.96 L70.78 37.18 L70.93 37.13 L71.1 37.19 L71.3 37.4 L71.75 37.29 L71.86 37.32 L72.22 37.48 L72.48 37.82 L72.57 37.85 L72.77 38.16 L72.9 38.24 L73.03 38.25 L73.57 38.61 L73.93 38.68 L74.17 38.63 L74.45 38.78 L74.6 38.76 L74.78 38.89 L75.1 38.92 L75.25 39.11 L75.73 39.16 L76.09 39.31 L76.06 39.43 L76.13 39.52 L76.3 39.6 L76.7 39.93 L76.71 40.21 L76.92 40.58 L77.55 41.17 L77.58 41.31 L77.75 41.53 L77.74 41.74 L77.94 42.33 L77.86 42.68 L77.99 42.92 L78 43.03 L77.57 43.55 L77.59 43.86 L77.43 44.25 L77.49 44.39 L77.45 44.51 L77.59 44.84 L77.55 45.27 L77.34 45.5 L77.03 46.24 L76.8 46.4 L76.63 46.23 L76.54 45.97 L76.42 45.86 L76.35 45.7 L76.06 45.52 L75.9 45.34 L75.52 45.28 L75.29 45.13 L75.27 44.81 L74.83 44.05 L74.64 43.23 L74.56 43.15 L74.38 43.19 L74.02 43.84 L74.06 44.02 L73.85 44 L73.65 44.06 L73.57 44.36 L73.66 44.52 L73.64 44.62 L73.23 45.12 L72.82 45.32 L72.81 45.58 L72.64 45.89 L72.65 46.1 L72.45 46.25 L72.42 46.37 L72.2 46.39 L72.06 46.51 L71.9 46.82 L71.91 47.09 L71.76 47.17 L71.59 47.4 L71.56 47.73 L71.74 48.14 L71.7 48.52 L71.62 48.68 L71.2 49.04 L71.06 49.44 L71.21 49.83 L71.49 50.26 L71.49 50.36 L71.41 50.48 L71.48 50.6 L71.43 50.79 L71.5 50.97 L71.47 51.11 L71.54 51.23 L71.32 51.54 L71.16 51.61 L71 51.76 L71.08 52.05 L71.01 52.28 L70.97 52.34 L70.78 52.3 L70.69 52.35 L70.55 52.31 L70.46 52.37 L70.33 52.32 L70.17 52.5 L70.11 52.84 L69.92 52.94 L69.95 53.34 L69.75 53.63 L69.46 53.71 L69.23 53.87 L69.15 54.05 L69.01 53.92 L68.84 53.88 L68.73 53.99 L68.68 54.13 L68.47 54.17 L68.3 54.37 L68.24 54.6 L68.13 54.66 L68.05 54.83 L68.14 55.16 L68.31 55.38 L68.35 55.58 L68.5 55.82 L68.72 56.39 L68.88 56.62 L68.93 56.86 L69.06 57.01 L69.29 57.14 L69.47 57.33 L69.65 57.55 L69.69 57.75 L69.86 57.81 L70.02 57.98 L70.14 57.94 L70.21 57.7 L70.2 57.33 L70.45 56.98 L70.96 56.98 L71.07 56.76 L71.27 56.7 L71.4 56.82 L71.59 57.23 L71.6 57.5 L71.91 57.81 L72.13 57.93 L72.28 58.31 L72.3 58.55 L72.48 58.54 L72.55 58.59 L72.6 58.74 L72.57 58.91 L72.59 59.53 L72.77 60.07 L73.25 60.68 L73.53 61.38 L73.48 61.55 L73.52 61.65 L73.61 61.81 L73.71 61.84 L73.8 61.94 L73.92 62.22 L73.93 62.41 L74.14 62.54 L74.3 62.99 L74.44 63.08 L74.48 63.29 L74.37 63.43 L74.45 63.75 L74.82 63.93 L75.28 64.58 L75.27 64.84 L75.17 65.16 L74.94 65.45 L75.01 65.69 L74.97 66.11 L74.48 66.16 L74.24 66.37 L73.98 66.42 L73.99 66.86 L74.12 67.66 L73.88 67.77 L73.69 67.71 L73.53 67.78 L73.43 68.13 L73.33 68.23 L73.33 68.37 L73.18 68.55 L73.17 68.73 L73.12 68.83 L73.08 69.37 L72.74 69.42 L72.4 69.36 L72.19 69.5 L72.38 71.22 L72.24 71.57 L72.34 71.78 L72.35 71.98 L72.17 72.67 L72.25 72.87 L72.4 72.95 L72.49 73.09 L72.57 73.52 L72.46 73.69 L72.49 74.08 L72.18 74.35 L72.01 74.27 L71.52 74.36 L71.44 74.58 L71.28 74.67 L71.12 74.68 L71.03 74.83 L70.78 74.93 L70.72 75.09 L70.63 75.16 L70.39 75.14 L70.22 74.92 L69.91 74.89 L69.8 74.77 L69.65 74.75 L69.61 74.54 L69.49 74.5 L69.37 74.64 L69.33 75.26 L69.26 75.29 L69.2 75.5 L69.12 75.51 L69.04 75.63 L68.9 75.7 L68.84 75.88 L68.42 76.06 L68.38 76.14 L68.2 76.1 L68.15 76.22 L67.99 76.27 L67.68 76.1 L67.41 76.19 L67.33 76.48 L67.14 76.8 L66.97 76.89 L66.88 76.85 L66.85 76.89 L66.84 77.25 L66.63 77.5 L66.19 77.84 L66.22 78.04 L66.16 78.24 L66 78.31 L65.94 78.43 L65.68 78.67 L65.65 78.77 L65.35 78.92 L65.17 79.36 L64.99 79.49 L64.91 79.68 L64.56 79.82 L64.23 80.09 L64.14 80.61 L64.3 80.73 L64.4 80.93 L64.44 81.37 L64.31 81.67 L64.02 81.91 L64.03 82.18 L63.96 82.32 L63.8 82.43 L63.8 82.6 L63.73 82.74 L63.52 82.84 L63.18 82.85 L62.84 82.74 L62.66 82.57 L62.34 82.53 L62.15 82.62 L61.9 82.54 L61.39 82.71 L61.32 82.99 L61.21 82.99 L61.03 82.88 L60.81 82.94 Z M31.52 62.63 L31.52 62.67 L31.41 62.74 L31.4 62.59 L31.52 62.63 Z M31.52 62.13 L31.55 62.19 L31.51 62.21 L31.47 62.12 L31.49 62.09 L31.52 62.13 Z M31.15 61.9 L31.09 61.87 L31.09 61.8 L31.16 61.79 L31.15 61.9 Z M29.73 57.3 L29.68 57.3 L29.69 57.21 L29.74 57.22 L29.73 57.3 Z M29.55 56.61 L29.52 56.63 L29.44 56.58 L29.55 56.57 L29.55 56.61 Z M27.54 53.86 L27.56 53.9 L27.51 53.96 L27.49 53.81 L27.53 53.79 L27.54 53.86 Z M27.57 53.68 L27.52 53.74 L27.52 53.62 L27.43 53.66 L27.4 53.65 L27.55 53.54 L27.57 53.68 Z M27.06 51.83 L27.11 51.84 L27.1 51.89 L27.03 51.85 L27.02 51.79 L27.06 51.83 Z M25.42 46.71 L25.45 46.84 L25.41 46.92 L25.23 46.98 L25.2 46.9 L25.23 46.68 L25.37 46.62 L25.42 46.71 Z M24.7 45.59 L24.84 45.8 L24.7 45.82 L24.71 45.9 L24.66 45.93 L24.49 45.92 L24.42 45.81 L24.52 45.72 L24.64 45.76 L24.66 45.67 L24.6 45.56 L24.7 45.59 Z M20.04 39.67 L20.24 39.77 L20.27 39.97 L20.08 39.86 L19.99 39.89 L19.85 39.78 L19.84 39.71 L19.91 39.64 L20.04 39.67 Z M19.91 39.37 L19.89 39.49 L19.83 39.53 L19.79 39.43 L19.86 39.33 L19.91 39.37 Z M19.89 37.74 L20 37.83 L19.92 37.9 L19.97 38.05 L19.92 38.09 L19.97 38.15 L20.02 38.33 L20.1 38.41 L20.09 38.49 L19.97 38.51 L19.95 38.63 L19.84 38.58 L19.81 38.47 L19.65 38.3 L19.79 38.09 L19.76 37.96 L19.81 37.75 L19.76 37.7 L19.8 37.67 L19.82 37.73 L19.89 37.74 Z M18.17 35.74 L18.12 35.82 L18.25 35.97 L18.21 36.08 L18.4 36.45 L18.14 36.41 L18.1 36.32 L18.15 36.2 L18.01 36.14 L18.05 35.93 L18 35.7 L18.14 35.65 L18.19 35.67 L18.17 35.74 Z M18.95 35.39 L18.92 35.35 L19.01 35.35 L19.01 35.39 L18.95 35.39 Z" /></svg>