<svg xmlns="http://www.w3.org/2000/svg" viewBox="0 0 96 96"><path fill="#efd0a0" fill-rule="evenodd" d="M34.4 23.2 L34.59 23.17 L35.15 22.66 L34.98 21.98 L35.58 21.19 L35.56 20.54 L35.86 20.25 L36.59 20.38 L36.69 20.47 L36.49 20.89 L36.82 21.15 L36.75 21.59 L36.97 21.72 L37.22 22.03 L37.63 22.06 L37.97 21.66 L38.09 21.37 L38.47 21.29 L38.39 20.79 L38.64 20.57 L38.77 20.61 L38.91 20.93 L39.4 21.34 L39.46 21.49 L39.83 21.51 L39.97 21.44 L40.05 21.28 L40.27 21.27 L40.39 21.4 L40.55 21.88 L40.88 21.93 L41.32 21.67 L41.44 21.73 L41.93 21.66 L42.28 21.42 L42.49 21.44 L42.61 21.39 L43.36 20.22 L43.63 20.34 L43.91 20.29 L44.4 20.77 L44.73 20.88 L44.85 20.73 L45.16 20.64 L45.27 20.31 L45.4 20.14 L45.63 20.13 L45.86 19.83 L46 19.8 L46.08 19.55 L46.38 19.32 L46.39 19.15 L46.55 19.04 L46.95 19.13 L47.32 19.02 L47.78 19.12 L48.19 18.94 L48.89 18.82 L49.35 18.93 L49.69 18.87 L49.72 19.05 L49.83 19.1 L50.06 19.01 L50.35 19.07 L50.48 19.47 L50.63 19.67 L50.59 20.08 L50.81 20.35 L50.95 20.41 L51.22 20.28 L51.4 20.37 L51.8 20.37 L52.07 20.57 L53 20.87 L53.48 20.6 L53.76 20.78 L54.09 20.84 L54.48 20.64 L54.7 20.7 L54.88 20.63 L55.08 20.65 L55.25 20.89 L54.95 21.86 L54.95 22.07 L55.08 22.23 L55.36 22.39 L55.56 22.4 L55.89 22.16 L56.14 21.79 L56.73 21.89 L57.03 22.27 L57.26 23.09 L57.84 23.17 L58.32 23.58 L58.6 23.43 L58.77 23.47 L59.12 23.9 L59.54 24.11 L59.66 24.34 L59.55 24.47 L59.71 24.72 L60.32 25.01 L60.58 25.02 L60.89 25.34 L61 25.33 L61.13 25.1 L61.73 24.96 L62.05 25.21 L62.03 25.5 L62.28 25.7 L62.34 26.02 L62.58 26.27 L63.17 26.33 L63.55 26.46 L64.24 26.94 L64.96 27.15 L67.86 27.38 L68.04 27.45 L68.1 27.65 L68.34 27.78 L68.82 27.78 L69.04 27.97 L69.25 28 L69.39 28.16 L69.43 28.49 L69.51 28.58 L69.65 28.6 L70.06 28.43 L70.67 28.42 L70.88 28.5 L70.93 28.71 L71.33 29 L71.92 29.23 L72.66 29.25 L72.84 29.69 L73.43 30.1 L73.55 30.41 L73.7 30.56 L73.7 30.95 L73.77 31.13 L73.48 31.46 L73.56 31.76 L74.2 31.98 L74.47 31.97 L74.67 31.87 L75.05 32.04 L75.81 32.81 L75.96 32.89 L76.14 32.85 L76.44 32.91 L76.71 33.21 L77.6 33.53 L77.64 33.6 L77.56 33.84 L77.76 34.03 L78.45 33.82 L78.46 33.49 L78.82 33.17 L79.17 33.21 L79.39 32.9 L79.94 32.96 L80.12 32.82 L80.22 32.85 L80.31 32.92 L80.33 33.11 L80.69 33.33 L80.76 33.34 L80.77 33.22 L80.93 33.06 L80.99 33.17 L80.93 33.55 L81.55 33.9 L81.68 34.4 L81.47 34.54 L81.58 34.72 L81.71 34.68 L81.94 34.84 L82.25 34.83 L82.74 34.99 L83.08 35.27 L83.53 35.8 L83.89 35.79 L84.08 35.71 L84.61 35.89 L84.78 36.1 L84.79 36.35 L85.18 36.72 L85.17 36.99 L85.47 37.38 L85.69 37.37 L86.09 37.56 L86.3 37.87 L86.26 38.1 L86.51 38.54 L86.5 38.72 L86.63 38.84 L86.77 39.17 L86.79 39.35 L87.04 39.36 L87.32 39.87 L87.41 40.64 L87.55 40.84 L87.48 40.96 L88.01 41.84 L88 41.97 L88.11 42.07 L88.06 42.24 L88.12 42.36 L88.36 42.35 L88.55 42.46 L88.73 43.32 L89.14 43.75 L89.46 43.95 L89.64 44.33 L89.78 44.41 L89.81 44.8 L89.68 45.21 L89.76 45.45 L89.68 45.56 L89.66 45.9 L89.56 46.04 L89.72 46.31 L89.63 46.54 L89.64 47.06 L89.86 47.48 L89.87 48 L89.98 48.29 L89.9 48.41 L89.96 48.55 L89.89 48.72 L90 48.95 L89.93 49.18 L89.72 49.29 L89.71 49.51 L89.45 49.84 L89.44 50.63 L89.22 51.24 L89.51 51.56 L89.37 51.94 L89.58 52.52 L89.69 52.64 L89.57 52.92 L89.44 52.96 L89.39 53.17 L89.51 53.39 L89.73 53.54 L89.75 53.76 L89.6 53.83 L89.61 54.01 L89.49 54.11 L89.53 54.31 L89.28 54.45 L89.14 54.7 L88.96 54.77 L88.54 55.21 L88.32 55.29 L88.21 55.66 L88.03 55.73 L87.98 55.82 L87.99 56.01 L88.21 56.61 L88.51 56.85 L88.56 57.17 L88.8 57.37 L88.34 57.52 L88.17 57.79 L87.91 58.01 L87.76 58.47 L87.37 58.72 L86.98 59.19 L86.55 59.56 L86.02 59.87 L85.9 59.87 L85.71 59.68 L85.27 59.8 L84.82 60.07 L84.39 60.58 L84.46 61.21 L84.35 61.52 L84.03 61.87 L83.69 61.95 L83.64 62.35 L83.13 62.45 L82.77 62.72 L82.71 63.18 L82.31 63.32 L82.28 63.48 L82.05 63.6 L81.9 64.03 L81.21 64.01 L81.19 64.57 L80.77 65.72 L80.83 66.34 L80.76 66.5 L80.07 66.68 L79.71 66.66 L79.5 66.8 L79.22 66.86 L78.64 66.9 L78.58 67.04 L78.83 67.36 L78.85 67.5 L78.42 67.75 L78.11 67.75 L77.85 68.1 L77.55 68.28 L77.19 68.22 L76.42 67.62 L75.8 68.03 L75.44 68.55 L75.37 68.69 L75.47 69.25 L75.33 69.51 L74.52 69.51 L74.2 70.01 L73.88 70.29 L73.48 70.33 L72.67 70.21 L71.79 70.2 L71.78 70.59 L71.61 70.89 L71.34 71.12 L70.92 71.17 L70.74 71.54 L69.39 72.63 L69.25 73.22 L69.03 73.39 L68.83 73.36 L68.84 73.44 L69.29 74.11 L69.65 74.37 L69.77 74.63 L69.77 74.89 L70.06 75.03 L70.18 75.21 L70.4 75.26 L70.49 75.73 L70.82 75.99 L70.82 76.46 L70.68 76.6 L70.63 76.86 L70.72 77.66 L70.36 78.6 L70.08 78.45 L69.76 78.78 L68.81 78.73 L68.48 79.07 L67.82 78.87 L66.98 79.22 L66.62 79.24 L66.47 79.39 L66.17 79.39 L65.32 79.84 L64.96 80.44 L65.03 80.77 L64.71 81.04 L64.59 81.04 L64.52 80.98 L64.52 80.78 L64.23 80.53 L64.37 79.94 L64.09 79.79 L64.04 79.55 L63.76 79.3 L63.25 79.3 L62.74 78.98 L62.05 78.91 L61.35 79.3 L60.97 79.3 L60.62 79.42 L60.06 79.89 L59.69 79.42 L59.01 79.48 L58.72 79.32 L58.52 79.31 L58.44 78.75 L58.58 78.41 L58.44 78.17 L58.43 77.79 L58.06 77.94 L57.73 77.8 L57.53 78.1 L56.93 78.59 L56.37 78.75 L55.94 78.57 L55.45 78.09 L55.34 78.3 L54.99 78.6 L54.78 78.96 L54.71 79.26 L53.6 80.53 L53.71 80.96 L53.52 81.16 L53.41 81.42 L53.43 81.94 L53.36 82.24 L52.79 83.2 L52.54 82.93 L52.53 82.46 L52.33 82.22 L52.41 81.95 L52.37 81.79 L52.2 81.62 L51.96 81.6 L51.91 80.97 L51.82 80.78 L51.37 80.82 L50.98 80.7 L50.76 80.46 L49.72 80.26 L49.45 79.7 L49.01 79.88 L48.75 80.19 L48.6 80 L47.72 79.6 L47.39 79.01 L46.93 78.44 L46.95 78.23 L47.11 78.08 L47.03 77.91 L47.04 77.58 L46.39 77.32 L45.84 77.83 L45.5 77.83 L44.93 77.16 L44.75 77.15 L44.63 77.01 L44.21 77.03 L43.64 76.71 L43.64 77.76 L43.81 78.09 L43.65 78.24 L43.62 78.38 L43.34 78.53 L42.92 78.54 L42.68 78.81 L41.93 78.29 L41.53 78.3 L41.31 78.15 L41.06 78.12 L40.96 78.37 L40.79 78.49 L40.89 78.69 L40.84 78.86 L40.72 78.99 L40.49 79.04 L40.71 79.44 L40.72 79.74 L40.61 79.95 L40.41 80.08 L39.96 79.95 L40.12 79.58 L40.08 79.49 L39.42 79.56 L38.9 79.49 L38.51 79.2 L38.48 79.37 L38.07 79.59 L37.46 79.74 L37.27 79.73 L36.72 80.73 L35.77 80.68 L35.43 80.47 L34.98 80.86 L34.46 80.92 L34.18 81.09 L33.96 81.05 L33.81 80.87 L33.42 80.97 L32.23 82.2 L32.13 82.13 L31.96 81.62 L31.28 81.29 L31.21 81.18 L30.28 81.22 L29.65 80.77 L29.23 80.6 L29.17 80.48 L29.17 80.15 L28.89 79.63 L28.72 79.55 L28.62 79.38 L28.33 79.88 L28.27 80.34 L27.76 80.63 L27.29 81.23 L26.9 82.47 L26.72 83.47 L26.51 83.73 L26.19 83.71 L25.16 84.37 L24.47 85.29 L24.34 85.81 L24.38 85.97 L24.22 86.13 L24.2 86.33 L24.08 86.45 L23.89 86.96 L23.62 86.88 L23.05 87.08 L22.9 87.05 L22.54 86.76 L22.28 86.42 L21.8 86.25 L21.57 86.27 L21.53 85.89 L21.37 85.77 L21.36 85.63 L21.27 85.62 L21.26 85.51 L20.93 85.16 L20.69 85.06 L20.24 85.22 L20.04 85.2 L19.85 85.05 L19.75 84.81 L19.76 84.61 L19.2 83.96 L19.3 83.43 L19.26 83.13 L19.34 82.97 L19.25 82.67 L19.34 82.46 L19.33 82.25 L19.29 82.06 L19.08 81.97 L19.06 81.82 L18.94 81.7 L19.03 81.61 L19.03 81.4 L18.82 81.36 L18.66 81.06 L18.67 80.98 L18.82 80.94 L18.93 80.78 L18.74 80.46 L18.82 80.34 L18.75 80.19 L18.96 80.13 L18.89 80.02 L18.91 79.83 L19.03 79.7 L19.48 79.54 L19.89 79.52 L20.37 79.19 L21.06 79.34 L21.54 79.36 L21.42 78.87 L21.76 78.24 L21.8 77.66 L21.6 77.13 L21.33 76.75 L20.7 74.84 L21.06 74.43 L21.36 74.36 L21.69 74.13 L21.76 73.34 L21.93 73.12 L21.64 72.79 L21.29 72.6 L21.23 71.74 L20.71 71.38 L20.67 71.15 L20.52 70.97 L20.62 70.66 L20.18 70.27 L19.71 70.13 L19.84 69.7 L19.85 69.37 L19.53 69.31 L19.33 69.18 L19.09 69.19 L18.9 68.95 L18.72 68.4 L18.83 67.97 L18.53 67.56 L18.43 67.19 L18.45 67.13 L18.8 67.13 L19.34 66.93 L19.51 66.79 L19.73 66.43 L19.75 65.38 L20 65.19 L20.04 64.85 L20.38 64.71 L20.64 64.38 L20.8 63.82 L20.9 62.95 L21.1 62.49 L21.46 62.17 L21.58 61.64 L21.54 61.39 L21.72 60.26 L21.43 59.98 L21.45 59.82 L21.36 59.74 L21.37 59.55 L21.29 59.38 L21.38 59.25 L21.34 59.14 L21.4 58.98 L21.18 58.38 L20.94 58.33 L20.92 58.04 L20.71 57.93 L20.61 57.77 L20.47 57.76 L20.44 57.62 L20.24 57.48 L20.14 56.9 L20 56.88 L19.8 56.68 L19.63 56.06 L19.54 55.9 L19.44 55.87 L19.39 55.67 L19.24 55.58 L19.23 55.41 L18.86 54.63 L18.67 54.56 L18.59 54.35 L18.65 54.23 L18.52 54.12 L18.4 53.28 L18.23 53 L18.23 52.86 L17.93 52.77 L17.41 52.05 L17.23 52.03 L17.17 51.89 L17.06 51.89 L17.16 51.67 L17.03 51.58 L16.9 51.27 L16.97 51.11 L16.79 50.77 L16.71 50.4 L16.39 49.99 L16.5 49.68 L16.63 49.57 L16.55 49.09 L16.73 48.86 L16.72 48.68 L16.64 48.65 L16.67 48.48 L16.58 48.43 L16.51 48.09 L16.34 47.93 L16.36 47.43 L16.15 47.29 L16.16 47.16 L16.05 47.04 L15.59 46.69 L15.59 45.97 L15.32 45.42 L15.29 45.18 L14.99 44.92 L14.9 44.46 L14.75 44.2 L13.99 43.85 L13.67 43.49 L13.46 42.74 L13.16 42.31 L13.24 41.59 L13.21 41.35 L13.09 41.12 L13.13 40.94 L13.02 40.57 L12.26 39.98 L12.03 39.66 L11.86 39.58 L11.56 39.06 L11.28 38.32 L10.86 37.7 L10.97 37.29 L10.85 36.81 L10.65 36.62 L10.97 36.32 L11.26 36.2 L11.43 36.29 L11.6 36.28 L11.83 36.21 L12.17 35.98 L12.55 36.07 L13.18 35.98 L13.53 35.81 L13.47 35.48 L13.6 35.45 L13.7 35.54 L14.28 35.45 L14.28 35.22 L13.83 34.77 L13.4 34.58 L12.84 33.9 L12.37 34.03 L12.24 33.93 L12.15 33.68 L12.27 33.32 L12.21 33.16 L11.83 32.78 L11.71 32.91 L11.56 32.88 L11.47 32.66 L11.59 32.19 L11.33 32.11 L10.88 31.6 L10.68 31.63 L10.39 31.54 L10.23 31.33 L10.04 31.23 L9.82 31.29 L9.67 31.14 L9.22 31.19 L8.95 30.86 L8.66 30.96 L8.52 30.94 L8.32 30.16 L7.86 29.61 L8.36 29.18 L8.4 29.04 L8.28 28.57 L8.09 28.25 L8.16 28.08 L7.95 27.84 L7.89 27.59 L7.89 27.2 L8.08 26.97 L7.94 26.48 L7.78 26.21 L7.78 25.86 L7.62 25.37 L7.46 25.16 L7.57 24.78 L7.41 24.56 L7.45 24.45 L7.23 24.09 L7.17 23.7 L6.95 23.27 L6.6 22.95 L6.62 22.52 L6.4 22.29 L6.53 22.01 L6.86 21.73 L6.83 21.52 L6.94 21.23 L6.69 20.84 L6.52 20.79 L6.38 20.5 L6.5 20.4 L6.2 19.94 L6.26 19.83 L6.06 19.76 L6 19.65 L6.14 19.26 L6.44 18.92 L6.44 18.36 L6.6 18.11 L6.56 17.87 L6.71 17.72 L6.75 17.37 L6.88 17.11 L6.82 16.84 L6.9 16.63 L6.72 16.34 L6.9 16.18 L7.11 16.12 L7.24 15.8 L7.48 15.75 L7.63 15.61 L7.83 15.66 L7.94 15.54 L7.84 15.36 L7.86 15.15 L7.59 14.93 L7.47 14.66 L7.13 14.23 L7.26 13.87 L7.2 13.67 L6.99 13.55 L7.04 13.15 L7.15 12.94 L7.08 12.54 L7.6 12.24 L7.53 12.11 L7.66 12.04 L7.78 11.76 L7.76 11.46 L7.85 11.27 L7.8 10.99 L7.87 10.93 L8.21 10.98 L8.27 10.4 L8.62 10.16 L8.54 9.99 L8.83 9.93 L9.47 9.56 L9.54 9.4 L9.45 9.16 L9.5 9.1 L10.32 8.92 L10.78 9.11 L10.95 9.07 L11.47 9.5 L11.59 10.01 L11.56 10.19 L11.01 10.81 L11.14 11.04 L11.1 11.13 L11.26 11.32 L11.28 11.75 L11.45 12.25 L11.18 12.97 L11.63 13.06 L11.55 13.32 L11.61 13.47 L12.59 13.51 L12.79 13.33 L12.99 13.34 L13.12 13.72 L13.27 13.71 L13.49 13.85 L13.49 14.11 L13.62 14.13 L13.8 14.03 L14.09 14.24 L14.6 14.1 L14.72 14.3 L14.74 14.47 L14.89 14.63 L14.97 14.67 L15.13 14.61 L15.6 14.92 L15.68 15.1 L15.86 15.24 L15.9 15.44 L16.35 15.67 L16.4 15.94 L16.87 16.06 L17.04 16.03 L17.2 16.42 L17.32 16.42 L17.55 16.24 L17.79 16.35 L18.12 16.8 L18.45 16.68 L18.81 16.76 L18.89 16.87 L18.78 17.36 L18.91 17.88 L19.39 17.91 L19.58 18.06 L19.92 17.91 L20.21 17.93 L20.3 17.98 L20.41 18.26 L20.88 18.4 L20.98 18.85 L21.21 19.04 L21.33 19.05 L21.74 18.82 L22.13 19.05 L22.28 19.23 L22.48 19.89 L22.7 20.28 L22.71 20.6 L23 21.06 L23.16 21.04 L23.34 21.15 L23.53 20.99 L23.85 21.19 L24.02 21.19 L24.11 21.07 L24.43 20.98 L24.72 21.09 L25.12 21.02 L25.34 21.16 L25.41 21.37 L25.57 21.39 L25.72 21.31 L25.89 21.38 L26.07 21.26 L26.19 21.27 L26.6 21.68 L27.29 21.47 L28.25 21.59 L28.32 21.38 L28.43 21.31 L29.22 21.25 L29.39 21.5 L29.83 21.69 L29.87 21.81 L29.8 21.99 L29.83 22.13 L29.98 22.28 L30.52 22.22 L30.84 21.78 L31.12 21.86 L31.33 22.07 L31.77 22.27 L32.26 22.23 L33.25 22.79 L33.88 22.69 L34.09 23.02 L34.4 23.2 Z" /></svg>