<svg xmlns="http://www.w3.org/2000/svg" viewBox="0 0 96 96"><path fill="#efd0a0" fill-rule="evenodd" d="M69.57 71.88 L69.46 71.82 L69.38 71.71 L69.17 71.58 L69.01 71.4 L68.91 71.35 L68.68 71.05 L68.63 71.04 L68.59 70.96 L68.51 70.9 L68.3 70.59 L68.24 70.57 L68.23 70.52 L68.05 70.3 L67.83 70.09 L67.48 69.83 L66.39 69.22 L66.22 69.14 L66.14 69.15 L66.07 69.03 L66.01 69.03 L66.02 68.97 L65.98 68.93 L65.93 68.96 L65.84 68.93 L65.8 68.95 L65.8 68.91 L65.75 68.91 L65.76 68.88 L65.69 68.87 L65.68 68.83 L65.66 68.83 L65.65 68.87 L65.54 68.85 L65.53 68.9 L65.44 68.86 L65.31 68.89 L65.27 68.86 L65.18 68.96 L65.09 68.89 L65 68.92 L64.97 68.87 L64.89 68.85 L64.87 68.82 L64.8 68.87 L64.77 68.8 L64.66 68.74 L64.56 68.75 L64.51 68.8 L64.45 68.78 L64.43 68.82 L64.32 68.78 L64.31 68.82 L64.36 68.86 L64.33 68.89 L64.23 68.82 L64.25 68.79 L64.21 68.8 L64.26 68.7 L64.23 68.58 L64.31 68.58 L64.3 68.49 L64.4 68.41 L64.37 68.35 L64.31 68.33 L64.29 68.25 L64.23 68.28 L64.18 68.22 L64.19 68.15 L64.11 68.13 L64.05 68.05 L64.03 67.98 L64.11 67.89 L64.03 67.9 L63.96 67.84 L63.96 67.87 L63.91 67.86 L63.85 67.93 L63.79 67.9 L63.78 67.79 L63.64 67.83 L63.58 67.78 L63.59 67.76 L63.53 67.74 L63.6 67.62 L63.53 67.67 L63.43 67.64 L63.41 67.56 L63.28 67.54 L63.22 67.47 L63.19 67.36 L63.24 67.32 L63.23 67.28 L63.16 67.27 L63.04 67.31 L62.91 67.18 L62.88 67.24 L62.8 67.24 L62.83 67.15 L62.79 67.14 L62.79 67.09 L62.83 67.01 L62.78 67.05 L62.7 67.04 L62.6 67.07 L62.57 67 L62.64 66.98 L62.58 66.92 L62.51 66.9 L62.51 66.81 L62.48 66.83 L62.42 66.81 L62.4 66.71 L62.43 66.71 L62.31 66.58 L62.09 66.51 L62.04 66.52 L62.01 66.45 L61.92 66.54 L61.86 66.54 L61.77 66.43 L61.72 66.42 L61.7 66.34 L61.59 66.25 L61.52 66.22 L61.43 66.28 L61.39 66.22 L61.28 66.24 L61.13 66.13 L61.08 66.03 L61.06 66.06 L61.02 66.04 L61.01 66 L60.99 66.03 L60.88 66.02 L60.9 66.1 L60.82 66.17 L60.76 66.14 L60.74 66.09 L60.78 66.03 L60.73 65.91 L60.74 65.85 L60.71 65.82 L60.74 65.78 L60.7 65.77 L60.69 65.69 L60.76 65.73 L60.78 65.72 L60.69 65.68 L60.66 65.56 L60.61 65.53 L60.63 65.38 L60.69 65.34 L60.66 65.18 L60.62 65.13 L60.66 65.1 L60.64 65.05 L60.62 65.04 L60.61 65.08 L60.57 65.08 L60.44 64.96 L60.46 64.93 L60.4 64.91 L60.39 64.86 L60.33 64.86 L60.3 64.77 L60.34 64.73 L60.27 64.63 L60.21 64.64 L60.17 64.61 L60.15 64.65 L60.09 64.59 L60.1 64.66 L60.03 64.64 L59.96 64.48 L59.89 64.42 L59.94 64.36 L59.89 64.35 L59.85 64.27 L59.71 64.23 L59.71 64.17 L59.64 64.15 L59.62 64.09 L59.63 64.02 L59.55 64.02 L59.47 63.92 L59.43 63.92 L59.31 63.8 L59.28 63.74 L59.22 63.81 L59.16 63.82 L59.09 63.78 L59.11 63.67 L59.09 63.57 L59.07 63.64 L58.98 63.68 L58.89 63.67 L58.84 63.57 L58.7 63.6 L58.69 63.63 L58.6 63.61 L58.5 63.47 L58.49 63.36 L58.36 63.3 L58.28 63.31 L58.25 63.29 L58.18 63.1 L58.2 63.07 L58.12 63.06 L58.03 62.98 L57.96 62.98 L57.92 62.95 L57.92 62.91 L57.88 62.95 L57.85 62.94 L57.85 62.86 L57.69 62.77 L57.66 62.67 L57.64 62.69 L57.49 62.64 L57.48 62.58 L57.35 62.59 L57.02 62.53 L55.96 62.22 L55.36 62.11 L55.24 62.05 L55.17 62.07 L55.05 62.01 L54.9 62 L54.52 61.89 L52.35 61.61 L51.43 61.26 L50.82 60.84 L50.63 60.65 L49.81 59.93 L49.05 59.41 L48.75 59.23 L48.62 59.18 L48.38 59.01 L48.29 59.03 L48.21 59.01 L48.16 59.03 L48.1 58.99 L48.02 59.01 L47.92 58.95 L47.85 58.99 L47.76 58.94 L47.7 58.98 L47.65 58.93 L47.57 58.96 L47.54 59.01 L47.47 58.99 L47.44 58.95 L47.38 58.99 L47.34 58.96 L47.34 58.91 L47.28 58.9 L47.27 58.96 L47.09 58.96 L47.03 58.93 L46.99 58.84 L46.87 58.86 L46.81 58.8 L46.71 58.77 L46.65 58.83 L46.57 58.86 L46.26 58.67 L46.15 58.69 L46.15 58.65 L46.12 58.66 L46.1 58.63 L45.84 58.64 L45.74 58.59 L45.75 58.46 L45.73 58.42 L45.67 58.42 L45.64 58.35 L45.54 58.32 L45.54 58.29 L45.44 58.3 L45.37 58.19 L45.22 58.15 L45.19 58.1 L45.01 57.97 L44.8 57.77 L44.67 57.71 L44.62 57.75 L44.51 57.75 L44.42 57.73 L44.35 57.67 L44.28 57.7 L44.24 57.7 L44.25 57.66 L44.2 57.68 L44.15 57.58 L44.05 57.57 L43.98 57.48 L43.84 57.43 L43.87 57.38 L43.81 57.35 L43.81 57.26 L43.76 57.24 L43.79 57.22 L43.74 57.19 L43.7 57.1 L43.46 57.04 L43.43 57.1 L43.39 57.11 L43.33 57.07 L43.3 57 L43.25 57.01 L43.2 56.95 L43.06 56.99 L43.06 56.96 L43.01 56.95 L43 56.92 L42.92 56.92 L42.89 56.82 L42.85 56.82 L42.73 56.7 L42.5 56.7 L42.47 56.73 L42.54 56.81 L42.53 56.87 L42.47 56.84 L42.39 56.89 L42.39 56.94 L42.27 56.93 L42.26 56.96 L42.18 56.97 L42.14 56.97 L42.17 56.89 L42 56.8 L41.92 56.83 L41.9 56.88 L41.78 56.83 L41.74 56.92 L41.71 56.85 L41.64 56.84 L41.67 56.76 L41.65 56.72 L41.55 56.68 L41.47 56.72 L41.43 56.63 L41.35 56.68 L41.33 56.66 L41.2 56.69 L41.19 56.74 L41.14 56.73 L41.12 56.79 L41.03 56.79 L41.03 56.64 L40.98 56.64 L41 56.57 L40.95 56.59 L40.95 56.49 L40.9 56.44 L40.95 56.42 L40.87 56.33 L40.8 56.31 L40.77 56.24 L40.78 56.14 L40.83 56.11 L40.84 56.07 L40.8 56.01 L40.77 56.01 L40.78 55.99 L40.74 55.98 L40.74 55.94 L40.87 55.83 L40.86 55.72 L40.82 55.64 L40.75 55.66 L40.74 55.63 L40.67 55.62 L40.62 55.5 L40.39 55.39 L40.15 55.23 L39.91 55.13 L39.79 55.12 L39.61 55.02 L39.56 55.03 L39.49 54.95 L39.37 54.96 L39.15 54.89 L39.09 54.89 L39.06 54.84 L38.95 54.8 L38.81 54.7 L38.67 54.67 L38.61 54.61 L38.32 54.5 L38.05 54.43 L37.9 54.33 L37.72 54.28 L37.51 54.36 L37.5 54.32 L37.44 54.3 L37.31 54.41 L37.26 54.39 L37.21 54.32 L37.12 54.3 L37.05 54.2 L36.9 54.17 L36.57 53.99 L36.37 53.96 L36.33 53.87 L36.28 53.84 L36.09 53.81 L35.85 53.72 L35.76 53.6 L35.73 53.62 L35.72 53.72 L35.66 53.7 L35.6 53.74 L35.56 53.7 L35.2 53.55 L35.04 53.59 L34.93 53.54 L34.88 53.55 L34.85 53.47 L34.67 53.37 L34.29 53.32 L34.21 53.37 L34.2 53.41 L34.14 53.38 L34.11 53.31 L34.07 53.31 L34.01 53.42 L33.93 53.36 L33.82 53.35 L33.8 53.31 L33.68 53.35 L33.64 53.27 L33.56 53.26 L33.57 53.21 L33.51 53.22 L33.47 53.19 L33.46 53.3 L33.39 53.23 L33.36 53.27 L33.28 53.3 L33.27 53.35 L33.2 53.33 L33.18 53.41 L33.14 53.4 L33.11 53.49 L32.96 53.62 L32.94 53.6 L32.96 53.44 L32.99 53.36 L32.92 53.31 L32.92 53.26 L33.02 53.29 L33.01 53.1 L32.86 52.99 L32.63 52.91 L32.57 52.86 L32.58 52.8 L32.51 52.75 L32.45 52.79 L32.47 52.71 L32.45 52.64 L32.28 52.6 L32.11 52.5 L32.05 52.52 L32.03 52.48 L31.97 52.5 L31.93 52.43 L31.84 52.42 L31.81 52.37 L31.68 52.29 L31.65 52.31 L31.57 52.24 L31.3 52.2 L31.16 52.12 L31.02 52.13 L30.94 52.07 L30.88 52.08 L30.85 52.02 L30.65 51.99 L30.55 51.92 L30.48 51.97 L30.47 51.94 L30.51 51.91 L30.46 51.87 L30.36 51.86 L30.34 51.8 L30.27 51.78 L30.17 51.7 L30.11 51.7 L30.11 51.67 L30.01 51.61 L29.7 51.51 L29.51 51.25 L29.44 51.28 L29.44 51.24 L29.48 51.22 L29.47 51.12 L29.31 50.97 L29.19 50.94 L29.12 50.87 L29.06 50.87 L29.02 50.91 L29 50.8 L28.61 50.64 L28.46 50.52 L28.46 50.47 L28.39 50.49 L28.16 50.35 L28.1 50.28 L28.01 50.29 L28.01 50.2 L27.9 50.02 L27.7 49.9 L27.6 49.88 L27.6 49.86 L27.53 49.89 L27.49 49.74 L27.31 49.59 L27.2 49.59 L27.12 49.68 L27.11 49.55 L27.05 49.54 L27.02 49.48 L26.94 49.41 L26.74 49.5 L26.74 49.29 L26.67 49.24 L26.62 49.27 L26.58 49.16 L26.5 49.11 L26.47 49.12 L26.45 49.06 L26.48 48.99 L26.48 48.91 L26.58 48.79 L26.61 48.63 L26.47 48.41 L26.41 48.23 L26.33 48.17 L26.27 48.17 L26.29 48.07 L26.2 48.03 L26.06 47.87 L23.65 46.72 L23.49 46.66 L23.03 46.63 L23 46.58 L22.93 46.61 L22.9 46.52 L22.76 46.52 L22.56 46.42 L22.34 46.4 L22.3 46.35 L22.27 46.36 L22.17 46.23 L22.2 46.19 L22.19 46.15 L22.22 46.15 L22.21 46.08 L22.24 46.06 L22.17 45.92 L22.01 45.82 L21.91 45.81 L21.88 45.75 L21.74 45.67 L21.69 45.61 L21.54 45.57 L21.35 45.59 L21.33 45.67 L21.28 45.69 L21.29 45.73 L21.21 45.68 L21.16 45.72 L21.13 45.81 L21.08 45.75 L20.95 45.76 L20.98 45.68 L20.96 45.64 L20.89 45.7 L20.88 45.76 L20.81 45.85 L20.69 45.85 L20.64 45.83 L20.68 45.69 L20.58 45.7 L20.57 45.76 L20.48 45.75 L20.47 45.7 L20.38 45.73 L20.37 45.68 L20.32 45.73 L20.25 45.7 L20.22 45.72 L20.17 45.66 L20.11 45.69 L20.09 45.61 L20.06 45.64 L19.98 45.62 L19.97 45.5 L19.95 45.49 L19.84 45.5 L19.81 45.54 L19.73 45.57 L19.7 45.54 L19.65 45.56 L19.63 45.52 L19.57 45.53 L19.5 45.43 L19.43 45.48 L19.39 45.43 L19.32 45.46 L19.28 45.38 L19.22 45.37 L19.22 45.31 L19.12 45.3 L18.97 45.15 L18.82 45.12 L18.77 45.08 L18.76 44.98 L18.68 44.99 L18.57 44.86 L18.44 44.77 L18.42 44.61 L18.35 44.52 L18.32 44.38 L18.27 44.32 L18.21 44.31 L18.14 44.17 L18.14 44.1 L18.08 44.1 L18.05 44.01 L18 43.99 L18.06 43.68 L17.99 43.72 L18.01 43.4 L17.91 43.32 L17.45 43.11 L16.89 42.96 L16.52 42.9 L14.88 42.24 L14.56 42.14 L14.4 42.14 L13.79 41.82 L13.72 41.84 L13.69 41.78 L13.6 41.77 L13.57 41.67 L12.87 41.24 L12.04 40.81 L11.35 40.5 L10.73 40.28 L10.53 40.25 L10.45 40.29 L10.43 40.39 L10.29 40.43 L10.27 40.33 L10.33 40.32 L10.32 40.29 L10.37 40.25 L10.35 40.21 L10.44 40.21 L10.47 40.09 L10.18 39.79 L9.63 39.42 L9.12 39.15 L9.07 39.15 L8.64 38.96 L8.57 38.96 L8.49 39.01 L8.44 38.99 L8.45 38.97 L8.44 38.95 L8.36 38.99 L8.29 38.97 L8.25 38.89 L8.19 38.94 L8.16 38.87 L8.04 38.79 L7.91 38.81 L7.85 38.75 L7.86 38.7 L7.8 38.68 L7.78 38.61 L7.68 38.56 L7.76 38.54 L7.75 38.49 L7.6 38.39 L7.57 38.35 L7.34 38.28 L7.25 38.22 L6.89 38.17 L6.79 38.23 L6.64 38.17 L6.57 38.18 L6.5 38.11 L6.33 38.1 L6.21 38.03 L6.2 37.99 L6.17 38 L6.08 37.93 L6.07 37.86 L6.01 37.87 L6 37.84 L6.24 37.69 L6.42 37.67 L6.49 37.64 L6.86 37.07 L7.09 36.54 L7.11 36.29 L7.08 36.15 L7.1 36.02 L7.29 35.79 L7.38 35.59 L7.53 35.46 L7.78 35.35 L8.05 35.01 L8.13 34.72 L8.15 34.11 L8.24 33.96 L8.48 33.68 L8.61 33.17 L8.82 32.9 L8.96 32.82 L9.04 32.68 L9.39 32.58 L9.51 32.47 L9.65 32.26 L9.79 32.2 L9.88 32.11 L10.05 32.07 L10.27 32.14 L10.49 32.02 L10.94 31.9 L11.59 31.5 L11.65 31.36 L11.74 31.27 L12.02 31.15 L12.1 31.07 L12.28 31.31 L12.42 31.39 L12.57 31.53 L12.76 31.5 L12.9 31.55 L12.94 31.6 L12.98 31.76 L13.07 31.84 L13.13 31.82 L13.24 31.85 L13.35 31.8 L13.54 31.84 L13.75 31.71 L13.83 31.77 L14.31 31.83 L14.53 31.73 L14.75 31.58 L15.2 32.04 L15.47 32.01 L15.61 32.05 L15.87 31.88 L16.22 31.88 L16.55 31.95 L16.63 32.01 L16.71 32 L17.02 32.05 L17.12 32.14 L17.2 32.29 L17.23 32.26 L17.29 32.31 L17.48 32.32 L17.92 32.53 L18.05 32.54 L18.15 32.58 L18.22 32.58 L18.42 32.41 L18.87 32.44 L19.24 32.67 L19.44 33.12 L19.42 33.22 L19.23 33.45 L19.41 33.55 L19.35 33.64 L19.33 33.85 L19.43 33.96 L19.47 34.07 L19.24 34.35 L19.29 34.5 L19.27 34.59 L18.94 34.93 L18.94 35.01 L19.06 35.13 L19.05 35.21 L19.2 35.26 L19.3 35.35 L19.45 35.36 L19.69 35.64 L19.89 35.69 L20.03 35.67 L20.11 35.75 L20.12 35.8 L20.2 35.74 L20.28 35.73 L20.36 35.87 L20.57 36.08 L20.8 36.1 L20.87 36.15 L21.03 36.2 L20.86 36.32 L20.83 36.48 L20.62 36.86 L20.72 37.24 L20.7 37.36 L20.78 37.53 L20.82 37.74 L20.87 37.83 L21.13 38.02 L21.1 38.11 L21.02 38.17 L20.97 38.23 L21.02 38.36 L21.16 38.52 L21.43 38.54 L21.68 38.52 L21.9 38.45 L22.06 38.57 L22.32 38.58 L22.52 38.71 L22.64 38.66 L22.9 38.67 L23.28 38.79 L23.38 38.75 L23.47 38.67 L23.83 38.64 L23.91 38.57 L23.99 38.32 L24.06 38.23 L24.06 37.89 L24.12 37.56 L24.22 37.5 L24.4 37.51 L24.52 37.27 L24.67 37.22 L24.84 37.23 L24.95 37.05 L25.2 36.85 L25.37 36.8 L25.53 36.95 L25.66 36.99 L25.69 37.07 L25.82 37.04 L25.95 37.15 L26.12 37.52 L26.19 37.82 L26.37 38.09 L26.27 38.25 L26.34 38.6 L26.26 38.79 L26.1 38.83 L25.9 38.96 L25.67 38.99 L25.64 39.02 L25.66 39.15 L25.58 39.25 L25.62 39.41 L25.71 39.54 L25.72 39.63 L25.8 39.73 L25.62 39.97 L25.66 40.21 L25.6 40.27 L25.57 40.52 L25.51 40.59 L25.45 40.77 L25.52 41.2 L25.45 41.3 L25.75 41.49 L25.85 41.5 L26.1 41.37 L26.18 41.24 L26.41 41.15 L26.6 41.01 L26.66 40.93 L26.73 40.92 L26.73 40.77 L26.79 40.73 L26.85 40.36 L26.93 40.28 L26.89 40.2 L26.91 40.13 L27.17 40.01 L27.28 39.85 L27.32 39.76 L27.45 39.76 L27.71 39.61 L27.74 39.51 L27.87 39.42 L28.03 39.23 L28 39.15 L28.08 39.03 L28.2 38.73 L28.38 38.58 L28.82 38.1 L29.17 37.97 L29.3 37.75 L29.52 37.75 L29.55 37.73 L29.65 37.56 L29.69 37.41 L29.68 37.34 L29.59 37.21 L29.66 36.97 L29.53 36.77 L29.64 36.59 L29.57 36.42 L29.58 36.15 L29.53 36.05 L29.49 35.87 L29.39 35.76 L29.51 35.75 L29.59 35.7 L29.69 35.61 L29.74 35.49 L29.95 35.53 L30.29 35.55 L30.91 35.5 L30.99 35.56 L31.06 35.71 L31.17 35.8 L31.24 35.75 L31.33 35.74 L31.53 35.78 L31.45 35.87 L31.44 35.93 L31.61 36.11 L31.87 36.72 L32.46 37.17 L32.87 37.38 L33.09 37.66 L33.23 37.73 L33.72 37.52 L33.92 37.33 L34.14 37.33 L34.24 37.38 L34.52 37.4 L34.73 37.36 L35.09 37.07 L35.77 37.15 L35.87 37.13 L36.36 36.83 L36.84 36.66 L37.06 36.66 L37.27 36.59 L37.38 36.58 L37.78 36.29 L37.87 36.26 L37.99 36.16 L38.11 36.12 L38.33 36.21 L38.38 36.27 L38.39 36.32 L38.29 36.45 L38.31 36.58 L38.38 36.56 L38.5 36.6 L38.58 36.52 L38.85 36.82 L39 36.9 L39.07 36.98 L39.19 36.94 L39.27 36.87 L39.58 36.74 L39.73 36.76 L39.97 36.89 L40.16 37.08 L40.63 36.99 L40.75 36.9 L40.96 36.83 L41.05 36.85 L41.16 36.92 L41.37 36.86 L41.27 36.78 L41.18 36.53 L41.06 36.42 L41.05 36.27 L41 36.18 L41.03 36.01 L41.08 35.9 L41.04 35.84 L41.06 35.7 L41.14 35.63 L41.26 35.41 L41.32 35.35 L41.23 35.24 L41.19 34.91 L41.35 34.8 L41.5 34.8 L41.64 34.75 L41.79 34.77 L41.9 34.75 L42.18 34.89 L42.41 34.97 L42.67 34.89 L43.14 35.13 L43.4 35.14 L43.57 34.94 L43.58 34.84 L43.65 34.73 L43.78 34.69 L43.84 34.5 L43.84 34.23 L44.04 34.15 L44.12 33.9 L44.24 33.84 L44.41 33.66 L44.58 33.19 L44.6 33 L44.57 32.87 L44.6 32.78 L44.81 32.8 L44.84 32.69 L45.02 32.45 L45.17 32.33 L45.32 32.32 L45.37 32.15 L45.41 32.13 L45.49 32.15 L45.51 32.06 L45.61 31.94 L45.85 31.9 L45.85 31.75 L46.08 31.75 L46.23 31.67 L46.35 31.65 L46.39 31.61 L46.39 31.29 L46.31 30.91 L46.42 30.77 L46.47 30.62 L46.63 30.51 L46.7 30.38 L46.7 30.25 L46.63 30.13 L46.69 29.97 L46.69 29.27 L46.83 28.96 L46.93 28.87 L47.08 28.83 L47.13 28.77 L47.12 28.57 L47.05 28.25 L46.96 28.2 L46.88 28 L46.29 27.36 L46.18 27.19 L46.16 27.09 L46.29 26.94 L46.28 26.78 L46.44 26.47 L46.42 26.37 L46.71 25.96 L46.69 25.72 L46.74 25.59 L46.73 25.47 L46.85 25.4 L46.92 25.26 L47.19 25.3 L47.39 25.08 L47.51 25.05 L47.68 24.74 L47.85 24.59 L47.89 24.52 L48.17 24.36 L48.36 24.36 L48.55 24.58 L49.02 24.63 L49.1 24.61 L49.14 24.52 L49.29 24.44 L49.55 24.46 L49.7 24.45 L49.82 24.39 L49.92 24.14 L50.04 23.98 L50.07 23.86 L50.06 23.64 L50.11 23.53 L50.19 23.44 L50.14 23.26 L50.61 22.73 L50.64 22.6 L50.77 22.4 L50.87 22.33 L50.92 22.24 L51.19 22.48 L51.31 22.52 L51.39 22.51 L51.54 22.45 L51.8 22.24 L51.88 22.11 L52.02 22.17 L52.18 22.11 L52.18 22.27 L52.24 22.37 L52.18 22.52 L52.21 22.75 L52.3 22.76 L52.42 22.82 L52.7 22.8 L52.86 22.99 L53.09 22.8 L53.24 22.75 L53.4 22.75 L53.7 22.58 L53.99 22.61 L54.2 22.75 L54.32 22.73 L54.45 22.76 L54.54 22.85 L54.56 22.95 L54.67 23.02 L54.61 23.26 L54.74 23.37 L54.74 23.46 L54.77 23.48 L54.82 23.48 L54.95 23.37 L54.92 23.28 L54.95 23.16 L55.08 22.97 L55.24 22.87 L55.43 22.79 L55.56 22.79 L55.62 22.72 L55.77 22.71 L56.13 22.57 L56.41 22.65 L56.54 22.51 L56.94 22.53 L57.07 22.39 L57.11 22.4 L57.34 22.56 L57.4 22.74 L57.38 22.83 L57.25 23.08 L57.24 23.18 L57.19 23.25 L57.2 23.32 L56.95 23.42 L56.88 23.49 L56.88 23.68 L56.98 23.82 L56.88 24.01 L57.03 24.21 L57.02 24.3 L57.16 24.34 L57.24 24.42 L57.21 24.68 L57.26 24.84 L57.25 24.93 L57.3 24.94 L57.34 24.86 L57.42 24.84 L57.58 24.86 L57.72 25 L57.91 24.99 L57.96 25.15 L58.14 25.23 L58.21 25.3 L58.24 25.61 L58.47 25.71 L58.73 25.67 L58.88 25.71 L59.02 25.7 L59.33 25.75 L59.57 25.73 L60.23 25.86 L60.7 25.54 L60.77 25.56 L60.86 25.48 L60.96 25.49 L61.24 25.41 L61.48 25.24 L61.54 25.28 L61.65 25.41 L61.71 25.43 L62.04 25.3 L62.11 25.18 L62.28 25.25 L62.47 25.14 L62.44 25.06 L62.47 24.96 L62.63 24.86 L62.74 24.75 L62.8 24.79 L62.93 24.72 L63.02 24.77 L63.11 24.76 L63.25 24.81 L63.32 24.91 L63.37 24.9 L63.37 24.78 L63.44 24.73 L63.62 24.74 L63.69 24.81 L63.81 24.85 L63.91 24.82 L64.09 24.94 L64.06 25.08 L63.99 25.12 L63.92 25.31 L63.98 25.58 L64.18 25.8 L64.18 25.94 L64.13 26 L64.26 25.98 L64.34 26.1 L64.53 26.16 L64.69 26.3 L64.8 26.58 L64.92 26.65 L64.95 26.82 L65.23 26.91 L65.3 26.85 L65.4 26.82 L65.53 26.9 L65.6 26.81 L65.62 26.74 L65.54 26.67 L65.59 26.54 L65.58 26.47 L65.63 26.42 L65.61 26.21 L65.67 26.16 L65.65 26.12 L65.7 26.07 L65.67 25.97 L65.82 25.82 L65.94 25.8 L65.97 25.77 L65.97 25.62 L65.85 25.52 L65.82 25.42 L65.71 25.43 L65.68 25.4 L65.7 25.27 L65.79 25.23 L65.78 25 L65.7 24.94 L65.7 24.85 L65.66 24.77 L65.75 24.54 L65.71 24.48 L65.69 24.35 L65.6 24.25 L65.53 23.97 L65.65 23.65 L65.59 23.55 L65.64 23.4 L65.59 23.29 L65.67 23.06 L65.67 22.98 L65.88 22.73 L65.99 22.69 L65.99 22.56 L66.15 22.4 L66.17 22.21 L66.26 22.09 L66.32 22.04 L66.44 22.07 L66.69 21.89 L66.77 21.95 L66.88 22.12 L66.93 22.14 L66.93 22.29 L66.99 22.38 L67.17 22.5 L67.28 22.65 L67.43 22.68 L67.45 22.78 L67.58 22.89 L67.82 23 L67.41 23.3 L67.53 23.44 L67.46 23.57 L67.3 23.72 L67.28 23.85 L67.38 23.91 L67.36 23.95 L67.43 24.01 L67.46 24.08 L67.59 24.12 L67.6 24.17 L67.68 24.21 L67.71 24.28 L67.8 24.34 L67.87 24.62 L67.86 24.88 L67.94 24.97 L68.14 25.03 L68.21 25.01 L68.23 24.97 L68.36 25.02 L68.42 24.95 L68.56 24.95 L68.62 24.98 L68.75 25.14 L68.85 25.17 L68.94 25.3 L68.98 25.66 L69.05 25.77 L69.05 25.88 L69.14 26.07 L69.32 26.25 L69.29 26.41 L69.15 26.62 L69.17 26.73 L69.23 26.82 L69.42 26.93 L69.59 26.9 L69.84 26.91 L69.88 26.98 L69.8 27.13 L69.83 27.23 L69.93 27.29 L70.18 27.25 L70.44 27.08 L70.52 27.09 L70.58 27.15 L70.63 27.32 L71.04 27.7 L71.3 27.8 L71.39 27.87 L71.41 28.09 L71.24 28.24 L71.18 28.46 L70.99 28.72 L71 28.82 L71.1 28.98 L71.07 29.09 L71.12 29.19 L71.09 29.27 L71.05 29.3 L70.55 29.42 L70.4 29.5 L70.24 29.55 L69.94 29.79 L69.72 29.88 L69.62 29.96 L69.48 29.96 L69.43 29.98 L69.44 30.15 L69.61 30.4 L69.64 30.55 L69.68 30.6 L70.08 30.65 L70.14 30.55 L70.37 30.44 L70.54 30.49 L70.67 30.48 L70.89 30.71 L70.96 30.73 L71.06 30.66 L71.23 30.8 L71.56 30.69 L71.92 30.76 L72.12 30.88 L72.33 30.85 L72.55 30.91 L72.78 30.86 L72.89 30.87 L73 30.94 L73.13 31.27 L73.46 31.59 L73.46 31.69 L73.5 31.74 L73.83 31.95 L74.01 31.98 L74.24 31.88 L74.33 31.73 L74.47 31.71 L74.57 31.63 L74.64 31.2 L74.65 31.01 L74.76 30.86 L74.81 30.68 L74.97 30.41 L75.09 30.39 L75.4 30.54 L75.92 30.62 L76.05 30.69 L76.11 30.6 L76.29 30.45 L76.42 30.43 L76.6 30.23 L76.66 30.08 L76.61 29.89 L76.49 29.79 L76.34 29.74 L76.22 29.63 L76.21 29.45 L76.1 29.24 L76.15 29.03 L76.15 28.71 L76.18 28.64 L76.3 28.71 L76.45 28.69 L76.66 28.75 L76.95 28.79 L77.16 28.67 L77.32 28.71 L77.39 29.01 L77.68 29.09 L77.74 29.15 L77.75 29.19 L77.69 29.25 L77.69 29.3 L77.85 29.36 L77.95 29.78 L78.3 29.96 L78.49 30.27 L78.67 30.39 L78.84 30.7 L79.02 30.67 L79.18 30.94 L79.33 30.94 L79.5 31.03 L79.67 31.07 L79.74 31.38 L79.84 31.46 L79.94 31.48 L80.04 31.45 L80.11 31.33 L80.29 31.25 L80.86 30.67 L80.98 30.64 L81 30.6 L80.93 30.52 L80.89 30.41 L80.92 30.35 L81.08 30.35 L81.17 30.26 L81.35 30.22 L81.43 30.34 L81.56 30.37 L81.69 30.49 L81.83 30.11 L81.91 30.08 L82.06 30.11 L82.02 30.24 L82.06 30.37 L82.05 30.47 L82.27 30.86 L82.33 30.9 L82.51 30.85 L82.6 30.93 L82.87 31.01 L82.92 31.06 L82.97 31.27 L83.09 31.38 L83.18 31.39 L83.31 31.55 L83.3 31.65 L83.19 31.83 L83.09 31.89 L83.01 32.01 L82.83 32.04 L82.73 32.25 L82.59 32.32 L82.5 32.46 L82.67 32.51 L82.82 32.85 L83.02 32.99 L83.04 33.13 L82.93 33.26 L82.76 33.38 L82.74 33.46 L82.54 33.71 L82.36 33.71 L82.15 33.95 L82.28 34.08 L82.2 34.23 L82.28 34.42 L82.4 34.52 L82.6 34.57 L82.91 34.84 L82.9 35.04 L82.95 35.27 L82.92 35.61 L82.97 35.68 L83.1 35.77 L83.13 35.83 L83.13 35.99 L83.17 36.16 L83.14 36.28 L83.09 36.35 L82.93 36.42 L82.87 36.48 L82.76 36.76 L82.76 36.86 L82.81 36.94 L82.71 37.23 L82.72 37.47 L83.02 37.69 L83.07 37.78 L83.15 37.79 L83.42 37.73 L83.6 37.54 L83.78 37.52 L83.95 37.71 L84.01 37.93 L84.1 38.04 L84.26 38.11 L84.45 38.14 L84.73 37.98 L84.73 37.93 L84.66 37.83 L84.66 37.74 L84.9 37.67 L85.23 37.39 L85.35 37.23 L85.38 37.09 L85.43 37.22 L85.57 37.45 L85.61 37.62 L85.89 37.72 L86.06 37.82 L86.08 37.89 L86.17 37.93 L86.28 38.15 L86.28 38.3 L86.24 38.42 L86.05 38.61 L85.85 38.73 L85.78 38.96 L85.8 39.01 L85.94 39.18 L85.99 39.33 L85.87 39.39 L85.78 39.53 L85.86 39.62 L85.87 39.73 L85.96 39.76 L86 39.8 L86 39.9 L86.05 39.99 L85.98 40.16 L86.02 40.31 L86.12 40.45 L86.27 40.55 L86.29 40.63 L86.43 40.77 L86.49 40.89 L86.81 41.05 L86.91 41.05 L87.03 41.14 L87.15 41.18 L87.22 41.26 L87.34 41.28 L87.36 41.4 L87.45 41.42 L87.49 41.49 L87.59 41.52 L87.76 41.79 L87.8 42.18 L87.74 42.41 L87.76 42.65 L87.86 42.86 L87.92 42.91 L87.92 42.98 L88.11 43.13 L88.11 43.26 L88.01 43.62 L87.94 43.69 L87.67 43.8 L87.6 43.92 L87.6 44.06 L87.48 44.25 L87.41 44.31 L87.31 44.33 L87.28 44.37 L87.4 44.56 L87.72 44.86 L87.73 45 L87.84 45.23 L87.94 45.35 L87.99 45.51 L88.1 45.61 L88.19 45.78 L88.31 45.87 L88.2 46 L88.24 46.17 L88.23 46.31 L88.18 46.37 L88.29 46.59 L88.35 46.67 L88.41 46.7 L88.6 46.59 L88.76 46.62 L88.85 46.77 L88.88 46.88 L89.01 46.96 L89.12 47.16 L89.1 47.24 L89.2 47.26 L89.23 47.31 L89.22 47.36 L89.29 47.48 L89.28 47.56 L89.35 47.62 L89.31 47.71 L89.38 47.74 L89.43 47.82 L89.41 47.88 L89.26 47.97 L89.28 48.04 L89.24 48.2 L89.31 48.28 L89.43 48.3 L89.51 48.37 L89.67 48.37 L89.54 48.58 L89.51 48.77 L89.54 48.81 L89.69 48.81 L89.76 48.85 L89.81 48.99 L89.81 49.09 L89.67 49.38 L89.71 49.45 L89.94 49.6 L90 49.84 L89.98 49.89 L89.84 49.85 L89.57 49.85 L88.97 49.9 L88.79 50.17 L88.79 50.35 L88.7 50.39 L88.55 50.4 L88.6 50.66 L88.41 50.78 L88.36 50.75 L88.29 50.77 L88.2 50.89 L88.3 50.98 L88.39 51.12 L88.6 51.26 L88.75 51.3 L88.67 51.44 L88.65 51.59 L88.75 51.68 L88.75 51.78 L88.53 52.07 L88.62 52.16 L88.8 52.2 L88.93 52.34 L89 52.53 L89.02 52.67 L89.01 52.84 L88.78 53.1 L88.76 53.22 L89.11 53.29 L89.18 53.36 L89.21 53.44 L88.96 53.6 L88.74 54 L88.64 54.1 L88.58 54.33 L88.48 54.4 L88.37 54.4 L88.24 54.32 L88.06 54.26 L87.81 54.35 L87.35 54.68 L87.32 54.89 L87.25 54.98 L87.07 54.87 L86.67 54.88 L86.62 54.86 L86.41 54.89 L86.44 54.98 L86.42 55.14 L86.56 55.37 L86.57 55.62 L86.67 55.74 L86.62 55.89 L86.75 56.08 L86.64 56.39 L86.64 56.47 L86.68 56.54 L86.84 56.62 L86.86 56.66 L86.77 56.81 L86.64 56.87 L86.63 57.03 L86.7 57.24 L86.84 57.35 L86.81 57.48 L86.83 57.58 L86.88 57.66 L87.03 57.79 L87.06 57.89 L87.04 58.02 L86.9 58.18 L86.79 58.25 L86.53 58.27 L86.26 58.57 L86.11 58.62 L85.99 58.55 L85.88 58.63 L85.77 58.38 L85.41 58.35 L85.4 58.24 L85.31 58.2 L85.26 58.06 L85.33 57.98 L85.29 57.91 L85.2 57.86 L85.22 57.78 L85.2 57.76 L85.06 57.89 L84.9 57.87 L84.72 57.96 L84.66 57.94 L84.6 57.83 L84.54 57.78 L84.46 57.82 L84.34 57.79 L84.29 57.89 L84.21 57.93 L84.1 57.92 L84.07 57.87 L83.98 57.97 L83.68 57.87 L83.53 58 L83.45 58.02 L83.44 58.11 L83.39 58.14 L83.13 58.11 L83.01 58.06 L82.81 58.09 L82.29 58.08 L82.04 57.92 L81.77 57.85 L81.65 57.86 L81.56 57.95 L81.48 57.96 L81.37 57.9 L81.29 58 L81.34 58.09 L81.33 58.15 L81.24 58.29 L81.47 58.69 L81.34 59.12 L81.26 59.83 L80.97 60.31 L81.02 60.4 L81.02 60.71 L80.95 60.75 L80.77 60.74 L80.68 60.83 L80.62 61.2 L80.65 61.35 L80.62 61.72 L80.54 61.92 L80.55 62.22 L80.5 62.3 L80.38 62.36 L80.26 62.5 L80.29 62.58 L80.26 62.67 L80.3 62.77 L80.51 62.85 L80.46 62.96 L80.46 63.09 L80.32 63.2 L80.01 63.33 L79.97 63.44 L79.77 63.59 L79.71 63.61 L79.6 63.5 L79.44 63.47 L79.34 63.41 L79.23 63.09 L78.92 62.95 L78.85 62.96 L78.61 63.1 L78.39 63.17 L78.15 63.15 L77.93 63.32 L77.82 63.33 L77.77 63.38 L77.69 63.58 L77.68 63.75 L77.73 63.87 L77.71 64.01 L77.62 64.16 L77.63 64.28 L77.55 64.38 L77.55 64.45 L77.46 64.54 L77.4 64.73 L77.44 65.09 L77.47 65.13 L77.51 65.13 L77.52 65.17 L77.58 65.23 L77.46 65.37 L77.48 65.77 L77.65 66.23 L77.83 66.4 L77.77 66.7 L77.79 66.85 L77.77 66.91 L77.66 67.02 L77.46 67.06 L77.44 67.15 L77.17 67.16 L77.1 67.25 L77.09 67.36 L76.97 67.49 L76.98 67.56 L77.04 67.66 L77.16 67.7 L77.28 67.69 L77.44 67.61 L77.52 67.64 L77.57 67.68 L77.66 67.7 L77.92 67.57 L78.07 67.57 L78.22 67.64 L78.22 67.82 L78.43 68.02 L78.44 68.08 L78.36 68.2 L78.38 68.34 L78.49 68.52 L78.55 68.87 L78.6 68.89 L78.74 68.86 L78.95 68.75 L78.99 68.88 L79.11 68.95 L79.23 68.97 L79.44 68.89 L79.63 69.13 L79.84 69.26 L79.87 69.34 L79.73 69.58 L79.77 69.66 L79.86 69.7 L79.92 69.78 L79.95 69.85 L79.94 70.01 L80.06 70.13 L80.14 70.41 L80.12 70.5 L79.92 70.74 L79.96 70.83 L79.93 70.9 L79.81 70.97 L79.74 71.12 L79.68 71.18 L79.23 71.39 L78.77 71.99 L78.05 72.7 L77.81 73.13 L77.59 73.24 L77.44 73.41 L77.32 73.45 L77.09 73.46 L76.93 73.53 L76.86 73.68 L76.7 73.79 L76.61 73.97 L76.44 74.11 L76.23 74 L76.24 73.94 L76.2 73.92 L76.19 73.81 L76.11 73.75 L75.84 73.69 L75.84 73.78 L75.68 73.81 L75.73 73.72 L75.73 73.68 L75.69 73.67 L75.7 73.6 L75.64 73.59 L75.64 73.5 L75.57 73.51 L75.56 73.47 L75.34 73.61 L75.23 73.52 L75.19 73.52 L75.21 73.57 L75.04 73.62 L74.97 73.58 L74.93 73.49 L74.82 73.5 L74.7 73.42 L74.61 73.43 L74.5 73.38 L74.42 73.39 L74.37 73.33 L73.79 73.1 L73.72 73.11 L73.68 73.05 L73.56 73.03 L73.53 72.98 L73.13 72.86 L72.92 72.76 L71.98 72.52 L71.94 72.54 L71.78 72.48 L71.32 72.39 L71.22 72.4 L71.17 72.37 L71 72.37 L70.82 72.31 L70.68 72.31 L70.56 72.25 L70.31 72.2 L69.95 72.04 L69.86 72.02 L69.84 71.99 L69.61 71.93 L69.57 71.88 Z M42.18 57.03 L42.16 57.04 L42.14 56.99 L42.19 57 L42.18 57.03 Z M41.64 56.89 L41.61 56.88 L41.61 56.85 L41.64 56.87 L41.64 56.89 Z" /></svg>