<svg xmlns="http://www.w3.org/2000/svg" viewBox="0 0 96 96"><path fill="#efd0a0" fill-rule="evenodd" d="M64.98 84.26 L64.65 84.33 L64.51 84.44 L63.92 84.56 L63.68 84.33 L63.39 84.17 L63.21 84.14 L62.82 84.29 L62.72 84.38 L62.58 84.43 L62.49 84.33 L62.31 84.24 L61.98 83.87 L61.87 83.96 L61.73 83.92 L61.64 83.94 L61.62 83.78 L61.73 83.62 L61.73 83.55 L61.66 83.49 L61.39 83.37 L61.24 83.42 L61.1 83.55 L60.98 83.59 L60.5 83.94 L60.36 83.95 L60.1 84.04 L59.82 84.04 L59.24 84.25 L58.63 84.61 L58.5 84.65 L57.67 84.55 L57.22 84.91 L56.96 84.95 L56.62 84.93 L56.49 84.86 L56.22 84.87 L55.98 85.1 L55.38 85.36 L55.2 85.27 L54.93 84.93 L54.42 84.66 L53.69 84.11 L53.38 83.36 L53.17 83.14 L53.18 83.07 L53.28 82.96 L53.03 82.91 L52.92 82.92 L52.84 82.98 L52.7 82.86 L52.61 82.68 L52.51 82.61 L51.74 82.68 L51.33 82.65 L51.07 82.59 L51.01 82.74 L50.89 82.86 L50.79 82.92 L50.64 82.93 L50.76 83.07 L50.8 83.29 L50.87 83.41 L50.86 83.74 L50.94 83.95 L50.81 84.18 L50.96 84.42 L50.89 84.72 L51 84.88 L51 84.96 L50.95 85.14 L50.83 85.35 L50.8 85.38 L50.53 85.38 L50.36 85.65 L49.94 85.82 L49.39 86.4 L49.17 86.59 L49.03 86.96 L48.92 87.11 L48.96 87.21 L48.76 87.44 L48.6 87.56 L48.56 87.67 L48.24 87.86 L48.08 87.86 L48.04 87.97 L47.89 88.17 L47.58 88.32 L47.55 88.41 L47.6 88.5 L47.51 88.6 L47.44 89.06 L47.36 89.1 L47.36 89.29 L47.27 89.31 L47.2 89.41 L46.96 89.57 L46.68 89.69 L46.58 89.85 L46.34 89.99 L46.15 90 L45.78 89.75 L45.87 89.64 L45.77 89.11 L45.86 88.88 L45.93 88.8 L45.96 88.49 L46.04 88.42 L45.99 88.12 L46.21 87.83 L46.11 87.71 L46.1 87.59 L45.99 87.43 L45.94 87.21 L46.03 87.11 L46.02 86.95 L46.05 86.91 L46.33 86.88 L46.58 86.71 L46.78 86.67 L46.88 86.43 L46.79 86 L46.91 85.8 L46.7 85.47 L46.52 84.87 L46.4 84.65 L46.25 84.52 L46.08 84.54 L46.03 84.44 L45.88 84.4 L45.71 84.22 L45.5 84.25 L45.16 84.52 L45.03 84.74 L44.82 84.72 L44.63 84.79 L44.48 85.09 L44.19 85.1 L44.13 85.18 L44.08 85.39 L44.07 85.98 L43.97 86.09 L43.88 86.4 L43.78 86.48 L43.33 86.52 L43.23 86.62 L43.1 86.66 L42.63 86.52 L42.31 86.51 L42.17 86.56 L41.91 86.41 L41.6 86.4 L41.39 86.24 L41.18 86.33 L40.51 86.35 L40.32 86.13 L40.26 85.98 L40.31 85.9 L40.42 85.83 L40.45 85.71 L40.13 85.48 L40.06 85.38 L40.01 85.11 L39.92 84.91 L39.95 84.76 L39.82 84.28 L40.08 83.82 L40.12 83.62 L40.33 83.47 L40.13 83.42 L40.05 83.35 L39.76 83.33 L39.5 83.07 L39.41 82.89 L39.3 82.9 L39.2 82.97 L39.19 82.91 L39.09 82.82 L38.92 82.85 L38.67 82.79 L38.38 82.44 L38.19 82.42 L38.07 82.32 L37.88 82.25 L37.9 82.16 L37.75 82.01 L37.75 81.9 L38.16 81.48 L38.18 81.37 L38.12 81.19 L38.41 80.85 L38.36 80.7 L38.23 80.57 L38.26 80.32 L38.32 80.2 L38.11 80.08 L38.34 79.8 L38.36 79.68 L38.14 79.13 L38.08 79.07 L37.67 78.84 L37.56 78.81 L37.11 78.8 L36.83 79.01 L36.49 78.95 L35.95 78.69 L35.72 78.67 L35.65 78.62 L35.6 78.65 L35.51 78.46 L35.38 78.35 L35 78.29 L34.9 78.31 L34.8 78.23 L34.4 78.14 L33.96 78.14 L33.64 78.35 L33.47 78.3 L33.14 78.34 L32.58 77.77 L32.31 77.96 L32.04 78.09 L31.44 78.01 L31.34 77.94 L31.09 78.1 L30.86 78.04 L30.72 78.11 L30.58 78.06 L30.51 78.09 L30.4 78 L30.35 77.8 L30.31 77.74 L30.13 77.68 L29.9 77.71 L29.71 77.54 L29.53 77.44 L29.31 77.14 L29.46 76.97 L29.64 76.94 L29.91 76.8 L30.11 76.8 L30.64 76.52 L30.9 76.25 L31.13 76.23 L31.58 76.07 L31.73 75.76 L31.66 75.5 L31.69 74.87 L31.65 74.69 L31.81 74.6 L32.02 74.39 L32.12 74.16 L31.74 74.04 L31.77 73.94 L31.67 73.8 L31.65 73.66 L31.46 73.5 L31.36 73.23 L31.16 73.01 L31.2 72.94 L31.26 72.93 L31.5 72.75 L31.59 72.61 L31.7 72.53 L31.72 72.46 L31.72 72.23 L31.66 72.07 L31.52 71.95 L31.51 71.82 L31.39 71.77 L31.29 71.65 L31.29 71.58 L31.41 71.42 L31.28 71.2 L31.14 71.09 L31.03 70.91 L30.68 70.7 L30.61 70.7 L30.5 70.78 L30.3 70.79 L30.14 70.92 L30.06 70.85 L29.7 70.88 L29.5 70.75 L29.57 70.57 L29.61 70.55 L29.77 70.53 L29.86 70.48 L29.97 70.49 L30.05 70.45 L30.23 70.46 L30.48 70.34 L30.31 70.18 L30.11 70.2 L29.95 70.16 L29.77 70.23 L29.69 70.22 L29.58 70.07 L29.47 69.78 L29.25 69.66 L29.34 69.54 L29.47 69.48 L29.47 69.15 L29.55 69.01 L29.94 68.79 L30.06 68.65 L29.93 68.45 L29.97 68.39 L29.97 68.24 L30.16 67.95 L30.43 67.76 L30.44 67.71 L30.05 67.8 L29.84 68.01 L29.62 68.15 L29.5 68.12 L29.04 68.13 L28.75 68.3 L28.6 68.49 L28.44 68.6 L28.36 68.71 L28.14 68.61 L28.01 68.41 L27.78 68.33 L27.73 68.26 L27.67 67.93 L27.47 67.74 L27.36 67.71 L27.3 67.65 L27.34 67.53 L27.44 67.5 L27.51 67.34 L27.39 67.3 L27.28 67.18 L27.27 66.88 L27.23 66.81 L27.27 66.65 L27.34 66.57 L27.48 66.54 L27.71 66.39 L28.06 65.88 L28.58 65.56 L28.69 65.47 L28.7 65.41 L28.56 65.4 L28.45 65.44 L27.65 65.36 L27.59 65.32 L27.16 65.31 L26.98 65.23 L26.83 65.09 L26.71 64.9 L26.54 64.77 L26.39 64.45 L26.57 63.94 L26.37 63.71 L26.25 63.75 L26.05 63.69 L25.92 63.72 L25.64 64.2 L25.38 64.26 L25.18 64.46 L25.04 64.52 L24.86 64.55 L24.8 64.8 L24.57 65.17 L24.39 65.18 L24.24 65.08 L24.19 65.12 L24.03 65.1 L23.66 65.32 L23.35 65.2 L23.14 65.28 L22.81 65.27 L22.58 65.4 L22.32 65.66 L22.21 65.67 L22.14 65.61 L22.14 65.44 L22.01 65.31 L22.07 64.98 L22.03 64.55 L21.96 64.4 L21.84 64.31 L21.67 64.27 L21.64 64.21 L21.65 63.8 L21.73 63.77 L21.81 63.6 L21.91 63.53 L21.94 63.3 L21.88 63.25 L21.52 63.38 L21.44 63.31 L21.32 63.08 L21.36 62.86 L21.32 62.73 L21.34 62.49 L21.17 62.24 L21.25 62.09 L21.54 61.92 L21.88 61.6 L21.86 61.36 L22.06 61.21 L22.27 60.93 L22.09 60.84 L21.91 60.87 L21.66 60.81 L21.61 60.84 L21.43 60.82 L20.96 61.01 L20.79 60.85 L20.6 60.82 L20.68 60.73 L20.65 60.68 L20.4 60.58 L20.19 60.56 L20.36 60.3 L20.35 60.17 L20.47 59.95 L20.61 59.81 L20.69 59.61 L20.81 59.49 L20.98 59.2 L20.99 59.08 L20.92 58.88 L21.13 58.6 L21.13 58.39 L21.31 58.02 L21.45 57.97 L21.6 57.72 L21.82 57.73 L22.12 57.58 L22.23 57.44 L22.36 57.42 L22.57 57.27 L22.61 57.05 L22.79 56.89 L22.75 56.76 L22.6 56.64 L22.19 56.67 L21.94 56.58 L21.9 56.5 L21.8 56.43 L21.82 56.37 L21.76 56.18 L21.67 56.13 L21.49 56.11 L21.41 56.06 L21.36 55.72 L21.37 55.66 L21.46 55.6 L21.52 55.35 L21.64 55.08 L21.7 54.5 L21.93 54.1 L22 53.8 L22.11 53.63 L22.22 53.56 L22.24 53.24 L22.43 53.07 L22.51 52.92 L22.68 52.85 L22.84 52.43 L22.82 52.31 L22.86 52.21 L22.97 52.22 L23.2 52.14 L23.64 52.21 L23.82 52.28 L23.88 52.25 L23.97 52.29 L24.16 52.27 L24.57 52.56 L24.79 52.58 L24.92 52.77 L25.04 52.7 L25.17 52.69 L25.39 52.88 L25.54 52.77 L25.79 52.7 L25.93 52.8 L25.99 52.94 L26.07 52.99 L26.33 52.54 L26.49 52.4 L26.51 52.32 L26.72 52.26 L26.93 52.09 L27.02 52.27 L27.13 52.31 L27.39 52.19 L27.42 52.28 L27.6 52.45 L27.72 52.65 L27.8 52.7 L27.94 52.69 L28.16 52.57 L28.25 52.63 L28.43 52.57 L28.6 52.63 L28.71 52.56 L28.89 52.65 L29.01 52.63 L29.1 52.66 L29.25 52.57 L29.41 52.37 L29.29 52.29 L29.24 52.21 L29.2 51.55 L29.04 51.55 L28.8 50.88 L28.96 50.55 L28.87 50.48 L28.87 50.35 L28.75 50.25 L28.74 50.14 L28.9 50.01 L29 50.06 L29.12 50.05 L29.16 50 L29.16 49.9 L28.83 49 L28.59 48.72 L28.77 48.54 L28.95 48.17 L28.97 47.98 L28.81 47.9 L28.75 47.79 L28.81 47.52 L28.92 47.47 L29.2 47.23 L29.32 46.86 L29.4 46.38 L29.16 45.87 L28.99 45.65 L28.92 45.4 L28.92 45.24 L28.95 45.19 L29.2 45.25 L29.32 45.17 L29.21 44.94 L29.26 44.7 L29.38 44.58 L29.37 44.38 L29.53 44.08 L29.27 43.74 L29.05 43.62 L29.01 43.53 L29.03 43.08 L29.08 42.98 L29.04 42.5 L28.95 42.33 L28.94 42.11 L28.82 41.94 L28.9 41.8 L29.02 41.7 L28.94 41.42 L29.06 41.26 L29.1 41.11 L29.09 40.95 L28.9 40.32 L28.63 39.93 L28.61 39.74 L28.42 39.49 L28.26 39.41 L28.05 39.21 L27.84 39.22 L27.64 39.13 L27.61 38.99 L27.44 38.84 L27.47 38.64 L27.28 38.48 L27.21 38.3 L27.05 38.2 L27.03 38.07 L26.88 37.9 L26.66 37.75 L26.34 37.72 L26.22 37.6 L25.93 37.53 L25.89 37.32 L25.96 37.17 L25.9 36.96 L25.92 36.89 L25.85 36.75 L25.87 36.62 L26.06 36.46 L26.08 36.32 L26.15 36.24 L26.11 35.96 L26.04 35.82 L26.05 35.73 L26.27 35.42 L26.47 35.29 L26.7 34.97 L26.89 34.9 L26.99 34.8 L27.23 34.76 L27.51 34.78 L27.6 34.84 L27.95 34.82 L28.09 34.87 L28.29 34.82 L28.45 34.73 L28.56 34.73 L28.71 34.64 L28.94 34.67 L29.13 34.6 L29.28 34.49 L29.28 34.21 L29.39 34.07 L29.5 34.1 L29.71 34.41 L29.89 34.44 L29.92 34.6 L29.87 34.7 L29.91 34.85 L30.41 35.02 L30.52 34.99 L30.6 35.03 L30.8 35.02 L30.93 34.95 L31.1 34.76 L31.24 34.72 L31.48 34.71 L31.76 34.81 L31.87 34.72 L32.09 34.73 L32.42 34.57 L32.44 34.55 L32.41 34.51 L32.17 34.36 L32.02 34.29 L31.91 34.32 L31.63 34.15 L31.62 33.96 L31.52 33.86 L31.52 33.68 L31.45 33.59 L31.39 33.36 L31.14 33.15 L31.38 33.03 L31.52 32.87 L31.72 32.78 L31.96 32.76 L32.06 32.84 L32.18 32.85 L32.35 32.59 L32.48 32.51 L32.72 32.11 L32.97 31.83 L33.05 31.75 L33.21 31.7 L33.25 31.52 L33.37 31.36 L33.6 31.31 L33.63 31.12 L33.76 31.08 L33.74 30.88 L33.88 30.79 L33.93 30.67 L34.15 30.72 L34.25 30.69 L34.39 30.74 L34.66 31.06 L34.77 30.96 L34.94 30.94 L35.07 30.79 L35.13 30.81 L35.27 30.98 L35.4 30.89 L35.63 30.88 L35.7 30.76 L35.83 30.72 L36.13 30.87 L36.27 30.85 L36.47 30.75 L36.65 30.83 L36.92 30.53 L37.29 30.3 L37.39 30.16 L37.62 30.07 L37.89 30.09 L38.04 30.23 L38.2 30.3 L38.16 30.1 L38.26 29.98 L38.38 29.9 L38.35 29.7 L38.39 29.53 L38.37 29.34 L38.31 29.28 L37.84 29.08 L37.84 28.92 L37.91 28.86 L37.84 28.78 L37.85 28.55 L37.81 28.46 L37.88 28.32 L37.85 28.16 L37.94 27.94 L37.92 27.84 L38.09 27.52 L38.35 27.25 L38.4 26.97 L38.6 26.8 L38.71 26.8 L38.93 26.71 L39.12 26.82 L39.39 26.8 L39.53 26.85 L39.7 26.96 L39.78 27.24 L40.14 27.53 L40.25 27.67 L40.81 27.79 L41.01 28 L41.12 27.96 L41.25 27.82 L41.19 27.6 L41.19 27.35 L41.28 26.8 L41.16 26.7 L41.19 26.58 L41.07 26.45 L41.05 26.3 L40.79 25.97 L40.69 25.58 L40.59 25.42 L40.54 24.89 L40.65 24.67 L40.58 24.56 L40.44 24.49 L40.14 24.52 L40.07 24.47 L39.93 24.48 L39.87 24.42 L39.81 24.21 L39.82 24.12 L40.04 23.7 L40.04 23.36 L40.01 23.26 L39.86 23.04 L39.75 22.69 L39.75 22.52 L39.79 22.39 L39.77 22.26 L39.81 22.2 L39.94 22.17 L40.24 22.2 L40.37 22.02 L40.46 22.02 L40.59 22.1 L40.68 22.06 L40.73 21.95 L40.65 21.84 L40.69 21.69 L40.56 21.48 L40.64 21.33 L40.84 21.39 L40.91 21.33 L40.87 21.2 L40.9 21.02 L40.82 20.87 L40.89 20.73 L40.78 20.65 L40.71 20.55 L40.82 20.37 L40.71 20.17 L40.49 20.05 L40.25 19.84 L40.12 19.84 L40.06 19.94 L39.94 20 L39.8 19.95 L39.76 19.92 L39.78 19.82 L39.56 19.72 L39.56 19.57 L39.35 19.37 L39.38 19.17 L39.55 18.69 L39.61 18.65 L39.75 18.65 L39.88 18.43 L39.87 18.04 L39.77 17.86 L39.78 17.62 L39.56 17.36 L39.52 17.07 L39.59 17.01 L39.6 16.92 L39.65 16.88 L39.83 16.88 L39.96 16.78 L39.95 16.59 L39.9 16.56 L39.84 16.62 L39.77 16.62 L39.4 16.45 L39.06 16.36 L38.9 16.2 L38.88 16.1 L38.94 15.97 L38.92 15.89 L38.53 15.79 L38.43 15.69 L38.44 15.56 L38.52 15.45 L38.5 15.26 L38.44 15.05 L38.27 14.91 L38.24 14.81 L38.1 14.65 L38.18 14.51 L38.14 14.31 L38.16 14.15 L38.06 13.98 L37.97 13.96 L37.85 13.99 L37.76 13.86 L37.84 13.57 L38.05 13.44 L38.08 13.28 L37.98 13.13 L37.9 12.9 L37.82 12.85 L37.71 12.84 L37.57 12.73 L37.32 12.78 L37.21 12.76 L37.01 12.8 L36.8 12.7 L36.66 12.75 L36.32 12.7 L35.75 12.76 L35.65 12.83 L35.51 12.8 L35.17 12.5 L35.25 12.41 L35.28 12.33 L35.2 11.85 L35.13 11.84 L34.97 11.92 L34.84 11.86 L34.83 11.76 L34.74 11.64 L34.75 11.46 L34.66 11.33 L34.53 11.25 L34.51 11.01 L34.31 10.89 L34.12 10.68 L33.9 10.98 L33.88 10.45 L33.72 9.96 L33.75 9.78 L33.86 9.67 L33.9 9.53 L34.08 9.32 L34.1 9.23 L34.2 9.19 L34.32 8.95 L34.44 8.92 L34.66 9.07 L34.88 9.09 L34.98 9.24 L35.23 9.31 L35.32 9.49 L35.49 9.5 L35.54 9.47 L35.69 9.15 L35.87 9.02 L35.88 8.8 L35.91 8.75 L36.32 8.58 L36.58 8.57 L36.75 8.48 L36.86 8.47 L36.94 8.55 L36.94 9.03 L37.06 9.25 L37.15 9.31 L37.3 9.27 L37.51 9.34 L37.77 9.27 L37.99 8.93 L38.12 8.85 L38.32 8.61 L38.43 8.58 L38.5 8.48 L38.3 8.26 L38.26 8.06 L38.47 7.8 L38.47 7.74 L38.69 7.5 L38.65 7.35 L38.64 7.06 L38.58 6.99 L38.59 6.91 L38.51 6.85 L38.49 6.75 L38.38 6.61 L38.46 6.44 L38.58 6.44 L38.59 6.36 L38.54 6.26 L38.63 6.19 L38.86 6.24 L38.93 6.18 L39.02 6.18 L39.19 6.09 L39.27 6.01 L39.36 6 L39.44 6.13 L39.28 6.24 L39.46 6.55 L39.46 6.67 L39.53 6.67 L39.63 6.6 L39.7 6.63 L39.73 6.7 L39.74 6.94 L39.81 7.05 L39.67 7.09 L39.65 7.16 L39.99 7.5 L40.18 7.53 L40.21 7.39 L40.26 7.35 L40.5 7.42 L40.77 7.34 L40.73 7.5 L40.93 7.77 L41.26 7.73 L41.44 7.91 L41.56 8.16 L41.81 8.2 L41.84 8.46 L42 8.5 L42.17 8.42 L42.28 8.49 L42.35 8.63 L42.51 8.67 L42.45 8.87 L42.58 9 L42.42 9.12 L42.45 9.19 L42.55 9.28 L42.65 9.29 L42.79 9.17 L42.95 9.26 L43.22 9.26 L43.3 9.31 L43.25 9.52 L43.36 9.61 L43.47 9.62 L43.55 9.53 L43.78 9.5 L43.95 9.72 L44.26 9.81 L44.31 9.78 L44.31 9.68 L44.39 9.59 L44.63 9.55 L44.67 9.62 L44.63 9.73 L44.63 9.9 L44.69 9.99 L44.79 10.03 L44.9 10.01 L45.09 9.66 L45.29 9.52 L45.43 8.86 L45.46 8.81 L45.81 8.75 L45.97 8.76 L46.11 8.65 L46.24 8.69 L46.37 8.64 L46.48 8.47 L46.74 8.39 L46.86 8.28 L47.31 8.67 L47.61 8.69 L47.74 8.81 L47.85 8.79 L48.02 8.66 L48.11 8.53 L48.21 8.21 L48.12 7.88 L47.94 7.58 L48.25 7.86 L48.4 8.07 L48.5 8.41 L48.57 8.98 L48.58 9.65 L48.54 9.83 L48.59 9.94 L48.53 10.21 L48.55 10.3 L48.82 10.47 L49.11 10.47 L49.27 10.82 L49.53 11.21 L49.7 11.35 L49.98 11.39 L50.27 11.75 L50.51 11.91 L50.67 12.08 L50.69 12.3 L50.83 12.68 L50.85 12.86 L51.05 13.28 L51.25 13.58 L51.39 13.93 L51.4 14.06 L51.32 14.37 L51.32 14.82 L51.42 14.97 L51.52 15.02 L51.65 14.97 L51.83 14.8 L52.04 14.89 L52.18 15.33 L52.4 15.73 L52.58 15.91 L52.57 16.06 L52.45 16.22 L52.6 16.5 L52.62 16.62 L52.59 16.74 L52.65 16.87 L53 17.1 L53.21 17.39 L53.29 17.6 L53.39 17.71 L53.55 17.79 L53.79 17.85 L53.87 17.83 L54.07 17.73 L54.16 17.48 L54.36 17.43 L54.7 18.04 L54.8 18.13 L55.01 18.18 L55.1 18.26 L55.09 18.45 L55.13 18.54 L55.24 18.63 L55.42 18.59 L55.48 18.63 L55.58 18.89 L55.93 19.23 L56.1 19.48 L56.04 19.64 L56.09 19.79 L56.42 20.04 L56.62 20.29 L56.86 20.49 L56.88 20.62 L56.79 20.9 L56.83 21.06 L57.02 21.33 L57.07 21.51 L57.17 21.57 L57.41 21.61 L57.56 21.73 L57.71 21.93 L57.76 22.15 L57.69 22.28 L57.69 22.42 L57.89 22.77 L58.28 22.9 L58.62 23.14 L59.35 23.8 L59.37 23.91 L59.14 24.14 L59.09 24.26 L59.1 24.4 L59.24 24.63 L59.39 24.72 L59.6 24.6 L59.78 24.53 L59.96 24.53 L59.99 24.57 L60.01 24.7 L59.88 24.9 L59.69 24.97 L59.63 25.05 L59.65 25.25 L59.73 25.37 L59.69 25.51 L59.6 25.61 L59.23 25.76 L59.18 25.84 L59.41 26.02 L59.41 26.15 L59.35 26.28 L59.44 26.42 L59.59 26.43 L59.81 26.52 L59.92 26.42 L60.01 26.39 L60.2 26.16 L60.45 26.23 L60.37 26.48 L60.4 27.06 L60.26 27.24 L60.11 27.24 L60.04 27.36 L60.14 27.58 L60.11 27.82 L60.16 27.85 L60.28 27.81 L60.32 27.61 L60.38 27.56 L60.63 27.8 L60.71 27.84 L60.7 27.97 L60.81 28.14 L61.11 28.13 L61.08 28.27 L60.96 28.34 L60.96 28.47 L61.02 28.62 L61.19 28.67 L61.25 28.75 L61.12 28.82 L61.11 29.03 L60.98 29.08 L60.96 29.15 L61.38 29.36 L61.47 29.6 L61.55 29.58 L61.68 29.37 L61.87 29.61 L61.94 29.77 L61.9 29.91 L62.07 30.04 L62.1 30.15 L62.07 30.43 L62.21 30.55 L62.23 30.63 L62.18 30.82 L62.12 30.87 L61.98 30.88 L61.93 30.94 L62.05 31.15 L62.06 31.35 L62.1 31.37 L62.18 31.29 L62.28 31.3 L62.71 31.65 L62.76 31.82 L62.72 31.99 L62.77 32.05 L62.87 32.05 L62.99 32.17 L63.01 32.5 L63.13 32.66 L63.14 32.72 L63.2 32.77 L63.44 32.77 L63.6 32.95 L63.58 33.15 L63.54 33.19 L63.45 33.19 L63.44 33.28 L63.52 33.31 L63.71 33.26 L63.73 33.29 L63.59 33.43 L63.54 33.42 L63.54 33.55 L63.68 33.63 L63.72 33.78 L63.89 33.69 L63.99 33.7 L64.11 33.84 L64.19 34.01 L64.39 34.08 L64.45 34.15 L64.45 34.23 L64.42 34.38 L64.46 34.43 L64.57 34.45 L64.59 34.53 L64.66 34.6 L64.59 34.65 L64.6 34.69 L64.78 34.81 L64.97 34.8 L64.97 34.98 L65.03 35.23 L65.13 35.25 L65.2 35.2 L65.39 35.42 L65.68 35.55 L65.73 35.79 L65.9 35.72 L65.88 35.84 L65.91 35.94 L66.05 36.06 L66.25 36.18 L66.43 36.16 L66.66 36.32 L66.86 36.37 L66.88 36.71 L66.56 37.12 L66.65 37.48 L66.34 37.76 L66.25 37.76 L66.1 37.67 L65.99 37.49 L65.66 37.54 L65.15 37.26 L64.89 37.27 L64.67 37.17 L64.56 37.06 L64.41 37.02 L64.25 37.25 L63.97 37.28 L63.89 37.2 L63.87 37.13 L63.91 37.04 L63.89 36.97 L63.66 36.87 L63.57 36.75 L63.16 36.77 L63.1 36.81 L63.07 36.92 L62.57 36.86 L62.21 36.97 L62 36.75 L61.94 36.75 L61.85 36.81 L61.76 36.77 L61.68 36.82 L61.59 36.81 L61.56 36.7 L61.44 36.63 L61.24 36.66 L61.09 36.61 L60.92 36.65 L60.87 36.71 L60.79 36.71 L60.62 36.61 L60.52 36.69 L60.43 36.63 L60.35 36.64 L60.19 36.41 L60.19 36.24 L60.07 36.04 L59.97 35.7 L59.89 35.6 L59.69 35.48 L59.47 35.6 L59.42 35.6 L59.3 35.5 L59.24 35.26 L59 35.19 L58.94 35.05 L58.9 35.02 L58.75 35.01 L58.57 35.09 L58.47 35.01 L58.22 34.99 L58.15 34.72 L58.21 34.47 L58.17 34.41 L57.98 34.37 L57.81 34.43 L57.64 34.2 L57.52 34.14 L57.4 34.24 L57.33 34.24 L57.25 34.03 L57.16 34.05 L56.92 33.99 L56.89 33.85 L56.66 33.73 L56.63 33.62 L56.54 33.55 L56.5 33.46 L56.26 33.3 L56.17 33.33 L56.13 33.31 L56.05 33.22 L56.05 33.14 L55.98 33.03 L55.72 33.11 L55.57 33 L55.47 33.05 L55.4 33.04 L55.4 32.9 L55.29 32.83 L55.21 32.84 L55.15 32.64 L55.04 32.63 L54.94 32.73 L54.43 32.71 L54.4 32.63 L54.44 32.49 L54.21 32.45 L54.35 32.07 L54.26 31.81 L54.25 31.59 L54.16 31.49 L54.19 31.44 L54.12 31.33 L54.41 31 L54.42 30.91 L54.36 30.64 L54.09 30.42 L54 30.44 L53.76 30.34 L53.34 30.44 L53.31 30.47 L53.36 30.59 L53.32 30.67 L52.99 30.87 L52.84 30.9 L52.88 30.99 L52.7 31.11 L52.67 31.41 L52.49 31.39 L52.45 31.42 L52.48 31.56 L52.43 31.66 L52.44 31.82 L52.38 31.96 L52.31 32 L52.35 32.07 L52.08 32.22 L52.12 32.43 L52.06 32.54 L52.03 32.75 L52.14 32.81 L52.17 32.91 L52.11 33.1 L52.28 33.32 L52.35 33.46 L52.48 33.58 L52.47 33.69 L52.53 33.78 L52.47 33.84 L52.37 33.82 L52.29 33.89 L52.16 33.92 L52.1 34.08 L51.99 34.11 L51.89 34.2 L51.99 34.35 L51.94 34.46 L51.97 34.59 L51.91 34.73 L51.88 34.91 L51.81 34.99 L51.83 35.11 L51.75 35.24 L51.75 35.53 L51.59 35.71 L51.52 35.92 L51.55 35.97 L51.65 36.01 L51.62 36.07 L51.78 36.3 L51.72 36.36 L51.79 36.51 L51.87 36.53 L52.01 36.73 L51.95 36.88 L51.97 37 L51.79 37.14 L51.72 37.28 L51.84 37.4 L51.83 37.63 L52.01 37.79 L52.13 38.02 L52.16 38.22 L52.27 38.41 L52.25 38.46 L52.33 38.58 L52.28 38.77 L52.36 38.88 L52.44 39.14 L52.44 39.32 L52.53 39.46 L52.6 39.71 L52.5 39.84 L52.5 40.03 L52.53 40.17 L52.64 40.29 L52.61 40.38 L52.7 40.54 L52.77 40.79 L52.74 40.86 L52.48 41.08 L52.72 41.37 L52.82 41.77 L52.9 41.78 L53.05 41.73 L53.19 41.9 L53.43 41.88 L53.5 41.95 L53.61 41.93 L53.71 41.98 L53.8 42.09 L53.95 42.13 L54.05 42.12 L54.28 42.38 L54.42 42.43 L54.36 42.67 L54.41 42.78 L54.48 42.8 L54.54 42.73 L54.74 42.93 L54.78 43.01 L54.71 43.2 L54.76 43.33 L54.83 43.38 L55.07 43.31 L55.36 43.66 L55.58 43.76 L55.82 44 L55.82 44.11 L55.52 44.16 L55.46 44.11 L55.4 44.13 L55.43 44.3 L55.25 44.39 L54.92 44.44 L54.72 44.39 L54.55 44.51 L54.42 44.55 L54.34 44.55 L54.25 44.5 L54.1 44.57 L53.93 44.72 L54.03 44.82 L54.1 45.07 L54.04 45.28 L54.26 45.6 L54.4 45.99 L54.56 46.26 L54.65 46.3 L54.77 46.47 L55.16 46.77 L55.22 46.97 L55.2 47.06 L55.26 47.18 L55.28 47.3 L55.24 47.68 L55.39 47.9 L55.5 48.29 L55.67 48.48 L56.06 48.66 L56.14 48.79 L56.18 49.03 L56.34 49.16 L56.36 49.29 L56.5 49.58 L56.5 49.95 L56.73 50.13 L56.79 50.19 L56.79 50.26 L56.89 50.33 L56.88 50.59 L56.97 50.68 L57.01 50.85 L57.06 50.88 L57.04 50.97 L57.08 50.99 L57.09 51.08 L56.99 51.2 L57.04 51.45 L56.97 51.5 L56.91 51.66 L57.08 51.88 L57.12 52.07 L57.21 52.25 L57.18 52.33 L57.25 52.49 L57.31 52.54 L57.26 52.65 L57.32 52.65 L57.35 52.72 L57.44 52.73 L57.71 53.11 L57.87 53.15 L57.87 53.23 L57.95 53.37 L58.02 53.81 L58.08 53.86 L58.05 53.93 L58.1 54.04 L58.19 54.07 L58.39 54.48 L58.39 54.57 L58.47 54.61 L58.49 54.72 L58.55 54.73 L58.6 54.81 L58.68 55.14 L58.78 55.24 L58.86 55.25 L58.91 55.55 L59.01 55.63 L59.03 55.7 L59.1 55.7 L59.16 55.79 L59.27 55.84 L59.27 55.99 L59.4 56.02 L59.51 56.33 L59.48 56.41 L59.5 56.47 L59.46 56.54 L59.5 56.63 L59.49 56.73 L59.54 56.77 L59.53 56.85 L59.68 57 L59.59 57.58 L59.61 57.71 L59.54 57.99 L59.36 58.15 L59.25 58.39 L59.2 58.84 L59.12 59.14 L58.98 59.31 L58.8 59.38 L58.78 59.55 L58.66 59.65 L58.64 60.2 L58.53 60.39 L58.44 60.46 L58.16 60.56 L57.98 60.56 L57.97 60.59 L58.02 60.78 L58.18 61 L58.12 61.22 L58.22 61.51 L58.31 61.63 L58.44 61.63 L58.54 61.69 L58.71 61.72 L58.7 61.9 L58.63 62.12 L58.88 62.19 L59.11 62.39 L59.06 62.56 L59.13 62.65 L59.16 62.77 L59.43 62.96 L59.46 63.4 L59.64 63.5 L59.79 63.67 L59.7 63.79 L59.66 64.2 L59.49 64.31 L59.34 64.35 L59.15 64.56 L59.48 65.55 L59.61 65.75 L59.72 66.03 L59.7 66.33 L59.52 66.66 L59.59 66.91 L59.34 66.9 L58.98 66.82 L58.73 66.99 L58.52 67.01 L58.28 67.09 L58.22 67.16 L58.21 67.25 L58.25 67.31 L58.14 67.34 L58.17 67.42 L58.13 67.48 L58.23 67.65 L58.17 67.73 L58.09 67.75 L58.09 67.79 L58.17 67.95 L58.28 67.97 L58.28 68.08 L58.24 68.13 L58.3 68.19 L58.31 68.27 L58.42 68.31 L58.44 68.41 L58.44 68.52 L58.4 68.63 L58.44 68.78 L58.4 68.87 L58.42 69.03 L58.37 69.3 L58.66 69.64 L58.66 69.74 L58.71 69.86 L58.81 69.94 L58.91 69.95 L59.14 69.87 L59.27 69.92 L59.44 70.1 L59.45 70.16 L59.49 70.17 L59.5 70.24 L59.58 70.3 L59.6 70.5 L59.72 70.49 L59.97 70.58 L60.1 70.75 L60.29 70.9 L60.37 70.92 L60.67 70.82 L60.81 70.86 L60.9 70.59 L60.96 70.53 L60.98 70.42 L61.06 70.34 L61.04 70.26 L61.1 69.99 L61.46 69.51 L62 69.17 L62.16 69.18 L62.27 69.04 L62.37 68.53 L62.57 67.88 L62.81 67.57 L63.08 67.42 L63.11 67.18 L63.26 66.92 L63.31 67.01 L63.4 67.05 L63.54 67.32 L63.54 67.49 L63.58 67.55 L63.8 67.64 L64.12 67.88 L64.6 67.85 L64.64 67.91 L64.99 68.08 L65.08 68.35 L65.14 68.38 L65.76 67.75 L65.95 67.69 L66.03 67.79 L66.15 67.81 L66.29 67.72 L66.56 67.69 L66.79 67.49 L66.97 67.6 L67.47 67.62 L67.75 67.1 L67.85 67.11 L68.17 67.03 L68.38 66.92 L68.4 66.83 L68.6 66.98 L68.87 67.01 L69.21 66.98 L69.23 67.02 L69.15 67.22 L69.38 67.29 L69.49 67.22 L69.54 67.11 L69.54 66.95 L69.42 66.75 L69.54 66.72 L69.6 66.65 L69.63 66.56 L69.58 66.46 L69.67 66.4 L69.72 66.27 L69.85 66.28 L69.96 66.36 L70.17 66.35 L70.56 66.62 L70.68 66.49 L70.9 66.48 L71.05 66.4 L71.06 66.33 L71.15 66.25 L71.06 66.08 L71.06 65.53 L71.35 65.7 L71.57 65.69 L71.64 65.77 L71.73 65.77 L72.02 66.12 L72.2 66.12 L72.49 65.85 L72.82 65.99 L72.82 66.16 L72.86 66.24 L72.78 66.32 L72.77 66.43 L73 66.73 L73.18 67.03 L73.63 67.24 L73.71 67.34 L73.85 67.18 L74.07 67.09 L74.22 67.38 L74.75 67.48 L74.87 67.61 L75.07 67.67 L75.3 67.65 L75.35 67.75 L75.38 68.07 L75.5 68.09 L75.59 68.17 L75.61 68.26 L75.57 68.39 L75.67 68.52 L75.68 68.76 L75.81 68.9 L75.69 68.98 L75.5 69 L75.18 68.96 L75 69.06 L74.94 69.18 L74.85 69.21 L74.27 69.14 L74.03 68.88 L73.79 68.87 L73.45 69.07 L73.4 69.16 L73.19 69.33 L72.99 69.71 L72.84 69.76 L72.59 70.03 L72.26 69.97 L72.17 70.15 L72.02 70.24 L72.03 70.38 L71.98 70.54 L72 70.84 L71.65 71.35 L71.66 71.47 L71.46 71.85 L71.48 72.05 L71.32 72.24 L71.35 72.36 L71.49 72.57 L72.2 73.35 L72.31 73.61 L72.42 73.67 L72.5 74.06 L72.51 74.31 L72.46 74.38 L72.27 74.44 L72.15 74.54 L71.97 74.92 L71.98 75.79 L71.9 75.99 L71.99 76.14 L71.99 76.29 L71.89 76.45 L71.7 76.6 L71.64 76.78 L71.5 76.95 L71.61 77.42 L71.6 77.81 L71.56 77.86 L71.4 77.88 L71.22 77.98 L70.94 77.98 L70.94 78.16 L70.64 78.22 L70.51 78.36 L70.49 78.47 L70.39 78.45 L70.35 78.48 L70.29 78.69 L70.09 78.7 L69.91 78.85 L69.69 79.14 L69.65 79.27 L69.4 79.25 L69.36 79.36 L69.4 79.52 L69.37 79.76 L69.17 80.34 L68.95 80.56 L68.81 80.63 L68.7 80.94 L68.45 81.04 L68.46 81.38 L68.38 81.6 L68.22 81.66 L68.14 81.79 L68.12 81.91 L67.92 82.16 L67.59 82.15 L67.01 81.86 L66.69 81.95 L66.41 81.86 L66.07 81.68 L65.92 81.71 L65.74 81.68 L65.57 81.75 L65.38 81.75 L65.19 81.88 L65.24 82.29 L65.35 82.43 L65.27 82.5 L65.13 82.76 L65.03 82.85 L65.01 83.03 L65.05 83.1 L64.99 83.24 L64.96 83.44 L65.02 83.56 L65.03 83.74 L65.18 83.87 L65.29 84.18 L65.42 84.28 L65.15 84.36 L64.98 84.26 Z" /></svg>