<svg xmlns="http://www.w3.org/2000/svg" viewBox="0 0 96 96"><path fill="#efd0a0" fill-rule="evenodd" d="M68.57 79.01 L68.72 79.43 L68.61 79.58 L68.62 79.7 L68.9 80.05 L69.14 80.16 L69.24 80.34 L69.76 80.55 L69.87 80.71 L70.04 80.78 L69.97 81.01 L70.15 81.36 L70.43 81.35 L70.52 81.44 L70.73 81.96 L70.85 82.1 L70.69 82.42 L70.24 82.41 L70 82.54 L69.6 82.91 L69.46 82.98 L69.12 83.03 L68.9 83.08 L68.72 83.19 L68.17 83.3 L68.03 83.44 L67.74 83.59 L67.71 83.72 L67.61 83.87 L67.62 84.37 L67.51 84.6 L67.46 85.18 L67.4 85.25 L67.24 85.24 L67.18 85.31 L67 85.36 L66.9 85.33 L66.42 85.55 L65.99 85.65 L66.16 85.88 L66.14 85.98 L66.21 86.15 L66.21 86.34 L66.05 86.42 L65.9 86.62 L65.55 86.72 L65.55 86.92 L65.77 87.07 L65.7 87.07 L65.55 87.21 L65.51 87.17 L65.32 87.24 L65.08 87.14 L64.97 87.19 L64.95 87.34 L64.88 87.42 L64.89 87.53 L64.95 87.6 L64.91 87.65 L64.81 87.65 L64.56 87.49 L64.03 87.77 L63.6 87.78 L63.2 87.87 L62.94 87.78 L62.61 87.76 L62.24 88.03 L61.77 88.21 L61.54 87.94 L61.45 87.68 L60.84 87.13 L60.75 87.07 L60.52 87.07 L60.41 87.23 L60.29 87.25 L60.08 87.41 L60.13 87.68 L60.24 87.84 L60.23 87.91 L59.88 88.13 L59.65 88.2 L59.46 88.52 L59.31 88.67 L59.14 88.65 L58.83 88.8 L58.78 89 L58.61 89.11 L58.35 89.09 L58.13 88.94 L58.06 88.97 L58.06 89.11 L58.25 89.42 L58.11 89.67 L58.25 89.91 L58.07 89.88 L57.94 90 L57.79 89.9 L57.58 89.84 L56.99 89.76 L56.75 89.79 L56.41 89.59 L56.36 89.28 L56.41 89.02 L56.55 88.91 L56.53 88.84 L56.33 88.74 L56.3 88.62 L56.22 88.52 L56.02 88.51 L55.81 88.23 L55.75 88.24 L55.66 88.36 L55.5 88.42 L55.45 88.39 L55.41 88.27 L55.21 88.31 L55.13 88.28 L54.93 88.03 L54.79 87.97 L54.59 87.77 L54.52 87.65 L54.39 87.63 L54.32 87.56 L54.32 87.47 L54.39 87.3 L54.3 87.11 L54.29 86.86 L54.2 86.8 L53.99 86.84 L53.74 86.54 L53.71 86.44 L53.83 86.23 L53.85 86.06 L53.78 85.72 L53.8 85.56 L53.87 85.45 L54.11 85.41 L54.17 85.34 L54.27 85.23 L54.38 84.91 L54.33 84.65 L54.34 84.43 L54.2 84.14 L54.23 84 L54.32 83.94 L54.37 83.73 L54.58 83.28 L54.65 83.24 L54.69 83.14 L55.07 83.22 L55.23 83.19 L55.35 83.05 L54.97 82.82 L54.68 82.8 L54.61 82.86 L54.31 82.96 L54.1 82.96 L53.91 82.87 L53.79 82.87 L53.65 82.74 L53.49 82.76 L53.41 82.73 L53.34 82.62 L53.2 82.54 L52.83 82.56 L52.76 82.68 L52.6 82.7 L52.32 82.88 L52.23 83.02 L51.85 83.31 L51.75 83.58 L51.5 83.89 L51.29 83.98 L51.14 84.18 L51.02 84.24 L50.91 84.38 L50.83 84.42 L50.55 84.41 L50.21 84.51 L50.1 84.47 L49.9 84.3 L49.35 84.29 L49.22 84.35 L49.04 84.32 L48.9 84.38 L48.4 84.23 L48.17 84.31 L48.03 84.22 L47.88 84.24 L47.81 84.29 L47.46 84.24 L47.37 84.19 L47.28 84.22 L46.95 84.1 L46.52 83.7 L46.65 83.43 L46.93 83.04 L46.91 82.9 L47.05 82.7 L47.02 82.57 L47.15 82.38 L47.09 82.04 L47.13 81.7 L47.1 81.52 L46.97 81.4 L46.83 81.13 L46.68 81.04 L46.43 80.99 L46.4 80.86 L46.21 80.62 L46.24 80.5 L46.21 80.41 L45.95 80.42 L45.86 80.16 L45.77 80.07 L45.69 80.07 L45.7 80.24 L45.25 80.68 L44.93 80.59 L44.87 80.54 L44.77 80.57 L44.56 80.2 L44.35 80.4 L44.14 80.4 L44.05 80.47 L44.03 80.57 L43.81 80.75 L43.62 80.76 L43.33 80.7 L43.23 80.51 L43.05 80.39 L42.88 80.16 L42.82 80.14 L42.55 80.34 L42.43 80.81 L42.28 80.87 L42.19 80.97 L41.98 80.97 L41.66 81.19 L41.46 81.26 L41.42 81.42 L41.27 81.55 L41.26 81.66 L40.7 82.07 L40.4 82.22 L40.26 82.39 L40.21 82.56 L40.38 82.66 L40.68 82.73 L40.93 82.92 L40.99 83.05 L40.97 83.22 L41 83.32 L41.14 83.48 L41.12 83.57 L40.94 83.68 L40.9 83.83 L40.55 83.81 L40.31 83.91 L40.24 83.87 L40.17 83.88 L39.77 84.1 L39.54 84.3 L39.46 84.58 L39.17 84.82 L38.94 85.13 L38.86 85.5 L38.69 85.6 L38.78 86.02 L38.72 86.2 L38.74 86.36 L38.48 86.8 L38.49 86.92 L38.43 87 L38.16 87.21 L37.74 87.26 L37.54 87.23 L37.44 87.27 L37.27 87.16 L37.13 86.97 L37.02 86.68 L36.45 86.25 L36.41 86.17 L36.43 86.08 L36.3 85.95 L36.28 85.72 L36.18 85.72 L36.1 85.64 L36.11 85.45 L36.04 85.3 L36.14 85.11 L36.17 84.61 L35.6 84.21 L35.58 83.99 L35.67 83.72 L35.44 83.53 L35.45 83.31 L35.26 83.07 L35.35 82.42 L35.44 82.23 L34.22 81.35 L34.07 81.34 L33.91 81.4 L33.51 81.29 L33.43 81.19 L33.27 81.14 L33.18 81.24 L33.08 81.24 L33.01 81.07 L32.76 80.69 L32.7 80.67 L32.64 80.55 L32.52 80.53 L32.39 80.44 L32.19 79.98 L32.21 79.86 L32.17 79.77 L32.21 79.68 L32.09 79.69 L31.94 79.58 L31.48 79.87 L30.94 80.03 L30.74 79.93 L30.63 79.93 L30.34 79.82 L30.19 79.73 L30.11 79.55 L29.88 79.41 L29.75 79.25 L29.69 79.12 L29.71 79.04 L29.65 78.94 L29.35 78.89 L29.21 79.01 L28.76 79.19 L28.67 79.17 L28.55 79.07 L28.33 79.1 L27.94 78.64 L27.39 78.44 L27.32 78.3 L27.36 78.27 L27.6 78.28 L27.66 78.23 L27.81 78.2 L27.98 78.1 L28.16 77.94 L28.42 77.85 L28.77 77.5 L28.77 77.41 L28.97 77.17 L29.16 77.1 L29.28 77.11 L29.38 77.03 L29.46 77.06 L29.62 76.95 L29.78 77.04 L29.96 77.03 L30 76.84 L29.93 76.67 L29.93 76.53 L29.72 76.21 L29.86 75.97 L29.88 75.81 L29.98 75.7 L29.87 75.6 L29.8 75.36 L29.94 75.35 L30.13 75.18 L30.19 75.05 L30.27 75.03 L30.46 74.91 L30.07 74.78 L29.97 74.56 L29.84 74.48 L29.81 74.32 L29.67 74.09 L29.72 73.9 L29.69 73.8 L29.3 73.6 L29.08 73.59 L29 73.51 L29 73.38 L29.09 73.23 L29.28 73.02 L29.25 72.93 L28.87 72.6 L28.85 72.18 L28.76 71.97 L28.68 71.87 L28.57 71.88 L28.45 71.81 L28.35 71.65 L28.41 71.52 L28.33 71.24 L28.32 71.06 L28.43 70.76 L28.5 70.35 L28.65 70.14 L28.86 70.04 L28.96 69.81 L29.18 69.71 L29.26 69.62 L29.11 69.39 L29.15 69.28 L29.03 69 L28.98 68.69 L29.07 68.58 L29.04 68.34 L29.17 68.13 L29.18 67.99 L29.13 67.84 L28.91 67.57 L28.87 66.94 L29.13 66.75 L29.18 66.53 L29.73 66.36 L29.87 66.28 L29.91 66.2 L29.92 66.04 L30.18 65.84 L30.39 65.89 L30.58 65.83 L30.81 65.87 L31.1 65.84 L31.26 65.76 L31.35 65.44 L31.56 65.13 L31.68 64.82 L31.79 64.81 L32.01 64.66 L32.19 64.63 L32.27 64.48 L32.46 64.35 L32.5 64.26 L32.62 64.31 L32.87 64.25 L32.95 64.27 L33.21 63.99 L33.81 63.82 L33.94 63.63 L33.91 63.47 L33.79 63.31 L33.7 62.89 L33.48 62.59 L33.55 62.3 L33.52 62.18 L33.36 62.06 L33.42 61.65 L33.4 61.56 L32.93 61.7 L32.63 61.62 L32.44 61.85 L32.27 61.95 L32.1 61.98 L32 61.81 L31.94 61.39 L31.7 61.35 L31.48 61.44 L31.27 61.29 L31.21 61.15 L31.25 60.87 L31.19 60.81 L30.9 60.85 L30.69 60.82 L30.32 60.99 L30.14 61.01 L29.46 60.97 L29.22 60.89 L29.22 60.57 L29.1 60.29 L28.6 60.15 L28.49 59.96 L28.31 60.09 L27.88 60.15 L27.8 60.11 L27.74 59.99 L27.53 59.9 L27.49 59.78 L27.69 59.56 L27.79 59.34 L27.9 59.26 L27.94 59.12 L28.21 58.99 L28.2 58.91 L28.03 58.63 L28.03 58.54 L27.93 58.45 L27.94 58.29 L27.9 58.19 L27.8 58.09 L27.55 58.03 L27.63 57.96 L27.63 57.88 L27.39 57.6 L27.39 57.08 L27.31 56.79 L27.08 56.82 L26.77 57.07 L26.53 57.11 L26.43 57.28 L26.36 57.32 L26.28 57.32 L25.96 57.17 L25.95 56.99 L26.06 56.38 L25.91 56.18 L25.88 56.02 L25.73 55.79 L25.61 55.69 L25.84 55.42 L25.9 55.13 L25.65 54.31 L25.46 54.03 L25.24 53.93 L25.15 53.72 L25.26 52.84 L25.18 52.64 L25.31 52.57 L25.35 52.45 L25.29 52.33 L25.44 52.16 L25.79 51.59 L25.77 51.32 L25.86 51.16 L26.09 51.1 L26.33 51.2 L26.48 51.12 L26.69 50.91 L26.88 50.82 L27.02 50.9 L27.24 50.85 L27.45 50.96 L27.74 50.97 L27.79 50.81 L27.99 50.54 L27.96 50.39 L28.06 50.24 L28.22 50.18 L28.32 49.99 L28.66 49.87 L28.8 49.91 L28.96 50.05 L29.07 50.04 L29.6 49.63 L29.66 49.44 L29.81 49.22 L29.8 49.06 L29.72 49 L29.75 48.97 L30.03 48.86 L30.43 48.91 L30.52 48.86 L30.53 48.78 L30.36 48.56 L30.25 48.15 L30.15 48 L30.09 47.63 L29.88 47.32 L29.84 47.06 L29.9 46.76 L30.09 46.73 L30.24 46.62 L30.33 46.25 L30.49 46.06 L30.68 45.72 L30.87 45.59 L30.92 45.45 L30.88 45.33 L31.21 45.29 L31.52 45.51 L31.8 45.52 L31.99 45.39 L32.15 45.37 L32.33 45.25 L32.35 45.14 L32.25 44.98 L32.31 44.79 L32.28 44.63 L32.23 44.5 L32.12 44.4 L32.29 44.12 L32.49 43.94 L32.47 43.84 L32.29 43.67 L32.22 43.68 L32.23 43.61 L32.18 43.55 L31.76 43.48 L31.57 43.75 L31.54 43.96 L31.39 44.07 L31.37 44.23 L31.29 44.31 L31.19 44.31 L30.89 44.04 L30.83 43.89 L30.82 43.71 L30.72 43.59 L30.56 43.64 L30.3 43.6 L30.22 43.65 L30.06 43.49 L30.14 43.27 L30.07 43.14 L30.15 42.98 L30.14 42.89 L29.73 42.74 L29.41 42.57 L29.32 42.48 L29.1 42.44 L29.02 42.43 L28.88 42.59 L28.72 42.61 L28.57 42.79 L28.6 43.25 L28.74 43.5 L28.76 43.65 L28.87 43.76 L28.83 43.91 L28.67 43.97 L28.6 43.93 L28.24 43.29 L27.93 42.97 L27.86 42.37 L27.77 42.29 L27.41 42.21 L26.87 42.3 L26.57 42.28 L26.39 42.46 L26.27 42.85 L26.05 42.97 L26.03 42.92 L26.08 42.68 L26.01 42.28 L25.94 42.18 L25.97 42.07 L26.54 41.52 L27.01 41.27 L27.34 41.19 L27.45 41.06 L27.51 41.05 L27.52 40.86 L27.6 40.8 L27.57 40.72 L27.64 40.69 L27.71 40.52 L27.87 40.35 L28.24 40.03 L28.1 39.94 L28.12 39.69 L27.75 39.43 L27.78 39.26 L27.71 39.08 L27.83 39.01 L27.84 38.97 L27.68 38.88 L27.68 38.81 L27.6 38.77 L27.61 38.66 L27.52 38.64 L27.31 38.44 L27.23 38.21 L27.17 38.14 L27.16 38.01 L27.09 37.85 L27.15 37.79 L27.14 37.53 L26.99 37.42 L26.9 37.41 L26.8 37.31 L26.7 37.09 L26.69 36.95 L26.55 36.81 L26.53 36.71 L26.54 36.58 L26.47 36.16 L26.5 36.12 L26.53 35.88 L26.49 35.7 L26.58 35.38 L26.5 35.15 L26.51 34.97 L26.55 34.81 L26.83 34.49 L26.84 34.15 L26.94 34.03 L26.9 33.95 L26.94 33.83 L26.89 33.72 L26.95 33.65 L26.95 33.55 L27.07 33.4 L27.09 33.27 L27.03 33.21 L27.01 32.98 L27.12 32.62 L27.13 32.37 L27.22 32.27 L27.24 32.16 L27 31.9 L26.99 31.81 L27.06 31.72 L26.96 31.28 L26.88 31.13 L26.66 30.87 L26.67 30.78 L26.58 30.7 L26.53 30.43 L26.82 30.09 L27.12 30.13 L27.38 30.27 L27.75 30.22 L27.93 30.29 L28.19 30.3 L28.34 30.44 L28.71 30.26 L28.87 30.02 L29.03 30.1 L29.58 30.18 L29.72 30.11 L29.93 29.93 L29.86 29.84 L29.85 29.72 L29.73 29.6 L29.76 29.46 L29.65 29.22 L29.69 29.09 L29.5 28.94 L29.4 28.66 L29.22 28.39 L29.31 27.85 L29.21 27.68 L29.05 27.54 L29.02 27.12 L29.08 26.94 L29.03 26.74 L29.03 26.39 L28.91 26.16 L28.95 25.92 L28.88 25.86 L28.7 25.82 L28.61 25.69 L28.36 24.89 L28.43 24.57 L28.26 24.39 L27.99 24.33 L27.95 24.13 L27.74 23.92 L27.51 23.82 L27.64 23.69 L27.56 23.44 L27.74 23.27 L27.92 22.98 L27.93 22.83 L27.87 22.67 L27.89 22.38 L27.7 22.1 L27.3 21.75 L27.24 21.42 L27.12 21.24 L27.1 21.14 L27.41 20.77 L27.51 20.76 L27.68 20.61 L27.91 20.57 L28.07 20.47 L28.07 19.86 L28.22 19.69 L28.41 19.36 L28.65 19.21 L29.19 19.11 L29.37 19 L29.68 18.41 L29.79 18.05 L29.73 17.86 L29.79 17.62 L29.73 17.29 L29.88 17.09 L29.99 17.18 L30.24 17.21 L30.47 17.56 L30.56 17.56 L30.59 17.04 L30.76 16.52 L30.86 16.08 L31.06 15.93 L31.29 15.83 L31.43 15.65 L31.53 15.46 L31.57 15.29 L31.49 15.09 L31.57 15.09 L31.6 15 L31.9 15.02 L32.33 14.9 L32.67 14.99 L32.74 15.06 L32.98 15.03 L33.07 14.97 L33.24 14.98 L34.15 15.43 L34.35 15.43 L34.48 15.36 L34.55 15.43 L34.72 15.28 L35.19 15.2 L35.33 15.39 L35.32 15.69 L35.39 15.78 L35.47 15.78 L35.58 15.69 L35.85 15.8 L35.91 16.06 L36.27 16.46 L36.48 16.51 L36.71 16.44 L36.79 16.53 L36.95 16.22 L36.97 16.09 L37.03 16.02 L36.96 15.8 L37.06 15.48 L37.32 15.25 L37.38 14.96 L37.52 14.85 L37.54 14.63 L37.62 14.56 L37.57 14.36 L37.61 14.11 L37.94 13.2 L38.06 13.08 L38.12 13.13 L38.37 13.1 L38.71 13.2 L39 13.1 L39.42 13.03 L39.53 13.04 L39.59 13.1 L39.7 13.03 L39.86 13.08 L40.02 13.05 L40.09 12.67 L39.73 12.52 L39.51 12.17 L39.56 11.89 L39.65 11.83 L39.77 11.81 L39.91 11.63 L39.97 11.08 L40.09 10.98 L40.03 10.88 L39.85 10.75 L39.77 10.61 L39.54 10.52 L39.47 10.23 L39.8 9.96 L39.94 9.95 L39.99 9.79 L40.15 9.69 L40.11 9.6 L40.08 9.22 L40.12 8.61 L40.17 8.5 L40.32 8.41 L40.39 8.27 L40.66 8.1 L40.68 8.02 L40.85 7.84 L40.82 7.67 L40.84 7.55 L40.91 7.39 L41.03 7.31 L41.06 7.19 L41.2 7.15 L41.45 6.84 L41.69 6.72 L41.89 6.67 L42.14 6.51 L42.32 6.5 L42.44 6.39 L42.84 6.47 L43.08 6.41 L43.27 6.52 L43.36 6.48 L43.43 6.28 L43.51 6.19 L43.69 6.18 L43.91 6.26 L44.17 6.18 L44.28 6.08 L44.67 6.03 L45 6.06 L45.07 6 L45.44 6.55 L45.63 6.99 L45.76 7.16 L45.89 7.16 L46.12 6.87 L46.27 6.78 L46.41 6.78 L46.52 6.86 L46.65 7.1 L46.75 7.46 L46.82 8.14 L46.81 8.94 L47.09 9.71 L47.14 10.03 L47.05 10.32 L46.8 10.63 L46.72 10.87 L46.73 11.02 L46.89 11.38 L46.92 12.05 L46.7 12.33 L46.66 12.43 L46.67 13.11 L46.61 13.54 L46.36 14.69 L46.35 15.32 L46.43 15.62 L46.44 15.81 L46.26 16 L46.21 16.29 L46.23 16.34 L46.35 16.4 L47.07 16.33 L47.25 16.47 L47.3 16.65 L47.2 16.94 L47.09 17.07 L46.47 17.38 L46.17 17.6 L45.7 18.19 L45.41 18.48 L45.33 18.63 L45.31 18.78 L45.17 19 L45.07 19.5 L45.11 19.95 L45.07 20.17 L45.09 20.7 L45.17 21.08 L45.1 21.26 L45.14 21.62 L45.25 21.82 L45.26 21.98 L45.34 22.16 L45.34 22.48 L45.45 22.65 L45.64 23.23 L45.73 23.34 L45.83 23.37 L46.23 23.32 L46.33 23.36 L46.48 23.49 L46.71 23.92 L46.82 24.02 L46.98 24.08 L47.16 24.01 L47.44 23.51 L47.6 23.47 L47.75 23.54 L48.27 24.31 L49.09 25.22 L49.26 25.56 L49.62 25.67 L49.91 26.26 L50.09 26.51 L50.37 26.86 L50.64 27.12 L50.7 27.37 L50.64 27.72 L50.38 27.88 L50.05 28.28 L49.78 28.46 L49.6 28.53 L49 29.13 L48.88 29.38 L48.94 29.62 L49.2 29.84 L49.23 29.96 L49.16 30.25 L49.24 30.33 L49.23 30.38 L49.12 30.51 L48.81 30.53 L48.71 30.67 L48.49 30.73 L48.37 30.83 L48.29 30.96 L48.26 31.19 L48.14 31.31 L48.06 31.61 L47.88 31.84 L47.67 32.02 L47.65 32.13 L47.76 32.38 L47.43 32.73 L47.28 33.21 L47.13 33.32 L46.87 33.39 L46.6 33.74 L46.62 33.98 L46.53 34.16 L46.28 34.32 L46.09 34.37 L45.61 34.73 L45.59 34.85 L45.65 35 L46.07 35.29 L46.45 35.34 L46.52 35.44 L46.53 35.56 L46.49 35.69 L46.4 35.79 L46.02 35.93 L45.74 35.98 L45.5 36.12 L45.43 36.28 L45.41 36.8 L45.16 37.2 L45.1 37.64 L44.95 37.95 L44.92 38.21 L44.96 38.29 L45.1 38.39 L45.25 38.65 L45.25 38.86 L45.31 39.03 L45.3 39.23 L45.42 39.48 L45.33 39.69 L45.32 39.86 L45.58 40.15 L45.67 40.42 L45.96 40.68 L46.05 41 L46.26 41.38 L46.26 41.61 L46.32 41.72 L46.44 41.85 L46.69 41.95 L46.8 42.07 L46.9 42.52 L47.12 42.59 L47.14 42.81 L47.24 43.03 L47.35 43.16 L47.57 43.28 L47.65 43.96 L47.63 44.33 L47.8 44.43 L47.85 44.6 L48.17 44.88 L48.33 44.96 L48.78 44.93 L49.09 44.76 L49.49 44.82 L49.75 44.76 L49.9 44.82 L50.14 44.77 L50.27 44.9 L50.34 45.13 L50.62 45.3 L50.63 45.61 L50.81 45.65 L50.9 45.73 L51.05 45.77 L51.15 45.9 L51.12 46.27 L51.17 46.37 L51.27 46.46 L51.44 46.47 L51.53 46.75 L52.16 47.22 L52.21 47.28 L52.25 47.5 L52.39 47.56 L52.52 47.69 L52.58 47.8 L52.78 47.97 L52.79 48.2 L52.73 48.34 L52.82 48.54 L52.88 48.59 L53.03 48.58 L53.14 48.67 L53.25 48.97 L53.4 48.94 L53.64 49.04 L53.76 49.03 L53.9 49.19 L54.03 49.26 L54.04 49.48 L54 49.6 L54.14 50.3 L54.2 50.36 L54.33 50.33 L54.36 50.48 L54.34 50.67 L54.39 50.76 L54.61 50.82 L54.63 50.98 L54.76 51.09 L54.81 51.26 L54.92 51.32 L54.95 51.54 L55.06 51.78 L54.98 51.97 L55.04 52.12 L55.04 52.24 L55.26 52.42 L55.4 52.37 L55.71 52.59 L55.79 52.67 L55.87 52.88 L55.95 52.89 L56.06 52.79 L56.15 52.81 L56.49 53.26 L56.42 53.42 L56.49 53.51 L56.64 53.5 L56.65 53.35 L56.72 53.29 L56.92 53.38 L57.14 53.42 L57.23 53.53 L57.39 53.56 L57.46 53.79 L58.02 54.35 L58.11 54.78 L58.31 54.86 L58.3 54.99 L58.33 55.09 L58.46 55.11 L58.53 55.01 L58.67 55.12 L58.83 55.05 L58.9 55.15 L58.93 55.38 L59.19 55.53 L59.2 55.76 L59.27 55.84 L59.28 56 L59.4 56.05 L59.56 55.97 L59.7 56.07 L59.74 56.15 L59.86 56.18 L59.87 56.53 L60.02 56.55 L60.06 56.74 L60.29 56.95 L60.32 57.16 L60.22 57.22 L60.28 57.39 L60.24 57.51 L60.39 57.6 L60.28 57.75 L60.25 57.92 L60.8 58.3 L60.8 58.36 L60.68 58.54 L60.66 58.65 L60.71 58.87 L60.85 59.02 L60.88 59.2 L61.06 59.4 L61.13 59.53 L61.1 59.66 L61.15 59.83 L61.05 59.94 L61.04 60.04 L61.3 60.22 L61.4 60.42 L61.77 60.37 L61.9 60.49 L61.81 60.65 L61.86 60.75 L61.97 60.85 L62.17 60.94 L62.38 60.92 L62.7 61.33 L62.69 61.64 L62.73 61.89 L62.87 61.99 L62.85 62.09 L62.91 62.26 L62.87 62.42 L63.02 62.64 L62.92 62.75 L62.92 62.8 L63.02 63.02 L63.15 63.14 L63.09 63.24 L63.12 63.34 L63.2 63.43 L63.3 63.36 L63.34 63.43 L63.33 63.49 L63.22 63.55 L63.35 63.64 L63.29 63.8 L63.37 64.05 L63.29 64.17 L63.46 64.44 L63.37 64.74 L63.42 64.78 L63.52 64.79 L63.56 64.86 L63.49 65 L63.51 65.1 L63.3 65.26 L63.29 65.35 L63.12 65.44 L63.1 65.53 L63.19 65.59 L63.63 65.67 L63.95 66.06 L63.75 66.35 L63.94 66.47 L63.78 66.67 L63.78 66.75 L64 66.92 L64.05 67.09 L64.01 67.21 L63.81 67.3 L63.78 67.49 L63.56 67.76 L63.63 67.9 L63.82 67.91 L63.94 68.03 L63.97 68.08 L63.93 68.16 L64.02 68.36 L63.91 68.53 L63.95 68.78 L64.11 68.78 L64.24 68.95 L64.21 68.99 L64.11 68.99 L64.08 69.12 L63.95 69.18 L63.94 69.28 L64.2 69.51 L64.39 69.6 L64.38 69.66 L64.26 69.78 L64.27 69.89 L64.52 70.02 L64.5 70.23 L64.64 70.22 L64.7 70.27 L64.87 70.6 L64.87 70.98 L65.07 71.03 L65.34 71.39 L65.31 71.68 L65.53 71.91 L65.59 72.21 L65.83 72.44 L65.95 73.72 L66.39 73.99 L66.67 74.05 L66.66 74.43 L66.73 74.49 L66.94 74.51 L66.96 74.64 L67.13 74.79 L67.07 74.91 L67.12 75.21 L67.09 75.47 L67.37 75.61 L67.41 75.68 L67.59 75.64 L67.71 75.75 L67.84 75.76 L67.97 75.89 L67.95 75.97 L67.78 76.12 L67.7 76.38 L67.7 76.7 L67.84 76.86 L67.77 77.13 L67.85 77.23 L68.04 77.22 L68.2 77.33 L68.25 77.37 L68.28 77.58 L68.42 77.75 L68.44 77.99 L68.35 78.16 L68.36 78.24 L68.3 78.3 L68.32 78.48 L68.26 78.69 L68.49 78.77 L68.57 79.01 Z" /></svg>