<svg xmlns="http://www.w3.org/2000/svg" viewBox="0 0 96 96"><path fill="#efd0a0" fill-rule="evenodd" d="M29.57 90 L28.89 89.92 L28.89 89.7 L29.63 89.62 L29.57 90 Z M36.28 86.06 L36.19 86.61 L35.68 86.61 L35.81 85.85 L36.28 86.06 Z M26.86 70.92 L27.37 70.92 L28.35 72.36 L30.25 72.49 L30.85 73.25 L32.88 73.8 L33.48 75.29 L35.9 76.27 L35.98 77.49 L37.33 79.14 L38.45 79.74 L38.69 80.94 L39.37 80.94 L40.26 82.16 L41.4 82.75 L41.62 83.43 L41.16 84.33 L40.73 84.41 L40.64 84.03 L39.29 84.71 L38.91 84.33 L38.09 84.65 L38.01 85.47 L37.55 85.47 L34.92 83.43 L34.46 83.51 L34.46 83.05 L32.34 80.88 L31.31 80.2 L30.77 80.34 L30.68 79.74 L29.03 79.23 L28.21 80.34 L28.27 79.66 L27.83 79.36 L28.27 78.55 L27.59 78.3 L26.53 76.65 L25.93 76.81 L26.02 76.19 L25.26 75.97 L25.93 74.23 L24.96 73.72 L24.5 72.49 L25.55 71 L26.86 70.92 Z M43.49 85.01 L43.82 86.01 L44.8 86.91 L44.55 87.37 L43.87 87.5 L43.28 86.82 L42.68 87.29 L42.6 85.55 L43.49 85.01 Z M62.82 76.65 L62.93 76.76 L62.82 76.73 L62.82 76.65 Z M42.06 7.98 L45.61 7.44 L48.19 7.82 L52.37 6.16 L56.28 6.41 L58.5 6 L61.19 9.34 L62.17 12.38 L61.98 14.03 L64.07 16.37 L65.51 16.31 L65.4 18.81 L67.27 21.01 L67.57 25.24 L68.27 27.96 L67.49 31.65 L66.59 32.79 L66.43 34.12 L64.99 35.15 L64.75 37.16 L66.02 38.51 L66.81 41.17 L66.24 41.53 L64.34 40.85 L62.95 40.96 L61.98 40.22 L59.56 39.57 L58.45 38.16 L57.74 37.97 L58.12 39.17 L60.73 42.83 L60.92 45.76 L62.06 48.39 L62 49.94 L60.27 51.95 L60.35 52.84 L61.3 53.71 L66.59 56.16 L68.74 58.22 L68.71 59.17 L66.81 63.67 L67.32 65.19 L70.64 64.57 L70.69 65.44 L70.17 65.55 L70.45 67.45 L71.45 67.72 L71.5 68.4 L68.87 68.83 L68.79 71.57 L63.33 72.03 L63.31 72.85 L62.52 73.55 L63.63 74.04 L63.71 74.64 L63.09 74.86 L63.12 75.72 L62.6 75.83 L62.82 76.65 L55.87 73.8 L52.4 73.17 L50.06 73.25 L48.41 75.15 L46.75 75.15 L46.37 74.77 L47.65 73.8 L49.38 73.17 L50.66 71.82 L51.2 71.82 L51.42 70.92 L52.26 70.54 L51.96 69.64 L52.48 70.02 L53.32 69.1 L53.02 68.42 L53.46 68.21 L53.02 67.99 L53.37 67.36 L53.02 66.85 L53.46 66.33 L54.3 67.07 L54.43 66.39 L53.75 65.33 L52.78 65.87 L52.18 65.71 L52.56 64.52 L52.26 63.24 L53.08 61.26 L54.51 59.39 L55.87 54.34 L56.63 49.13 L56.39 44.62 L54.73 35.64 L52.1 27.5 L50.9 25.16 L49.6 20.41 L45.31 13.17 L43.82 12.87 L42.52 13.55 L42.84 11.81 L42 11.59 L42.38 10.23 L41.38 8.66 L42.06 7.98 Z" /></svg>