<svg xmlns="http://www.w3.org/2000/svg" viewBox="0 0 96 96"><path fill="#efd0a0" fill-rule="evenodd" d="M70.11 89.36 L70.02 89.4 L69.91 89.52 L69.66 89.6 L69.66 89.68 L69.73 89.79 L69.73 89.84 L69.45 90 L69.26 89.97 L69.1 89.89 L69.01 89.79 L68.95 89.57 L68.78 89.37 L68.6 89.4 L68.41 89.59 L68.15 89.65 L68.07 89.63 L68.02 89.54 L67.71 89.33 L67.7 89.08 L67.8 88.8 L67.75 88.71 L67.76 88.61 L67.86 88.32 L67.93 88.27 L68.09 88.19 L68.14 88.12 L68.17 88.01 L68.12 87.84 L68.12 87.68 L68.1 87.62 L67.96 87.53 L67.92 87.46 L67.94 87.12 L67.9 86.88 L67.91 86.68 L67.59 86.41 L67.39 86.35 L67.27 86.26 L67.19 86.07 L67.27 85.92 L67.14 85.79 L67.35 85.54 L67.53 85.55 L67.74 85.29 L67.75 85.21 L67.93 85.1 L68.04 84.96 L68.02 84.82 L67.81 84.68 L67.66 84.34 L67.5 84.29 L67.58 84.14 L67.73 84.08 L67.82 83.86 L68 83.84 L68.08 83.72 L68.19 83.66 L68.3 83.48 L68.31 83.38 L68.18 83.22 L68.08 83.2 L67.96 83.1 L67.91 82.88 L67.87 82.84 L67.59 82.75 L67.5 82.67 L67.32 82.72 L67.26 82.68 L67.04 82.29 L67.05 82.19 L67.01 82.05 L67.05 81.92 L66.9 81.89 L66.82 81.92 L66.68 82.31 L66.55 82.19 L66.42 82.16 L66.33 82.04 L66.15 82.08 L66.07 82.16 L65.9 82.17 L65.88 82.23 L65.91 82.34 L65.98 82.41 L65.96 82.46 L65.85 82.49 L65.27 83.08 L65.09 83.15 L65.02 83.28 L64.91 83.3 L64.81 83.29 L64.71 83.21 L64.65 82.89 L64.47 82.85 L64.31 82.76 L64.16 82.76 L64 82.49 L63.82 82.52 L63.64 82.21 L63.46 82.09 L63.27 81.77 L62.92 81.59 L62.82 81.18 L62.66 81.12 L62.66 81.06 L62.72 81.01 L62.71 80.96 L62.64 80.9 L62.36 80.83 L62.29 80.52 L62.13 80.48 L61.92 80.6 L61.62 80.56 L61.41 80.5 L61.26 80.52 L61.14 80.45 L61.11 80.52 L61.11 80.85 L61.06 81.06 L61.17 81.27 L61.18 81.45 L61.3 81.55 L61.45 81.6 L61.57 81.71 L61.62 81.89 L61.57 82.05 L61.39 82.24 L61.25 82.27 L61.07 82.42 L61.01 82.51 L60.87 82.44 L60.36 82.36 L60.04 82.21 L59.92 82.23 L59.76 82.5 L59.72 82.69 L59.6 82.84 L59.59 83.02 L59.52 83.46 L59.42 83.53 L59.28 83.55 L59.19 83.71 L58.96 83.81 L58.78 83.77 L58.45 83.57 L58.41 83.52 L58.4 83.41 L58.07 83.09 L57.94 82.76 L57.83 82.69 L57.72 82.68 L57.49 82.73 L57.27 82.67 L57.06 82.71 L56.86 82.58 L56.5 82.51 L56.16 82.62 L55.99 82.48 L55.9 82.55 L55.82 82.53 L55.6 82.3 L55.47 82.31 L55.3 82.25 L55.07 82.37 L55.01 82.47 L54.65 82.44 L54.59 82.41 L54.54 82.22 L54.37 81.96 L54.36 81.8 L54.4 81.77 L54.54 81.77 L54.65 81.7 L54.87 81.6 L55.17 81.36 L55.34 81.32 L55.48 81.24 L55.98 81.12 L56.02 81.09 L56.05 81 L56 80.9 L56.03 80.79 L55.93 80.63 L55.93 80.53 L56.12 80.26 L56.17 80.05 L56.35 79.89 L56.32 79.67 L56.24 79.61 L55.97 79.5 L55.56 79.12 L55.51 78.95 L55.46 78.9 L55.37 78.88 L55.11 79.05 L54.86 79.1 L54.76 79.04 L54.72 78.93 L54.81 78.78 L54.77 78.72 L54.52 78.7 L54.35 78.73 L54.16 78.63 L54.1 78.53 L54.08 78.42 L54.22 78.2 L54.25 78.05 L54.06 77.87 L53.98 77.68 L53.97 77.57 L53.9 77.46 L53.86 77.09 L53.78 76.97 L53.67 76.93 L53.54 76.77 L53.49 76.75 L53.34 76.74 L53.28 76.82 L53.15 76.76 L53.13 76.8 L53.06 76.82 L52.86 76.76 L52.78 76.67 L52.79 76.41 L52.71 76.13 L52.63 76.07 L52.59 76 L52.52 75.96 L52.51 75.9 L52.38 75.87 L52.35 75.8 L52.28 75.74 L52.3 75.7 L52.2 75.64 L52.22 75.5 L52.38 75.35 L52.44 75.23 L52.33 75.08 L52.74 74.79 L52.49 74.68 L52.37 74.56 L52.35 74.46 L52.2 74.43 L52.08 74.28 L51.9 74.16 L51.84 74.07 L51.84 73.92 L51.79 73.9 L51.63 73.68 L51.57 73.67 L51.35 73.84 L51.23 73.82 L51.12 73.93 L51.08 73.99 L51.06 74.18 L50.9 74.34 L50.9 74.47 L50.79 74.52 L50.58 74.76 L50.58 74.85 L50.5 75.05 L50.55 75.19 L50.49 75.33 L50.56 75.43 L50.44 75.76 L50.51 76.04 L50.6 76.14 L50.62 76.27 L50.66 76.33 L50.57 76.56 L50.61 76.65 L50.61 76.73 L50.68 76.76 L50.7 76.84 L50.7 77.02 L50.61 77.06 L50.58 77.19 L50.62 77.22 L50.73 77.22 L50.76 77.31 L50.89 77.45 L50.86 77.59 L50.73 77.62 L50.58 77.76 L50.6 77.87 L50.56 77.91 L50.58 77.96 L50.52 78.01 L50.54 78.22 L50.48 78.27 L50.49 78.34 L50.44 78.47 L50.53 78.56 L50.44 78.7 L50.3 78.63 L50.21 78.65 L50.14 78.71 L49.87 78.64 L49.83 78.58 L49.82 78.45 L49.7 78.38 L49.59 78.1 L49.43 77.96 L49.24 77.9 L49.16 77.78 L49.03 77.79 L49.08 77.74 L49.08 77.59 L48.88 77.37 L48.82 77.1 L48.89 76.91 L48.96 76.87 L48.98 76.71 L48.81 76.61 L48.71 76.64 L48.58 76.6 L48.49 76.52 L48.29 76.54 L48.26 76.69 L48.22 76.7 L48.14 76.6 L48 76.55 L47.91 76.56 L47.82 76.51 L47.7 76.58 L47.63 76.54 L47.52 76.66 L47.36 76.75 L47.33 76.85 L47.36 76.93 L47.17 77.04 L47 76.98 L46.93 77.09 L46.6 77.22 L46.54 77.21 L46.43 77.07 L46.36 77.04 L46.12 77.2 L45.85 77.29 L45.74 77.28 L45.65 77.36 L45.59 77.34 L45.11 77.66 L44.45 77.52 L44.21 77.54 L43.89 77.49 L43.75 77.51 L43.6 77.46 L43.34 77.51 L43.11 77.41 L43.08 77.1 L43.01 77.03 L42.83 76.95 L42.78 76.78 L42.58 76.79 L42.45 76.65 L42.29 76.63 L42.2 76.65 L42.17 76.73 L42.11 76.72 L42.12 76.63 L42.07 76.47 L42.1 76.2 L42.02 76.13 L41.89 76.09 L41.89 75.99 L41.75 75.81 L41.85 75.6 L41.74 75.46 L41.74 75.31 L41.81 75.21 L42.07 75.1 L42.06 75.03 L42.1 74.96 L42.11 74.86 L42.26 74.58 L42.26 74.46 L42.23 74.37 L42.06 74.23 L42.21 73.83 L42.17 73.49 L42.19 73.38 L42.26 73.32 L42.26 73.12 L42.12 73.02 L42.08 72.82 L41.99 72.8 L41.93 72.72 L41.81 72.66 L41.81 72.55 L41.76 72.44 L41.61 72.33 L41.47 72.15 L41.41 72.01 L41.5 72.03 L41.59 71.95 L41.65 71.7 L42.22 71.25 L42.3 71.09 L42.47 71.07 L42.59 70.97 L42.66 70.84 L42.67 70.68 L43.04 70.68 L43.38 70.73 L43.55 70.71 L43.69 70.6 L43.82 70.38 L44.13 70.4 L44.19 70.36 L44.22 70.27 L44.18 70.04 L44.21 69.98 L44.36 69.76 L44.62 69.58 L44.95 69.84 L45.1 69.87 L45.23 69.79 L45.34 69.64 L45.47 69.64 L45.65 69.54 L45.64 69.48 L45.54 69.34 L45.57 69.28 L45.81 69.27 L45.93 69.24 L46.02 69.18 L46.17 69.19 L46.46 69.11 L46.49 69.04 L46.46 68.78 L46.64 68.29 L46.65 68.06 L46.94 68.07 L47.01 67.89 L47.1 67.83 L47.12 67.77 L47.29 67.71 L47.31 67.51 L47.46 67.4 L47.68 67.36 L47.7 67.19 L47.84 67.15 L47.98 67.01 L48.02 66.87 L48 66.61 L48.18 66.39 L48.37 66.28 L48.55 66.23 L48.63 66.31 L48.69 66.31 L48.91 66.17 L49.09 66.02 L49.26 65.82 L49.42 65.71 L49.48 65.52 L49.6 65.43 L49.67 65.31 L49.86 65.25 L49.76 65.16 L49.74 65.03 L49.61 64.93 L49.52 64.68 L49.52 64.59 L49.53 64.55 L49.61 64.53 L49.66 64.37 L49.75 64.34 L49.93 64.15 L50.01 64.12 L50.07 64.01 L50.17 63.96 L50.15 63.87 L50.21 63.83 L50.2 63.75 L50.26 63.72 L50.25 63.63 L50.16 63.57 L50.11 63.47 L50.13 63.38 L50.19 63.37 L50.24 63.25 L50.19 63.2 L50.1 62.95 L50.16 62.79 L50.04 62.65 L50.13 62.4 L50.14 62.06 L50.25 61.92 L50.25 61.83 L50.34 61.78 L50.37 61.69 L50.32 61.59 L50.35 61.52 L50.33 61.46 L50.36 61.41 L50.32 61.28 L50.31 61.07 L50.22 60.89 L50.21 60.67 L50.25 60.57 L50.18 60.46 L50.23 60.4 L50.23 60.25 L50.27 60.21 L50.23 60.1 L50.29 59.93 L50.27 59.77 L50.22 59.73 L50.14 59.57 L50.01 59.49 L49.83 59.31 L49.76 58.94 L49.68 58.9 L49.57 58.9 L49.55 58.85 L49.57 58.78 L49.52 58.73 L49.53 58.68 L49.31 58.31 L49.33 58.26 L49.27 58.17 L49.24 57.85 L49.12 57.63 L49.01 57.63 L49 57.55 L48.94 57.41 L48.89 57.36 L48.89 57.28 L48.79 57.1 L48.8 57 L48.71 56.87 L48.55 56.79 L48.45 56.79 L48.32 56.63 L48.33 56.51 L48.16 56.36 L48.16 56.25 L48.09 56.16 L47.86 56.09 L47.78 56.12 L47.63 56.12 L47.44 55.9 L47.3 55.78 L47.09 55.72 L46.96 55.72 L46.86 55.65 L46.81 55.67 L46.76 55.59 L46.85 55.53 L46.8 55.32 L46.53 55.17 L46.56 55.01 L46.53 54.96 L46.46 55.03 L46.46 55.08 L46.43 55.08 L46.28 54.99 L46.27 54.9 L46.23 54.88 L46.19 54.87 L46.11 54.92 L45.88 54.9 L45.79 55.03 L45.64 55.01 L45.49 55.15 L45.48 55.28 L45.19 55.38 L45.11 55.29 L45.14 55.2 L45.12 55.17 L44.75 55.03 L44.63 54.9 L44.51 54.88 L44.43 54.89 L44.36 54.86 L44.04 54.53 L43.89 54.46 L43.8 54.5 L43.68 54.51 L43.42 54.41 L43.38 54.29 L43.5 54.15 L43.47 54.07 L43.47 53.91 L43.41 53.84 L43.36 53.71 L43.11 53.54 L43.04 53.35 L42.72 53.35 L42.47 53.25 L42.3 53.13 L42.28 53.04 L42.19 53 L41.93 53.01 L41.76 53.08 L41.7 53.07 L41.67 53.03 L41.65 52.89 L41.59 52.82 L41.5 52.81 L41.41 52.73 L41.21 52.73 L41.11 52.68 L41.08 52.59 L41 52.56 L39.78 52.46 L39.47 52.38 L39.18 52.17 L39.02 52.12 L38.77 52.09 L38.67 51.99 L38.64 51.85 L38.54 51.77 L38.55 51.64 L38.41 51.54 L38.16 51.6 L38.1 51.69 L38.05 51.7 L37.92 51.56 L37.81 51.56 L37.56 51.44 L37.49 51.33 L37.53 51.28 L37.48 51.18 L37.31 51.09 L37.16 50.91 L37.09 50.89 L36.97 50.95 L36.76 50.78 L36.52 50.75 L36.42 50.4 L36.29 50.24 L36.04 50.2 L35.94 50.36 L35.8 50.46 L35.72 50.45 L35.59 50.38 L35.54 50.31 L35.54 50.23 L35.67 49.82 L35.66 49.78 L35.56 49.7 L35.43 49.73 L35.39 49.71 L35.29 49.72 L35.18 49.79 L35.04 49.77 L34.92 49.69 L34.72 49.81 L34.32 49.68 L34.21 49.6 L34.04 49.6 L33.96 49.56 L33.85 49.61 L33.79 49.59 L33.7 49.48 L33.72 49.3 L33.65 49.22 L33.59 49.04 L33.47 49.02 L33.38 49.06 L33.33 49.04 L33.31 48.96 L33.17 48.99 L33.02 48.94 L32.68 48.99 L32.51 49.07 L32.31 49.03 L32.16 49.07 L31.99 49.03 L31.92 49.08 L31.92 49.15 L31.79 49.25 L31.76 49.36 L31.69 49.37 L31.6 49.49 L31.5 49.5 L31.45 49.57 L31.4 49.71 L31.27 49.75 L31.22 49.81 L31.08 49.76 L30.87 49.56 L30.75 49.58 L30.64 49.53 L30.32 50.03 L30.27 50.05 L30.18 50.04 L30.03 50.14 L29.83 50.17 L29.78 50.15 L29.59 50.26 L29.45 50.24 L29.38 50.03 L29.33 49.98 L29.24 49.98 L29.2 50.05 L29.14 50.08 L28.99 50.07 L28.96 50.01 L28.76 49.83 L28.7 49.7 L28.64 49.68 L28.54 49.77 L28.57 49.99 L28.41 50.02 L28.29 50.23 L28.22 50.31 L28.15 50.32 L28.04 50.3 L27.94 50.17 L27.84 50.11 L27.87 49.93 L27.73 49.82 L27.82 49.67 L27.8 49.61 L27.47 49.55 L27.34 49.67 L27.26 49.66 L26.99 49.49 L26.84 49.51 L26.65 49.4 L26.54 49.25 L26.56 49.13 L26.42 49.19 L26.37 48.99 L26.14 48.89 L25.98 48.71 L25.93 48.75 L25.85 48.74 L25.8 48.53 L25.8 48.38 L25.64 48.39 L25.49 48.3 L25.49 48.27 L25.55 48.22 L25.49 48.16 L25.47 48.1 L25.38 48.08 L25.34 48.05 L25.38 47.92 L25.37 47.85 L25.32 47.8 L25.16 47.74 L25.1 47.6 L25 47.49 L24.91 47.48 L24.77 47.55 L24.74 47.43 L24.63 47.36 L24.62 47.29 L24.73 47.22 L24.78 47.13 L24.66 47.14 L24.61 47.17 L24.55 47.15 L24.56 47.07 L24.63 47.07 L24.66 47.04 L24.68 46.88 L24.55 46.73 L24.36 46.73 L24.3 46.69 L24.29 46.64 L24.19 46.51 L24.18 46.24 L24.08 46.14 L24 46.14 L23.96 46.09 L23.99 45.95 L23.95 45.82 L23.6 45.53 L23.53 45.53 L23.46 45.59 L23.43 45.57 L23.41 45.41 L23.32 45.24 L23.36 45.19 L23.47 45.18 L23.53 45.14 L23.57 44.99 L23.54 44.92 L23.43 44.82 L23.46 44.6 L23.43 44.51 L23.3 44.4 L23.32 44.29 L23.27 44.15 L23.11 43.96 L23.01 44.13 L22.94 44.15 L22.87 43.95 L22.53 43.78 L22.54 43.72 L22.65 43.68 L22.66 43.51 L22.76 43.46 L22.71 43.39 L22.58 43.35 L22.53 43.22 L22.53 43.12 L22.62 43.06 L22.65 42.95 L22.4 42.96 L22.31 42.82 L22.33 42.72 L22.26 42.68 L22.05 42.48 L22 42.52 L21.98 42.69 L21.88 42.72 L21.83 42.69 L21.86 42.5 L21.78 42.32 L21.83 42.23 L21.96 42.22 L22.07 42.08 L22.04 41.61 L22.11 41.4 L21.91 41.35 L21.75 41.53 L21.68 41.55 L21.59 41.64 L21.41 41.56 L21.29 41.56 L21.21 41.44 L21.27 41.34 L21.26 41.23 L21.07 41.08 L21.12 41.02 L21.42 40.89 L21.5 40.81 L21.52 40.7 L21.46 40.6 L21.45 40.44 L21.49 40.37 L21.65 40.32 L21.76 40.15 L21.73 40.03 L21.57 40.02 L21.42 40.07 L21.25 40.17 L21.12 40.1 L21.01 39.91 L21.01 39.79 L21.04 39.7 L21.23 39.51 L21.21 39.42 L20.62 38.88 L20.35 38.68 L20.02 38.58 L19.86 38.29 L19.86 38.18 L19.92 38.07 L19.88 37.9 L19.76 37.74 L19.63 37.64 L19.44 37.6 L19.36 37.55 L19.32 37.41 L19.16 37.19 L19.13 37.06 L19.2 36.83 L19.18 36.73 L18.99 36.56 L18.82 36.36 L18.56 36.15 L18.52 36.03 L18.57 35.9 L18.43 35.7 L18.14 35.41 L18.06 35.21 L18.01 35.18 L17.86 35.21 L17.78 35.14 L17.74 35.06 L17.75 34.9 L17.68 34.84 L17.51 34.8 L17.43 34.73 L17.15 34.23 L16.99 34.27 L16.92 34.47 L16.75 34.56 L16.69 34.57 L16.49 34.52 L16.36 34.45 L16.28 34.37 L16.21 34.19 L16.04 33.96 L15.75 33.78 L15.71 33.67 L15.73 33.57 L15.72 33.47 L15.59 33.25 L15.69 33.12 L15.7 32.99 L15.55 32.85 L15.38 32.52 L15.26 32.16 L15.08 32.08 L14.94 32.22 L14.83 32.26 L14.76 32.22 L14.67 32.1 L14.67 31.73 L14.74 31.48 L14.73 31.38 L14.62 31.09 L14.45 30.85 L14.29 30.5 L14.27 30.36 L14.16 30.04 L14.14 29.87 L14.01 29.73 L13.81 29.6 L13.58 29.3 L13.35 29.27 L13.22 29.16 L13 28.84 L12.87 28.55 L12.63 28.56 L12.42 28.42 L12.4 28.34 L12.45 28.12 L12.41 28.04 L12.44 27.89 L12.43 27.34 L12.36 26.81 L12.29 26.6 L12.2 26.46 L11.97 26.23 L11.9 26.2 L12.13 26.07 L12.38 26.08 L12.44 25.93 L12.61 25.78 L12.64 25.83 L12.74 25.87 L12.81 25.95 L13.24 26.08 L13.34 26.15 L13.41 26.16 L13.58 26.32 L13.66 26.44 L13.75 26.76 L14.09 27.09 L14.22 27.28 L14.66 27.66 L14.61 27.78 L14.67 27.93 L14.82 28 L14.89 28.15 L14.99 28.24 L15.07 28.46 L15.26 28.82 L15.42 28.87 L15.52 28.84 L15.65 28.74 L15.74 28.76 L15.83 28.88 L15.75 29.04 L15.77 29.16 L15.9 29.24 L16.07 29.26 L16.27 29.34 L16.45 29.56 L16.56 29.64 L16.59 29.91 L16.73 30.01 L16.86 30.07 L16.93 29.99 L16.93 29.89 L17.01 29.7 L16.97 29.52 L16.99 29.41 L17.04 29.33 L17.25 29.19 L17.2 28.91 L17.31 28.75 L17.35 28.62 L17.43 28.57 L17.61 28.55 L17.71 28.44 L17.84 28.41 L18.14 28.43 L18.23 28.46 L18.37 28.36 L18.59 28.37 L18.6 28.41 L18.54 28.53 L18.64 28.65 L18.66 28.76 L18.71 28.81 L18.77 28.83 L18.88 28.79 L18.94 28.84 L18.97 28.94 L19.52 29.11 L19.61 29.19 L19.68 29.35 L19.77 29.42 L19.84 29.42 L19.95 29.35 L19.99 29.27 L19.94 29.18 L19.97 28.88 L19.91 28.75 L19.94 28.51 L19.92 28.22 L19.98 27.74 L19.92 27.54 L19.96 27.48 L20.11 27.45 L20.17 27.16 L20.21 27.09 L20.53 27.05 L20.55 26.9 L20.66 26.8 L20.83 26.76 L20.92 26.77 L21.02 26.72 L21.1 26.61 L21.25 26.54 L21.35 26.53 L21.53 26.64 L21.67 26.64 L22.24 26.31 L22.25 26.07 L22.32 26 L22.4 25.63 L22.5 25.38 L22.71 25.02 L22.95 24.8 L23.26 24.62 L23.53 24.51 L24 24.44 L24.27 24.35 L24.45 24.37 L24.6 24.43 L24.68 24.36 L24.66 24.26 L24.52 24.09 L24.57 23.89 L24.55 23.78 L24.49 23.77 L24.38 23.79 L24.1 23.64 L23.99 23.64 L23.85 23.57 L23.68 23.39 L23.64 23.18 L23.66 22.82 L23.63 22.72 L23.68 22.5 L23.71 22.01 L23.66 21.91 L23.52 21.82 L23.23 21.87 L23.17 21.78 L23.15 21.6 L23 21.57 L22.94 21.5 L22.94 21.41 L23.07 21.29 L23.07 21.23 L23.04 21.16 L22.91 21.05 L22.8 20.82 L22.8 20.59 L22.71 20.29 L22.8 19.91 L22.64 19.56 L22.57 19.31 L22.59 19.02 L22.31 18.83 L22.09 18.56 L22.03 18.35 L21.78 18.42 L21.58 18.42 L21.39 18.39 L21.21 18.31 L20.88 17.99 L20.66 17.68 L20.29 17.47 L20.18 17.35 L20.14 17.08 L20.16 17 L20.27 16.92 L20.33 16.81 L20.32 16.45 L19.56 15.27 L19.43 14.79 L19.47 14.62 L19.67 14.39 L19.66 14.09 L19.87 13.88 L20.04 13.57 L20.47 13.14 L20.8 12.96 L21 12.7 L21.22 12.49 L21.49 12.12 L21.65 12.1 L21.71 12.02 L21.85 12.02 L22.14 12.08 L22.22 12.07 L22.31 11.98 L22.39 11.83 L22.59 11.76 L22.59 11.64 L22.51 11.56 L22.47 11.45 L22.36 11.28 L22.23 11.19 L22.16 11.05 L22.24 10.86 L22.22 10.81 L22.34 10.64 L22.35 10.58 L22.41 10.52 L22.59 10.41 L22.67 10.3 L22.64 10.23 L22.69 10.15 L22.78 10.08 L22.83 9.93 L22.94 9.79 L23.19 9.6 L23.28 9.41 L23.36 9.35 L23.48 9.4 L23.57 9.36 L23.64 9.27 L23.9 9.21 L24.06 9.01 L24.2 8.63 L24.28 8.59 L24.45 8.56 L24.66 8.34 L24.74 8.21 L25 7.95 L25.19 7.88 L25.35 7.85 L25.4 7.8 L25.56 7.9 L25.76 7.84 L25.95 7.92 L26.32 7.86 L26.47 7.9 L26.67 7.89 L26.77 7.87 L26.92 7.68 L27.38 7.66 L27.59 7.49 L27.78 7.57 L27.98 7.4 L28.1 7.47 L28.25 7.43 L28.33 7.55 L28.42 7.52 L28.77 7.57 L29.17 7.52 L29.33 7.46 L29.68 7.23 L29.84 7.19 L29.97 7.2 L30.23 7.36 L30.35 7.37 L30.62 7.23 L30.8 7.19 L31.09 7 L31.16 6.92 L31.21 6.7 L31.26 6.67 L31.28 6.55 L31.7 6.3 L31.87 6.04 L31.95 6 L32.04 6 L32.27 6.12 L32.12 6.18 L32.08 6.27 L32.11 6.77 L32.23 6.84 L32.22 7.06 L32.33 7.14 L32.37 7.04 L32.47 7.03 L32.45 7.2 L32.52 7.25 L32.68 7.27 L32.68 7.33 L32.79 7.39 L32.8 7.47 L32.87 7.56 L32.86 7.59 L32.73 7.65 L32.53 7.62 L32.56 7.73 L32.48 7.85 L32.81 7.87 L32.88 7.83 L32.93 7.85 L32.93 7.96 L32.84 8.05 L32.85 8.14 L32.81 8.19 L32.74 8.19 L32.67 8.06 L32.74 8.01 L32.7 7.94 L32.39 8.04 L32.38 8.13 L32.53 8.14 L32.56 8.23 L32.54 8.31 L32.44 8.29 L32.3 8.33 L32.29 8.37 L32.33 8.42 L32.39 8.43 L32.6 8.35 L32.6 8.51 L32.7 8.54 L32.78 8.52 L32.83 8.39 L32.96 8.36 L33.09 8.29 L33.16 8.36 L33.16 8.42 L33.1 8.5 L32.91 8.62 L32.89 8.69 L32.93 8.75 L33.17 8.84 L33.18 8.81 L33.08 8.74 L33.06 8.69 L33.1 8.62 L33.16 8.61 L33.27 8.65 L33.37 8.77 L33.52 8.78 L33.67 8.9 L33.74 8.82 L33.66 8.65 L33.7 8.61 L33.76 8.6 L33.8 8.65 L33.76 8.78 L33.83 8.87 L33.93 8.88 L33.95 8.78 L34.04 8.84 L34.01 8.98 L34.04 9.03 L34.1 9.02 L34.18 8.87 L34.37 8.84 L34.42 8.88 L34.5 9.04 L34.6 8.98 L34.67 9 L34.66 9.2 L34.79 9.14 L34.88 9.23 L34.87 9.33 L34.74 9.34 L34.7 9.37 L34.68 9.42 L34.7 9.46 L34.78 9.48 L34.87 9.46 L35.11 9.52 L35.16 9.47 L35.08 9.4 L35.09 9.34 L35.21 9.24 L35.27 9.26 L35.27 9.33 L35.44 9.26 L35.47 9.41 L35.53 9.45 L35.56 9.44 L35.62 9.16 L35.55 9.08 L35.59 9.03 L35.72 9.03 L35.76 9.1 L35.74 9.17 L35.61 9.35 L35.61 9.4 L35.65 9.42 L35.87 9.25 L36.04 9.25 L36.26 9.17 L36.39 8.99 L36.57 8.9 L36.77 8.7 L36.85 8.78 L37 8.74 L37.07 8.76 L37.09 8.82 L37.08 8.95 L37.18 8.98 L37.2 8.88 L37.16 8.74 L37.28 8.7 L37.37 8.75 L37.38 8.8 L37.36 8.86 L37.23 8.93 L37.32 9.17 L37.33 9.32 L37.39 9.35 L37.54 9.34 L37.68 9.5 L37.68 9.65 L37.78 9.66 L37.94 9.5 L38.03 9.48 L38.1 9.51 L38.15 9.45 L38.2 9.46 L38.23 9.49 L38.25 9.63 L38.34 9.66 L38.44 9.65 L38.49 9.69 L38.45 9.79 L38.54 9.84 L38.61 9.99 L38.65 9.98 L38.71 9.86 L38.83 9.84 L38.88 9.89 L38.85 10.01 L38.87 10.04 L38.94 10.06 L39.04 9.98 L39.16 10.08 L39.15 10.11 L39.04 10.16 L39.01 10.22 L39.05 10.26 L39.35 10.31 L39.3 10.38 L39.28 10.49 L39.31 10.52 L39.37 10.51 L39.43 10.38 L39.41 10.17 L39.48 10.09 L39.59 10.13 L39.61 10.28 L39.68 10.36 L39.67 10.39 L39.57 10.45 L39.59 10.54 L39.67 10.52 L39.7 10.39 L39.88 10.34 L39.91 10.35 L39.93 10.39 L39.84 10.47 L39.86 10.5 L39.97 10.5 L40.17 10.35 L40.29 10.43 L40.37 10.37 L40.43 10.36 L40.46 10.41 L40.45 10.58 L40.55 10.69 L40.58 10.59 L40.54 10.55 L40.52 10.46 L40.58 10.38 L40.77 10.41 L40.76 10.27 L40.79 10.22 L40.84 10.23 L40.87 10.27 L40.86 10.37 L40.79 10.42 L40.84 10.51 L40.89 10.47 L41 10.5 L40.97 10.41 L41.02 10.34 L41.15 10.37 L41.17 10.31 L41.11 10.11 L41.15 10.07 L41.22 10.09 L41.25 10.22 L41.35 10.14 L41.29 9.95 L41.36 9.9 L41.35 9.86 L41.46 9.91 L41.54 9.79 L41.42 9.73 L41.51 9.63 L41.56 9.7 L41.62 9.69 L41.59 9.76 L41.62 9.8 L41.65 9.72 L41.69 9.71 L41.73 9.78 L41.73 9.71 L41.84 9.68 L41.74 9.59 L41.79 9.58 L41.77 9.52 L41.88 9.47 L42 9.57 L42.06 9.55 L42.09 9.44 L42.15 9.46 L42.14 9.5 L42.18 9.54 L42.2 9.48 L42.25 9.48 L42.25 9.53 L42.28 9.52 L42.33 9.4 L42.4 9.44 L42.5 9.44 L42.53 9.41 L42.52 9.32 L42.45 9.27 L42.5 9.21 L42.5 9.14 L42.53 9.19 L42.65 9.23 L42.78 9.16 L42.75 9.05 L42.96 9.1 L42.95 8.91 L42.99 8.85 L43.04 8.83 L43.12 8.87 L43.21 8.77 L43.25 8.78 L43.32 8.87 L43.38 8.88 L43.42 8.85 L43.38 8.79 L43.46 8.61 L43.5 8.61 L43.48 8.69 L43.53 8.73 L43.57 8.73 L43.58 8.67 L43.54 8.6 L43.6 8.58 L43.7 8.61 L43.66 8.67 L43.73 8.69 L43.77 8.53 L43.82 8.5 L43.86 8.52 L43.81 8.45 L43.88 8.39 L43.94 8.4 L43.98 8.46 L44 8.37 L44.02 8.42 L44.07 8.41 L44.08 8.46 L44.22 8.42 L44.28 8.39 L44.29 8.34 L44.35 8.34 L44.42 8.28 L44.46 8.2 L44.57 8.21 L44.58 8.24 L44.66 8.22 L44.71 8.12 L44.68 8.09 L44.76 8.06 L44.98 8.08 L44.97 8.24 L45.05 8.18 L45.14 8.18 L45.16 8.15 L45.09 8.13 L45.15 8.06 L45.15 8.02 L45.19 8.01 L45.2 7.96 L45.32 7.82 L45.29 7.76 L45.44 7.79 L45.62 7.78 L45.72 7.88 L46.02 7.98 L46.1 8.05 L46.23 8.07 L46.37 8.23 L46.5 8.18 L46.62 8.28 L46.67 8.52 L46.57 9 L46.61 9.12 L46.51 9.23 L46.49 9.42 L46.29 9.57 L46.14 9.6 L46.09 9.7 L45.86 9.97 L45.8 10.13 L45.69 10.2 L45.66 10.33 L45.59 10.4 L45.58 10.5 L45.63 10.61 L45.59 10.73 L45.68 11.13 L45.6 11.45 L45.39 11.61 L45.27 11.81 L45.27 12.19 L45.35 12.52 L45.3 12.72 L45.21 12.86 L45.21 13.05 L45.11 13.58 L44.86 13.81 L44.75 13.95 L44.61 14.03 L44.52 14.15 L44.34 14.21 L44.29 14.25 L44.26 14.51 L44.2 14.58 L44.19 14.63 L44.27 14.83 L44.44 15.1 L44.41 15.18 L44.28 15.33 L44.25 15.54 L44.2 15.65 L43.81 15.91 L43.67 16.08 L43.67 16.75 L43.6 16.87 L43.56 17.06 L43.46 17.24 L43.39 17.3 L43.43 17.4 L43.41 17.5 L43.5 17.66 L43.61 17.75 L43.65 17.84 L43.77 17.96 L43.95 18.24 L44.25 18.55 L44.35 18.72 L44.41 18.99 L44.53 19.25 L44.54 19.48 L44.59 19.68 L44.6 19.87 L44.53 20.06 L44.61 20.47 L44.69 20.66 L44.66 20.91 L44.76 20.99 L44.97 21.05 L45.55 21.05 L45.66 21.07 L45.72 21.12 L45.86 21.54 L45.96 21.71 L45.96 21.8 L45.9 21.92 L45.96 22.03 L45.92 22.15 L46.07 22.28 L46.01 22.51 L46.05 22.66 L46.34 22.79 L46.6 22.85 L46.75 22.83 L47.01 22.85 L47.58 22.78 L47.71 22.82 L47.93 22.79 L48.26 22.93 L48.55 23 L48.7 23 L49 23.15 L49.28 23.19 L49.42 23.26 L49.48 23.42 L49.53 24.17 L49.64 24.45 L49.39 24.93 L49.39 25.03 L49.5 25.33 L49.46 25.48 L49.34 25.63 L49.31 25.74 L49.37 26.01 L49.46 26.19 L49.54 26.24 L49.76 26.26 L49.82 26.37 L49.91 26.42 L49.97 26.51 L50.23 26.66 L50.39 26.63 L50.83 26.65 L50.94 26.71 L51.14 26.94 L51.77 27.22 L52.06 27.27 L52.24 27.17 L52.42 27.16 L52.71 27.22 L52.82 27.35 L52.71 27.5 L52.53 27.66 L52.47 27.75 L52.47 27.99 L52.34 28.1 L52.3 28.22 L52.01 28.48 L51.78 28.89 L51.54 29.22 L51.35 29.28 L51.3 29.32 L51.18 29.56 L51.11 29.64 L51.04 29.65 L50.75 29.58 L50.62 29.64 L50.44 29.99 L50.3 30.15 L50.24 30.28 L50.16 30.55 L50.18 30.84 L50.06 31.05 L49.89 31.2 L49.87 31.26 L50.12 31.57 L50.24 31.64 L50.41 31.66 L50.5 31.71 L50.69 31.69 L50.98 31.72 L51.06 31.74 L51.14 31.82 L51.18 31.94 L51.15 32.2 L51.35 32.45 L51.34 32.73 L51.38 32.85 L51.6 32.94 L51.7 33.02 L51.88 33.33 L52.21 33.74 L52.28 34.38 L52.08 34.75 L52.08 34.94 L52.16 35.1 L52.33 35.21 L52.69 35.32 L52.91 35.44 L52.97 35.55 L52.94 35.83 L52.99 35.87 L53.17 35.94 L53.2 36.03 L53.93 35.84 L54.68 35.76 L54.84 35.78 L55.15 35.95 L55.25 36.1 L55.23 36.18 L55.26 36.27 L55.19 36.46 L55.3 36.71 L55.45 36.74 L55.55 36.7 L55.76 36.73 L55.81 36.6 L55.86 36.57 L55.92 36.75 L55.99 36.78 L56 36.88 L56.05 36.96 L56.08 37.19 L56.19 37.29 L56.33 37.31 L56.51 37.22 L56.55 37.23 L56.65 37.16 L56.69 37.17 L56.75 37.57 L56.84 37.65 L56.76 37.81 L56.93 37.98 L57.01 38.03 L57.07 38.15 L57.22 38.16 L57.56 38.39 L57.69 38.43 L58.1 38.26 L58.23 38.17 L58.33 37.97 L58.52 37.74 L58.59 37.7 L58.84 37.75 L58.95 37.67 L59.05 37.55 L59.26 37.54 L59.66 37.65 L59.82 37.59 L59.93 37.57 L59.97 37.61 L60.06 37.58 L60.16 37.63 L60.2 37.69 L60.27 37.69 L60.49 37.83 L60.64 37.88 L60.78 38.01 L60.84 38.02 L60.88 38.07 L61.06 38.11 L61.08 38.18 L61.13 38.15 L61.27 38.24 L61.31 38.22 L61.55 38.39 L61.73 38.4 L61.83 38.46 L61.91 38.4 L61.99 38.43 L62.03 38.37 L62.1 38.42 L62.09 38.33 L62.14 38.31 L62.15 38.35 L62.24 38.43 L62.18 38.53 L62.2 38.61 L62.23 38.67 L62.36 38.75 L62.39 38.86 L62.68 38.83 L62.66 38.94 L62.7 39.04 L62.91 39.01 L63 39.11 L63.1 39.16 L63.17 39.26 L63.38 39.17 L63.5 39.34 L63.63 39.38 L63.89 39.24 L63.98 39.1 L64.07 39.09 L64.19 39.24 L64.44 39.4 L64.59 39.69 L64.65 39.75 L64.74 39.78 L64.76 39.85 L64.82 39.86 L64.86 39.98 L64.94 39.95 L65 40.05 L65.08 40.05 L65.19 40.26 L65.29 40.25 L65.36 40.29 L65.39 40.36 L65.54 40.38 L65.56 40.44 L65.59 40.42 L65.62 40.47 L65.67 40.46 L65.72 40.56 L65.82 40.61 L66.01 40.64 L66.05 40.61 L66.27 40.74 L66.54 40.79 L66.93 40.92 L67 40.92 L67.06 40.97 L67.14 40.95 L67.43 41.09 L67.76 41.26 L67.9 41.37 L68.2 41.48 L68.37 41.61 L68.68 41.77 L68.79 41.87 L68.83 41.96 L68.9 41.97 L68.89 42.02 L69 41.97 L69.05 42.03 L69.1 42.03 L69.13 42 L69.12 41.86 L69.16 41.84 L69.22 41.87 L69.26 41.79 L69.25 41.75 L69.37 41.65 L69.35 41.6 L69.38 41.6 L69.44 41.69 L69.48 41.7 L69.56 41.52 L69.65 41.56 L69.74 41.55 L69.75 41.61 L69.82 41.66 L69.82 41.71 L69.9 41.72 L69.9 41.84 L69.97 41.94 L70.01 41.92 L70 41.86 L70.02 41.83 L70.33 41.75 L70.65 41.83 L70.94 41.97 L71.23 42.03 L71.45 42.03 L71.56 41.92 L71.64 42.04 L71.77 42.14 L71.94 42.15 L72.04 42.2 L72.51 42.29 L72.66 42.37 L72.72 42.44 L73.17 42.59 L73.26 42.69 L73.28 42.77 L73.37 42.75 L73.47 42.77 L73.78 42.95 L74.07 42.94 L74.12 42.79 L74.26 42.7 L74.76 42.75 L74.84 42.81 L74.87 42.91 L75.03 43.03 L75.1 43.15 L75.26 43.2 L75.72 43.46 L75.89 43.49 L76.22 43.42 L76.63 43.46 L76.86 43.53 L77 43.44 L77.16 43.46 L77.31 43.43 L77.45 43.29 L77.55 43.27 L77.69 43.16 L77.85 43.11 L78.03 43.22 L78.24 43.16 L78.46 43.19 L78.57 43.22 L78.76 43.33 L78.9 43.37 L78.99 43.37 L79.07 43.33 L79.84 43.55 L80.12 43.58 L80.4 43.65 L80.69 43.67 L80.74 43.57 L80.88 43.52 L81 43.36 L81.18 43.29 L81.25 43.16 L81.18 43.09 L81.18 43.02 L81.3 42.84 L81.43 42.76 L81.67 42.75 L81.9 42.68 L82.08 42.7 L82.27 42.79 L82.64 42.79 L82.88 42.99 L82.99 43.13 L82.98 43.78 L82.79 43.83 L82.7 43.93 L82.75 43.99 L82.85 44.02 L82.93 43.99 L83.15 43.85 L83.27 43.92 L83.02 44.31 L83.07 44.38 L83.27 44.5 L83.31 44.57 L83.3 44.72 L83.35 44.81 L83.35 44.95 L83.27 45.08 L83.31 45.21 L83.3 45.41 L83.21 45.63 L83.27 45.72 L83.19 45.89 L82.9 45.89 L82.87 45.99 L82.68 46.07 L82.64 46.17 L82.56 46.22 L82.56 46.27 L82.62 46.39 L82.87 46.46 L82.9 46.58 L83.01 46.62 L83.29 46.61 L83.53 46.69 L83.69 46.86 L83.83 46.93 L83.92 47.05 L84.06 47.1 L84.04 47.23 L84.1 47.41 L84.08 47.45 L84.04 47.46 L83.97 47.42 L83.63 47.35 L83.58 47.45 L83.45 47.45 L83.33 47.39 L83.14 47.49 L83.18 47.66 L83.07 47.86 L83.13 47.92 L83.16 48.09 L83.02 48.42 L83.02 48.63 L82.72 48.44 L82.66 48.34 L82.49 48.36 L82.39 48.31 L82.32 48.4 L81.97 48.48 L81.97 48.53 L82.08 48.74 L82.09 48.88 L82.15 49.05 L82.02 49.13 L81.97 49.4 L81.87 49.49 L81.85 49.59 L81.75 49.67 L81.58 49.95 L81.59 49.99 L81.83 50.02 L81.95 50.09 L81.88 50.17 L81.86 50.28 L81.71 50.41 L81.59 50.64 L81.51 50.69 L81.37 50.85 L81.15 51.21 L81.05 51.29 L80.81 51.33 L80.63 51.55 L80.33 51.77 L80.13 52.21 L80.23 52.47 L80.21 52.82 L80.17 52.83 L80.09 52.77 L80.05 52.78 L79.97 52.89 L79.9 52.91 L79.86 52.97 L79.63 52.97 L79.55 53.06 L79.42 53.03 L79.32 53.2 L79.06 53.22 L78.85 53.42 L78.74 53.43 L78.66 53.53 L78.58 53.75 L78.31 53.93 L78.11 54.17 L77.92 54.3 L77.81 54.44 L77.58 54.44 L77.27 54.28 L77.18 54.32 L77.07 54.4 L76.78 54.48 L76.77 54.6 L76.8 54.78 L76.68 54.9 L76.67 55.22 L76.47 55.35 L76.38 55.47 L76.45 55.57 L76.42 55.99 L76.56 56.16 L76.71 56.5 L76.65 56.62 L76.81 56.66 L76.87 56.73 L76.97 56.93 L76.98 57.1 L77.09 57.24 L77.05 57.44 L77.05 57.58 L76.96 57.68 L76.92 57.78 L76.91 58.04 L76.79 57.88 L76.67 57.78 L76.55 57.73 L76.53 57.68 L76.36 57.66 L76.06 57.52 L75.94 57.52 L75.74 57.47 L75.24 57.54 L75.17 57.65 L75.04 57.59 L74.94 57.63 L74.79 57.61 L74.56 57.74 L74.36 57.6 L74.13 57.49 L74.09 57.2 L74.05 57.17 L73.87 57.2 L73.55 57.51 L73.53 57.59 L73.56 57.68 L73.53 57.85 L73.63 57.97 L73.71 58.02 L73.88 58.04 L74.05 58.24 L74.36 58.24 L74.49 58.34 L74.51 58.55 L74.6 58.71 L74.51 59.07 L74.81 59.17 L74.9 59.3 L74.92 59.39 L74.89 59.52 L74.83 59.61 L74.44 59.96 L74.33 60.25 L74.18 60.45 L74.18 60.55 L74.25 60.67 L74.07 61.1 L74.1 61.18 L74.3 61.28 L74.32 61.33 L74.26 61.37 L74.12 61.36 L74.04 61.43 L73.93 61.57 L73.9 61.73 L74.1 61.96 L74.16 62.24 L74.5 62.45 L74.48 62.54 L74.54 62.66 L74.64 62.61 L74.74 62.49 L74.78 62.49 L75.16 62.57 L75.33 62.73 L75.21 62.9 L74.99 63.12 L75.01 63.45 L74.99 63.53 L74.94 63.6 L74.69 63.79 L74.71 63.94 L74.45 63.97 L74.29 64.08 L74.21 64.09 L74.12 64.16 L74.04 64.3 L73.95 64.28 L73.87 64.32 L73.78 64.51 L73.71 64.5 L73.65 64.54 L73.48 64.48 L73.39 64.57 L73.34 64.85 L73.48 64.99 L73.48 65.06 L73.39 65.21 L73.25 65.28 L73.18 65.51 L73.2 65.59 L73.14 65.74 L73.19 65.82 L73.29 65.87 L73.31 65.98 L73.48 66.16 L73.53 66.5 L73.31 66.54 L73.28 66.84 L72.87 67.15 L72.86 67.55 L72.97 67.75 L72.91 67.82 L72.89 67.91 L72.77 67.96 L72.65 67.89 L72.55 67.89 L72.29 68.11 L72.18 68.12 L71.9 68.3 L71.74 68.62 L71.64 68.63 L71.6 68.61 L71.58 68.65 L71.44 68.65 L71.55 68.79 L71.57 68.97 L71.44 69.17 L71.58 69.4 L71.67 69.42 L71.67 69.64 L71.81 69.74 L71.83 69.87 L71.9 69.93 L71.76 70 L71.5 70.05 L71.39 70.15 L71.38 70.27 L71.45 70.35 L71.49 70.54 L71.37 70.79 L71.42 71 L71.16 71.1 L71.21 71.14 L71.4 71.56 L71.57 71.81 L71.57 71.87 L71.5 71.9 L71.52 71.98 L71.7 72.13 L71.82 72.4 L71.69 72.43 L71.66 72.59 L71.64 72.66 L71.59 72.68 L71.35 72.6 L71.28 72.49 L71.19 72.48 L71.12 72.47 L70.86 72.58 L70.78 72.67 L70.76 72.74 L70.9 72.84 L70.96 72.97 L70.87 72.96 L70.66 72.86 L70.58 72.87 L70.34 73.01 L70.18 73.19 L70.1 73.33 L69.79 73.53 L69.7 73.64 L69.63 73.65 L69.53 73.6 L69.28 73.67 L68.99 73.69 L68.94 73.87 L68.82 73.98 L68.91 74.35 L68.99 74.49 L69.08 74.58 L69.11 74.69 L69.24 74.72 L69.41 74.91 L69.4 75.27 L69.89 75.69 L69.99 75.96 L70.06 76.03 L70.17 76.08 L70.44 76.02 L70.52 76.16 L70.61 76.18 L70.7 76.07 L70.75 75.92 L70.89 75.78 L71.06 75.87 L71.17 75.89 L71.23 75.96 L71.34 75.99 L71.53 76.1 L71.65 76.3 L71.62 76.4 L71.55 76.45 L71.48 76.69 L71.54 76.83 L71.54 76.96 L71.6 77.09 L71.57 77.21 L71.6 77.27 L71.59 77.45 L71.47 77.51 L71.3 77.54 L71.24 77.6 L71.26 77.71 L71.31 77.78 L71.22 77.83 L71.22 77.9 L71.29 78.03 L71.33 78.19 L71.29 78.29 L71.3 78.51 L71.24 78.54 L71.23 78.83 L71.29 79.03 L71.38 79.12 L71.42 79.27 L71.35 79.35 L71.32 79.5 L71.41 79.68 L71.45 79.86 L71.22 80.02 L71.2 80.13 L71.23 80.21 L71.08 80.36 L71.06 80.5 L71.1 80.6 L71.07 80.92 L71.23 81.3 L71.22 81.51 L71.29 81.66 L71.28 81.85 L71.2 82.06 L71.26 82.24 L71.25 82.54 L71.3 82.66 L71.28 82.8 L71.55 83.04 L71.58 83.4 L71.62 83.49 L71.61 83.7 L71.59 83.8 L71.52 83.88 L71.64 84.1 L71.63 84.4 L71.73 84.5 L71.69 84.62 L71.7 84.82 L71.81 84.94 L71.77 85.06 L71.91 85.21 L71.85 85.27 L71.84 85.38 L71.75 85.48 L71.75 85.53 L71.65 85.6 L71.61 85.72 L71.49 85.77 L71.44 85.85 L71.48 86 L71.62 86.1 L71.66 86.31 L71.76 86.41 L71.97 86.52 L72.13 86.76 L72.15 86.9 L72.08 87.1 L71.98 87.22 L71.93 87.24 L71.6 87.25 L71.44 87.19 L71.03 87.57 L70.93 87.7 L70.92 87.85 L70.77 88.16 L70.66 88.26 L70.61 88.44 L70.45 88.66 L70.35 89.08 L70.28 89.2 L70.11 89.36 Z" /></svg>