<svg xmlns="http://www.w3.org/2000/svg" viewBox="0 0 96 96"><path fill="#efd0a0" fill-rule="evenodd" d="M31.04 75.68 L31.25 75.91 L31.12 76.21 L30.88 76.33 L30.84 76.79 L30.67 76.93 L30.71 77.1 L30.66 77.19 L29.96 77.25 L29.84 77.15 L29.69 77.12 L29.53 77.36 L29.18 77.41 L28.93 77.35 L28.73 77.53 L28.65 77.55 L28.22 77.11 L28.08 77.11 L27.96 77.2 L27.89 77.37 L27.75 77.33 L27.64 77.41 L27.61 77.63 L27.71 77.82 L27.24 77.92 L26.8 78.24 L26.59 78.25 L26.47 78.31 L26.37 78.23 L25.98 78.26 L25.88 78.39 L25.67 78.44 L25.53 78.74 L25.54 78.88 L25.46 78.95 L25.33 78.99 L25.07 78.92 L24.54 79.09 L24.46 79.29 L24.51 79.44 L24.41 79.61 L24.04 79.63 L23.87 79.76 L23.77 79.94 L23.72 80.33 L23.67 80.34 L23.61 80.27 L23.56 80.03 L23.44 79.98 L23.26 79.81 L23.02 79.83 L22.9 79.79 L22.76 79.83 L22.61 79.72 L22.3 79.71 L22.26 79.68 L22.26 79.52 L22.14 79.43 L21.85 78.98 L21.78 78.94 L21.53 78.98 L21.45 78.95 L21.37 78.66 L21.48 78.39 L21.31 78.07 L21.28 77.57 L20.77 77.58 L20.6 77.5 L20.5 77.57 L20.31 77.05 L20.23 76.69 L20.08 76.93 L19.86 77.01 L19.75 77.12 L19.66 77.05 L19.48 77.03 L19.52 76.68 L19.23 76.2 L19.4 75.95 L19.29 75.84 L19.28 75.62 L19.07 75.11 L18.93 75.01 L18.67 74.95 L18.69 74.57 L18.64 74.47 L18.47 74.37 L18.31 74.12 L18.27 73.52 L18.38 73.34 L18.3 72.93 L18.21 72.79 L18.06 72.71 L17.98 72.52 L18.16 71.84 L18.15 71.65 L18.06 71.44 L18.19 71.1 L18.01 69.43 L18.22 69.29 L18.54 69.35 L18.88 69.3 L18.91 68.77 L18.97 68.68 L18.98 68.5 L19.12 68.32 L19.12 68.19 L19.22 68.09 L19.31 67.75 L19.47 67.68 L19.66 67.74 L19.89 67.64 L19.77 66.86 L19.75 66.42 L20 66.38 L20.24 66.17 L20.72 66.13 L20.75 65.71 L20.68 65.48 L20.91 65.2 L21.01 64.89 L21.02 64.63 L20.57 64 L20.21 63.82 L20.14 63.52 L20.24 63.37 L20.21 63.17 L20.06 63.08 L19.91 62.65 L19.7 62.52 L19.69 62.33 L19.58 62.06 L19.49 61.96 L19.39 61.93 L19.3 61.77 L19.27 61.68 L19.31 61.52 L19.05 60.84 L18.57 60.23 L18.4 59.71 L18.38 59.1 L18.41 58.94 L18.35 58.8 L18.29 58.75 L18.11 58.75 L18.1 58.52 L17.95 58.15 L17.74 58.04 L17.43 57.73 L17.42 57.47 L17.24 57.07 L17.11 56.96 L16.91 57.01 L16.81 57.23 L16.31 57.22 L16.06 57.56 L16.08 57.92 L16.01 58.16 L15.9 58.19 L15.74 58.03 L15.58 57.98 L15.53 57.78 L15.35 57.56 L15.18 57.38 L14.96 57.26 L14.83 57.11 L14.78 56.87 L14.62 56.65 L14.41 56.1 L14.26 55.86 L14.23 55.66 L14.06 55.45 L13.98 55.13 L14.05 54.97 L14.16 54.91 L14.22 54.68 L14.38 54.49 L14.59 54.44 L14.63 54.31 L14.74 54.21 L14.91 54.24 L15.04 54.37 L15.12 54.19 L15.35 54.04 L15.63 53.96 L15.82 53.68 L15.8 53.28 L15.98 53.19 L16.04 52.85 L16.19 52.68 L16.32 52.73 L16.41 52.68 L16.54 52.71 L16.64 52.66 L16.82 52.7 L16.86 52.64 L16.92 52.42 L16.84 52.14 L17 51.99 L17.16 51.92 L17.37 51.62 L17.3 51.5 L17.34 51.37 L17.27 51.19 L17.32 51.01 L17.25 50.89 L17.33 50.78 L17.33 50.67 L17.05 50.25 L16.91 49.88 L17.05 49.48 L17.45 49.13 L17.53 48.98 L17.57 48.61 L17.39 48.21 L17.42 47.89 L17.59 47.66 L17.73 47.59 L17.73 47.33 L17.88 47.02 L18.02 46.91 L18.23 46.88 L18.26 46.77 L18.46 46.62 L18.45 46.42 L18.61 46.11 L18.62 45.86 L19.02 45.67 L19.42 45.18 L19.44 45.08 L19.36 44.92 L19.43 44.63 L19.63 44.57 L19.83 44.59 L19.8 44.41 L20.09 43.85 L20.18 43.76 L20.36 43.77 L20.45 43.96 L20.58 44.62 L21.01 45.37 L21.02 45.67 L21.26 45.82 L21.62 45.88 L21.78 46.06 L22.06 46.24 L22.13 46.39 L22.24 46.49 L22.33 46.74 L22.5 46.91 L22.72 46.76 L23.03 46.03 L23.23 45.81 L23.27 45.4 L23.13 45.08 L23.17 44.95 L23.11 44.82 L23.27 44.44 L23.25 44.14 L23.67 43.63 L23.66 43.52 L23.53 43.29 L23.61 42.95 L23.42 42.37 L23.43 42.17 L23.26 41.95 L23.23 41.81 L22.62 41.24 L22.41 40.88 L22.41 40.61 L22.01 40.29 L21.84 40.21 L21.78 40.12 L21.81 40 L21.46 39.86 L20.99 39.81 L20.85 39.63 L20.53 39.59 L20.36 39.47 L20.21 39.48 L19.94 39.34 L19.71 39.39 L19.35 39.32 L18.82 38.97 L18.7 38.96 L18.57 38.88 L18.38 38.58 L18.29 38.55 L18.03 38.21 L17.68 38.06 L17.58 38.03 L17.14 38.15 L16.95 37.94 L16.78 37.88 L16.63 37.93 L16.5 37.71 L16.37 37.73 L16.27 37.8 L16.1 37.8 L16.02 37.57 L15.85 37.42 L15.61 37.3 L15.47 37.15 L15.45 36.96 L15.38 36.9 L15.24 36.86 L15.1 36.75 L14.97 36.74 L14.84 36.53 L14.68 36.51 L14.61 36.4 L14.47 36.36 L14.44 36.28 L14.49 36.05 L14.37 35.91 L14.03 35.77 L13.91 35.78 L13.83 35.7 L13.65 35.72 L13.48 35.68 L13.23 35.43 L12.91 35.27 L12.73 35.09 L12.68 35.09 L12.56 35.19 L12.18 35.02 L12.27 34.82 L12.39 34.79 L12.34 34.64 L12.39 34.59 L12.26 34.41 L12.11 34.41 L11.97 34.29 L11.83 34.33 L11.75 34.28 L11.72 33.94 L11.54 33.89 L11.49 33.69 L11.58 33.48 L11.31 33.28 L11.31 33.17 L11.17 33 L11.17 32.94 L11.02 32.82 L10.87 32.96 L10.81 32.95 L10.57 32.71 L10.52 32.38 L10.35 32.22 L10.36 32.07 L10.26 31.89 L10.36 31.67 L10.17 31.42 L10.17 31.14 L10.26 31.07 L10.26 30.96 L9.96 30.78 L9.59 30.35 L9.49 29.78 L9.39 29.67 L9.31 29.42 L8.84 29.16 L8.78 29.01 L8.71 28.96 L8.79 28.85 L8.75 28.57 L8.68 28.43 L8.68 28.27 L8.54 28.2 L8.37 28.02 L8.06 27.79 L8.01 27.59 L8.1 27.51 L8.05 27.28 L8.1 27.04 L7.95 26.88 L7.98 26.77 L7.91 26.61 L7.93 26.44 L7.65 25.97 L7.69 25.71 L7.76 25.64 L7.68 25.42 L7.49 25.33 L7 25.31 L6.81 25.2 L6.67 25.04 L6.66 24.81 L6.76 24.69 L6.73 24.57 L6.78 24.43 L6.77 24.12 L6.87 23.84 L6.86 23.69 L6.63 23.41 L6.63 23.1 L6.36 22.94 L6.18 22.64 L6.2 22.51 L6.12 22.45 L6.06 22.3 L6.1 22.2 L6.18 22.13 L6.18 21.96 L6.12 21.89 L6 21.86 L6.2 21.66 L6.52 21.59 L6.74 21.44 L6.88 21.23 L7.01 21.14 L7.2 20.85 L7.2 20.64 L7.32 20.46 L7.35 20.24 L7.53 20.13 L7.56 20 L8.32 20.25 L8.43 20.32 L8.89 20.37 L9.04 20.47 L9.39 20.55 L9.7 20.37 L9.92 20.4 L10.05 20.34 L10.07 20.26 L10.26 20.1 L10.56 19.99 L10.88 19.72 L10.98 19.69 L11.03 19.61 L11.1 19.61 L11.48 19.21 L11.55 19.26 L11.51 19.71 L11.47 19.86 L11.31 20.01 L11.3 20.15 L11.18 20.27 L11.27 20.39 L11.41 20.47 L11.82 20.51 L11.91 20.37 L12.1 20.43 L12.19 20.34 L12.37 20.47 L12.45 20.63 L12.57 20.55 L12.66 20.56 L12.75 20.46 L12.83 20.47 L12.94 20.59 L13.06 20.59 L13.08 20.9 L12.95 21.06 L12.94 21.28 L12.78 21.37 L12.75 21.48 L12.94 21.76 L13.23 21.81 L13.24 22.03 L13.69 22.1 L13.68 22.29 L13.78 22.33 L13.8 22.47 L13.93 22.56 L14.35 22.6 L14.55 22.23 L14.75 22.27 L15.12 22.17 L15.38 22.38 L15.52 22.44 L15.71 22.66 L16.13 22.73 L16.18 22.79 L16.46 22.8 L16.67 22.59 L16.84 22.33 L16.99 22.37 L17.05 22.34 L17.26 22.54 L17.3 22.71 L17.42 22.86 L17.44 22.99 L17.58 22.98 L17.72 23.06 L17.95 23.09 L18.13 23.08 L18.41 22.96 L18.59 23.02 L18.62 22.86 L18.86 22.66 L18.92 22.68 L18.99 22.79 L19.25 22.73 L19.38 22.85 L19.48 22.83 L19.66 22.59 L19.92 22.51 L20.11 22.37 L20.15 22.08 L20.24 21.95 L20.28 21.79 L20.51 21.53 L20.84 21.63 L20.98 21.6 L21.15 21.49 L21.31 21.6 L21.45 21.4 L21.61 21.35 L21.8 21.66 L21.91 21.74 L22.5 21.69 L22.63 21.76 L22.97 21.6 L23.34 21.75 L23.61 21.68 L23.83 21.93 L24.1 22.07 L24.22 22.23 L24.47 22.31 L24.62 22.1 L24.93 21.93 L25.01 21.83 L25.27 21.77 L25.39 21.58 L25.56 21.58 L25.67 21.71 L26.12 21.61 L26.24 21.66 L26.3 21.63 L26.41 21.43 L26.58 21.45 L26.9 21.33 L27.02 21.39 L27.44 21.37 L27.66 21.21 L27.98 21.29 L28.16 21.2 L28.46 21.23 L28.85 21.03 L28.91 20.92 L29.11 20.91 L29.15 20.93 L29.12 21.09 L29.27 21.35 L29.58 21.55 L29.98 21.9 L30.04 22 L30.2 22.07 L30.31 22.04 L30.39 22.38 L30.54 22.55 L30.59 22.76 L30.55 22.93 L30.63 23.36 L30.61 23.56 L30.54 23.61 L30.34 23.47 L30.22 23.5 L30.12 23.58 L29.98 23.86 L30.1 24.18 L30.24 24.29 L30.27 24.42 L30.35 24.41 L30.39 24.51 L30.59 24.51 L30.81 24.43 L30.89 24.47 L31.11 24.41 L31.26 24.14 L31.55 23.9 L31.46 23.28 L31.54 23.15 L31.39 22.71 L31.69 22.33 L31.83 21.91 L31.76 21.75 L31.99 21.58 L31.98 21.35 L32.05 21.2 L31.96 21.05 L31.98 20.9 L32.09 20.77 L32.1 20.65 L32.21 20.55 L32.27 20.36 L32.43 20.15 L32.73 19.56 L32.84 19.45 L32.9 19.29 L33.08 19.3 L33.22 19.25 L34.11 18.4 L34.23 18.4 L34.27 18.31 L34.36 18.32 L34.51 18.4 L34.77 18.7 L34.87 18.74 L35.23 18.73 L35.43 18.92 L35.42 19.29 L35.57 19.57 L35.55 19.81 L35.74 20.04 L35.72 20.15 L35.59 20.26 L35.57 20.36 L35.74 20.79 L36 20.93 L36.06 21.09 L36.02 21.18 L35.71 21.47 L35.68 21.74 L35.97 21.98 L36.01 22.15 L35.96 22.36 L36.02 22.42 L36.25 22.5 L36.27 22.71 L36.44 23.09 L36.55 23.14 L36.85 23.05 L36.95 23.1 L37.02 23.29 L36.91 23.59 L37.29 23.88 L37.25 24.14 L37.57 24.42 L37.33 24.79 L37.35 24.93 L37.51 25.04 L37.55 25.13 L37.38 25.35 L37.35 25.5 L37.41 25.61 L37.71 25.77 L37.85 25.92 L38.01 26.5 L37.97 26.57 L37.86 26.58 L37.68 26.43 L37.55 26.38 L37.43 26.44 L37.38 26.56 L37.46 26.66 L37.65 26.65 L37.75 26.73 L37.77 26.94 L37.7 27.2 L38.08 27.47 L38.21 27.88 L38.57 28.29 L38.55 28.38 L38.46 28.42 L38.32 28.46 L38.15 28.4 L38.09 28.47 L38.19 28.62 L38.36 28.64 L38.47 28.73 L38.42 28.83 L38.22 28.88 L38.2 29.02 L38.45 29.34 L38.32 29.6 L38.34 29.75 L38.51 29.84 L38.64 29.53 L38.74 29.49 L38.87 29.52 L38.95 29.45 L39.04 29.05 L39.21 29.19 L39.39 29.09 L39.48 28.75 L39.55 28.68 L39.76 28.7 L40 28.65 L40.16 28.71 L40.28 28.65 L40.48 28.64 L40.4 28.58 L40.52 28.26 L40.43 28.21 L40.52 28.07 L40.49 27.9 L40.55 27.85 L40.71 27.96 L40.83 27.77 L40.8 27.63 L40.85 27.62 L40.88 27.48 L40.98 27.49 L41.07 27.29 L40.91 27.26 L40.87 27.19 L40.99 27.1 L40.92 26.83 L41.07 26.72 L41.04 26.5 L41.12 26.49 L41.1 26.41 L41.18 26.4 L41.16 26.34 L41.29 26.21 L41.27 26.15 L41.32 26.13 L41.19 26.03 L41.23 25.91 L41.28 25.87 L41.34 25.89 L41.44 25.79 L41.45 25.86 L41.51 25.82 L41.47 25.67 L41.51 25.59 L41.61 25.63 L41.7 25.54 L41.73 25.59 L41.81 25.56 L41.96 25.71 L41.96 25.66 L42.03 25.64 L41.98 25.58 L42.12 25.56 L42.23 25.36 L42.19 25.12 L42.16 25.15 L42.1 25.09 L42.07 25.15 L41.99 25 L41.91 25.06 L41.77 24.94 L41.84 24.87 L41.7 24.69 L41.76 24.66 L41.79 24.36 L41.75 24.22 L41.64 24.08 L41.72 24.02 L41.69 23.79 L41.76 23.73 L41.76 23.66 L41.58 23.51 L41.6 23.41 L41.5 23.36 L41.49 23.29 L41.38 23.2 L41.35 23.04 L41.23 22.84 L41.5 22.58 L41.61 22.33 L41.56 21.99 L41.6 21.85 L41.57 21.56 L41.62 21.41 L41.56 20.78 L41.93 20.43 L41.85 20.23 L41.91 20.09 L41.76 19.79 L41.79 19.63 L41.74 19.46 L41.88 19.25 L41.82 18.96 L41.87 18.75 L42.13 18.45 L42.05 18.06 L41.99 18.03 L41.88 18.05 L41.83 17.99 L41.99 17.74 L41.92 17.32 L41.67 17.27 L41.6 17.17 L41.61 17.09 L41.72 17.01 L41.92 16.71 L42.56 16.36 L42.74 16.14 L42.85 16.09 L43 16.11 L43.23 16.01 L43.44 15.98 L43.47 15.76 L43.54 15.68 L43.73 15.67 L44.09 15.91 L44.45 15.87 L44.75 15.96 L44.99 15.84 L45.05 15.72 L45.25 15.63 L45.4 15.49 L45.53 15.51 L45.8 15.8 L45.91 16.01 L46.06 16.11 L46.21 16.4 L46.27 16.68 L46.4 16.81 L46.54 17.12 L46.85 17.62 L46.97 17.98 L47.02 18.62 L47.07 18.76 L47.04 18.83 L46.87 18.91 L46.62 19.37 L46.44 19.51 L46.36 19.78 L46.44 19.86 L46.51 20.16 L46.71 20.5 L46.68 20.76 L46.72 20.98 L46.68 21.06 L46.39 21.15 L46.26 21.32 L46.37 22.08 L46.48 22.3 L46.29 22.83 L46.39 22.95 L46.41 23.61 L46.21 23.8 L46.21 24.3 L46.1 24.52 L46.16 24.69 L46.08 24.77 L46.04 24.95 L46.1 25.26 L46.02 25.48 L46.1 25.77 L46.32 26.09 L46.38 26.28 L46.26 26.53 L46.29 26.69 L46.24 26.83 L46.54 26.99 L46.76 26.95 L46.82 27.17 L46.73 27.45 L46.74 27.64 L46.84 27.78 L47.11 27.95 L47.3 28.58 L47.44 28.76 L47.52 29.04 L47.67 29.21 L47.72 29.56 L47.52 30.2 L47.51 30.69 L47.58 31.03 L47.56 31.3 L47.7 31.61 L47.76 32.01 L47.87 32.18 L48.07 32.37 L48.07 32.61 L48.14 32.76 L48.04 33.18 L48.49 33.75 L48.62 34.05 L48.7 34.43 L48.69 34.68 L48.81 35.07 L48.82 35.49 L48.97 36.36 L49.07 36.6 L49.29 36.86 L49.5 37 L49.66 37.2 L49.93 37.38 L50.07 37.54 L50.2 37.91 L50.24 38.44 L50.46 38.73 L50.82 38.95 L50.93 39.09 L51.07 39.51 L51.09 39.95 L51.18 40.25 L51.51 41.01 L51.76 41.19 L51.97 41.85 L52.02 41.9 L52.36 41.93 L52.7 42.07 L53.2 42.61 L53.41 43.1 L53.42 43.58 L53.51 43.72 L53.91 44.08 L54.06 44.32 L54.31 44.8 L54.5 45.36 L54.83 45.87 L55.02 46.36 L55.39 46.73 L55.58 47.4 L55.76 47.72 L56.05 47.99 L56.31 48.16 L56.76 48.24 L57.56 48.22 L58.27 48.05 L59.01 47.79 L60.69 47.09 L60.87 46.86 L61.05 46.44 L61.66 45.65 L61.63 45.23 L61.73 45.07 L61.71 44.97 L61.77 44.77 L61.92 44.74 L62 44.79 L62.31 44.79 L62.77 44.69 L63.06 44.76 L63.54 44.76 L63.9 45.07 L64.16 45.16 L64.4 45.08 L64.62 45.11 L65.01 44.98 L65.27 45.03 L65.38 44.95 L65.38 44.84 L65.62 44.82 L65.98 44.94 L66.66 45.28 L66.81 45.22 L66.9 45.1 L66.98 45.11 L67.25 44.95 L67.58 44.5 L67.52 44.3 L67.61 44.12 L67.55 43.93 L68 43.77 L68.26 43.43 L68.6 43.16 L69.06 42.93 L69.11 42.84 L69.19 42.15 L69.03 41.44 L69.02 41.07 L69.13 40.87 L69.04 40.66 L69.08 40.5 L68.95 40.29 L68.94 40.19 L69.04 40.04 L69.16 40.05 L69.34 39.87 L69.67 39.92 L69.74 39.81 L69.79 39.41 L70 39.34 L70.3 39.11 L70.55 38.36 L70.47 38.01 L70.51 37.95 L70.65 37.92 L70.68 37.76 L70.85 37.48 L70.85 37.21 L70.79 37.14 L70.84 37.08 L70.84 36.96 L71.04 36.63 L70.97 36.32 L70.84 36.12 L70.82 35.93 L71.11 35.46 L71.02 35.26 L71.01 35.11 L71.34 34.88 L71.52 34.61 L71.52 34.38 L71.81 34.22 L72.22 33.75 L72.35 33.67 L72.52 33.69 L72.63 33.64 L72.96 33.38 L73.2 33.32 L73.72 33.02 L73.99 33.02 L74.61 33.3 L74.93 33.36 L75.57 33.98 L75.73 34.37 L75.82 34.43 L75.99 34.43 L76.09 34.27 L76.4 34.07 L76.52 34.05 L76.58 34.09 L76.69 33.99 L77.16 33.94 L77.35 33.6 L77.69 32.42 L77.75 32.03 L77.71 31.31 L77.79 30.91 L77.95 30.59 L78.45 30.09 L79.25 29.43 L79.69 28.85 L79.8 28.59 L79.74 27.89 L79.78 27.61 L79.88 27.33 L79.84 26.93 L79.86 26.63 L80.03 26.39 L80.08 26.12 L80.36 25.91 L80.47 25.61 L80.54 25.57 L80.73 25.58 L80.82 25.39 L81.06 25.28 L81.23 25.07 L81.23 24.93 L82.12 24.69 L82.69 24.92 L82.87 25.07 L83.15 25.03 L83.44 25.07 L84.25 24.8 L85.19 24.65 L86.12 24.57 L86.95 24.59 L87.72 24.8 L88.51 25.1 L88.92 25.35 L89.32 25.73 L89.66 26.27 L89.92 27.07 L90 28.27 L89.9 28.74 L89.66 29.05 L89.43 29.22 L88.9 29.43 L88.28 29.98 L87.1 30.41 L86.88 30.55 L86.77 30.68 L86.7 31.1 L86.72 31.94 L86.49 32.92 L86.31 33.25 L85.97 33.41 L85.85 33.71 L85.97 34.11 L85.97 34.27 L85.51 34.83 L85.56 34.95 L85.72 35.08 L85.66 35.33 L85.8 35.77 L85.98 36.06 L86 36.25 L85.82 36.76 L85.7 36.86 L85.61 37.03 L85.6 37.2 L85.73 37.35 L85.61 37.62 L85.57 37.91 L85.29 38.34 L86.11 39.6 L86.26 39.92 L86.18 40.66 L86.26 40.93 L86.5 41.27 L86.62 41.59 L86.67 41.97 L86.66 42.63 L86.82 43.04 L87.02 43.32 L87.18 43.42 L87.23 43.55 L87.54 43.95 L87.52 44.65 L87.65 44.77 L87.37 45.44 L86.51 46.53 L86.19 46.79 L85 47.48 L84.82 47.84 L84.78 48.16 L84.92 48.59 L85.09 48.85 L84.55 49.03 L84.11 49.29 L83.76 49.57 L83.38 50.04 L83.26 50.54 L83.04 50.88 L82.94 50.97 L82.81 51.67 L82.81 51.93 L82.88 52.14 L83.14 52.63 L83.13 52.95 L83.01 53.13 L82.7 53.25 L82.57 53.37 L82.49 53.92 L82.13 54.15 L81.91 54.76 L81.55 55.57 L81 56.38 L80.85 56.94 L80.88 57.96 L80.85 58.09 L80.72 58.23 L80.39 58.3 L79.6 58.27 L78.74 58.12 L78.12 58.17 L77.92 58.25 L77.59 58.46 L76.63 59.38 L75.84 60 L75.53 60.37 L75.28 60.59 L75.06 60.9 L75 60.93 L74.69 60.77 L74.44 60.77 L73.98 60.66 L73.52 60.42 L73.33 60.59 L73.22 60.83 L73.13 60.91 L72.68 61.1 L72.16 61.2 L71.73 61.11 L71.52 61.19 L71.32 61.13 L71.11 61.16 L70.47 61.02 L69.63 60.64 L68.69 59.83 L67.75 59.44 L67.49 59.42 L66.81 59.17 L66.69 59.18 L66.47 59.28 L66.39 59.44 L66.38 59.96 L67.03 61.39 L66.88 61.74 L66.69 61.85 L66.66 61.97 L66.53 62.01 L66.42 62.2 L66.07 62.13 L65.42 62.09 L65.28 61.99 L65.11 61.99 L64.95 61.92 L63.7 62.09 L63.5 62.19 L63.02 62.65 L63.02 62.92 L63.32 63.01 L63.45 63.18 L63.17 63.72 L63 63.77 L62.68 64.13 L62.16 63.95 L61.93 63.97 L61.61 64.5 L61.3 64.54 L61.25 64.58 L61.2 64.8 L61.05 65 L61.04 65.13 L61.13 65.38 L61.4 65.66 L61.33 65.71 L60.97 65.64 L60.6 65.37 L60.17 65.22 L59.71 65.32 L59.57 65.27 L58.84 65.31 L58.45 64.88 L57.93 64.65 L57.53 64.24 L57.42 64.6 L57.46 64.9 L57.41 65.12 L57.48 65.5 L57.41 65.73 L57.48 66.18 L57.35 66.45 L57.18 66.61 L57.04 66.68 L56.67 66.67 L55.9 66.76 L55.1 67.36 L55.03 67.46 L55.03 67.62 L54.88 67.89 L54.81 68.32 L54.72 68.47 L54.6 68.57 L54.47 68.9 L54.46 68.98 L54.65 69.19 L54.46 69.45 L54.22 70.15 L54.21 70.4 L54.27 70.48 L54.21 70.63 L54.33 70.8 L54.38 71.08 L54.3 71.49 L54.33 71.68 L54.29 71.91 L54.07 72.26 L53.93 72.33 L53.8 72.52 L53.47 72.8 L53.37 72.84 L53.27 72.79 L53.12 72.79 L52.79 73.02 L52.56 72.95 L52.18 73.21 L51.82 73.37 L51.39 73.31 L51.01 73.13 L50.74 73.26 L50.58 73.24 L50.51 73.35 L50.17 73.53 L50.2 73.61 L50.09 73.66 L50.13 73.73 L50.03 73.83 L50.05 74.07 L49.91 74.28 L49.89 74.52 L49.67 74.85 L49.23 75.15 L49.01 75.21 L48.79 75.43 L48.54 75.56 L48.27 75.82 L47.96 76.27 L47.84 76.31 L47.75 76.43 L47.64 76.48 L47.6 76.68 L47.48 76.75 L47.4 76.88 L47.34 77.04 L47.43 77.49 L47.62 77.8 L47.65 77.93 L47.54 78.04 L47.45 78.33 L47.09 78.64 L46.37 79.88 L46.01 80.21 L45.38 80.5 L45.33 80.51 L45.28 80.42 L45.27 80.2 L45.11 80.03 L45.04 79.4 L44.72 79.62 L44.59 79.82 L44.48 79.75 L44.42 79.45 L44.24 79.42 L43.99 79.53 L43.86 79.71 L43.71 79.76 L43.65 79.74 L43.22 79.37 L43.04 79.34 L43.16 79.01 L43.01 78.82 L42.81 78.8 L42.6 78.67 L42.54 78.69 L42.45 78.81 L42.33 78.79 L42.27 78.85 L42.08 78.66 L41.8 78.6 L41.5 78.69 L41.42 78.4 L41.24 78.28 L41.14 78.05 L40.99 78.09 L40.86 78.05 L40.66 78.16 L40.48 78.2 L40.22 78.14 L40.02 78.01 L39.81 77.63 L39.46 77.57 L39.33 77.47 L39.17 77.45 L39.17 77.32 L39.28 77.1 L38.88 77.08 L38.48 76.95 L38.47 77.06 L38.62 77.59 L38.59 77.7 L38.44 77.55 L38.4 77.42 L38.12 77.33 L37.64 76.96 L37.33 76.89 L37.15 77.28 L37.19 77.47 L37.08 77.61 L37.08 77.94 L36.86 78.25 L36.78 78.28 L36.45 78.12 L36.25 78.21 L36.13 77.97 L36.16 77.76 L36.01 77.27 L35.82 76.93 L35.82 76.69 L35.71 76.55 L35.71 76.47 L35.82 76.32 L35.79 76.22 L35.88 76.17 L35.9 76.03 L35.72 75.52 L35.5 75.26 L35.64 74.96 L35.45 74.69 L35.32 74.38 L35.08 74.4 L34.75 74.71 L34.47 74.76 L34.25 74.6 L33.81 74.48 L33.54 74.87 L33.36 75.05 L33.24 75.06 L32.66 75.37 L32.07 75.4 L31.96 75.26 L31.59 75.25 L31.35 75.12 L30.87 75.17 L30.61 75.12 L31.04 75.68 Z" /></svg>