<svg xmlns="http://www.w3.org/2000/svg" viewBox="0 0 96 96"><path fill="#efd0a0" fill-rule="evenodd" d="M58.28 86.33 L58.42 86.65 L58.67 86.66 L58.74 87.71 L58.83 87.85 L59.02 87.98 L58.76 88.29 L58.51 88.44 L58.37 88.39 L58.18 88.43 L57.89 88.27 L57.71 88.4 L57.44 88.29 L57.15 88.39 L57.01 88.3 L56.65 88.49 L56.42 88.51 L56.29 88.43 L56.11 88.1 L55.82 87.83 L55.77 87.69 L55.33 87.88 L55.17 87.81 L55.02 87.53 L54.68 87.8 L54.34 87.89 L54.31 88.03 L54.05 88.25 L53.67 88.94 L53.58 88.96 L53.41 88.66 L53.18 88.51 L53.04 88.51 L52.5 88.79 L52.18 88.5 L51.97 88.51 L51.78 88.62 L51.57 88.32 L51.22 88.27 L50.55 87.81 L50.25 87.84 L50.1 87.79 L50 87.84 L49.72 87.72 L49 87.61 L48.63 87.73 L48.46 87.72 L48.38 87.88 L48.42 88.07 L48.17 88.74 L47.88 88.86 L47.76 89.1 L47.45 89.38 L47.41 89.89 L47.24 90 L47.34 89.73 L47.14 89.05 L47.1 88.4 L46.97 88.2 L46.71 88.06 L46.48 88.24 L46.18 88.3 L45.36 86.45 L45.28 86.19 L44.87 86.44 L44.58 86.88 L43.11 87.8 L42.55 87.17 L42.27 87.02 L39.32 86.5 L39.75 86.09 L39.88 85.83 L40.18 85.61 L40.41 85.08 L40.2 85.07 L40.12 84.95 L39.7 84.81 L39.57 84.95 L39.37 84.97 L38.97 85.32 L38.7 85.22 L38.28 85.37 L37.3 85.51 L37.09 85.61 L36.69 85.6 L35.92 85.07 L35.67 84.74 L35.71 84.54 L35.49 84.11 L35.47 83.78 L35.2 83.62 L34.64 83.45 L34.21 82.83 L34.07 82.73 L33.75 82.69 L33.56 82.43 L33.39 82.32 L33.28 82.02 L32.99 81.86 L32.61 81.53 L32.21 81.48 L32.1 81.34 L31.65 81.22 L31.55 81.31 L31.39 81.24 L31.32 81.38 L30.93 81.46 L30.86 81.35 L30.69 81.37 L30.12 80.99 L29.92 81.03 L29.86 80.84 L29.69 80.8 L29.56 80.65 L29.14 80.39 L28.89 80.38 L28.53 80.5 L28.14 80.53 L28.03 80.23 L27.79 80.11 L27.64 79.85 L27.68 79.58 L27.41 79.19 L27.46 78.78 L27.57 78.65 L27.88 78.63 L27.99 78.5 L28.31 78.44 L28.56 78.24 L28.63 77.98 L28.92 77.86 L29.02 77.74 L28.9 76.97 L28.81 76.88 L28.6 76.83 L28.41 76.58 L28.39 76.37 L28.53 76.18 L28.46 75.97 L28.51 75.61 L28.42 75.49 L28.06 75.34 L27.82 75.07 L28.18 74.86 L28.54 74.93 L28.75 74.86 L28.9 74.61 L28.99 74.05 L29.23 73.86 L29.38 73.49 L29.33 73.38 L29.38 73.01 L29.55 72.87 L29.71 72.59 L29.89 72.65 L29.99 72.58 L30.17 72.12 L30.45 72.22 L30.61 71.35 L30.32 70.68 L29.38 69.79 L29.25 69.42 L29.3 69.22 L29.6 68.8 L29.7 67.97 L29.93 67.91 L30.16 67.95 L30.83 66.45 L30.88 66.32 L30.59 66.34 L30.42 66.25 L30.2 66.23 L30.38 66.07 L30.47 66.07 L30.64 65.84 L30.59 65.5 L30.92 65.03 L30.91 64.85 L31.14 64.72 L31.19 64.57 L31.12 64.45 L31.22 64.36 L31.08 64.02 L31.06 63.81 L31.09 63.48 L31.15 63.41 L31.15 63.06 L31.34 62.68 L30.92 62.4 L30.54 61.99 L30.53 61.73 L30.39 61.36 L30.04 61.05 L30.25 60.56 L30.12 60.35 L30.01 59.66 L29.88 59.58 L29.82 60.29 L29.57 60.45 L29.41 60.79 L29.17 61.03 L29.03 61.08 L28.79 61 L28.51 61.59 L28.23 61.57 L28.06 61.67 L27.88 61.64 L27.73 61.53 L26.79 61.55 L26.13 60.99 L25.82 61.51 L25.57 61.78 L25.51 62.06 L25.33 62.06 L25.13 61.97 L24.9 62 L24.77 61.84 L24.6 62.09 L24.41 62.12 L24.01 62.48 L23.64 62.48 L23.4 62.61 L23.05 62.56 L22.57 62.95 L22.32 62.77 L22.03 62.3 L21.85 62.31 L21.72 62.09 L21.51 62.02 L21.41 61.9 L21.17 61.91 L20.83 61.82 L20.47 61.6 L20.35 61.6 L20.14 61.88 L19.98 61.94 L19.6 61.89 L19.44 61.78 L19.29 61.82 L19.1 61.78 L18.56 61.56 L18.26 61.57 L17.95 61.44 L17.84 61.26 L17.86 61.01 L17.93 60.78 L18.2 60.6 L18.44 59.88 L18.51 59.43 L18.78 58.84 L19.06 58.67 L19.14 58.53 L19.74 58.23 L19.84 58 L20.05 57.84 L20.39 57.99 L20.85 57.9 L21.09 57.7 L21.25 57.47 L21.64 57.25 L21.91 57.02 L22.01 56.64 L21.95 56.41 L22.02 56.21 L21.94 55.4 L22.08 55.28 L22.14 55.02 L22.06 54.64 L22.26 54.34 L22.55 54.11 L22.49 53.88 L22.28 53.68 L22.07 53.28 L21.9 53.11 L22.02 52.71 L22.18 52.45 L22.14 52.23 L22.39 51.96 L22.3 51.79 L22.42 51.59 L22.15 51.32 L21.96 51.38 L21.84 51.35 L21.94 51.06 L21.82 50.9 L21.7 50.35 L21.43 50.07 L21.65 49.84 L21.79 49.36 L21.97 49.14 L21.91 48.91 L22.23 48.78 L22.36 48.62 L22.38 48.4 L22.32 48.06 L22.41 47.77 L22.63 47.49 L22.79 47.39 L23.08 47.39 L23.11 47.59 L23.03 47.81 L23.12 47.97 L24 48.51 L24.48 48.22 L24.62 48.22 L24.98 47.96 L24.87 47.71 L24.61 47.45 L24.54 47.18 L24.54 46.92 L24.9 46.65 L24.95 46.55 L25.25 46.5 L25.35 46.23 L25.59 46.12 L25.69 46.01 L25.75 45.89 L25.68 45.67 L25.73 45.37 L25.96 44.95 L25.74 44.53 L25.53 44.37 L25.53 44.07 L25.38 43.87 L25.2 43.77 L25.39 43.52 L24.92 43.22 L24.99 42.95 L24.73 42.71 L24.74 42.57 L24.64 42.43 L24.65 42.35 L24.83 42.22 L24.9 41.73 L25.1 41.5 L25.48 40.78 L25.6 40.37 L25.57 40.25 L25.88 40.13 L26.11 40.13 L26.35 39.89 L26.69 39.85 L26.94 39.72 L27.13 39.71 L27.35 39.56 L27.47 39.43 L27.43 39.24 L27.58 39.1 L27.6 38.61 L27.78 38.57 L27.98 38.78 L28.18 38.86 L28.41 38.58 L28.76 38.81 L28.85 38.55 L29.1 38.15 L29.13 37.68 L29.2 37.48 L29.48 37.48 L29.61 37.26 L29.68 36.95 L29.46 36.91 L29.17 36.58 L28.96 36.52 L28.54 36.1 L28.15 35.88 L27.93 35.64 L27.83 35.38 L27.58 35.29 L27.21 35.01 L26.98 34.63 L27.3 34.31 L27.5 34.33 L27.88 34.15 L27.81 33.7 L27.98 33.37 L27.96 33.26 L27.82 33.15 L27.53 33.07 L27.71 32.81 L27.61 32.58 L27.03 32.4 L26.93 32.19 L26.88 31.71 L27.08 31.55 L27.28 31.55 L27.35 31.38 L27.63 31.33 L27.98 31 L28.11 31.09 L28.35 30.98 L28.85 30.92 L29.01 30.82 L29.14 30.97 L29.15 31.07 L29.29 31.1 L29.55 31.42 L30 31.58 L30.05 31.78 L30.26 31.87 L30.44 32.13 L30.4 32.56 L30.52 32.67 L30.65 33.05 L31.09 33.22 L31.25 33.37 L31.59 33.01 L31.72 32.55 L31.85 32.33 L31.69 32.11 L31.72 31.87 L31.51 31.47 L31.81 30.97 L32.37 30.77 L32.78 31.15 L33.01 31.11 L33.21 31.21 L33.31 31.2 L33.5 30.79 L33.43 30.12 L33.52 30.01 L33.55 29.66 L34.02 29.42 L34.08 29.23 L34.33 28.9 L34.68 28.68 L34.78 28.35 L35.06 28.3 L35.19 27.85 L35.43 27.7 L35.61 27.76 L35.86 27.68 L36.01 27.48 L36.17 27.44 L36.29 27.07 L36.58 26.96 L36.73 26.84 L36.98 26.82 L37.14 26.73 L37.06 26.44 L37.12 26.32 L36.9 25.84 L36.9 25.61 L37.28 25.56 L37.49 25.36 L37.79 25.42 L37.74 25.62 L37.83 25.66 L38.27 25.22 L38.63 25.14 L38.71 24.87 L39.94 24.72 L40.23 25.01 L40.44 25.02 L40.55 25.21 L40.66 25.18 L40.84 24.91 L41.14 24.74 L41.23 24.56 L41.19 24.35 L40.78 23.69 L41 23.42 L41.15 23.04 L41.17 22.69 L41.03 22.42 L41.17 22.12 L40.97 21.89 L41.52 21.55 L41.95 21.03 L42.1 20.93 L42.25 20.96 L42.45 20.72 L42.68 21.2 L42.96 21.44 L43.1 21.79 L43.56 22.09 L43.87 22.06 L44.27 21.5 L44.44 21.42 L44.36 21.23 L44.29 20.46 L44.1 19.98 L44.32 19.73 L44.52 19.72 L44.49 19.44 L44.87 18.73 L45.33 18.41 L45.6 18.02 L45.73 17.66 L45.52 17.47 L45.47 17.16 L45.66 16.43 L45.97 16.39 L45.94 16.17 L46.22 15.87 L46.48 15.78 L46.76 15.82 L46.82 15.59 L47.16 15.15 L47.28 14.64 L47.54 14.62 L47.66 14.5 L47.44 13.8 L47.46 13.18 L47.53 13.05 L46.73 12.75 L46.69 12.49 L46.53 12.33 L46.64 12.17 L46.91 12.21 L47.11 11.88 L46.91 11.64 L46.95 11.35 L47.04 11.18 L46.98 11.1 L46.8 11.05 L46.88 10.75 L46.76 10.62 L46.95 9.97 L46.87 9.83 L46.82 9.46 L46.67 9.26 L46.73 8.93 L46.33 8.82 L46.2 8.65 L46.46 8.42 L46.67 8.07 L46.93 8.02 L46.92 7.79 L47.04 7.58 L47.72 7.02 L47.63 6.58 L47.85 6.54 L48.53 6.69 L48.74 6.82 L48.69 7.12 L49.09 7.03 L49.18 7.23 L49.49 7.3 L49.63 7.42 L49.92 7.3 L50.12 7.28 L50.39 7.37 L50.61 7.51 L50.85 7.54 L51.16 7.49 L51.45 7.24 L51.62 7.32 L51.94 7.31 L52.28 7.48 L52.66 7.88 L53.14 8 L53.69 8.56 L54.09 8.71 L54.23 8.7 L54.63 9.18 L55 9.17 L55.39 9.34 L55.92 9.39 L56.04 9.33 L56.33 8.96 L56.68 8.73 L57.59 8.9 L58.22 8.67 L58.94 8.61 L59.2 8.36 L59.52 8.21 L59.67 8.22 L60.15 8.46 L60.48 8.73 L60.53 8.91 L60.65 8.92 L60.87 8.83 L61.32 8.35 L61.92 8.09 L62.11 7.57 L62.12 7.3 L62.28 7.24 L62.6 6.92 L62.73 6.93 L62.84 6.83 L62.98 6.29 L63.14 6.3 L63.27 6.42 L63.59 6.12 L63.98 6.02 L64.31 6.02 L64.48 6.22 L64.7 6.11 L64.9 6.29 L64.96 6.52 L65.1 6.59 L65.5 6.43 L65.5 6.26 L65.42 6.12 L65.48 6.07 L65.82 6.06 L65.92 6.13 L66.31 6 L66.51 6.51 L66.71 6.51 L66.86 6.63 L67.03 6.6 L67.35 6.72 L67.49 6.87 L67.82 6.99 L68.12 7.22 L68.3 7.21 L68.81 7.45 L68.97 7.38 L69.12 7.42 L69.26 7.66 L69.53 7.73 L69.64 7.93 L69.77 7.9 L69.91 7.65 L70.09 7.78 L70.31 7.66 L70.47 7.92 L70.58 7.98 L70.92 7.93 L71.05 8.21 L70.97 8.36 L71 8.52 L71.14 8.52 L71.29 8.36 L71.39 8.38 L71.37 8.45 L71.51 8.69 L71.48 8.83 L71.75 9.34 L71.87 9.41 L72.12 9.25 L72.22 9.25 L72.49 9.58 L72.51 9.88 L72.31 10.03 L72.29 10.25 L72.37 10.47 L72.56 10.56 L72.68 10.8 L72.76 10.82 L72.99 10.65 L73.1 10.67 L73.27 10.9 L73.82 11.28 L74.52 12.02 L74.61 12.03 L74.76 11.91 L74.94 11.94 L74.91 12.4 L74.66 12.44 L74.58 12.7 L74.78 13.02 L75.09 13.05 L75.24 13.14 L75.27 13.33 L75.2 13.38 L75.07 13.18 L74.99 13.17 L74.26 13.57 L73.89 13.49 L73.75 13.6 L73.83 13.76 L73.81 13.88 L73.67 13.87 L73.55 13.95 L73.49 14.16 L73.66 14.39 L73.7 14.55 L73.83 14.64 L73.82 14.78 L73.91 14.88 L73.92 15.36 L74 15.57 L73.63 15.98 L73.63 16.07 L73.3 16.49 L73.35 16.83 L73.68 17.17 L73.57 17.35 L73.4 17.38 L73.07 17.77 L72.86 17.9 L72.51 18.46 L72.09 18.56 L71.74 18.46 L71.51 18.51 L71.37 18.42 L71.16 18.07 L71.17 17.28 L71.03 17.17 L70.86 17.18 L70.59 17.32 L70.16 17.34 L69.51 17.61 L69.45 17.69 L69.43 18.04 L69.15 18.25 L68.91 18.78 L68.83 18.83 L68.54 18.8 L68.4 18.52 L68 18.4 L67.84 18.16 L67.49 18.12 L67.14 17.89 L66.95 17.94 L66.75 18.32 L66.58 18.39 L66.55 18.54 L66.26 18.87 L66.2 19.1 L66.03 19.27 L65.98 19.57 L66.23 20.36 L66.25 21.21 L66.61 20.73 L66.93 21.06 L67.25 21.26 L67.28 21.64 L67.49 21.77 L67.63 21.98 L67.62 22.27 L67.76 22.47 L67.78 22.63 L67.98 22.72 L68.24 22.59 L68.36 22.62 L68.49 23.39 L68.45 23.52 L68.31 23.66 L68.86 24.15 L69.09 24.2 L69.24 24.08 L70.16 23.98 L70.72 24.07 L70.94 23.98 L71.28 24.14 L71.6 24.08 L71.79 24.12 L72.18 24.02 L72.41 24.22 L72.58 24.22 L72.72 24.31 L72.84 24.68 L73.01 24.92 L72.96 25.17 L72.62 25.39 L72.48 25.85 L72.63 26.07 L72.82 26.01 L72.97 26.06 L73.13 26.32 L73.1 26.58 L73.17 26.9 L73.04 27.13 L73.26 27.38 L73.31 27.54 L73.58 27.77 L73.69 28.11 L73.71 28.42 L73.58 28.6 L73.57 28.81 L73.73 28.97 L74.36 29.13 L74.39 29.26 L74.29 29.47 L74.33 29.63 L74.58 29.89 L75.13 30.04 L75.74 30.3 L75.84 30.31 L75.94 30.21 L76.02 30.26 L76.03 30.56 L75.83 30.72 L75.53 30.72 L75.46 30.8 L75.45 30.93 L75.33 31.03 L75.4 31.49 L75.74 31.92 L75.73 32.3 L75.88 32.59 L75.9 33.22 L75.69 33.59 L75.48 33.58 L75.37 33.65 L75.1 34.42 L75.06 34.74 L75.38 35.07 L75.39 35.3 L75.74 35.46 L75.72 35.62 L75.77 35.68 L76.01 35.77 L76.19 35.66 L76.3 35.5 L76.51 35.5 L76.9 35.84 L77.25 36.03 L77.42 36.35 L77.24 36.65 L77.35 36.81 L77.54 36.94 L77.43 37.16 L77.55 37.41 L77.51 37.69 L77.58 37.91 L77.46 38 L77.14 37.9 L77 38.15 L77.22 38.49 L77.15 38.73 L77.28 38.91 L77.2 39.09 L77.05 39.15 L76.84 39.02 L76.7 39.02 L76.49 39.3 L76.01 39.26 L75.8 39.3 L75.73 39.4 L75.77 39.61 L75.69 39.82 L75.7 40.1 L75.87 40.66 L76.12 41.02 L76.16 41.18 L76.16 41.72 L75.81 42.41 L75.79 42.56 L75.89 42.88 L75.99 42.99 L76.22 42.97 L76.33 43.04 L76.81 43 L77.03 43.11 L77.16 43.29 L76.97 43.65 L77.06 44.5 L77.21 44.77 L77.37 45.39 L77.79 45.92 L77.82 46.16 L78.03 46.38 L77.97 46.56 L78.16 46.74 L78.03 47.61 L78.03 48.01 L78.13 48.31 L77.98 48.55 L77.72 48.67 L77.41 48.33 L76.51 48.13 L76.33 47.9 L75.75 47.44 L75.61 46.99 L75.34 46.8 L75.11 46.73 L74.69 46.77 L74.37 46.59 L74.01 46.73 L73.85 46.72 L73.52 47.01 L73.44 47.45 L73.03 47.89 L72.74 48.41 L72.78 48.57 L72.64 48.92 L72.67 49.19 L72.57 49.41 L72.64 49.55 L72.62 49.93 L72.73 50.04 L72.62 50.15 L72.61 50.41 L73.38 50.73 L73.47 50.82 L73.5 51.12 L73.43 51.41 L73.49 51.73 L73.29 51.86 L73.13 52.05 L73.19 52.38 L72.94 52.26 L72.7 52.04 L72.26 52 L71.9 52.15 L71.73 52.38 L71.13 52.74 L70.69 53.23 L70.4 53.1 L70.09 53.25 L69.85 53.29 L69.37 53.05 L69.17 53.11 L69.05 53.3 L68.68 53.33 L68.48 53.47 L68.24 53.2 L68.14 53.17 L67.94 53.41 L67.66 53.44 L67.49 53.6 L67.05 53.09 L66.83 53.01 L66.66 53.06 L66.3 52.96 L66.23 53.17 L66.01 53.31 L66.04 53.63 L65.83 53.7 L65.78 54 L65.4 54.08 L65.21 54.34 L65.15 54.63 L64.89 54.72 L64.77 54.84 L64.36 55.3 L63.97 55.94 L63.76 56.07 L63.48 56.48 L63.29 56.48 L63.14 56.34 L62.75 56.38 L62.42 56.52 L62.19 56.78 L61.81 56.97 L62.21 57.31 L62.31 57.69 L62.42 57.82 L62.42 58.11 L62.58 58.27 L62.59 58.58 L63.05 58.85 L63.23 58.82 L63.47 58.92 L63.85 59.16 L63.91 59.23 L63.88 59.26 L63.34 59.51 L62.98 59.5 L62.81 59.64 L62.35 59.49 L61.98 59.5 L61.74 59.57 L61.47 59.88 L61.26 59.98 L60.94 60 L60.81 59.94 L60.62 59.99 L59.83 59.71 L59.75 59.47 L59.85 59.31 L59.79 59.04 L59.5 59.01 L59.17 58.5 L58.99 58.46 L58.8 58.68 L58.8 59.13 L58.57 59.31 L58.26 59.43 L57.88 59.38 L57.64 59.52 L57.47 59.52 L57.21 59.67 L56.89 59.75 L56.67 59.67 L56.11 59.69 L55.96 59.6 L55.5 59.57 L55.11 59.64 L54.95 59.79 L54.65 59.91 L54.28 60.42 L53.96 60.64 L53.6 61.13 L53.58 61.28 L53.69 61.5 L53.75 61.96 L53.64 62.09 L53.61 62.31 L53.31 62.57 L53.28 62.78 L53.4 63 L53.36 63.12 L53.45 63.46 L53.33 63.69 L53.41 64.04 L53.87 64.15 L54.07 64.34 L54.58 64.39 L54.94 64.63 L55.18 64.9 L55.21 65.12 L55.48 65.27 L55.59 65.57 L55.89 65.83 L55.84 66.15 L56.11 66.4 L56.16 66.61 L56.49 66.76 L56.82 66.74 L57.16 67.06 L57.42 67.19 L57.72 67.6 L57.75 67.9 L58.19 68.54 L58.51 69.56 L58.52 69.81 L58.45 70.05 L58.26 70.31 L58.38 70.76 L58.2 70.92 L58.06 71.15 L58.26 71.42 L58.28 71.78 L58.42 72.05 L58.49 72.82 L58.41 72.99 L58.37 73.71 L58.43 73.86 L58.8 74.06 L59.21 74.6 L58.95 75.08 L58.97 75.41 L58.78 75.6 L58.7 75.99 L58.88 76.36 L58.69 76.49 L58.28 76.4 L58.23 76.47 L58.34 77.14 L58.62 77.49 L58.8 77.95 L58.98 78.2 L58.98 78.53 L58.88 79.08 L58.68 79.68 L58.23 80.07 L58.06 80.15 L57.95 80.59 L58.05 80.76 L58.3 80.89 L58.27 81.2 L57.98 81.79 L57.69 82.09 L58.08 82.54 L58.64 84.04 L58.56 84.23 L58.36 84.25 L58.19 84.16 L57.93 84.37 L57.96 84.55 L58.15 84.71 L58.15 84.92 L58.29 85.04 L58.03 85.56 L58.25 86.06 L58.28 86.33 Z" /></svg>