<svg xmlns="http://www.w3.org/2000/svg" viewBox="0 0 96 96"><path fill="#efd0a0" fill-rule="evenodd" d="M74.23 78.83 L74.08 79.13 L72.95 79.82 L72.18 80.04 L71.8 80.24 L71.43 80.12 L71.14 80.18 L70.97 80.34 L70.74 80.45 L70.5 80.82 L70.29 81 L69.68 81.17 L69.55 81.42 L69.31 81.55 L68.95 82.02 L68.71 82.9 L68.3 83.38 L68.14 83.64 L68.12 84.7 L67.99 85.18 L67.51 85.77 L67.08 85.97 L66.83 86.18 L66.67 86.53 L66.35 86.94 L66.3 87.15 L66.36 87.64 L66.28 88 L65.93 88.74 L65.28 89.72 L65.17 89.78 L64.86 89.81 L64.49 90 L64.53 89.87 L64.4 89.83 L64.4 89.75 L64.33 89.71 L64.16 89.72 L64.18 89.58 L64.08 89.57 L64.05 89.48 L63.71 89.59 L63.71 89.46 L63.58 89.4 L63.42 89.5 L63.42 89.34 L63.49 89.33 L63.49 89.22 L63.39 89.27 L63.35 89.12 L63.14 89.01 L62.96 88.97 L62.86 89.05 L62.72 88.85 L62.51 88.9 L62.38 88.81 L62.28 88.91 L62.18 88.9 L62.08 89.03 L62.1 88.91 L62.02 88.82 L62.1 88.79 L62.01 88.7 L61.99 88.5 L61.79 88.34 L61.65 88.42 L61.58 88.33 L61.55 88.42 L61.49 88.42 L61.42 87.98 L61.19 87.89 L61.19 87.84 L61.01 87.76 L60.81 87.78 L60.7 87.64 L60.59 87.66 L60.57 87.52 L60.37 87.62 L60.29 87.49 L60.34 87.44 L60.34 87.31 L60.49 87.28 L60.5 87.16 L60.59 87.06 L60.85 87.11 L60.98 87.06 L61.13 87.11 L61.26 87.07 L61.37 87.16 L61.69 87.02 L61.79 86.6 L61.71 86.21 L61.6 85.99 L61.41 85.82 L61.28 85.58 L60.89 85.38 L60.75 85.38 L60.65 85.16 L60.47 85.2 L60.23 84.96 L60.07 84.97 L60 85.03 L59.81 84.99 L59.68 85.05 L59.54 85.03 L59.56 84.8 L59.47 84.73 L59.26 84.84 L59.14 84.78 L59.09 84.82 L59.05 84.77 L59.07 84.62 L59 84.42 L58.85 84.4 L58.84 84.5 L58.78 84.4 L58.72 84.45 L58.66 84.25 L58.7 84.21 L58.63 84.1 L58.51 84.08 L58.45 83.97 L58.22 83.86 L57.91 83.6 L58.02 83.45 L58.29 83.6 L58.73 83.74 L59.23 83.8 L59.36 83.75 L59.55 83.28 L59.52 82.86 L59.36 82.45 L58.96 81.87 L58.78 81.82 L58.62 81.59 L58.52 81.57 L58.38 81.4 L58.11 81.23 L58.1 81.16 L57.85 81.08 L57.71 80.91 L57.48 80.8 L57.44 80.74 L57.22 80.67 L57.12 80.57 L57.01 80.57 L56.9 80.47 L56.78 80.49 L56.09 80.14 L55.69 80.05 L55.37 80.06 L55.3 80.33 L55.03 80.45 L54.99 80.31 L55.08 80.22 L55.08 80.05 L54.99 80.08 L55 80.17 L54.92 80.26 L54.85 80.26 L54.94 80.01 L54.8 79.83 L54.73 79.83 L54.4 80.09 L54.37 80.25 L54.31 80.23 L54.24 80 L54.42 79.84 L54.34 79.76 L54.36 79.59 L54.25 79.44 L54.27 79.35 L54.19 79.22 L53.83 79 L53.78 78.79 L53.84 78.62 L53.67 78.53 L53.53 78.53 L53.62 78.18 L53.51 78.16 L53.54 78.03 L53.38 77.65 L53.25 77.56 L53.2 77.45 L53.04 77.45 L53 77.41 L52.96 77.11 L52.85 76.95 L52.91 76.62 L52.88 76.54 L52.69 76.46 L52.69 76.38 L52.63 76.42 L52.5 76.02 L52.29 76.06 L52.2 75.97 L52.19 75.8 L52.04 75.63 L52 75.41 L51.9 75.33 L51.81 75.34 L51.88 75.24 L51.82 75.14 L51.71 75.06 L51.54 75.08 L51.43 74.94 L51.07 74.7 L50.39 74.33 L50.25 74.14 L49.76 73.89 L49.76 73.64 L49.83 73.55 L49.86 73.36 L49.8 73.25 L49.92 73.13 L49.89 73.01 L50.04 73.05 L50.02 73 L50.12 72.96 L50.12 72.77 L50.08 72.65 L49.87 72.47 L49.69 72.2 L49.36 71.92 L49.31 71.82 L49.2 71.77 L49.19 71.7 L49.14 71.77 L49.09 71.72 L49.11 71.68 L49.1 71.66 L49.09 71.69 L49.02 71.68 L48.95 71.55 L48.87 71.58 L48.76 71.41 L48.67 71.36 L48.66 71.41 L48.62 71.33 L48.55 71.34 L48.52 71.27 L48.4 71.23 L48.37 71.14 L48.32 71.19 L48.13 71.07 L48.06 70.96 L48.03 71.01 L48.01 70.94 L47.94 70.98 L47.73 70.79 L47.71 70.85 L47.54 70.76 L47.57 70.73 L47.44 70.71 L47.17 70.48 L47.08 70.49 L46.67 70.24 L46.64 70.28 L46.36 70.08 L46.24 70.1 L45.77 69.81 L45.53 69.75 L45.54 69.71 L45.27 69.63 L45.28 69.58 L45.16 69.56 L45.1 69.48 L44.87 69.44 L44.67 69.28 L44.55 69.27 L43.9 68.93 L43.66 68.9 L43.69 68.8 L43.54 68.73 L43.37 68.51 L43.33 68.53 L42.85 68.19 L42.5 68.04 L42.13 67.78 L41.83 67.72 L41.8 67.62 L41.87 67.56 L41.8 67.45 L40.34 66.55 L38.73 65.81 L38.5 65.77 L38.47 65.69 L37.98 65.45 L37.86 65.46 L37.87 65.35 L38.08 65.29 L38.08 65.18 L38.03 64.95 L37.8 64.7 L37.16 64.2 L36.72 63.97 L36.45 63.91 L36.42 63.82 L36.33 63.87 L36.36 63.8 L36.23 63.75 L36.12 63.62 L35.92 63.59 L35.87 63.52 L35.77 63.54 L35.7 63.19 L35.53 62.98 L35.4 62.96 L35.47 62.76 L35.58 62.65 L35.61 62.51 L35.55 62.48 L35.56 62.35 L35.45 62.24 L35.41 62.02 L35.25 61.82 L35.29 61.71 L35.44 61.64 L35.45 61.47 L35.27 61.11 L35.27 60.82 L35.2 60.77 L35.35 60.71 L35.32 60.49 L34.68 59.82 L34.64 59.67 L34.43 59.48 L34.5 59.4 L34.36 59.42 L34.32 59.25 L33.92 59.05 L33.93 58.99 L33.83 58.95 L33.89 58.76 L34.02 58.61 L34.03 58.48 L33.97 58.41 L34.16 58.32 L34.08 57.63 L33.97 57.48 L33.87 57.44 L33.91 57.32 L33.85 57.25 L33.84 57.06 L33.69 56.87 L33.29 56.58 L32.86 56.35 L32.66 56.3 L32.48 56.01 L31.75 55.66 L31.59 55.49 L31.59 55.24 L31.44 55.21 L31.33 54.99 L31.17 54.92 L30.94 54.5 L30.66 54.24 L29.43 53.57 L28.68 53.35 L28.65 53.28 L28.57 53.28 L28.58 53.16 L28.5 53.18 L28.41 52.99 L28.32 52.99 L28.31 52.93 L28.37 52.91 L28.32 52.75 L28.25 52.73 L28.27 52.65 L28.19 52.66 L28 52.33 L28.18 52.19 L28.37 52.18 L28.72 52.21 L28.94 52.3 L29.19 52.29 L29.33 52.14 L29.38 51.68 L29.26 51.08 L28.57 50.09 L28.5 49.8 L28.58 49.64 L28.28 49.05 L27.78 48.56 L27.63 48.48 L27.41 48.5 L27.38 48.4 L27.25 48.26 L27.12 48.24 L27.07 48.15 L26.99 48.14 L26.97 48.21 L26.59 47.88 L26.5 47.88 L26.38 47.58 L26.48 47.56 L26.51 47.47 L26.41 47.39 L26.39 47.29 L26.3 47.26 L26.31 47.18 L26.24 47.2 L26.26 47.05 L26.14 46.99 L26.01 47.1 L25.99 46.98 L25.67 46.95 L25.66 46.84 L25.55 46.87 L25.53 46.7 L25.61 46.67 L25.66 46.56 L25.61 46.39 L25.02 46.18 L24.59 46.22 L24.43 46.36 L24.33 46.09 L24.24 46.06 L24.17 45.94 L23.97 45.88 L23.82 45.92 L23.78 46.04 L23.88 46 L24.11 46.55 L24.27 46.75 L24.34 46.51 L24.32 46.41 L24.36 46.38 L24.39 46.68 L24.26 47.04 L24.15 47.19 L24.11 47.44 L23.97 47.56 L23.77 47.93 L23.66 47.85 L23.57 47.66 L23.62 47.34 L23.53 47.28 L23.37 46.99 L23.31 46.98 L23.21 46.75 L23 46.65 L23.06 46.58 L23.33 46.52 L23.49 46.4 L23.54 46.15 L23.26 45.85 L23.3 45.69 L23.24 45.59 L23.34 45.52 L23.44 45.53 L23.49 45.4 L23.37 45.19 L23.3 45.16 L23.22 44.89 L23.17 44.86 L23.27 44.8 L23.23 44.47 L23.16 44.38 L23.15 44.26 L23.04 44.25 L22.99 44.15 L23.11 44.09 L23.1 44.05 L23.33 44.13 L23.59 43.93 L23.61 43.21 L23.72 43.15 L23.93 43.29 L24.11 43.15 L24.14 43.02 L24.06 42.71 L23.97 42.79 L23.91 42.67 L23.74 42.64 L23.75 42.58 L23.83 42.61 L23.87 42.57 L23.74 42.38 L23.83 42.17 L24 42.24 L24.09 42.12 L24.07 41.83 L23.91 41.62 L23.7 41.56 L23.66 41.45 L23.51 41.4 L23.29 41.07 L23.28 40.98 L23.36 40.9 L23.66 40.86 L23.83 40.47 L23.82 40.09 L23.72 39.79 L23.75 39.59 L23.7 39.38 L23.54 39.14 L23.41 39.11 L23.14 38.81 L23.03 38.84 L22.97 38.71 L22.97 38.66 L23.18 38.51 L23.22 38.39 L23.38 38.37 L23.42 38.11 L23.3 38 L22.95 37.89 L22.87 37.7 L22.89 37.54 L22.84 37.49 L22.41 37.53 L22.51 37.63 L22.45 37.7 L22.33 37.66 L22.28 37.78 L22.33 37.84 L22.23 37.9 L22.26 38.07 L22.22 38.14 L22.29 38.19 L22.28 38.31 L22.17 38.3 L22.1 38.41 L22.02 38.4 L21.82 38.64 L21.75 38.62 L21.65 38.34 L21.57 38.27 L21.28 38.26 L21.13 38.45 L21.07 38.48 L20.98 38.42 L20.91 38.48 L20.78 38.42 L20.8 38.27 L20.38 38.13 L20.32 38.06 L20.16 38.11 L20.01 38.04 L19.58 38.04 L19.55 37.92 L19.63 37.62 L19.58 37.49 L19.47 37.47 L19.59 37.4 L19.73 37.14 L19.77 36.89 L19.74 36.44 L19.86 36.19 L19.9 35.84 L20.1 35.64 L20.13 35.47 L20.39 35.43 L20.49 35.27 L20.39 34.88 L20.4 34.59 L20.35 34.57 L20.42 34.46 L20.48 34.48 L20.52 34.4 L20.65 34.41 L20.85 34.33 L21.24 34.47 L21.6 34.32 L21.76 34.14 L22.2 34.02 L22.56 34.08 L22.93 34.05 L22.91 34.14 L22.98 34.21 L23.22 34.22 L23.14 34.27 L23.12 34.54 L23.03 34.61 L23.03 34.71 L22.94 34.72 L22.9 34.92 L22.85 34.89 L22.69 35.13 L22.68 35.34 L22.73 35.4 L22.43 35.81 L22.43 35.89 L22.5 35.89 L22.56 35.81 L22.68 35.8 L22.69 35.71 L22.85 35.6 L22.98 35.78 L23.18 35.9 L23.41 36.16 L23.87 36.25 L23.83 36.37 L24.11 36.55 L24.48 36.16 L24.43 35.96 L24.21 35.64 L24.34 35.52 L24.58 35.41 L24.57 35.3 L24.5 35.26 L24.45 35.15 L24.49 34.8 L24.75 34.19 L24.75 34.04 L24.82 33.96 L24.93 33.17 L25.16 32.76 L25.44 31.86 L25.44 31.64 L25.51 31.51 L25.54 30.95 L25.35 30.36 L25.48 30.29 L25.45 30.14 L25.5 30.01 L25.58 30.01 L25.8 29.75 L26.1 29.24 L26.24 28.6 L26.28 28.6 L26.22 28.82 L26.26 28.88 L26.36 28.38 L26.33 28.93 L26.38 28.85 L26.47 28.83 L26.52 28.73 L26.5 28.36 L26.55 28.27 L26.68 26.84 L26.66 26.41 L26.62 26.31 L26.67 26.04 L26.63 24.76 L26.53 23.97 L26.56 23.85 L26.49 23.65 L26.49 23.18 L26.55 22.98 L26.62 22.94 L26.63 22.74 L26.47 21.64 L26.08 20.57 L25.66 19.71 L25.15 18.86 L24.6 18.17 L24.76 18.15 L25.03 17.93 L25.29 17.88 L25.68 17.67 L25.96 17.59 L26.1 17.44 L26.47 16.69 L26.68 16 L27.18 15.4 L27.26 15.13 L27.41 15 L27.51 14.75 L27.56 14.32 L27.68 13.97 L27.63 13.78 L27.78 13.66 L27.73 13.56 L27.83 13.59 L27.88 13.53 L28.03 13.51 L28.28 13.29 L28.65 13.21 L29.38 12.55 L29.57 12.48 L29.7 12.23 L30.01 12.05 L30.56 11.56 L30.73 11.53 L30.78 11.43 L31.22 11.2 L31.55 10.91 L31.6 10.81 L31.86 10.71 L32.25 10.44 L32.36 10.24 L32.61 10.09 L33.08 9.44 L33.53 8.98 L34.03 8.6 L34.07 8.28 L34.32 7.89 L34.33 7.73 L34.22 7.4 L34.38 7.17 L34.64 7.12 L34.77 7 L35.08 6.89 L35.43 7.1 L35.53 7.22 L35.82 7.29 L35.93 7.44 L36.32 7.53 L36.44 7.68 L36.63 7.66 L37.09 7.75 L37.2 7.85 L37.26 7.99 L37.48 8.15 L37.72 8.19 L38.08 8.43 L38.37 8.32 L38.67 8.1 L38.97 8.2 L39.02 8.33 L38.99 8.69 L39.11 8.96 L39.3 9.03 L39.45 8.9 L39.71 9.24 L40 9.09 L40.37 8.7 L40.71 8.48 L40.78 8.17 L40.97 7.81 L41.33 8.16 L41.46 8.15 L41.62 8.06 L41.79 8.16 L41.94 8.34 L42.12 8.33 L42.28 8.5 L42.62 8.47 L42.83 8.55 L43.2 8.42 L43.44 8.39 L43.59 8.19 L43.63 8.04 L44.15 7.99 L44.34 7.7 L44.35 7.53 L44.2 7.22 L44.27 7 L44.44 6.96 L44.78 7 L45.29 6.78 L45.42 6.59 L45.4 6.5 L45.25 6.32 L45.62 6.06 L45.9 6.06 L46.08 6 L46.26 6.13 L46.36 6.28 L46.45 6.54 L46.25 6.86 L46.21 7.13 L46.27 7.31 L46.22 7.41 L46.13 7.52 L45.92 7.61 L45.83 7.84 L45.58 7.88 L45.21 8.24 L45.28 8.67 L45.51 8.89 L45.59 9.12 L44.76 9.58 L43.99 9.11 L43.91 8.98 L43.98 8.79 L43.95 8.62 L43.7 8.61 L43.56 8.7 L43.38 8.94 L43.3 9.19 L43.35 9.49 L43.33 9.68 L43.22 9.82 L42.94 9.93 L43 10.13 L42.84 10.32 L42.71 10.73 L42.52 10.94 L42.76 11.18 L42.87 11.66 L42.96 11.79 L42.88 12.04 L42.98 12.07 L43.15 12.02 L43.38 12.25 L43.28 12.42 L43.35 12.57 L43.14 12.8 L43.18 13 L43.04 13.22 L42.93 13.57 L43.08 13.72 L43.27 14.07 L43.45 14.24 L43.49 14.43 L43.25 14.63 L43.07 14.9 L43.14 15.22 L43.09 15.45 L42.96 15.55 L43.04 16.26 L42.97 16.43 L43.03 16.62 L42.94 16.96 L42.71 17.16 L42.37 17.34 L42.23 17.55 L42.02 17.72 L41.62 17.8 L41.33 17.67 L41.15 17.8 L41.07 18 L40.55 18.26 L40.48 18.39 L40.23 18.53 L40 19.05 L39.93 19.44 L39.73 20.06 L39.5 20.22 L39.42 20.63 L39.51 20.79 L39.64 20.85 L40.04 20.89 L40.16 20.98 L40.35 20.99 L40.63 21.11 L40.8 21.08 L41.02 21.2 L41.36 21.19 L41.59 20.93 L41.69 20.92 L42 21.11 L42.3 21.19 L42.51 21.18 L42.6 21.29 L42.78 21.35 L42.89 21.54 L43.05 21.53 L43.3 21.94 L43.52 22.09 L43.93 21.75 L44.24 21.8 L44.44 21.68 L44.76 21.69 L45.11 21.38 L45.27 21.35 L45.42 21.13 L45.53 21.27 L45.74 21.24 L45.9 21.32 L46.06 21.32 L46.12 21.08 L46.33 20.85 L46.6 20.39 L47.17 20.88 L47.98 20.86 L48.11 20.96 L48.27 20.98 L48.42 20.9 L48.66 20.92 L48.9 20.41 L49.11 20.47 L49.23 20.43 L49.44 20.22 L49.58 19.93 L49.79 19.78 L49.84 19.17 L49.96 19.24 L50.05 19.84 L50.17 20.02 L49.99 20.45 L50.29 20.72 L50.41 21.03 L50.42 21.26 L50.75 21.61 L51.12 21.86 L50.95 22.19 L50.95 22.49 L50.89 22.55 L50.87 22.84 L50.88 23.02 L51.01 23.32 L50.92 23.4 L50.98 23.5 L50.94 23.62 L50.74 23.74 L50.75 23.9 L50.46 24.31 L50.5 24.59 L50.36 24.79 L50.28 24.8 L50.13 24.94 L50.31 24.95 L50.46 25.03 L50.71 25.01 L50.67 25.13 L50.09 26.42 L49.89 26.39 L49.69 26.45 L49.6 27.17 L49.35 27.52 L49.3 27.7 L49.41 28.02 L50.23 28.79 L50.47 29.3 L50.47 29.44 L50.34 30.13 L50.09 30.03 L49.95 30.44 L49.86 30.5 L49.7 30.45 L49.56 30.69 L49.42 30.81 L49.37 31.13 L49.41 31.22 L49.28 31.55 L49.08 31.71 L49 32.19 L48.87 32.42 L48.69 32.47 L48.37 32.42 L48.06 32.6 L48.27 32.83 L48.59 32.96 L48.66 33.06 L48.62 33.37 L48.68 33.55 L48.56 33.72 L48.57 33.9 L48.74 34.12 L48.92 34.16 L49 34.24 L49.1 34.91 L49.02 35.01 L48.76 35.11 L48.7 35.34 L48.48 35.52 L48.21 35.57 L48.12 35.68 L47.79 35.74 L47.7 36.16 L47.94 36.5 L47.91 36.73 L48.04 36.96 L48.24 37.07 L48.34 37.32 L48.68 37.3 L48.99 37.2 L49.21 37.21 L49.57 37.43 L49.68 37.56 L49.83 37.6 L49.88 37.75 L50.06 37.72 L50.55 38.05 L50.7 38.04 L50.76 38.13 L51.1 38.06 L51.16 37.94 L51.29 38 L51.38 37.92 L51.77 38.02 L51.87 38.14 L52.21 38.19 L52.54 38.48 L52.79 38.62 L52.89 38.88 L53.04 38.97 L53.2 39.19 L53.48 39.23 L53.6 39.32 L53.97 39.86 L54.45 40 L54.69 40.14 L54.71 40.42 L54.9 40.8 L54.86 40.97 L55.08 41.26 L55.75 41.71 L56.1 41.73 L56.27 41.64 L57.12 41.52 L57.49 41.39 L57.73 41.47 L58.07 41.17 L58.24 41.16 L58.38 41.03 L58.51 41.12 L58.72 41.15 L58.79 41.26 L58.99 41.29 L58.77 41.73 L58.51 41.92 L58.39 42.14 L58.03 42.49 L60.58 42.94 L60.83 43.07 L61.31 43.62 L62.58 42.83 L62.84 42.45 L63.19 42.23 L63.25 42.46 L63.97 44.05 L64.23 44.01 L64.43 43.85 L64.69 44.01 L64.79 44.23 L64.8 44.71 L64.97 45.3 L64.87 45.58 L64.74 45.77 L64.65 46.19 L64.29 46.84 L64.23 47.56 L64.06 47.94 L63.99 48.29 L63.85 48.41 L63.9 48.86 L64.02 49 L64.28 49.03 L64.4 49.09 L64.48 49.36 L64.45 49.45 L64.6 49.55 L64.68 49.68 L65 49.78 L65.57 49.73 L65.78 49.91 L65.84 50.09 L65.6 50.31 L65.53 50.62 L65.25 50.83 L65.06 50.86 L64.9 51.05 L64.49 51.27 L64.17 51.24 L63.96 51.6 L63.78 51.68 L63.53 52.18 L63.52 52.48 L63.23 52.87 L63.33 53.15 L63.31 53.31 L63.07 53.72 L62.91 53.89 L62.8 54.17 L62.6 54.36 L62.43 54.67 L62.44 54.85 L62.21 55.22 L62.5 55.24 L62.84 55.39 L62.89 55.45 L62.77 55.59 L63.04 55.63 L63.28 55.84 L63.94 55.58 L64.19 55.61 L64.26 55.57 L64.62 55.66 L64.86 55.61 L65.11 55.74 L64.82 56.13 L64.55 56.33 L64.57 56.68 L64.09 57.12 L63.68 57.36 L63.58 57.57 L63.81 57.92 L63.79 58.25 L63.84 58.43 L63.79 58.74 L63.96 59.06 L64.07 59.16 L64.56 58.98 L64.65 59.04 L64.61 59.37 L64.47 59.47 L64.35 59.71 L64.25 59.75 L64.24 60.32 L64.28 60.41 L64.51 60.47 L64.69 60.58 L64.77 60.8 L64.83 61.4 L64.75 61.86 L64.94 62.04 L64.94 62.27 L65.03 62.36 L65.14 62.37 L65.54 61.99 L65.87 61.8 L66.33 61.81 L66.63 61.71 L67.05 61.87 L67.57 61.57 L67.8 61.6 L67.87 61.54 L68.08 61.67 L68.33 61.67 L68.65 61.15 L68.74 60.79 L68.99 60.76 L69.18 60.66 L69.46 60.39 L69.83 60.3 L70.22 59.64 L70.4 59.6 L70.67 59.68 L70.84 59.62 L71.12 59.95 L70.87 60.66 L71.08 61.11 L71.32 61.29 L71.48 61.55 L71.69 61.75 L71.94 61.86 L72.55 61.87 L72.63 61.93 L73.76 62.04 L73.9 61.98 L74.1 62 L74.09 62.08 L73.94 62.21 L73.2 62.65 L72.71 63.37 L72.4 63.57 L72.2 63.62 L72.1 63.73 L72.05 63.95 L72.1 64.05 L72.11 64.47 L72.27 64.64 L72.44 64.7 L72.34 64.92 L72.21 64.96 L72.14 65.12 L72.23 65.21 L72.38 65.25 L72.66 65.51 L72.74 65.98 L72.81 66.08 L73.13 66.19 L73.31 66.47 L73.63 66.62 L73.73 66.45 L73.96 66.3 L74.17 66.04 L74.57 65.81 L75.22 65.79 L75.39 65.83 L75.7 65.63 L75.99 65.33 L76.54 65.21 L76.52 65.28 L76.14 65.54 L75.87 65.95 L75.87 66.16 L75.82 66.24 L76.01 66.52 L75.84 66.72 L75.28 67.02 L75.18 67.22 L75.18 67.69 L74.99 67.78 L74.86 67.94 L75.18 68.1 L75.33 68.51 L75.48 68.72 L75.59 68.74 L75.85 68.64 L76.08 68.69 L76.35 68.67 L76.59 68.89 L76.24 69.05 L75.99 69.03 L75.88 69.1 L75.72 69.09 L75.59 69.16 L75.38 69.18 L75.32 69.21 L75.22 69.47 L75.5 69.64 L76 69.6 L76.11 69.7 L76.34 69.52 L76.62 69.5 L76.83 69.39 L77.35 69.68 L77.87 70.34 L77.87 70.45 L77.72 70.62 L77.74 70.77 L77.86 70.89 L78.03 70.95 L78.05 71.14 L78.23 71.3 L78.32 71.53 L78.29 71.95 L78.14 72.06 L78.01 72.26 L77.68 72.5 L77.6 72.51 L77.54 72.62 L77.81 72.93 L77.96 73.31 L78.22 73.52 L78.25 73.73 L78.39 73.92 L78.35 74.06 L78.88 74.23 L78.74 74.54 L78.44 74.85 L78.22 74.97 L78.28 75.22 L78.23 76.1 L78.34 76.47 L78.25 76.7 L78.12 76.89 L77.93 77 L77.5 77.12 L77.18 77.14 L76.81 77.52 L76.07 77.92 L75.8 77.92 L75.42 78.1 L75.16 78.16 L74.81 78.53 L74.44 78.66 L74.23 78.83 Z M35.62 63.46 L35.59 63.58 L35.5 63.53 L35.56 63.43 L35.62 63.46 Z M25.93 49.92 L26.14 49.98 L26.3 49.94 L26.33 50.02 L26.21 50.01 L26.2 50.06 L26.64 50.33 L26.7 50.44 L26.69 50.71 L27.01 50.86 L27.08 50.96 L27.09 51.03 L27 51.17 L27.08 51.3 L26.99 51.44 L26.93 51.44 L26.92 51.16 L26.83 51.25 L26.67 51.1 L26.48 51.11 L26.14 50.99 L26.08 50.88 L25.86 50.78 L25.66 50.47 L25.56 50.41 L25.55 50.06 L25.61 49.92 L25.93 49.92 Z M23.98 42.86 L23.99 42.95 L23.94 42.97 L23.73 42.88 L23.73 42.85 L23.89 42.83 L23.98 42.86 Z M22.86 40.97 L22.85 41.04 L22.93 41.03 L22.92 41.13 L22.79 41.09 L22.8 40.96 L22.85 40.93 L22.86 40.97 Z M23.18 41.04 L23.13 41.04 L23.09 41 L23.17 40.97 L23.18 41.04 Z M27.46 51.69 L27.51 51.86 L27.62 51.93 L27.69 52.05 L27.67 52.09 L27.6 52.06 L27.54 52.16 L27.37 52.05 L27.45 51.87 L27.31 51.97 L27.19 51.82 L27.32 51.75 L27.34 51.65 L27.46 51.69 Z M27.29 51.58 L27.24 51.61 L27.23 51.51 L27.27 51.51 L27.29 51.58 Z M17.66 35.08 L17.98 35.13 L18.02 35.2 L18.03 35.5 L18.3 35.57 L18.25 35.73 L18.28 35.95 L18.17 36.1 L18.15 36.23 L18.08 36.31 L17.98 36.34 L17.9 36.31 L17.8 36.39 L17.77 36.31 L17.87 36.32 L17.9 36.23 L17.86 36.12 L17.75 36.14 L17.47 36.04 L17.37 36.13 L17.31 36.1 L17.23 36.23 L17.26 36.13 L17.12 36.04 L17.17 36.01 L17.22 35.7 L17.35 35.57 L17.38 35.28 L17.48 35.1 L17.59 35.04 L17.66 35.08 Z M24.43 35.01 L24.43 35.09 L24.39 35.1 L24.37 34.99 L24.43 35.01 Z M17.64 34.96 L17.57 35.04 L17.53 35.03 L17.62 34.9 L17.64 34.96 Z M17.63 34.85 L17.55 34.86 L17.54 34.84 L17.59 34.82 L17.63 34.85 Z M19.67 32.17 L19.59 32.3 L19.37 32.38 L19.4 32.28 L19.5 32.27 L19.51 32.18 L19.59 32.2 L19.57 32.11 L19.68 32.1 L19.67 32.17 Z M22.41 32.18 L22.39 32.23 L22.33 32.25 L22.36 32.15 L22.42 32.13 L22.41 32.18 Z M19.63 31.98 L19.55 32.1 L19.39 32.08 L19.4 32 L19.47 31.95 L19.59 31.93 L19.63 31.98 Z M19.02 29.74 L18.95 29.77 L18.89 29.71 L18.95 29.68 L19.02 29.74 Z M19.36 29.18 L19.53 29.31 L19.43 29.33 L19.41 29.42 L19.32 29.45 L19.25 29.36 L19.25 29.18 L19.36 29.18 Z M19.56 28.9 L19.68 28.96 L19.62 29.16 L19.25 29.08 L19.3 28.9 L19.39 28.96 L19.56 28.9 Z M26.29 28.29 L26.08 29.16 L25.96 29.39 L26.28 28.23 L26.29 28.29 Z M19.44 28.36 L19.55 28.38 L19.58 28.33 L19.83 28.48 L19.88 28.57 L19.79 28.55 L19.8 28.65 L19.57 28.68 L19.58 28.48 L19.53 28.63 L19.51 28.49 L19.38 28.47 L19.37 28.32 L19.44 28.36 Z" /></svg>