<svg xmlns="http://www.w3.org/2000/svg" viewBox="0 0 96 96"><path fill="#efd0a0" fill-rule="evenodd" d="M34.97 73.4 L34.92 73.42 L34.8 73.34 L34.61 73.15 L34.24 73.28 L34.03 73.63 L34.17 73.9 L34.16 74.06 L34.26 74.21 L34.17 74.35 L34.09 74.67 L33.86 74.91 L33.75 74.81 L33.46 74.7 L33.37 74.44 L33.28 74.36 L33.31 74.07 L33.19 73.9 L33.05 73.84 L33.02 73.7 L32.71 73.59 L32.53 73.37 L32.44 73.35 L32.43 73.28 L32.34 73.19 L32.23 73.25 L31.9 73.29 L31.74 73.37 L31.65 73.31 L31.41 73.53 L31.22 73.56 L31.17 73.68 L31.04 73.68 L30.9 73.79 L30.88 73.43 L30.81 73.28 L30.91 72.86 L30.9 72.58 L30.95 72.48 L31.09 72.42 L31.09 72.3 L31.21 72.13 L31.26 71.97 L31.11 71.82 L31.11 71.71 L31.23 71.63 L31.25 71.46 L31.4 71.31 L31.48 71.25 L31.62 71.24 L31.72 70.98 L31.8 70.91 L31.81 70.72 L31.99 70.64 L32.06 70.55 L31.99 70.41 L31.99 70.29 L31.91 70.19 L31.96 70.03 L31.88 69.9 L31.79 69.52 L31.47 68.86 L31.54 68.5 L31.52 68.41 L31.54 68.25 L31.43 67.96 L31.42 67.87 L31.48 67.76 L31.42 67.68 L31.41 67.32 L31.37 67.17 L31.51 67.05 L31.53 66.88 L31.66 66.74 L31.71 66.47 L31.57 66.33 L31.49 66.08 L31.34 65.88 L31.22 65.61 L31.14 65.55 L30.77 65.5 L30.65 65.4 L30.57 65.28 L30.53 65.1 L30.7 64.72 L30.51 64.62 L30.43 64.4 L30.28 64.23 L30.2 64.05 L30.07 63.89 L29.9 63.79 L29.9 63.59 L29.63 63.4 L29.46 63.21 L29.46 63.13 L29.19 62.86 L29.12 62.6 L28.96 62.47 L28.94 62.25 L28.63 61.95 L28.72 61.74 L28.81 61.66 L28.77 61.54 L28.8 61.45 L28.96 61.43 L29.04 61.37 L29.06 61.11 L29.17 60.97 L29.25 60.75 L29.55 60.6 L29.63 60.35 L29.32 59.99 L29.43 59.83 L29.35 59.82 L28.91 59.53 L28.71 59.25 L28.37 59.03 L28.19 58.97 L28.2 58.89 L28.13 58.72 L28.16 58.59 L28.36 58.33 L28.06 58.16 L27.86 57.92 L27.68 58.07 L27.52 58.05 L27.43 57.98 L27.25 58.04 L27.12 57.93 L26.96 57.93 L26.74 57.83 L26.6 57.81 L26.51 58.04 L26.31 58.25 L26.09 58.27 L25.95 58.36 L25.68 58.18 L25.55 58 L25.45 57.94 L25.39 57.82 L25.23 57.75 L25.14 57.76 L25.03 57.7 L24.97 57.59 L24.65 57.34 L24.52 57.15 L24.4 57.19 L24.31 57.43 L24.16 57.45 L24.11 57.41 L24.1 57.32 L23.9 56.97 L23.75 57.01 L23.59 56.98 L23.26 56.8 L23.04 56.78 L22.75 56.6 L22.46 56.61 L22.31 56.74 L22.22 56.69 L22.08 56.46 L21.83 56.36 L21.64 56.37 L21.15 56.65 L21.1 56.61 L21.06 56.46 L20.9 56.39 L20.84 56.39 L20.78 56.46 L20.7 56.47 L20.54 56.37 L20.41 56.35 L19.97 56.63 L19.92 56.61 L19.89 56.49 L19.74 56.38 L19.43 56.41 L19.21 56.12 L18.77 55.84 L18.68 55.62 L18.5 55.53 L18.36 55.38 L18.34 55.19 L18.29 55.13 L18.36 54.96 L18.25 54.81 L18.29 54.71 L18.22 54.48 L18.4 54.42 L18.46 54.2 L18.39 54.14 L18.41 53.91 L18.19 53.6 L17.96 53.44 L17.68 53.16 L17.52 53.09 L17.42 52.8 L17.33 52.84 L17.28 52.81 L17.16 52.58 L17.2 52.45 L17 52.26 L16.96 52.13 L16.83 51.94 L16.83 51.83 L16.52 51.5 L16.47 51.37 L16.17 51.23 L16.17 50.97 L15.99 50.88 L15.82 51.06 L15.71 51.04 L15.43 50.76 L15.4 50.68 L15.2 50.52 L15.21 50.35 L15.17 50.24 L14.99 50.09 L14.88 49.89 L14.71 49.84 L14.53 49.85 L14.42 49.64 L14.41 49.27 L14.24 48.88 L14.31 48.7 L14.42 48.66 L14.56 48.69 L14.61 48.52 L14.59 48.33 L14.49 48.08 L14.4 47.97 L14.37 47.77 L14.77 47.35 L14.72 47.12 L14.49 46.93 L14.51 46.83 L14.8 46.6 L14.97 46.58 L15 46.53 L14.98 46.43 L14.79 46.28 L14.88 46.06 L14.84 45.85 L14.48 45.88 L14.33 45.66 L14.32 45.52 L14.09 45.42 L14 45.43 L13.98 45.27 L13.79 45.14 L13.79 45.03 L13.72 44.97 L13.63 45.01 L13.61 45.19 L13.47 45.36 L13.28 45.32 L13.04 45.39 L12.81 45.31 L12.71 45.34 L12.61 45.46 L12.52 45.71 L12.36 45.79 L12.17 45.96 L12 45.9 L11.88 46.1 L11.88 45.98 L11.79 45.8 L11.8 45.51 L11.68 45.31 L11.55 45.22 L11.36 45.21 L11.26 45.01 L11.14 44.94 L11.11 44.79 L11.05 44.7 L10.86 44.66 L10.77 44.73 L10.56 44.65 L10.51 44.47 L10.49 44.09 L10.36 44.08 L10.26 44.15 L10.17 44.04 L10.18 43.93 L9.78 43.57 L9.68 43.1 L9.71 43.04 L9.86 42.99 L9.91 42.89 L9.79 42.45 L9.77 42.05 L9.71 42.03 L9.48 42.12 L9.35 42.1 L9.26 42.01 L8.98 41.46 L8.79 41.24 L8.85 41.16 L9.03 41.12 L9.14 40.97 L8.96 40.63 L8.84 40.52 L8.78 40.34 L8.63 40.23 L8.62 39.95 L8.55 39.68 L8.44 39.61 L8.4 39.51 L8.32 39.45 L8 39.49 L7.84 39.43 L7.76 39.35 L7.57 38.92 L7.45 38.78 L7.5 38.67 L7.48 38.58 L7.11 38.06 L7.09 38 L7.32 37.6 L7.49 37.44 L7.63 37.51 L7.63 37.44 L7.39 37.28 L7.11 37.25 L6.94 37.11 L6.76 36.83 L6.77 36.76 L6.91 36.75 L6.96 36.57 L6.89 36.22 L6.65 35.88 L6.67 35.63 L6.73 35.52 L6.7 35.24 L6.35 34.81 L6.34 34.75 L6.43 34.59 L6.4 34.17 L6.3 33.99 L6.31 33.91 L6.24 33.85 L6.22 33.67 L6.03 33.5 L6 33.42 L6.02 33.37 L6.14 33.31 L6.62 33.17 L6.72 32.95 L6.69 32.81 L6.74 32.66 L7.11 32.49 L7.31 32.53 L7.54 32.52 L7.67 32.36 L7.78 32.41 L7.93 32.19 L8.27 32.41 L8.48 32.29 L8.61 32.33 L9.21 32.3 L9.32 32.17 L9.44 32.17 L9.6 32.25 L9.61 32.41 L10.24 32.61 L10.46 32.79 L10.58 32.73 L10.71 32.53 L10.87 32.48 L11.33 32.72 L11.29 32.85 L11.34 33.22 L11.6 33.8 L11.97 33.83 L12.17 33.96 L12.33 33.95 L12.9 34.29 L13.01 34.29 L13.26 34.08 L13.34 34.08 L13.68 34.37 L13.77 34.4 L13.95 34.27 L14.07 34.26 L13.97 34.07 L13.97 33.97 L13.83 33.9 L13.78 33.69 L13.69 33.69 L13.62 33.52 L13.44 33.34 L13.33 33.34 L13.28 33.3 L13.1 33.05 L13.13 32.65 L13.28 32.34 L13.28 32.11 L13.35 31.9 L13.35 31.76 L13.4 31.72 L13.35 31.65 L13.4 31.57 L13.39 31.51 L13.28 31.5 L13.31 31.39 L13.12 31.34 L13.08 31.22 L13.11 31.13 L12.96 31.1 L12.88 31 L12.9 30.95 L13.04 30.88 L12.88 30.67 L12.96 30.59 L12.89 30.45 L12.97 30.34 L12.91 30.26 L12.83 30.28 L12.76 30.23 L12.78 30.15 L12.69 30.08 L12.7 29.75 L12.61 29.73 L12.64 29.65 L12.53 29.55 L12.52 29.48 L12.58 29.48 L12.58 29.42 L12.66 29.37 L12.59 29.27 L12.7 29.24 L12.72 29.19 L12.62 29.09 L12.52 29.12 L12.56 29.02 L12.54 28.97 L12.42 28.97 L12.38 28.79 L12.44 28.5 L12.37 28.27 L12.42 28.13 L12.61 28.22 L12.85 28.16 L12.96 28.25 L13 28.23 L13.14 28.28 L13.26 28.2 L13.53 28.11 L13.64 28.15 L13.67 28.05 L13.83 28.03 L14.02 28.12 L14.18 28.12 L14.25 28.38 L14.12 28.47 L14.24 28.6 L14.2 28.71 L14.27 28.79 L14.47 28.83 L14.5 28.99 L14.61 29.03 L14.61 29.13 L14.68 29.13 L14.68 29.21 L14.79 29.24 L14.94 29.18 L15.06 29.08 L15.18 29.07 L15.2 29.01 L15.3 29.05 L15.26 28.95 L15.31 28.89 L15.52 28.95 L15.74 28.94 L15.92 28.85 L16.06 28.96 L16.17 28.86 L16.38 28.99 L16.43 28.97 L16.51 29.01 L16.57 29.11 L16.46 29.23 L16.49 29.26 L16.65 29 L16.86 28.86 L16.86 28.75 L16.96 28.66 L17.02 28.5 L17.14 28.43 L17.14 28.28 L17.25 28.18 L17.33 27.96 L17.33 27.81 L17.42 27.76 L17.46 27.64 L17.58 27.55 L17.59 27.49 L17.82 27.4 L17.97 27.26 L18.23 27.17 L18.39 27.18 L18.57 27.09 L18.82 26.7 L19.14 26.42 L19.4 26.08 L19.54 26.01 L19.57 25.76 L19.7 25.72 L19.91 25.54 L20.04 25.59 L20.28 25.8 L20.53 26.12 L20.77 26.19 L20.85 26.25 L20.86 26.42 L20.93 26.52 L21.14 26.72 L21.4 26.85 L21.39 27.16 L21.47 27.27 L21.58 27.19 L21.87 27.17 L21.98 26.95 L22.22 26.83 L22.6 26.85 L22.73 26.8 L22.9 26.86 L23.06 26.8 L23.34 27.03 L23.46 26.78 L23.71 26.98 L23.74 27.14 L23.97 27.24 L24.09 27.25 L24.37 26.94 L24.53 26.96 L24.63 26.87 L24.71 26.68 L24.58 26.59 L24.55 26.51 L24.66 26.24 L25.26 25.73 L25.39 25.66 L25.77 25.68 L26.11 25.79 L26.56 25.57 L26.86 25.23 L27.19 25.24 L27.51 25.41 L27.89 25.44 L28.01 25.7 L27.89 25.86 L27.9 25.92 L28.27 26.04 L28.4 25.99 L28.51 25.83 L28.72 25.7 L29.05 25.66 L29.49 25.7 L29.97 25.62 L30.16 25.63 L30.34 25.38 L30.57 25.29 L30.66 25.14 L30.8 25.05 L30.91 24.82 L31.01 24.49 L31.01 24.26 L31.06 24.14 L31.05 23.64 L31.19 23.31 L31.22 23.06 L31.35 23.14 L31.44 23.43 L31.52 23.51 L31.71 23.55 L31.83 23.44 L31.92 23.42 L32.2 23.5 L32.23 23.62 L32.45 23.79 L32.58 23.78 L32.66 23.84 L32.77 23.78 L32.94 23.89 L33.01 23.8 L33.1 23.88 L33.18 23.79 L33.3 23.84 L33.3 23.93 L33.39 24.04 L33.47 24.07 L33.48 24.39 L33.56 24.47 L33.67 24.48 L33.8 24.38 L33.86 24.1 L34.05 24.32 L34.09 24.47 L34.08 24.63 L33.8 24.93 L33.71 24.97 L33.51 25.15 L33.3 25.48 L33.24 25.83 L33.29 26.06 L33.18 26.29 L33.31 26.5 L33.3 26.8 L33.36 27.06 L33.29 27.22 L33.37 27.43 L33.65 27.65 L33.9 27.77 L33.94 27.66 L34.24 27.65 L34.34 27.54 L34.4 27.31 L34.65 27.11 L34.86 27.08 L35.05 27.1 L35.14 26.9 L35.25 26.86 L35.27 26.77 L35.38 26.67 L35.42 26.72 L35.83 26.74 L35.92 26.81 L36.01 26.81 L36.22 26.46 L36.55 26.29 L36.68 26.35 L36.86 26.64 L36.98 26.72 L37.48 26.71 L37.61 26.6 L37.95 26.65 L38.02 26.56 L38.27 26.43 L38.43 26.28 L38.54 26.02 L38.61 26.1 L38.73 26.09 L39.06 25.78 L39.21 25.76 L39.3 25.69 L39.35 25.43 L39.43 25.25 L39.68 25.07 L39.72 24.87 L39.82 24.7 L39.75 24.34 L39.8 23.84 L39.72 23.68 L39.78 23.59 L39.89 23.54 L40.03 23.55 L40.16 23.64 L40.51 23.08 L40.54 22.86 L40.61 22.77 L40.66 22.73 L40.86 22.77 L41.15 22.75 L41.31 22.83 L41.53 22.83 L41.62 22.88 L41.97 22.85 L42.66 23.02 L42.78 23.09 L43.09 23.14 L43.2 23.03 L43.33 22.98 L43.64 22.58 L43.71 22.33 L43.83 22.26 L43.86 22.13 L43.93 22.06 L43.92 21.91 L44.13 21.89 L44.36 21.74 L44.29 21.43 L44.37 21.25 L44.53 21.09 L44.82 21.18 L44.91 21.34 L45.21 21.59 L45.25 21.71 L45.23 21.79 L45.31 21.86 L45.62 21.82 L45.96 21.59 L46.25 21.66 L46.33 21.89 L46.37 22.44 L46.32 22.73 L46.38 22.84 L46.38 23.01 L46.58 23.3 L46.56 23.5 L46.71 23.68 L47.46 23.31 L47.61 23.44 L47.73 23.47 L47.86 23.64 L48.06 23.68 L48.13 23.77 L48.28 23.73 L48.4 23.78 L48.55 23.64 L48.81 23.84 L49.03 24.11 L49.14 24.18 L49.26 24.17 L49.39 24.03 L49.82 23.97 L49.72 23.68 L49.74 23.4 L49.69 23.12 L49.76 22.75 L49.82 22.74 L49.93 22.85 L50.02 23.05 L50.24 23.3 L50.46 23.87 L50.49 24.02 L50.71 24.46 L51 24.83 L51.26 25.28 L51.7 25.78 L51.8 25.81 L52.15 25.66 L52.36 25.78 L52.65 25.69 L53.13 25.95 L53.26 25.86 L53.36 25.97 L53.49 26.23 L53.69 26.27 L53.94 26.46 L54.05 26.77 L54.22 26.98 L54.14 27.18 L54.3 27.44 L54.49 27.35 L54.7 27.34 L54.76 27.26 L54.77 27.11 L55.04 26.96 L55.28 26.96 L55.46 26.81 L55.64 26.79 L55.83 26.88 L55.92 26.98 L55.98 27.25 L56.03 27.32 L56.3 27.48 L56.49 27.76 L56.67 27.85 L56.97 27.97 L57.11 27.93 L57.55 27.95 L57.69 28.04 L58.21 28.16 L58.44 28.44 L59.46 28.45 L59.96 29 L60.15 29.28 L60.28 29.29 L60.57 29.2 L60.68 29.24 L60.84 29.47 L61.1 29.65 L61.26 29.98 L61.52 30.13 L61.77 30.2 L61.81 30.31 L61.68 30.42 L61.62 30.56 L61.69 30.69 L61.6 30.85 L61.62 30.89 L61.78 31.08 L61.83 31.2 L62.28 31.47 L62.63 31.51 L62.68 31.6 L62.93 31.67 L63.54 31.77 L63.78 31.7 L64.32 31.22 L64.89 31.11 L65.12 30.94 L65.42 31.06 L65.55 30.98 L65.79 30.96 L66.1 30.78 L66.32 30.75 L66.87 30.86 L67 30.94 L67.36 30.95 L67.42 30.85 L67.48 30.43 L67.53 30.38 L67.63 30.38 L67.67 30.31 L67.61 29.97 L67.7 29.91 L67.92 29.93 L68.14 30.09 L68.4 30.12 L68.57 30.25 L68.94 30.22 L69.09 29.99 L69.29 29.93 L69.63 30.05 L69.98 29.93 L70.15 29.93 L70.74 30.1 L71.02 30.09 L71.2 30.13 L71.44 30.08 L71.69 29.87 L71.9 30.01 L72.21 30.13 L72.57 30.09 L72.65 30.22 L72.72 30.55 L72.92 30.85 L73.05 31.71 L73.33 32.16 L73.34 32.53 L73.2 32.76 L73.27 32.84 L73.27 33.11 L73.42 33.64 L73.6 33.76 L73.82 34.01 L73.95 34.29 L74.14 34.35 L74.51 34.6 L74.69 34.62 L74.87 34.59 L75.24 34.68 L75.44 34.82 L75.73 35.13 L75.97 34.97 L76.12 34.71 L76.38 34.56 L76.47 34.36 L76.41 33.94 L76.45 33.68 L76.34 33.01 L76.39 32.67 L76.4 32.15 L76.28 31.24 L76.29 30.96 L76.38 30.49 L76.37 30.06 L76.43 29.89 L76.39 29.7 L76.52 29.52 L76.57 29.19 L76.84 28.96 L76.92 28.69 L77.08 28.55 L77.22 28.52 L77.28 28.36 L77.43 28.22 L77.35 27.93 L77.59 27.69 L77.51 27.54 L77.72 27.33 L77.68 27.19 L77.57 27.15 L77.51 27.08 L77.62 26.48 L77.6 26.29 L77.48 26.14 L77.46 25.91 L77.61 25.77 L77.57 25.6 L77.61 25.32 L77.75 25.23 L78.03 25.42 L78.21 25.36 L78.3 25.19 L78.28 24.91 L78.39 24.85 L78.56 24.56 L78.62 24.36 L78.54 23.94 L78.77 23.9 L78.9 23.47 L79.09 23.34 L79.21 23.3 L79.57 23.24 L79.68 23.28 L79.76 23.37 L79.78 23.63 L79.87 23.77 L80.02 23.85 L80.31 23.92 L80.58 24.23 L80.85 24.32 L81.27 24.71 L81.46 24.69 L81.61 24.82 L81.55 24.97 L81.58 25.05 L81.72 25.06 L81.76 25.18 L82.4 25.62 L83.02 26.21 L83.21 26.3 L83.63 26.39 L83.86 26.8 L83.99 27.1 L84.22 27.22 L84.32 27.4 L84.31 27.59 L84.23 27.83 L84.31 28.55 L84.11 28.93 L84.09 29.08 L84.26 29.44 L84.45 29.62 L84.46 29.94 L84.6 30.13 L84.55 30.31 L84.73 30.38 L84.7 30.43 L84.77 30.5 L84.78 30.68 L84.9 30.85 L84.95 31.4 L85.3 31.76 L85.51 31.86 L85.68 31.87 L85.85 31.81 L86.07 31.93 L86.28 31.83 L86.39 31.85 L86.53 31.93 L86.84 32.54 L86.84 32.67 L86.75 32.82 L86.94 33.13 L86.94 33.34 L86.75 33.48 L86.7 33.58 L86.83 33.84 L87.11 34.12 L87.1 34.36 L86.98 34.62 L87.08 34.96 L87.03 35.11 L87.19 35.42 L87.13 35.7 L87.21 35.85 L87.21 35.99 L87.3 36.1 L87.41 36.05 L87.43 36.09 L87.38 36.25 L87.41 36.47 L87.27 36.77 L87.26 37.21 L87.11 37.49 L87.04 37.71 L87.07 37.85 L87.03 38 L87.14 38.09 L87.19 38.24 L87.02 38.34 L86.77 38.37 L86.49 38.62 L86.61 38.81 L86.58 39.01 L86.45 39.27 L86.52 39.54 L86.62 39.57 L86.83 39.32 L86.93 39.32 L87.02 39.61 L87.28 39.79 L87.45 40.18 L87.48 40.19 L87.58 40.11 L87.69 40.09 L87.94 40.25 L88.09 40.27 L88.22 40.39 L88.08 40.51 L88 40.73 L87.66 40.97 L87.52 41.16 L87.45 41.37 L87.32 41.46 L87.26 41.56 L87.29 41.68 L87.15 41.85 L87.08 41.86 L86.92 41.97 L86.86 42.11 L86.69 42.34 L86.73 42.41 L86.61 42.63 L86.62 42.7 L86.71 42.86 L86.88 42.98 L87.03 43.2 L87.09 43.35 L87.19 43.46 L87.19 43.61 L86.92 43.71 L86.81 43.91 L86.7 44.03 L86.59 44.05 L86.19 43.96 L86.01 43.96 L85.94 44.07 L85.71 44.1 L85.35 44.59 L85.05 44.87 L84.8 45.23 L84.34 45.47 L83.77 46.04 L83.55 46.46 L83.27 46.73 L83.27 47.14 L83.01 47.44 L82.96 47.75 L83.13 48.32 L84.15 49.9 L84.16 50.38 L84.08 50.53 L83.93 50.63 L83.9 50.74 L83.96 51.11 L84.11 51.26 L84.61 51.54 L84.89 51.96 L85.34 52.39 L85.58 52.5 L85.83 52.54 L86.1 52.54 L86.44 52.45 L86.53 52.72 L86.81 53.09 L87.19 53.34 L87.17 53.73 L87.26 54.07 L87.47 54.53 L87.35 55.05 L87.47 55.45 L87.48 55.76 L87.61 56.06 L87.8 56.21 L87.84 56.31 L87.83 56.38 L87.66 56.55 L87.66 56.66 L87.74 56.76 L87.94 56.79 L87.97 57.04 L88.04 57.16 L88.43 57.09 L88.63 57.21 L88.7 57.36 L88.65 58.01 L88.59 58.31 L88.63 58.44 L88.59 58.92 L88.65 59.19 L88.88 59.44 L89.06 59.54 L89.22 59.53 L89.59 59.74 L89.73 59.7 L89.82 59.73 L89.85 59.87 L89.77 60.13 L90 60.43 L89.96 60.56 L89.89 60.59 L89.68 60.51 L89.44 60.48 L89.08 60.61 L88.45 60.7 L88.09 60.84 L87.67 61.09 L87.35 61.38 L87.07 61.86 L86.93 62.2 L86.83 62.69 L86.73 62.79 L86.72 63.12 L85.95 63.55 L85.77 63.55 L85.53 63.4 L85.39 63.42 L85.19 63.52 L85.08 63.66 L84.96 63.73 L84.83 63.71 L84.6 63.77 L84.45 63.9 L84.42 64.11 L84 64.16 L83.94 64.25 L83.86 64.64 L83.66 64.68 L83.61 64.76 L83.7 65.03 L83.61 65.82 L83.64 66.06 L83.6 66.38 L83.68 66.56 L83.64 66.95 L83.7 67.08 L83.65 67.19 L83.5 67.28 L83.41 67.28 L83.29 67.19 L83.19 66.97 L83.08 66.86 L82.34 66.63 L82.29 66.5 L82.22 66.43 L82.07 66.49 L81.99 66.47 L81.92 66.4 L81.9 66.25 L81.77 66.09 L81.85 65.93 L81.82 65.87 L81.53 65.86 L81.34 66 L80.88 65.91 L80.71 65.94 L80.52 66.11 L80.27 66.14 L80.17 66.21 L80.11 66.38 L79.96 66.6 L80.04 66.97 L79.75 67.16 L79.68 67.27 L79.66 67.42 L79.71 67.65 L79.61 67.9 L79.61 68.04 L79.53 68.13 L79.48 68.15 L79.15 67.93 L79.11 67.58 L78.96 67.46 L78.72 67.18 L78.46 67.07 L78.22 67.04 L78.06 66.93 L78.02 66.78 L78.14 66.56 L78.01 66.4 L77.89 66.36 L77.71 66.5 L77.59 66.54 L77.37 66.47 L77.11 66 L77.01 65.69 L76.87 65.58 L76.78 65.38 L76.58 65.28 L76.5 65.09 L76.56 64.92 L75.98 64.41 L75.8 64.16 L75.34 63.71 L75.23 63.29 L75.12 63.13 L74.89 62.92 L74.79 62.9 L74.66 62.8 L74.08 62.64 L73.99 62.53 L73.86 62.47 L73.82 62.41 L73.59 62.6 L73.51 62.8 L73.17 62.79 L72.87 62.97 L73.09 63.29 L73.19 63.65 L73.08 64.01 L72.88 64.23 L72.69 64.32 L72.52 64.18 L72.2 64.16 L71.71 63.73 L71.58 63.85 L71.3 63.94 L71.18 64.13 L71.03 64.18 L70.89 64.13 L70.74 64.26 L70.57 64.24 L70.18 64.31 L70.14 64.36 L70 65.09 L69.78 65.24 L69.54 65.63 L69.4 65.63 L69.3 65.55 L69.27 65.35 L69.32 65.19 L69.28 65.12 L69.02 65.17 L68.93 65.26 L68.93 65.37 L68.87 65.4 L68.53 65.31 L68.35 65.06 L68.1 65.09 L68 65.2 L67.89 65.18 L67.77 65.09 L67.82 64.85 L67.73 64.8 L67.44 64.8 L67.27 64.7 L67.12 64.83 L67 64.82 L66.89 64.73 L66.87 64.64 L67.04 64.51 L66.9 64.38 L66.96 64.16 L66.79 64.12 L66.7 63.96 L66.59 63.88 L66.4 63.97 L66.23 63.92 L66.2 63.65 L65.93 63.59 L65.79 63.32 L65.59 63.13 L65.23 63.18 L65.02 62.88 L65.06 62.7 L64.77 62.79 L64.51 62.72 L64.45 62.76 L64.42 62.92 L64.35 62.93 L64.21 62.88 L63.87 62.54 L63.86 62.43 L64.01 62.39 L63.94 62.26 L63.93 62.01 L63.89 61.93 L63.82 61.89 L63.7 61.98 L63.63 61.97 L63.63 61.85 L63.43 61.5 L63.64 61.36 L63.66 61.27 L63.54 61.15 L63.33 61.13 L63.19 60.92 L63.25 60.74 L63.41 60.72 L63.43 60.41 L63.31 60.38 L63.21 60.47 L63.15 60.46 L62.68 59.96 L62.3 59.7 L62.19 59.54 L62.11 59.53 L61.96 59.65 L61.91 59.63 L61.83 59.47 L61.7 59.41 L61.64 59.26 L61.65 59.11 L61.79 59.01 L61.78 58.81 L61.59 58.58 L61.53 58.58 L61.35 58.69 L61.27 58.64 L61.09 58.3 L61.11 58.2 L61.02 58.04 L61.03 58 L60.96 57.98 L60.86 58.09 L60.77 58.09 L60.74 57.98 L60.8 57.88 L60.72 57.69 L60.48 57.72 L60.41 57.69 L60.3 57.51 L60.15 57.59 L60.03 57.5 L59.94 57.67 L59.85 57.69 L59.77 57.56 L59.59 57.51 L59.49 57.35 L59.39 57.32 L59.28 57.36 L58.94 57.2 L58.82 57.21 L58.62 57.06 L58.39 56.97 L58.3 56.87 L58.08 56.79 L57.96 56.81 L57.86 56.73 L57.73 56.73 L57.59 56.38 L57.33 56.47 L57.26 56.42 L57.03 56.43 L56.99 56.47 L57.05 56.56 L57.04 56.68 L56.77 56.78 L56.68 56.73 L56.64 56.58 L56.5 56.46 L56.35 56.53 L56.24 56.4 L56.01 56.39 L55.75 56.47 L55.53 56.67 L55.45 56.59 L55.34 56.58 L55.25 56.95 L55.17 57.01 L55.08 57.01 L54.86 57.22 L54.75 57.26 L54.75 57.45 L54.62 57.8 L54.22 57.97 L53.91 58.3 L53.76 58.36 L53.68 58.35 L53.64 58.23 L53.42 58.05 L53.1 57.89 L52.99 57.88 L52.78 57.98 L52.61 58.15 L52.12 58.19 L51.69 58.35 L51.07 58.23 L50.84 58.39 L50.64 58.64 L50.56 58.68 L50.2 58.64 L49.93 58.53 L49.68 58.54 L49.42 58.21 L49.32 58.22 L49.05 58.11 L48.68 57.74 L48.35 57.65 L48.09 57.39 L47.87 57.27 L47.65 57.27 L47.53 57.22 L47.34 57.39 L47.13 57.43 L46.96 57.4 L46.82 57.31 L46.63 57.25 L46.5 57.26 L46.3 57.35 L46.2 57.26 L46 57.22 L45.93 57.08 L45.67 57.14 L45.7 56.94 L45.56 56.85 L45.41 56.84 L45.3 56.78 L44.96 56.76 L45.01 57.07 L44.55 57.45 L44.46 57.6 L44.48 57.75 L44.3 57.79 L44.16 58.02 L43.98 58.18 L44.07 58.29 L44.34 58.37 L44.3 58.59 L44.4 58.72 L44.43 58.98 L44.49 59.07 L44.36 59.51 L44.44 59.6 L44.38 59.8 L44.51 59.83 L44.55 59.89 L44.49 60 L44.46 60.2 L44.59 60.36 L44.46 60.58 L44.27 60.56 L44.2 60.67 L44.31 60.78 L44.33 60.96 L44.88 61.16 L44.83 61.25 L44.82 61.67 L44.97 62.14 L44.89 62.22 L44.71 62.23 L44.63 62.58 L44.4 62.88 L44.36 63.03 L44.17 63 L44 63.06 L43.8 63.27 L43.83 63.41 L43.61 63.45 L43.48 63.94 L43.52 64.15 L43.66 64.28 L43.57 64.52 L43.39 64.78 L43.08 65 L42.82 65.48 L42.84 65.67 L42.71 65.68 L42.56 65.85 L42.69 66.17 L42.73 66.69 L42.8 66.81 L42.67 66.88 L42.4 67.25 L42.19 67.27 L41.88 67.07 L41.78 66.83 L41.59 66.67 L41.44 66.35 L41.31 66.51 L41.2 66.49 L41.1 66.56 L40.81 66.91 L40.43 67.16 L40.58 67.3 L40.48 67.5 L40.58 67.76 L40.5 68.09 L40.31 68.36 L40.59 68.8 L40.61 68.95 L40.55 69.07 L40.35 69.19 L40.23 69.37 L40.15 69.39 L40.08 69.26 L39.94 69.25 L39.74 69.06 L38.91 69.16 L38.86 69.34 L38.61 69.39 L38.31 69.7 L38.25 69.66 L38.28 69.53 L38.08 69.49 L37.94 69.63 L37.68 69.66 L37.68 69.81 L37.83 70.14 L37.79 70.22 L37.84 70.41 L37.74 70.48 L37.57 70.49 L37.47 70.58 L37.27 70.65 L37.19 70.9 L37.08 70.93 L36.98 71.06 L36.81 71.11 L36.69 71.07 L36.53 71.17 L36.43 71.48 L36.25 71.51 L36.18 71.74 L35.94 71.89 L35.78 72.11 L35.73 72.23 L35.42 72.4 L35.4 72.63 L35.33 72.71 L35.39 73.16 L35.25 73.45 L35.19 73.45 L35.05 73.38 L34.97 73.4 Z" /></svg>