<svg xmlns="http://www.w3.org/2000/svg" viewBox="0 0 96 96"><path fill="#efd0a0" fill-rule="evenodd" d="M40.11 73.13 L39.92 73.37 L39.89 73.59 L39.71 73.99 L39.62 74.1 L39.43 74.62 L39.38 75 L39.29 75.09 L39.23 75.35 L39.23 75.45 L39.33 75.58 L39.46 75.98 L39.53 76.36 L39.44 76.8 L39.35 76.9 L39.28 77.24 L39.13 77.44 L39.1 77.95 L38.72 78.32 L38.26 78.63 L37.99 78.72 L37.39 78.72 L37.29 77.96 L37.3 77.85 L37.36 77.85 L37.36 77.81 L37.11 77.04 L36.43 76.09 L36.03 75.7 L35.61 75.1 L35.53 75.04 L35.49 74.92 L35.21 74.61 L34.65 73.8 L34.2 73.26 L33.94 72.83 L33.97 72.77 L34.09 72.74 L34.12 72.66 L33.96 72.38 L33.98 72.32 L34.25 72.17 L34.38 72.07 L34.48 71.91 L34.59 71.86 L34.62 71.69 L34.59 71.23 L34.64 71.16 L34.67 70.95 L34.63 70.74 L34.4 70.18 L34.47 69.88 L34.55 69.83 L34.59 69.73 L34.53 69.39 L34.21 68.27 L33.94 67.59 L33.2 66.48 L32.52 65.8 L31.66 65.04 L30.25 64.04 L29.89 63.86 L29.52 63.58 L29.4 63.56 L28.93 62.98 L28.85 62.81 L28.77 62.77 L28.73 62.47 L28.78 62.4 L28.95 62.49 L29.34 62.51 L29.59 62.31 L29.92 61.34 L29.88 61.03 L29.59 60.52 L29.33 60.28 L29.23 60.06 L29.04 59.86 L28.95 59.68 L28.56 59.19 L28.48 59 L28.35 58.92 L28.23 58.59 L28.08 58.45 L27.99 58.23 L28.07 58.06 L27.93 57.58 L27.47 57.04 L27.21 56.66 L27.06 56.61 L27.19 56.49 L27.07 56.34 L27.23 56.42 L27.3 56.3 L27.18 56.07 L27.22 56.01 L27.15 55.84 L26.45 55.18 L26.33 55.13 L26.2 54.92 L25.79 54.62 L25.19 54.03 L24.99 53.94 L24.93 53.83 L24.73 53.75 L24.58 53.54 L24.41 53.47 L24.37 53.38 L24.21 53.32 L24 53.16 L23.81 52.92 L23.63 52.84 L23.59 52.75 L23.33 52.56 L23.26 52.56 L23.2 52.42 L23.05 52.34 L23.04 52.06 L23.11 51.93 L23.18 51.93 L23.2 51.86 L23.04 51.65 L23.04 51.56 L22.94 51.56 L22.8 51.36 L22.68 51.3 L22.36 50.99 L22.19 50.93 L22.17 50.85 L21.96 50.73 L21.85 50.59 L21.37 50.26 L21.34 50.19 L21.27 50.18 L20.84 49.84 L20.64 49.78 L20.62 49.72 L20.41 49.55 L20.33 49.54 L19.89 49.12 L19.75 49.09 L19.61 48.91 L19.48 48.86 L19.37 48.73 L19.16 48.68 L19 48.52 L18.71 48.35 L18.66 48.25 L18.42 48.13 L18.06 47.86 L17.9 47.68 L17.81 47.67 L17.75 47.55 L17.51 47.35 L17.49 47.16 L17.44 47.16 L17.5 47.07 L17.45 47.06 L17.41 46.94 L16.88 46.53 L16.64 46.21 L16.54 46.21 L16.45 46.04 L16.31 45.97 L15.76 45.32 L15.67 45.13 L15.63 45.13 L15.62 45.05 L15.46 44.91 L15.42 44.75 L15.33 44.61 L15.32 44.42 L15.22 44.27 L15.24 44.24 L15.32 44.27 L15.3 44.1 L15.2 43.93 L15.09 43.91 L15.1 43.71 L15.19 43.65 L15.17 43.59 L15.22 43.54 L15.21 43.5 L15.12 43.48 L14.5 42.79 L14.28 42.58 L14.23 42.58 L14.14 42.44 L13.92 42.25 L13.84 42.23 L13.84 42.18 L13.67 42.1 L13.53 41.89 L13.44 41.86 L12.78 41.05 L12.78 40.94 L12.68 40.89 L12.68 40.85 L12.83 40.86 L13.28 40.64 L13.33 40.67 L13.42 40.59 L13.54 40.61 L13.7 40.4 L13.69 39.9 L13.52 39.39 L12.93 38.35 L12.64 38.02 L12.59 37.9 L12.49 37.84 L11.89 36.99 L11.83 36.79 L11.64 36.53 L11.2 36.06 L11.16 35.94 L11.11 35.94 L10.82 35.55 L10.55 35.28 L10.5 35.12 L10.55 35 L10.44 34.8 L10.27 34.63 L10.18 34.4 L9.38 33.42 L9.36 32.87 L9.3 32.86 L9.3 32.76 L9.17 32.65 L9 32.16 L9.01 32.01 L9.08 31.85 L9.2 31.86 L9.26 31.75 L9.38 31.74 L9.38 31.66 L9.42 31.61 L9.46 31.63 L9.52 31.53 L9.5 31.46 L9.58 31.45 L9.63 31.23 L9.53 30.83 L9.43 30.78 L9.38 30.56 L9.02 30.08 L8.98 29.81 L9.04 29.5 L8.99 29.31 L9.07 29.15 L9.07 29.03 L9.01 28.8 L8.97 28.8 L8.96 28.65 L8.73 28.27 L8.68 28.07 L8.62 28.04 L8.61 27.92 L8.44 27.72 L8.41 27.53 L8.35 27.52 L8.3 27.36 L8.25 27.36 L8.27 27.31 L8.21 27.31 L7.88 26.82 L7.77 26.76 L7.46 26.35 L7.43 26.37 L7.34 26.23 L6.97 25.94 L6.87 25.8 L6.79 25.78 L6 24.89 L11.01 19.5 L11.16 19.26 L11.34 19.07 L11.32 18.84 L11.45 18.74 L11.54 18.57 L11.66 18.49 L11.93 18.66 L12.17 18.47 L12.39 18.62 L12.64 18.54 L12.99 18.15 L13.16 17.88 L13.93 18.01 L14.44 18.15 L14.56 18.24 L14.75 18.21 L15.01 18.45 L15.03 18.61 L15.14 18.82 L15.31 18.88 L15.49 19.05 L15.65 19.07 L15.78 19.37 L15.97 19.63 L16.13 19.73 L16.3 19.73 L16.44 19.79 L16.64 19.94 L16.82 20.2 L16.94 20.27 L17.09 20.27 L17.02 20.35 L16.94 20.8 L16.82 21.14 L16.83 21.35 L16.93 21.66 L16.86 21.81 L16.96 21.99 L17.1 22.06 L17.22 22.05 L17.32 22.17 L17.41 22.41 L17.44 22.87 L17.86 23.25 L17.9 23.34 L17.68 23.59 L17.59 23.76 L17.58 23.9 L17.68 23.99 L17.92 24 L18.36 24.23 L18.39 24.34 L18.34 24.55 L18.5 24.81 L18.54 24.99 L18.68 25.09 L18.79 25.32 L19.22 25.47 L19.02 25.61 L18.93 25.63 L18.86 25.78 L18.64 25.97 L18.49 25.99 L18.56 26.25 L18.69 26.36 L18.57 26.49 L18.55 26.67 L18.39 26.94 L18.63 27.3 L18.63 27.46 L18.72 27.65 L18.67 27.86 L18.46 27.87 L18.28 27.77 L18.11 27.89 L18.02 27.87 L17.9 27.95 L17.77 27.94 L17.55 28.02 L17.33 28.29 L17.33 28.39 L17.04 28.7 L16.64 28.88 L16.44 29.07 L16.25 29.17 L15.97 29.28 L15.7 29.26 L15.76 29.43 L15.96 29.54 L16.4 29.67 L16.8 30.17 L17.08 30.15 L17.26 30.29 L17.82 30.09 L17.98 29.96 L18.31 30.01 L18.38 30.12 L18.36 30.21 L18.42 30.36 L18.57 30.54 L18.84 30.7 L18.93 30.89 L19.1 31 L19.41 31.12 L19.55 31.12 L19.77 31.23 L20.38 31.05 L20.9 30.73 L21.06 30.85 L21.19 30.84 L21.15 30.94 L21.19 31.04 L21.18 31.18 L21.4 31.69 L21.54 31.8 L21.68 31.82 L21.75 31.95 L21.82 31.98 L22.09 32.4 L22.17 32.59 L22.28 32.59 L22.39 32.48 L22.56 32.54 L22.66 32.65 L23.11 32.78 L23.29 32.71 L23.46 32.71 L24.83 33.71 L24.73 33.92 L24.63 34.65 L24.84 34.92 L24.83 35.17 L25.09 35.39 L24.98 35.69 L25.01 35.93 L25.65 36.39 L25.62 36.95 L25.5 37.17 L25.59 37.33 L25.58 37.54 L25.66 37.64 L25.77 37.64 L25.8 37.89 L25.95 38.04 L25.93 38.14 L25.97 38.23 L26.61 38.72 L26.73 39.04 L27.02 39.37 L27.68 39.36 L27.89 39.31 L28.2 39.08 L28.26 38.98 L28.26 38.85 L28.54 38.36 L28.52 38.17 L28.59 37.97 L28.48 37.5 L28.68 37.39 L28.76 36.97 L29.03 36.62 L29.35 36.35 L29.44 36.04 L29.71 35.81 L30.15 35.56 L30.23 35.55 L30.31 35.6 L30.58 35.49 L30.97 35.51 L31.01 35.34 L31.25 35.18 L31.07 34.91 L31.04 34.75 L31.08 34.64 L31.01 34.48 L30.73 34.28 L30.39 34.2 L30.19 34.04 L30.25 33.89 L30.42 33.69 L30.74 33.53 L31.37 33.07 L31.39 32.94 L31.56 32.8 L31.6 32.62 L31.83 32.54 L32.18 32.3 L32.42 32.29 L32.52 32.18 L32.67 32.13 L32.74 32.01 L32.82 31.59 L33.13 31.36 L33.2 31.38 L33.39 31.64 L33.59 31.78 L33.71 31.99 L34.12 32.07 L34.36 31.97 L34.61 31.65 L34.85 31.65 L35.09 31.42 L35.33 31.84 L35.43 31.8 L35.51 31.87 L35.87 31.96 L36.37 31.47 L36.35 31.29 L36.42 31.28 L36.55 31.38 L36.65 31.67 L36.95 31.67 L36.98 31.76 L36.95 31.89 L37.15 32.17 L37.19 32.31 L37.59 32.43 L37.8 32.78 L37.94 32.91 L37.99 33.19 L37.94 33.5 L38.01 33.88 L37.85 34.09 L37.89 34.24 L37.73 34.47 L37.75 34.62 L37.44 35.06 L37.3 35.37 L37.78 35.81 L38.14 35.95 L38.25 35.91 L38.35 35.97 L38.75 36.03 L38.82 35.97 L38.99 35.95 L39.15 36.05 L39.4 35.95 L39.98 36.12 L40.13 36.06 L40.33 36.1 L40.48 36.03 L41.09 36.04 L41.32 36.23 L41.45 36.27 L41.82 36.16 L42.14 36.18 L42.23 36.13 L42.35 35.97 L42.49 35.91 L42.66 35.68 L42.9 35.58 L43.18 35.23 L43.29 34.93 L43.71 34.6 L43.81 34.44 L44.13 34.24 L44.31 34.21 L44.39 34.08 L44.8 34.06 L44.96 34.14 L45.05 34.27 L45.13 34.3 L45.31 34.28 L45.47 34.43 L45.6 34.43 L45.82 34.53 L46.06 34.53 L46.39 34.42 L46.48 34.35 L46.8 34.37 L47.23 34.63 L47.09 34.79 L46.91 34.82 L46.49 34.74 L46.44 34.84 L46.37 34.89 L46.12 35.4 L46.07 35.63 L45.97 35.7 L45.93 35.86 L46.09 36.18 L46.08 36.43 L46.13 36.73 L46.01 37.09 L45.9 37.21 L45.83 37.28 L45.56 37.33 L45.48 37.45 L45.47 37.64 L45.54 38.01 L45.51 38.21 L45.38 38.5 L45.7 38.9 L45.94 38.85 L46.04 38.92 L46.04 39.2 L46.15 39.41 L46.06 39.61 L46.07 39.71 L46.15 39.78 L46.3 39.8 L46.37 39.95 L46.59 40.17 L46.75 40.24 L46.98 40.51 L47.07 40.55 L47.29 40.5 L47.34 40.64 L47.4 40.67 L47.57 40.61 L47.68 40.47 L47.75 40.46 L47.98 40.77 L48.2 40.79 L48.29 40.9 L48.32 41.04 L48.56 41.14 L48.58 41.23 L48.42 41.35 L48.36 41.64 L48.41 41.99 L48.8 42.21 L49.07 42.19 L49.74 42.27 L49.97 42.34 L50.14 42.45 L50.28 42.31 L50.49 42.34 L50.34 42.08 L50.49 41.8 L50.28 41.44 L50.28 41.29 L50.35 41.26 L50.6 41.42 L50.9 41.45 L51.08 41.32 L51.15 41.1 L51.49 40.93 L51.69 40.96 L51.85 40.79 L52.07 40.43 L52.32 40.35 L52.72 40.09 L52.73 40.02 L52.61 39.84 L52.55 39.54 L52.78 39.36 L52.92 39.34 L53.05 39.16 L53.31 39.15 L53.4 39.22 L54.09 39.84 L54.19 40.13 L54.45 40.43 L54.97 40.24 L55.4 39.93 L55.76 39.96 L56.06 40.05 L56.51 39.95 L56.99 39.94 L57.59 39.63 L57.87 39.81 L57.98 39.8 L58.03 39.75 L57.96 39.67 L57.95 39.55 L58.03 39.45 L58.04 39.29 L58.17 39.23 L58.44 39.35 L58.66 39.27 L58.7 39.31 L58.86 39.15 L58.94 39.16 L58.7 38.98 L58.7 38.76 L59.09 38.65 L59.27 38.42 L59.44 38.34 L59.44 38.12 L59.37 37.93 L59.39 37.81 L59.2 37.56 L59.68 37.44 L60.22 37.19 L60.33 37.23 L60.53 37.18 L60.6 37.1 L60.78 37.11 L60.85 37.03 L60.91 36.38 L61.03 36.12 L61.02 35.56 L61.14 35.38 L61.16 35.24 L61.48 35.07 L61.65 34.92 L62.26 34.79 L62.47 34.67 L62.71 34.61 L63.1 34.55 L63.25 34.47 L63.84 33.98 L64.01 33.9 L64.34 33.89 L64.45 33.93 L64.61 33.7 L64.66 33.56 L64.53 33.4 L64.24 32.75 L64.13 32.71 L63.93 32.75 L63.86 32.71 L63.84 32.59 L63.68 32.33 L63.76 32.08 L63.56 32.01 L63.44 31.82 L62.85 31.58 L62.74 31.39 L62.47 31.25 L62.16 30.87 L62.14 30.73 L62.26 30.56 L62.01 29.94 L62.03 29.86 L61.93 29.77 L61.74 29.72 L61.82 29.5 L61.79 29.29 L61.87 29.23 L61.85 29.14 L61.95 28.94 L61.94 28.71 L61.77 28.48 L61.73 28.25 L61.69 28.2 L61.5 28.08 L61.29 28.09 L61.2 27.98 L61.27 27.67 L61.11 27.48 L61.12 27.13 L61.2 26.83 L61.4 26.67 L61.42 26.58 L61.28 26.44 L61.13 26.42 L60.99 26.3 L60.79 26.34 L60.74 26.27 L60.43 26.11 L60.47 25.81 L60.41 25.48 L60.48 25.34 L60.29 25.18 L60.26 25.02 L60.03 25 L59.95 24.94 L59.96 24.51 L59.65 24.44 L59.15 24.14 L59.01 22.69 L58.74 22.43 L58.67 22.1 L58.43 21.84 L58.46 21.52 L58.16 21.12 L57.94 21.05 L57.93 20.63 L57.74 20.26 L57.68 20.2 L57.52 20.22 L57.54 19.98 L57.26 19.83 L57.25 19.71 L57.38 19.57 L57.39 19.51 L57.18 19.4 L56.89 19.14 L56.9 19.02 L57.04 18.96 L57.08 18.82 L57.22 18.79 L57.08 18.58 L56.93 18.59 L56.91 18.55 L57.1 18.42 L57.33 18.39 L57.49 18.44 L57.64 18.57 L58.05 18.77 L58.55 18.69 L58.86 18.92 L58.97 19.09 L59.06 19.11 L59.46 18.92 L59.8 18.83 L60.37 18.44 L60.56 18.4 L60.83 18.43 L61.04 18.16 L61.27 18.07 L61.44 18.09 L61.52 18.24 L61.74 18.38 L61.8 18.37 L61.95 18.2 L62.21 18.17 L62.5 18.37 L62.63 18.39 L62.74 18.49 L62.9 18.54 L63.18 18.15 L63.38 17.99 L63.56 17.65 L63.77 17.49 L63.78 17.32 L63.85 17.28 L64.05 17.48 L64.2 17.77 L64.2 17.97 L64.38 18.24 L64.4 18.45 L64.32 18.58 L64.3 18.78 L64.57 19.13 L64.46 19.6 L64.58 19.88 L64.5 20.11 L64.67 20.28 L64.73 20.59 L65.15 21.26 L65.36 21.45 L65.62 21.49 L65.71 21.58 L65.66 21.81 L65.36 22.1 L65.47 22.43 L65.5 22.73 L65.97 23.09 L66.25 23.12 L66.43 23.45 L66.88 23.61 L67.35 23.91 L67.62 23.96 L67.72 24.1 L67.76 24.36 L67.9 24.61 L68.19 24.63 L68.45 24.82 L68.45 24.89 L68.26 25.24 L68.53 25.7 L68.7 25.7 L68.69 25.85 L68.76 26.08 L68.43 26.3 L68.21 26.34 L67.91 26.5 L67.8 26.67 L67.8 26.85 L67.49 26.76 L67.55 27.12 L67.69 27.09 L67.81 27.13 L67.5 27.62 L67.75 28 L67.78 28.23 L67.86 28.31 L67.83 28.46 L67.88 28.66 L68.05 29.08 L68.05 29.21 L67.88 29.29 L67.94 29.41 L67.93 29.49 L67.87 29.7 L67.74 29.85 L67.86 30.04 L67.82 30.28 L67.95 30.63 L67.96 30.84 L68.26 31.41 L68.16 31.55 L68.01 31.94 L68.5 32.11 L68.48 32.28 L68.59 32.56 L68.74 32.65 L68.95 32.96 L69.16 32.82 L69.38 33.02 L69.61 33.08 L70.08 33.42 L70.12 33.46 L70.1 33.61 L70.29 33.9 L70.42 34.36 L70.47 34.42 L70.64 34.45 L70.65 34.58 L70.75 34.75 L70.9 34.78 L71.07 34.68 L71.25 34.73 L71.28 34.86 L71.11 34.94 L71.04 35.04 L71.07 35.24 L71.01 35.51 L71.05 35.66 L70.85 35.84 L70.91 35.91 L70.89 36.09 L70.94 36.18 L70.85 36.22 L70.8 36.36 L70.7 36.45 L70.72 36.58 L70.82 36.68 L70.71 36.77 L70.71 36.86 L70.82 37.01 L70.98 36.91 L71.3 36.84 L71.43 37.04 L71.64 36.97 L71.77 37.14 L71.88 37.11 L71.95 37.02 L72.03 37.03 L72.34 37.68 L72.24 37.84 L72.16 37.85 L72.05 37.97 L71.88 37.92 L71.79 38 L71.56 37.88 L71.08 37.99 L71.05 38.17 L71.2 38.31 L71.24 38.55 L71.07 38.78 L70.8 38.89 L70.75 39.04 L70.95 39.11 L71.12 39.27 L71.23 39.17 L71.59 39.25 L71.6 39.39 L71.69 39.59 L71.64 39.84 L72.02 40.14 L72.52 40 L72.64 39.86 L72.94 39.77 L73.13 39.96 L73.15 40.16 L73.04 40.26 L72.8 40.28 L72.4 40.51 L72.39 40.77 L72.44 40.9 L72.41 41.19 L72.24 41.42 L72.06 41.53 L72.03 41.72 L71.57 42.02 L71.4 41.95 L71.16 42.12 L71.12 42.27 L71.2 42.43 L71.18 42.57 L71.25 42.64 L71.39 42.6 L71.73 42.65 L71.8 42.75 L71.79 42.93 L71.97 43.11 L72.14 43.15 L72.24 43.36 L72.49 43.49 L72.59 43.68 L72.82 43.63 L73.4 43.71 L73.42 43.79 L73.64 43.97 L73.61 44.17 L73.66 44.28 L73.89 44.46 L73.86 44.6 L73.99 44.84 L73.79 44.99 L73.78 45.06 L74.12 45.56 L74.19 45.87 L74.65 46.61 L74.73 46.65 L74.94 46.5 L75.26 46.79 L75.62 46.83 L75.61 47.03 L75.67 47.14 L75.47 47.28 L75.44 47.46 L75.33 47.63 L75.37 47.85 L75.21 48.01 L75.22 48.25 L75.31 48.48 L74.9 48.76 L74.93 49.04 L74.73 49.35 L74.75 49.51 L74.96 49.83 L75.13 49.9 L75.33 50.19 L75.52 50.35 L75.6 50.36 L75.68 50.53 L75.49 50.71 L75.5 50.93 L75.36 51.16 L75.36 51.24 L75.64 51.36 L75.79 51.51 L76.11 51.29 L76.35 51.3 L76.49 51.18 L76.85 51.28 L76.98 51.2 L77.11 51.19 L77.24 51.34 L77.38 51.27 L77.7 51.28 L77.87 51.5 L78.02 51.48 L78.51 51.02 L79.11 51.04 L79.24 50.84 L79.35 50.44 L79.52 50.3 L79.56 50.18 L79.8 49.96 L80.04 49.91 L80.3 49.91 L80.55 49.99 L80.7 49.92 L80.88 49.93 L81.55 50.24 L81.84 50.17 L82.09 50.27 L82.48 50.52 L83.02 50.52 L83.32 50.36 L83.61 50.35 L83.8 50.44 L84.22 50.94 L85.39 51.27 L85.77 51.3 L86.35 51.47 L86.55 51.62 L86.84 52.04 L87.22 52.29 L87.28 52.53 L87.39 52.72 L87.48 53.12 L87.58 53.18 L87.85 53.21 L88.03 53.31 L88.5 53.71 L88.89 53.73 L88.98 53.89 L89.27 54.01 L89.65 54.36 L89.78 54.59 L89.61 55.45 L89.35 55.7 L89.27 55.88 L89.19 55.83 L89.14 55.88 L89.24 56.11 L89.58 56.62 L89.81 56.79 L89.73 57.07 L89.83 57.37 L89.77 57.51 L89.95 57.63 L89.93 57.91 L90 58.16 L89.97 58.27 L89.71 58.44 L89.72 58.52 L89.81 58.62 L89.81 58.75 L89.69 58.95 L89.61 59.22 L89.63 59.35 L89.07 59.89 L89.1 60.01 L89.24 60.12 L89.18 60.34 L89.08 60.43 L88.92 60.37 L88.71 60.37 L88.63 60.7 L88.51 60.86 L88.32 60.73 L88.22 60.76 L88.02 60.7 L87.82 60.94 L87.88 61.43 L87.81 61.51 L87.71 61.54 L87.64 61.71 L87.52 61.77 L87.39 61.76 L87.32 61.52 L87.27 61.46 L87.25 61.31 L87.01 61.07 L86.54 61.44 L85.88 61.77 L85.67 61.77 L84.98 61.51 L84.73 61.74 L84.64 61.67 L84.48 61.65 L84.33 61.77 L84.3 61.97 L84.34 62.18 L84.26 62.33 L84.17 62.38 L84.14 62.45 L84.15 62.66 L84.01 62.72 L83.88 62.67 L83.84 62.94 L83.37 63.05 L82.93 62.84 L82.56 63.24 L82.49 63.24 L82.44 63.32 L82.35 63.35 L82.03 63.62 L81.72 63.73 L81.53 63.9 L81.51 63.98 L81.38 64.04 L81.15 64.01 L80.85 64.18 L80.5 64.1 L80.34 64 L79.88 63.96 L79.55 63.81 L79.15 63.72 L79.03 63.62 L78.97 63.76 L78.8 63.88 L78.76 64.09 L78.64 64.28 L78.64 64.49 L78.18 65.08 L77.96 65.24 L77.63 65.3 L77.43 65.51 L77.15 65.5 L76.9 65.63 L76.74 65.42 L76.62 65.35 L76.48 65.12 L76.39 65.11 L76.29 64.98 L76.02 64.89 L75.9 64.62 L75.28 64.38 L74.96 64.12 L74.86 63.78 L74.96 63.56 L74.96 63.39 L74.82 63.18 L74.76 62.84 L74.41 62.81 L74.28 62.65 L74.05 62.56 L73.77 62.25 L73.83 61.93 L73.79 61.58 L73.43 60.92 L73.51 60.66 L73.37 60.47 L73.32 60.29 L73.18 60.3 L73.15 60.26 L73.2 59.99 L73.15 59.62 L73.03 59.53 L72.79 59.56 L72.59 59.37 L72.59 59.32 L72.73 59.28 L72.72 59.2 L72.65 59.11 L72.49 59.06 L72.44 58.87 L72.31 58.69 L72.34 58.5 L72.16 58.01 L71.94 57.96 L71.77 57.81 L71.37 57.76 L71.09 57.61 L71.12 57.16 L70.98 56.9 L70.68 56.82 L70.42 56.69 L70.01 56.74 L69.68 56.55 L69.75 55.93 L70.2 55.42 L69.98 55.22 L69.84 54.89 L69.65 54.63 L69.07 54.46 L68.76 54.28 L68.67 54.04 L68.85 53.81 L68.85 53.69 L68.62 53.55 L68.41 53.52 L68.24 53.15 L68.01 53.04 L67.82 52.85 L67.95 52.61 L68.17 52.43 L68.36 52.01 L68.24 51.81 L67.96 51.68 L67.59 51.57 L67.52 51.42 L67.5 51.1 L67.19 51.17 L66.95 51.34 L66.47 51.47 L66.2 51.4 L65.89 51.57 L65.61 51.66 L65.42 51.79 L65.03 51.72 L64.83 51.77 L64.65 51.69 L64.52 51.92 L64.23 51.91 L64.07 51.84 L63.91 51.93 L63.56 51.92 L63.26 52 L63.15 51.9 L63.12 51.7 L62.73 51.67 L62.59 51.56 L62.01 52.09 L61.86 51.89 L61.69 51.81 L61.5 52.02 L61.44 51.99 L61.09 51.63 L61.02 51.38 L60.88 51.25 L60.59 51.35 L60.38 51.5 L60.17 51.42 L60.01 51.42 L59.94 51.95 L59.74 52.42 L59.76 52.74 L59.66 52.86 L59.57 53.18 L59.48 53.22 L59.41 53.53 L59.35 53.62 L59.34 53.81 L59.26 53.9 L59.28 54.03 L59.11 54.3 L58.97 54.81 L58.86 55.51 L58.52 55.66 L58.4 55.77 L58.3 55.74 L58.19 55.83 L57.5 55.91 L57.42 56.05 L57.15 56.14 L56.47 56.25 L56.3 56.38 L56.05 56.8 L55.83 57 L55.83 57.22 L55.51 57.33 L55.22 57.58 L54.99 57.7 L54.84 57.95 L54.66 58.04 L54.42 58.03 L54.29 58.16 L54.18 58.41 L54.07 58.41 L53.82 58.77 L53.43 58.89 L53.27 59.03 L53.25 59.18 L53.43 59.28 L53.45 59.43 L53.63 59.74 L53.57 59.83 L53.43 59.9 L53.43 60.17 L53.25 60.31 L53.18 60.44 L53.02 60.43 L52.74 60.68 L52.78 60.93 L52.68 61.28 L52.84 61.42 L52.77 61.51 L52.75 61.79 L52.66 62.05 L52.7 62.21 L52.69 62.45 L52.4 63.03 L52.32 63.34 L52.23 63.37 L52.16 63.48 L52.14 63.96 L52.01 64.15 L51.9 64.16 L51.76 64.3 L51.74 64.57 L51.65 64.72 L51.36 64.92 L51.21 64.89 L51.16 65.03 L51.04 65.1 L50.97 65.26 L50.79 65.4 L50.75 65.58 L50.67 65.64 L50.61 65.84 L50.51 65.91 L50.51 66.02 L50.36 66.32 L50.42 66.61 L50.62 66.63 L50.79 66.83 L50.81 67.09 L50.92 67.23 L51.03 67.58 L51.02 67.76 L50.8 68.09 L50.83 68.32 L50.72 68.51 L50.05 68.95 L49.79 69.21 L49.57 69.28 L49.48 69.38 L48.66 69.33 L48.2 69.49 L48 69.4 L47.8 69.55 L47.55 69.63 L47.12 69.58 L47.02 69.65 L46.85 69.62 L46.75 69.87 L46.66 69.91 L46.51 69.9 L46.38 69.81 L46.25 69.82 L45.95 70.08 L45.71 70.2 L45.51 70.56 L45.3 70.58 L45.16 70.69 L44.91 70.74 L44.79 70.85 L44.51 70.97 L43.68 71.64 L43.03 71.83 L42.35 72.14 L41.52 72.17 L41.2 72.26 L41.06 72.33 L40.92 72.55 L40.61 72.66 L40.32 72.86 L40.11 73.13 Z M35.94 77.9 L35.96 77.94 L35.89 77.88 L35.93 77.87 L35.94 77.9 Z M33.05 72.5 L33.05 72.54 L33.16 72.71 L33.08 72.72 L32.97 72.48 L33.05 72.5 Z M27.74 66.52 L27.78 66.56 L27.75 66.67 L27.63 66.62 L27.67 66.5 L27.74 66.52 Z M27.88 65.59 L27.92 65.77 L27.95 65.81 L27.86 65.79 L27.89 65.76 L27.83 65.68 L27.8 65.7 L27.8 65.62 L27.76 65.63 L27.73 65.56 L27.87 65.53 L27.88 65.59 Z M11.79 43.98 L11.8 44.04 L11.75 44.04 L11.72 43.95 L11.79 43.98 Z" /></svg>