<svg xmlns="http://www.w3.org/2000/svg" viewBox="0 0 96 96"><path fill="#efd0a0" fill-rule="evenodd" d="M9.77 78.23 L9.82 78.31 L9.74 78.35 L9.65 78.21 L9.77 78.23 Z M9.6 77.93 L9.65 78.13 L9.57 78.16 L9.47 77.86 L9.6 77.93 Z M9.08 77.09 L9.13 77.43 L9.44 77.86 L9.37 77.91 L9.23 77.87 L9.22 78 L9.09 78.01 L9.1 78.16 L9 78.15 L9.03 78.31 L9.19 78.4 L9.27 78.54 L9.22 78.71 L9.1 78.7 L9.1 78.98 L9.03 78.95 L9.04 78.83 L8.82 78.79 L8.79 78.57 L8.65 78.53 L8.5 78.6 L8.46 78.4 L8.68 78.23 L8.66 78.13 L8.42 78.2 L8.27 78.01 L8.27 77.87 L8.36 77.86 L8.39 77.71 L8.65 77.79 L8.8 78 L8.89 77.98 L8.73 77.71 L8.93 77.45 L8.79 77.39 L9 77.34 L8.9 76.97 L9.05 76.91 L9.08 77.09 Z M8.28 77.52 L8.35 77.62 L8.25 77.69 L8.17 77.47 L8.28 77.52 Z M53.7 80.65 L53.3 80.24 L52.36 79.6 L52.19 79.33 L52.11 79.34 L51.85 79.14 L51.85 79.05 L51.21 78.64 L51.2 78.52 L51.31 78.42 L51.18 78.2 L51.21 77.87 L50.68 77.38 L50.13 77.01 L50.05 76.83 L49.91 76.81 L49.8 76.65 L49.72 76.65 L49.68 76.51 L49.15 76.23 L49.08 76.1 L48.88 76.06 L48.59 75.79 L48.32 75.25 L47.96 74.8 L47.64 73.52 L47.72 73.14 L47.71 73.07 L47.64 73.08 L47.67 72.61 L47.47 72.36 L47.48 72.23 L47.03 71.44 L46.87 70.98 L46.28 70.24 L45.94 69.38 L45.74 69.07 L45.51 68.96 L45.21 68.63 L44.91 68.48 L44.63 68.19 L44.43 68.11 L43.41 67.2 L43.21 66.93 L42.19 66.21 L42.16 66.12 L41.46 65.62 L41.34 65.43 L41.24 65.49 L40.71 64.99 L40.34 64.74 L40.17 64.73 L39.83 64.43 L39.61 64.37 L39.43 64.14 L39.31 64.15 L39.12 63.96 L38.98 63.94 L38.92 63.81 L38.78 63.85 L38.75 63.74 L38.51 63.59 L38.41 63.44 L38.08 63.34 L37.56 62.85 L37.25 62.74 L36.68 62.23 L36.19 62.02 L35.93 61.75 L35.16 61.34 L35.05 61.38 L34.87 61.15 L33.91 60.68 L33.62 60.46 L33.47 60.44 L33.38 60.31 L32.97 60.07 L32.6 59.98 L32.39 59.76 L31.67 59.35 L31.15 59.17 L30.94 58.95 L30.3 58.74 L30.16 58.52 L29.95 58.52 L29.62 58.26 L29.46 58.25 L29.37 58.11 L28.53 57.79 L28.39 57.64 L28.18 57.62 L28.09 57.46 L27.85 57.41 L27.8 57.3 L27.36 57.16 L27.18 56.98 L26.76 56.78 L26.42 56.71 L26.35 56.58 L26.22 56.6 L26.18 56.47 L26 56.5 L26.01 56.43 L25.75 56.33 L25.75 56.26 L25.6 56.28 L25.6 56.19 L24.9 55.94 L24.86 55.84 L24.73 55.86 L24.72 55.76 L24.61 55.78 L24.46 55.62 L24.17 55.53 L23.9 55.28 L23.72 55.22 L23.73 55.28 L23.72 55.31 L22.56 54.6 L22.01 54.39 L21.02 53.78 L20.47 53.58 L20.26 53.4 L19.82 53.31 L19.78 53.17 L19.57 53.15 L19.59 53.07 L19.46 53.07 L19.42 52.94 L19.29 52.99 L19.27 52.9 L19.16 52.92 L19.17 52.82 L19.01 52.84 L18.95 52.71 L18.72 52.67 L17.38 51.93 L17.14 51.89 L17.11 51.79 L15.99 51.34 L15.86 51.17 L15.28 51 L15.21 50.87 L13.64 50.21 L26.6 31.31 L27.38 30.21 L27.76 29.83 L29.23 28.6 L30.03 28.06 L32.94 26.74 L33.65 26.54 L35.13 26.33 L36.02 26.33 L37.37 26.15 L38.45 26.31 L38.66 25.37 L39.42 25.08 L39.59 24.78 L40.1 24.33 L40.23 24.04 L40.68 23.55 L40.87 23.49 L40.9 23.38 L41.17 23.18 L41.38 22.89 L41.81 22.71 L42.02 22.34 L42.57 21.87 L42.79 21.47 L42.93 21.39 L43.01 21.16 L43.69 20.44 L44.53 20.04 L44.91 19.37 L44.82 18.76 L44.95 18.45 L44.9 18.1 L45.35 17.15 L45.5 16.38 L45.53 15.79 L45.81 15.3 L45.86 15.04 L46.14 14.67 L46.13 14.56 L45.91 14.34 L45.87 13.88 L46.12 11.3 L46.27 10.93 L46.57 10.82 L46.54 10.56 L47.04 8.29 L47.26 7.76 L47.7 7.8 L47.92 7.5 L47.99 7.25 L48.44 7.21 L48.58 6.96 L49.33 6.62 L49.5 6.32 L49.5 6.02 L49.7 6 L50.29 6.48 L50.61 6.9 L50.71 7.48 L50.97 7.68 L51.09 7.93 L51.47 8.07 L51.84 8.48 L51.34 9.34 L51.4 9.56 L51.31 10.02 L51.62 10.43 L51.53 10.67 L51.64 11.23 L51.9 11.62 L51.86 11.85 L52.07 12.41 L52.83 13.88 L52.86 14.16 L53.03 14.08 L53.18 14.16 L53.26 14.54 L53.47 14.77 L53.57 15.14 L53.71 15.16 L53.93 14.55 L54.27 14.22 L55.02 14.19 L55.2 14.28 L55.5 14.78 L55.96 14.86 L56.19 14.99 L56.72 15.66 L57.26 15.68 L57.25 16.1 L56.41 16.88 L56.66 17.16 L57.25 17.43 L57.3 17.8 L57.71 17.97 L58.38 18.56 L58.64 18.88 L58.49 19.17 L58.57 19.47 L58.15 20.83 L57.73 21.14 L57.81 21.5 L57.54 21.74 L57.57 22.26 L57.41 22.47 L57.38 22.69 L57.58 23.12 L57.53 23.46 L57.62 23.68 L58.33 23.73 L58.75 23.67 L58.95 23.79 L59.3 23.88 L59.61 24.11 L60 24.17 L60.23 24.13 L60.92 23.58 L61.3 23.51 L61.46 23.17 L61.86 22.62 L62.47 22.4 L62.7 22.23 L62.87 21.86 L63.25 21.68 L63.43 21.96 L63.27 22.8 L63.16 23.03 L62.81 23.26 L63 23.78 L62.99 24.11 L62.91 24.37 L62.64 24.39 L62.55 24.62 L62.76 24.71 L62.93 24.96 L62.94 25.23 L63.13 25.56 L63.08 26.15 L63.54 26.33 L63.73 26.49 L63.82 26.85 L63.82 27.45 L63.93 27.63 L63.89 27.89 L64.39 28.67 L64.51 28.48 L64.65 28.42 L65.04 28.65 L65.49 28.45 L65.8 28.62 L66.2 28.45 L66.69 28.64 L66.86 28.29 L67.04 28.24 L67.2 28.01 L67.37 28.01 L67.39 27.76 L67.55 27.87 L67.76 27.8 L67.74 27.66 L68.01 27.38 L68.35 27.38 L68.51 27.74 L68.67 27.79 L68.8 27.56 L68.91 27.63 L69.2 27.59 L69.36 27.68 L69.48 27.55 L69.83 27.67 L69.93 27.82 L70.33 27.9 L70.9 28.21 L71.05 28.4 L71.22 28.99 L72.41 29.42 L73.32 30.25 L73.27 30.44 L73.39 30.63 L73.52 31.38 L73.42 31.68 L73.48 31.9 L73.88 31.68 L74.1 30.96 L74.43 30.63 L74.98 30.68 L76.06 30.51 L76.7 30.68 L76.83 30.89 L76.94 31.91 L77.51 32.5 L78.27 33.76 L78.61 33.64 L78.67 33.37 L78.48 33.17 L78.45 32.89 L78.18 32.42 L78.13 31.58 L78.41 31.24 L78.7 31.2 L78.95 30.92 L79.51 31 L79.69 31.18 L80.27 31.49 L81.02 31.77 L81.04 31.93 L80.9 32.22 L81.03 32.46 L80.88 32.87 L81.18 33.17 L81.33 33.08 L81.81 33.15 L82.1 33.06 L82.28 33.28 L82.3 33.61 L82.42 33.88 L82.98 34.38 L83.16 34.38 L83.3 34.24 L83.34 33.94 L83.63 33.74 L83.68 33.35 L84.03 32.86 L84.73 32.95 L84.89 33.08 L84.88 33.22 L85 33.2 L85.34 33.51 L85.35 33.74 L85 34.04 L84.69 34.56 L84.89 34.74 L84.98 34.98 L85.04 35.28 L84.93 35.63 L85.12 35.92 L85.07 36.11 L84.75 36.35 L84.46 36.38 L84.11 36.61 L83.57 36.61 L83.01 36.19 L82.4 36.27 L82.47 36.49 L82.39 36.75 L82.03 36.98 L81.68 37.62 L81.37 37.97 L81.21 38.66 L80.93 38.85 L80.59 38.92 L80.48 39.48 L80.56 39.95 L80.94 40.52 L81.06 41.21 L81.23 41.48 L81.43 42.24 L81.75 42.65 L81.73 42.8 L81.56 42.9 L80.82 42.79 L80.3 43 L80.26 43.06 L80.41 43.16 L80.43 43.47 L80.14 43.86 L80.02 44.22 L79.04 44.97 L78.86 44.99 L78.55 44.74 L78.3 44.67 L77.67 44.89 L77.49 45.23 L77.18 45.35 L76.99 45.62 L77.05 45.91 L76.69 46.41 L76.6 46.69 L76.06 46.67 L75.67 46.47 L75.26 46.56 L75 46.42 L74.66 46.58 L74.27 46.97 L73.99 47.12 L73.54 46.93 L73.12 47.06 L72.94 47.35 L72.98 47.84 L72.34 48.9 L72.07 49.21 L72.17 49.43 L72.1 49.65 L71.86 49.79 L72.01 50.16 L72 50.51 L71.8 51.71 L71.97 52.16 L72.38 52.36 L72.73 52.87 L73.19 54.38 L73.08 54.92 L72.65 55.43 L72.87 55.6 L73.15 56.04 L73.2 56.32 L73.49 56.69 L73.28 57.83 L73.29 58.16 L73.9 58.44 L74.04 58.44 L74.17 58.37 L74.36 58.06 L74.81 57.97 L75.38 57.51 L75.79 57.45 L75.94 57.99 L75.94 58.95 L76.38 59.48 L76.38 59.63 L76.24 59.76 L76.7 59.87 L76.89 60.04 L76.97 60.23 L76.94 60.53 L77.12 60.7 L77.13 60.86 L77.44 61.37 L77.46 61.52 L76.96 61.76 L76.88 62.03 L76.69 62.16 L76.49 62.59 L76.14 62.99 L76.21 63.2 L76.59 63.37 L76.71 63.6 L76.85 63.66 L77.64 63.55 L77.98 63.32 L78.18 63.67 L79.11 63.93 L79.33 64.44 L79.33 65.03 L79.78 65.19 L81.03 65.25 L81.37 65.22 L82.04 64.9 L82.44 64.96 L82.98 64.88 L83.07 65 L83 65.52 L83.13 65.77 L83.51 66.05 L83.91 65.88 L84.36 65.96 L84.47 66.73 L84.65 67.05 L84.97 66.99 L85.27 66.82 L85.62 66.39 L86.19 66.53 L87.05 66.28 L87.09 66.44 L86.98 67.19 L87.28 67.43 L87.34 67.64 L87.2 68.18 L87.6 68.73 L87.79 69.51 L88 69.81 L88.05 70.11 L87.82 70.46 L86.71 70.77 L86.22 71.29 L86.07 71.24 L85.62 71.36 L85.4 71.27 L85.31 71.43 L84.96 71.67 L84.81 71.96 L84.49 72.01 L84.08 72.29 L83.88 72.3 L83.66 72.87 L83.27 73.46 L83.1 74.04 L82.8 74.19 L82.26 74.24 L81.84 74.17 L81.5 74.28 L81.1 74.19 L80.62 74.55 L80.61 74.85 L80.42 75.07 L79.25 75.46 L79.16 75.87 L78.73 76.17 L78.67 76.32 L78.76 77.39 L79.16 77.88 L79.26 78.16 L79.23 78.43 L78.99 78.81 L79.05 79.26 L78.89 79.45 L78.98 80.04 L79.2 80.55 L79.13 80.75 L79.41 81.18 L79.26 81.35 L78.85 81.52 L78.66 81.96 L78.27 82.13 L78.1 82.4 L77.86 82.4 L77.67 82.28 L77.37 81.85 L77.05 81.6 L76.81 81.51 L76.53 81.52 L76.27 81.36 L75.95 80.92 L75.75 80.43 L75.48 80.39 L75.18 80.12 L74.91 80.01 L74.72 79.67 L74.69 79.41 L74.25 79.01 L73.96 79.06 L73.76 78.92 L72.91 78.69 L71.64 78.47 L71.36 78.93 L70.79 79.56 L70.38 79.68 L70.02 79.45 L69.63 79.75 L69.18 79.48 L68.98 79.61 L68.84 79.89 L68.63 80.05 L68.66 80.43 L68.35 80.73 L68.12 81.13 L59.88 90 L59.76 89.74 L60.08 89.13 L60.13 88.82 L60.28 88.63 L60.18 88.19 L60.2 87.78 L60.22 87.97 L60.28 87.97 L60.27 87.57 L60.11 87.24 L59.11 86.14 L58.6 85.7 L58.38 85.37 L58.26 85.32 L58.14 85.03 L57.67 84.59 L57.28 83.97 L56.55 83.33 L56.4 83.01 L56.23 82.95 L56.09 82.75 L55.99 82.73 L55.72 82.39 L55.21 82.04 L55.11 81.87 L54.52 81.49 L54.25 81.19 L54.27 81.12 L53.7 80.65 Z M8.17 77.36 L8.11 77.49 L7.95 77.41 L7.98 77.31 L8.13 77.29 L8.17 77.36 Z" /></svg>