<svg xmlns="http://www.w3.org/2000/svg" viewBox="0 0 96 96"><path fill="#efd0a0" fill-rule="evenodd" d="M63.82 85.82 L63.67 85.98 L63.37 86.04 L63.16 86.22 L63.04 86.24 L63 86.29 L62.92 86.26 L62.96 86.34 L62.84 86.44 L62.88 86.59 L62.78 86.88 L62.74 87.22 L62.66 87.43 L62.54 87.54 L62.47 87.76 L62.07 88.24 L61.9 88.8 L61.55 89.48 L61.01 89.73 L60.73 89.8 L60.51 89.98 L60.37 90 L60.14 89.57 L59.69 89.05 L59.44 88.68 L58.9 88.14 L58.56 87.68 L58.45 87.6 L58.06 87.11 L57.83 86.89 L57.71 86.68 L57.33 86.31 L57.24 86 L56.44 85.16 L56.39 84.92 L56.05 84.62 L56.05 84.55 L55.62 84.11 L55.61 84.02 L55.16 83.5 L54.63 82.92 L54.08 82.43 L53.68 81.95 L53.75 81.85 L53.85 81.85 L53.92 81.8 L53.95 81.68 L53.89 81.55 L53.93 81.43 L53.89 81.37 L53.84 81.41 L53.75 81.34 L53.64 81.14 L53.51 81.06 L53.49 80.95 L53.27 80.66 L53.23 80.35 L53.04 80.09 L53.08 80.04 L53.07 79.96 L53 79.87 L52.86 79.83 L53 79.85 L53.13 79.69 L53.25 79.64 L53.28 79.1 L53.25 78.85 L53.2 78.83 L53.12 78.64 L53.15 78.57 L53.07 78.48 L53.13 78.34 L53.07 78.25 L53.01 78.03 L52.95 78 L53.01 77.84 L52.93 77.64 L52.91 77.44 L53.03 77.25 L52.98 77.25 L52.91 77.12 L52.88 77.03 L52.91 77 L52.77 76.83 L52.35 76.48 L51.8 76.18 L51.78 75.84 L51.69 75.75 L50.74 75.09 L50.47 74.99 L50.36 74.72 L50.15 74.42 L49.73 74.06 L49.61 74.1 L49.65 74.03 L49.61 73.95 L49.67 73.93 L49.65 73.83 L49.7 73.81 L49.71 73.71 L49.85 73.56 L49.83 73.42 L49.76 73.29 L49.56 73.1 L49.28 72.88 L49.12 72.84 L49.12 72.72 L49.07 72.69 L49.15 72.63 L49.14 72.5 L49.07 72.42 L48.99 72.42 L48.96 72.14 L48.89 72.1 L48.84 71.98 L48.67 71.79 L48.72 71.64 L48.63 71.56 L48.63 71.48 L48.67 71.41 L48.72 71.4 L48.74 71.29 L48.69 70.96 L48.64 70.86 L48.55 70.82 L48.54 70.7 L48.34 70.6 L48.27 70.44 L48.1 70.23 L47.98 70.18 L47.73 69.92 L47.68 69.92 L47.72 69.85 L47.68 69.8 L47.76 69.76 L47.78 69.67 L47.51 69.28 L47.37 69.16 L47.2 69.09 L47.18 68.95 L46.92 68.89 L46.94 68.73 L46.83 68.63 L46.05 68.12 L45.62 67.89 L45.43 67.5 L45.54 67.36 L45.9 67.21 L45.98 67.08 L46.45 66.66 L46.52 66.38 L46.36 65.81 L46.47 65.45 L46.38 64.86 L46.39 64.5 L46.64 64.5 L46.79 64.53 L47.01 64.48 L47.31 64.48 L47.39 64.39 L47.49 64.38 L47.51 64.33 L47.83 64.18 L47.98 64.06 L48.23 64.02 L48.42 64.06 L48.64 63.87 L48.65 63.75 L48.81 63.56 L48.81 63.5 L48.61 63.48 L48.41 63.29 L48.45 63.03 L48.54 62.89 L48.51 62.75 L48.64 62.37 L48.75 62.38 L48.93 62.08 L49.18 61.95 L49.27 61.43 L49.54 61.34 L49.68 61.24 L49.79 60.99 L49.79 60.86 L49.98 60.49 L49.96 60.31 L50.09 60.12 L50.08 59.82 L50.04 59.77 L49.65 59.62 L49.56 59.47 L49.35 59.34 L49.22 58.89 L49.13 58.8 L48.95 58.5 L49 58.35 L48.77 58.36 L48.67 58.3 L48.62 58.17 L48.47 58.09 L48.27 57.79 L48.15 57.47 L48.47 57.16 L48.17 57.02 L47.98 56.77 L47.68 56.73 L47.56 56.59 L47.45 56.34 L47.77 55.96 L48.31 56.01 L48.65 55.57 L48.61 55.3 L48.48 55 L47.98 54.55 L47.73 54.43 L47.64 54.25 L47.55 53.88 L47.4 53.7 L47.36 53.59 L47.51 53.37 L47.68 53.37 L47.96 53.22 L48.16 53.23 L48.28 53.31 L48.35 53.3 L48.66 53.08 L48.8 53.09 L49.03 53 L49.23 52.79 L49.42 52.72 L49.35 52.57 L49.44 52.44 L49.43 52.37 L48.78 51.72 L48.75 51.65 L48.81 51.52 L48.8 51.4 L48.59 51.33 L48.47 51.34 L48.41 51.14 L48.15 50.94 L48.07 50.73 L47.84 50.61 L47.63 50.61 L47.28 50.36 L47.22 50.16 L47.17 50.12 L46.84 50.64 L46.54 50.72 L46.37 50.89 L46.25 50.94 L45.88 51.22 L45.64 51.3 L45.38 51.58 L45 51.6 L44.69 51.57 L44.49 51.74 L44.4 52.03 L44.35 52.06 L44.16 52 L43.84 51.8 L43.74 51.83 L43.62 51.98 L42.81 52.28 L42.67 52.4 L42.46 52.42 L42.13 52.33 L41.96 52.48 L41.89 52.48 L41.74 52.12 L41.56 52 L41.66 51.76 L41.94 51.63 L42.05 51.54 L41.92 51.34 L41.98 51.19 L41.93 51.03 L42.05 50.61 L42.11 50.52 L42.28 50.49 L42.35 50.4 L42.51 50.33 L42.46 50.11 L42.55 49.88 L42.41 49.85 L42.05 49.88 L41.65 50.03 L41.43 49.99 L41.26 49.76 L41.49 49.33 L41.44 49 L41.65 49.03 L41.84 48.91 L42.2 48.83 L42.4 48.69 L42.28 48.55 L42.26 48.39 L42.23 48.12 L42.3 47.94 L42.57 47.9 L42.81 47.97 L42.98 47.91 L43.18 48 L43.76 48.02 L43.84 47.97 L43.95 47.77 L44.14 47.57 L44.64 47.35 L45.05 46.9 L45.01 46.82 L44.78 46.7 L44.28 46.57 L43.47 46.68 L43.09 46.52 L42.96 46.24 L42.8 46.3 L42.56 46.17 L42.36 46.15 L42.02 46.26 L42.03 46.54 L41.83 46.74 L41.52 46.87 L41.37 46.74 L41.17 46.72 L41.04 46.61 L40.95 46.5 L40.91 46.34 L40.8 46.29 L40.73 46.16 L40.48 46.02 L40.23 46.07 L40.2 46.01 L40.39 45.62 L40.25 45.27 L40.38 44.97 L40.3 44.91 L40.19 44.93 L40.06 44.85 L39.79 45 L39.46 44.91 L39.24 44.78 L38.99 44.81 L38.97 44.63 L38.85 44.46 L38.84 44.17 L38.71 44.04 L38.78 43.91 L39.23 43.46 L39.28 43.2 L39.54 42.95 L39.39 42.8 L39.15 42.65 L39.02 42.45 L38.65 42.27 L38.46 42.06 L38.23 41.92 L37.93 41.99 L37.85 41.84 L37.54 41.96 L37.53 42.16 L37.36 42.47 L37.31 42.75 L36.92 43 L36.71 43.31 L36.41 43.41 L36.13 43.28 L36.02 43.34 L35.91 43.46 L35.91 43.61 L36.05 43.68 L36.08 43.9 L36.3 44.09 L36.3 44.19 L35.99 44.19 L35.84 44.32 L35.64 44.21 L35.31 44.22 L34.96 44.36 L34.74 44.6 L34.31 44.76 L34.2 44.64 L34.14 44.5 L34.14 44.39 L34.05 44.33 L33.93 44.07 L33.95 44.02 L33.9 44 L33.83 43.84 L33.69 43.78 L33.59 43.62 L33.15 43.32 L33.01 43.19 L32.93 43.17 L32.62 42.87 L32.63 42.82 L32.55 42.83 L32.54 42.77 L32.45 42.75 L31.96 42.25 L31.88 42.25 L31.91 42.16 L32.06 42.2 L32.08 42.15 L32.21 42.09 L32.05 41.45 L31.94 41.35 L31.95 41.28 L31.87 41.25 L31.78 41.1 L31.69 41.08 L31.67 41.02 L31.49 40.88 L31.45 40.72 L31.51 40.66 L31.5 40.6 L31.35 40.33 L30.91 39.94 L30.82 39.91 L30.42 39.58 L30.22 39.51 L30.16 39.4 L30.22 39.34 L30.2 39.19 L30.1 39.09 L29.61 38.78 L29.45 38.62 L28.95 38.34 L28.93 38.29 L28.14 37.78 L27.28 37.31 L27.13 37.18 L25.96 36.51 L21.97 34.44 L21.85 34.45 L21.8 34.36 L21.82 34.2 L21.67 34.16 L21.6 34.06 L21.59 34.03 L21.83 34.05 L21.9 33.99 L21.97 33.83 L22 33.61 L21.87 33.19 L21.79 33.06 L21.83 32.94 L21.76 32.8 L21.75 32.6 L21.88 32.59 L21.89 32.48 L21.89 32.31 L21.8 32.16 L21.93 32.08 L22 31.96 L22.18 31.97 L22.26 31.89 L22.38 31.91 L22.35 32.01 L22.42 32.05 L22.7 32.02 L22.83 31.91 L23.04 31.99 L23.16 31.88 L23.26 31.64 L23.34 31.13 L23.31 30.77 L23.22 30.5 L23 30.14 L23 30.08 L22.67 29.7 L22.62 29.58 L22.64 29.49 L22.81 29.43 L22.81 29.28 L22.71 29.1 L22.45 28.89 L22.36 28.74 L22.19 28.65 L22.21 28.56 L22.33 28.55 L22.35 28.44 L22.28 28.27 L22.07 28.06 L22.1 27.9 L22.19 27.78 L22.1 27.6 L22.15 27.56 L21.99 27.43 L22 27.3 L21.94 27.1 L21.64 26.66 L21.45 26.45 L21.55 26.29 L21.55 26.22 L21.74 26.22 L21.82 26.03 L21.76 25.69 L21.56 25.23 L21.39 24.96 L21.42 24.87 L21.49 24.84 L21.48 24.7 L21.3 24.43 L21.01 23.75 L20.78 23.47 L20.8 23.44 L20.46 23.01 L20.31 22.96 L20.3 22.87 L20.36 22.88 L20.32 22.82 L20.34 22.71 L20.25 22.71 L20.25 22.62 L20.16 22.56 L20.17 22.5 L20.24 22.51 L20.23 22.46 L20.15 22.47 L20.18 22.34 L20.23 22.34 L20.27 22.3 L20.18 22.03 L19.51 21.44 L19.07 21.1 L19 21.13 L19.03 21.02 L18.95 20.9 L19.01 20.83 L18.89 20.69 L19.01 20.6 L19.12 20.62 L19.13 20.58 L19.18 20.58 L19.16 20.35 L19.08 20.19 L18.86 19.96 L18.6 19.83 L18.58 19.77 L18.64 19.68 L18.72 19.67 L18.7 19.6 L18.61 19.48 L18.47 19.41 L18.34 19.2 L18.27 19.19 L17.78 18.81 L17.52 18.54 L17.47 18.08 L17.34 17.81 L16.4 16.93 L15.64 15.97 L15.29 15.44 L15.29 15.39 L15.47 15.31 L15.67 15.11 L16.13 14.43 L16.57 14.19 L16.81 14.18 L17.12 14.5 L17.58 14.65 L17.87 14.64 L18.08 14.31 L18.3 14.36 L18.47 14.24 L18.38 14.13 L18.35 13.84 L18.41 13.57 L18.42 13.3 L18.38 13.22 L18.44 13.03 L18.44 12.71 L18.17 12.52 L18.12 12.2 L18.05 12.14 L18.03 12.02 L17.78 11.88 L17.69 11.69 L17.89 11.56 L17.94 11.42 L17.93 11.27 L18.01 11.14 L18.19 11.06 L18.34 10.83 L18.63 10.64 L18.64 10.56 L18.54 10.37 L18.77 10.37 L18.81 9.98 L19.03 9.76 L18.98 9.6 L18.96 9.26 L18.89 9.13 L18.99 8.83 L18.95 8.63 L18.99 8.51 L18.9 8.34 L18.91 8.23 L18.85 8.07 L18.94 7.74 L18.87 7.6 L18.98 7.42 L19.21 7.54 L19.39 7.48 L19.7 7.49 L19.86 7.43 L20.28 7.52 L20.63 7.4 L20.86 7.53 L21.01 7.57 L21.34 7.88 L21.75 8.05 L21.87 7.94 L21.89 7.87 L22.07 7.73 L22.23 7.48 L22.36 7.43 L22.64 7.6 L22.7 7.8 L23.2 8.56 L23.22 9.05 L22.99 9.36 L22.25 9.87 L22.17 9.9 L21.94 9.8 L21.69 10.01 L21.46 10.06 L21.33 10.3 L21.1 10.43 L20.87 10.43 L20.78 10.5 L20.67 10.72 L20.76 10.97 L20.65 11.08 L20.56 11.3 L20.46 11.36 L20.27 11.81 L20.19 11.91 L20.23 12.28 L19.97 12.42 L19.78 12.67 L19.54 12.76 L19.16 13.19 L19.25 13.64 L19.38 13.91 L19.39 14.2 L19.83 13.97 L20.06 13.94 L20.21 13.67 L20.68 13.32 L20.84 13.38 L21.04 13.33 L21.22 13.41 L21.44 13.21 L21.72 13.16 L21.8 13.01 L21.89 12.95 L22.08 14.02 L22.14 15.13 L22.64 15.06 L22.86 14.95 L23.03 14.78 L23.37 14.64 L23.81 14.62 L23.85 14.67 L23.92 14.86 L23.94 15.11 L23.91 15.45 L23.85 15.57 L23.65 15.75 L23.63 16.13 L23.56 16.3 L23.83 16.67 L23.89 16.86 L23.89 17.94 L23.82 18.54 L23.58 19.26 L23.49 19.39 L22.86 19.58 L23.37 20.27 L23.77 19.83 L24.24 19.42 L24.37 19.33 L24.71 19.21 L25.24 18.78 L25.69 18.76 L25.8 18.82 L25.88 18.95 L25.99 19.03 L26.22 19.08 L26.58 18.95 L26.75 18.96 L26.88 18.83 L27.03 18.83 L27.1 18.73 L27.3 18.59 L27.53 18.55 L27.67 18.48 L27.78 18.51 L27.92 18.63 L28.08 18.6 L28.23 18.68 L28.77 18.4 L28.96 18.1 L29.11 18.05 L29.04 17.96 L28.76 17.87 L28.62 17.67 L28.57 17.51 L28.59 17.28 L28.87 16.71 L29.02 16.61 L29.24 16.13 L29.49 16.18 L29.6 16.12 L29.82 15.62 L30.12 15.27 L30.19 15.31 L30.25 15.27 L30.36 14.99 L30.66 14.91 L30.86 14.74 L31 14.56 L31.08 14.3 L31.22 14.15 L31.67 13.88 L31.8 13.93 L32.03 13.87 L32.16 13.98 L32.25 13.98 L32.32 13.72 L32.77 13.57 L33 13.64 L33.17 13.56 L33.46 13.6 L33.62 13.75 L33.92 13.85 L34.23 13.84 L34.41 13.75 L34.48 13.63 L34.48 13.47 L34.62 13.38 L34.69 13.25 L34.68 13 L34.94 12.79 L35.05 12.52 L35.02 12.13 L34.93 11.95 L34.78 11.84 L34.87 11.38 L35.16 11.13 L35.47 11.01 L35.55 10.84 L35.71 10.72 L35.87 10.32 L36.14 10.19 L36.17 10.1 L36.4 9.89 L36.45 9.77 L36.6 9.71 L36.65 9.54 L36.63 9.36 L37.01 9.05 L37.21 8.83 L37.21 8.5 L37.25 8.47 L37.32 8.5 L37.47 8.42 L37.64 8.13 L37.72 7.88 L37.96 7.8 L38.24 7.95 L38.38 7.91 L38.43 7.8 L38.58 7.83 L38.62 7.76 L39 7.6 L39.05 7.44 L39.18 7.38 L39.25 7.27 L39.32 7.26 L39.37 7.07 L39.44 7.05 L39.47 6.48 L39.58 6.36 L39.69 6.4 L39.73 6.59 L39.86 6.6 L39.95 6.71 L40.23 6.74 L40.39 6.94 L40.61 6.95 L40.68 6.89 L40.74 6.75 L40.96 6.65 L41.04 6.52 L41.19 6.51 L41.33 6.43 L41.4 6.24 L41.84 6.15 L41.99 6.22 L42.26 6 L42.25 6.11 L42.35 6.33 L42.58 6.52 L42.63 6.61 L42.61 6.95 L42.91 7.04 L43.09 7.33 L43.18 7.58 L43.18 7.77 L43.28 7.88 L43.13 8.11 L43.4 8.55 L43.37 8.89 L43.53 8.89 L43.6 8.95 L43.71 8.85 L43.91 8.78 L44.05 8.56 L44.12 8.89 L44.29 9.37 L44.39 9.31 L44.55 9.38 L45.01 9.36 L45.04 9.83 L45.2 10.13 L45.1 10.37 L45.17 10.64 L45.24 10.67 L45.48 10.63 L45.54 10.67 L45.8 11.08 L45.91 11.16 L45.92 11.33 L46.24 11.35 L46.37 11.45 L46.5 11.41 L46.61 11.45 L46.84 11.42 L47.12 11.67 L47.14 11.82 L47.21 11.91 L47.13 12.03 L47.09 12.56 L47.32 12.85 L47.45 12.93 L47.47 13.16 L47.62 13.44 L47.67 13.91 L47.8 14.2 L47.84 14.42 L47.82 14.81 L48.03 14.99 L48.23 14.93 L48.39 14.95 L48.46 15.07 L48.59 15.16 L48.67 15.42 L48.59 15.7 L48.95 16.05 L49.16 16.42 L49.05 16.6 L49.01 16.84 L48.76 17.16 L48.73 17.25 L48.8 17.34 L49.03 17.49 L49.1 17.88 L49.21 18.01 L49.2 18.21 L49.33 18.4 L49.34 18.65 L49.51 19.09 L49.83 19.42 L49.97 19.74 L49.86 19.9 L49.85 20.07 L49.78 20.17 L49.98 20.36 L49.95 20.54 L50.18 20.97 L50.27 21.03 L50.52 20.98 L50.63 21.01 L50.65 21.12 L50.73 21.16 L50.77 21.32 L50.98 21.62 L51.01 21.83 L51.11 22.05 L51.2 22.43 L51.23 23.22 L51.35 23.51 L51.36 23.69 L51.47 23.83 L51.46 23.98 L51.56 24.31 L51.5 24.41 L51.55 24.5 L51.51 24.73 L51.59 24.81 L51.58 24.93 L51.64 25.11 L51.4 25.4 L51.38 25.53 L51.24 25.57 L51.17 25.71 L51.28 25.98 L51.22 26.15 L51.23 26.38 L51.31 26.53 L51.53 26.45 L51.66 26.7 L51.88 26.71 L52.14 26.87 L52.52 27.02 L52.65 27.26 L52.71 27.51 L52.86 27.67 L53.03 27.97 L53.18 28.15 L53.41 28.31 L53.5 28.45 L53.67 28.54 L53.62 28.7 L53.65 28.84 L53.54 29.07 L53.04 29.22 L52.93 29.27 L52.9 29.33 L52.93 29.42 L53.13 29.59 L53.15 29.77 L53.22 29.83 L53.22 29.92 L53.31 30.11 L53.34 30.54 L53.26 30.71 L53.26 30.77 L53.63 31.21 L53.66 31.51 L53.59 31.62 L53.58 31.88 L53.82 32.24 L53.89 32.6 L53.85 32.79 L53.7 32.8 L53.68 32.86 L53.87 33.16 L54.06 33.31 L54.35 33.34 L54.59 33.5 L54.59 33.57 L54.44 33.5 L54.27 33.66 L54.03 34.08 L54.05 34.15 L54.44 34.68 L54.46 34.77 L54.41 34.89 L54.53 35.04 L54.72 35.48 L54.81 35.56 L54.98 35.62 L55.31 35.58 L55.39 35.65 L55.43 35.75 L55.55 35.83 L55.62 36.11 L55.64 36.4 L55.79 36.51 L55.84 36.7 L55.97 36.81 L56.16 37.16 L56.05 37.32 L55.86 37.36 L55.79 37.45 L56 37.67 L56.29 38.25 L56.38 38.33 L56.51 38.36 L56.75 38.27 L56.81 38.29 L56.83 38.7 L56.96 39.15 L56.9 39.26 L56.75 39.31 L56.72 39.37 L56.82 39.86 L57.24 40.24 L57.23 40.36 L57.32 40.46 L57.43 40.39 L57.57 40.4 L57.58 40.79 L57.63 40.98 L57.86 41.06 L57.95 41 L58.14 41.04 L58.21 41.13 L58.23 41.28 L58.36 41.36 L58.47 41.57 L58.66 41.58 L58.8 41.67 L58.93 41.88 L58.91 42.18 L59 42.36 L59.01 42.49 L59.13 42.28 L59.31 42.34 L59.5 42.17 L59.67 42.09 L59.76 41.82 L59.87 41.7 L59.97 41.67 L60.21 41.75 L60.45 41.68 L60.66 41.73 L60.8 41.55 L60.82 41.36 L60.91 41.31 L60.99 41.38 L60.99 41.49 L61.19 41.63 L61.2 41.79 L61.3 41.79 L61.54 41.89 L61.55 42.03 L61.7 42.27 L62.08 42.23 L62.12 42.45 L62.02 42.68 L62.23 42.83 L62.25 42.94 L62.21 42.99 L62.03 43.01 L61.73 43.24 L61.72 43.35 L61.95 43.55 L62.01 43.79 L61.59 44.22 L61.62 44.43 L61.71 44.54 L61.82 44.81 L61.84 45 L61.79 45.17 L61.64 45.15 L61.53 45.18 L61.46 45.38 L61.63 45.78 L61.64 46.16 L61.76 46.39 L61.94 46.38 L62.11 46.43 L62.23 46.63 L62.42 46.78 L62.47 46.9 L62.45 47.08 L62.66 47.24 L62.69 47.33 L62.98 47.62 L63.09 47.64 L63.27 47.45 L63.46 47.55 L63.46 47.82 L63.77 47.96 L63.82 48.09 L64.14 48.44 L64.14 48.55 L64.28 48.75 L64.32 48.88 L64.52 49.09 L64.49 49.22 L64.61 49.45 L64.66 49.48 L64.76 49.44 L64.86 49.75 L65.03 49.82 L65.32 50.11 L65.56 50.27 L65.78 50.6 L65.77 50.83 L65.84 50.9 L65.77 51.13 L65.58 51.19 L65.65 51.43 L65.62 51.53 L65.73 51.68 L65.66 51.86 L65.71 51.93 L65.73 52.12 L65.87 52.28 L66.06 52.37 L66.15 52.6 L66.62 52.89 L66.84 53.2 L67.16 53.16 L67.32 53.28 L67.35 53.4 L67.4 53.42 L67.86 53.13 L68 53.15 L68.16 53.25 L68.24 53.24 L68.31 53.17 L68.37 53.17 L68.53 53.25 L68.57 53.4 L68.63 53.44 L69.14 53.15 L69.33 53.14 L69.59 53.24 L69.74 53.48 L69.84 53.53 L69.99 53.4 L70.34 53.4 L70.59 53.57 L70.81 53.59 L71.16 53.78 L71.32 53.81 L71.49 53.78 L71.68 54.13 L71.7 54.24 L71.75 54.27 L71.9 54.25 L72 54 L72.13 53.96 L72.26 54.16 L72.59 54.42 L72.66 54.53 L72.77 54.6 L72.87 54.58 L73.02 54.66 L73.09 54.79 L73.2 54.84 L73.33 55.03 L73.61 55.21 L73.76 55.12 L73.98 55.1 L74.19 54.88 L74.29 54.65 L74.43 54.66 L74.66 54.77 L74.83 54.77 L74.96 54.88 L75.14 54.82 L75.24 54.89 L75.4 54.91 L75.59 54.76 L75.8 55.01 L76.12 55.19 L75.9 55.46 L75.87 55.59 L75.94 55.76 L75.93 55.85 L76.12 55.92 L76.48 56.14 L76.68 56.43 L77.14 56.73 L77.22 56.74 L77.11 56.9 L77.42 57.25 L77.36 57.39 L77.39 57.49 L77.3 57.59 L77.03 57.69 L76.95 57.93 L76.84 58.07 L76.82 58.34 L76.73 58.4 L76.57 58.42 L76.54 58.52 L76.58 58.64 L76.48 58.73 L76.39 58.94 L76.71 59.26 L76.73 59.48 L76.9 59.62 L76.98 59.88 L77.25 60.16 L77.25 60.25 L77.43 60.44 L77.71 60.64 L77.71 60.85 L77.88 60.96 L78.03 61.12 L78.11 61.3 L78.26 61.48 L78.35 61.71 L78.55 61.82 L78.37 62.22 L78.4 62.39 L78.48 62.52 L78.61 62.63 L79 62.68 L79.08 62.74 L79.21 63.02 L79.36 63.23 L79.45 63.49 L79.59 63.64 L79.54 63.91 L79.4 64.06 L79.38 64.23 L79.24 64.36 L79.28 64.52 L79.28 64.89 L79.35 64.98 L79.29 65.09 L79.3 65.18 L79.41 65.48 L79.39 65.64 L79.41 65.74 L79.34 66.11 L79.67 66.8 L79.76 67.19 L79.85 67.33 L79.8 67.5 L79.88 67.6 L79.88 67.72 L79.95 67.87 L79.88 67.96 L79.69 68.05 L79.68 68.24 L79.6 68.32 L79.49 68.59 L79.35 68.6 L79.27 68.66 L79.11 68.81 L79.09 68.99 L78.96 69.07 L78.97 69.19 L79.1 69.29 L79.11 69.39 L78.96 69.66 L78.94 69.81 L78.8 69.88 L78.75 69.97 L78.76 70.27 L78.66 70.7 L78.72 70.86 L78.78 71.57 L78.89 71.74 L79.26 71.84 L79.33 72 L79.21 72.19 L79.41 72.25 L79.51 72.32 L79.52 72.4 L79.4 72.63 L79.45 72.94 L79.19 73.07 L79.04 73.05 L78.82 73.29 L78.98 73.55 L79.24 73.74 L79.42 73.81 L79.48 74 L79.64 74.16 L79.92 74.32 L80.21 74.61 L80.36 74.66 L80.56 74.88 L80.71 74.91 L80.65 75.19 L80.56 75.29 L80.38 75.28 L80.33 75.42 L80.31 75.76 L80.13 76.04 L80.07 76.22 L79.82 76.06 L79.66 76.25 L79.52 76.2 L79.38 76.05 L79.25 76.08 L79.24 76.42 L79.13 76.52 L79.16 76.65 L79.08 76.75 L78.92 76.85 L78.79 76.86 L78.61 76.95 L78.37 76.98 L78.2 77.15 L78.05 77.14 L77.82 77.23 L77.85 77.31 L77.76 77.6 L77.5 78.11 L77.36 78.27 L77.3 78.61 L77.18 78.71 L77.17 78.76 L77.25 78.86 L77.24 78.96 L77.42 79.13 L77.37 79.32 L77.7 79.53 L77.57 79.7 L77.7 79.78 L77.8 79.92 L77.81 80.12 L77.65 80.18 L77.43 80.18 L77.14 80.37 L77.26 80.61 L77.16 80.76 L76.75 80.94 L76.47 80.91 L76.33 80.94 L76.28 81.12 L76.4 81.45 L76.23 81.74 L75.82 81.79 L75.78 81.91 L75.66 82.07 L75.11 82.2 L75 82.13 L74.72 82.16 L74.59 82.02 L74.45 82.03 L74.33 81.88 L74.18 81.8 L74.05 81.87 L73.95 81.88 L73.66 81.6 L73.5 81.89 L73.44 82.14 L73.17 82.32 L72.87 82.63 L72.63 82.76 L72.42 82.48 L72.3 82.59 L72.15 82.53 L72.05 82.31 L72.07 82.02 L72.03 81.91 L71.79 81.84 L71.55 82.01 L71.31 82.1 L71.02 81.91 L70.83 81.87 L70.65 81.74 L70.6 81.63 L70.51 81.55 L70.14 81.47 L69.98 81.49 L69.88 81.37 L69.57 81.3 L69.48 81.17 L69.24 81.12 L69.16 81.02 L68.88 80.85 L68.81 80.86 L68.63 80.94 L68.52 81.04 L68.26 81.11 L68.19 81.26 L68.27 81.54 L68.26 81.66 L68.06 81.98 L68.03 82.24 L67.62 82.55 L67.26 82.92 L66.88 83.44 L66.67 83.57 L66.59 83.73 L66.48 83.82 L66.05 84.03 L65.84 84.28 L65.39 84.53 L65.35 84.61 L65.22 84.64 L64.77 85.04 L64.52 85.19 L64.41 85.38 L64.25 85.44 L63.82 85.82 Z M50.25 75.25 L50.21 75.3 L50.25 75.43 L50.19 75.39 L50.13 75.43 L50.16 75.5 L50.06 75.51 L50.03 75.55 L49.95 75.51 L49.89 75.37 L49.99 75.35 L50.1 75.26 L50.16 75.3 L50.2 75.21 L50.25 75.25 Z M19.21 36.61 L19.25 36.63 L19.09 36.69 L19.14 36.65 L19.09 36.58 L19.21 36.61 Z M21.21 26.7 L21.19 26.73 L21.14 26.68 L21.12 26.6 L21.2 26.6 L21.21 26.7 Z" /></svg>