<svg xmlns="http://www.w3.org/2000/svg" viewBox="0 0 96 96"><path fill="#efd0a0" fill-rule="evenodd" d="M62.18 90 L60.9 89.1 L60.51 89.04 L60.65 88.57 L60.92 88.28 L60.38 87.93 L60.35 87.64 L60.8 87.74 L60.97 87.34 L60.92 86.98 L60.55 86.55 L60.63 85.79 L60.97 85.65 L61.29 86.41 L61.63 86.31 L61.46 85.79 L61.78 85.62 L61.56 85.44 L61.66 85.34 L61.56 85.08 L61.88 84.95 L61.91 84.26 L62.25 84.29 L62.3 84.09 L62.06 83.25 L62.16 83.11 L62.5 83.15 L63.07 82.81 L62.96 82.24 L62.64 81.82 L62.45 80.67 L62.5 80.13 L62.77 80.35 L62.94 80.08 L62.85 79.83 L62.99 79.7 L62.85 79.44 L62.42 79.38 L62.3 79.19 L62.35 79.01 L62.55 78.99 L62.55 78.75 L62.18 78.47 L62.45 78.3 L62.28 78.11 L61.76 78.12 L61.84 77.71 L61.71 77.44 L60.85 76.57 L61.07 76.14 L60.82 75.79 L59.34 75.14 L59.37 74.16 L58.87 73.91 L58.65 74.24 L58.43 74.31 L58.58 74.02 L58.11 73.55 L58.08 73.18 L57.76 73.15 L57.79 72.76 L57.5 72.63 L57.69 72.16 L57.62 71.9 L57.25 71.65 L56.96 71.75 L56.93 71.3 L56.46 71.01 L56.42 70.79 L54.78 69.82 L52.57 68.86 L51.68 68.03 L48.82 66.01 L48.51 66.45 L48.67 65.91 L48.33 65.71 L43.6 63.54 L42.74 63.39 L40.4 62.31 L39.64 62.21 L39.64 61.99 L39.98 61.72 L40.03 61.45 L39.57 61.01 L39.71 60.78 L39.58 59.94 L40.11 59.62 L40.08 59.26 L39.71 58.82 L39.71 58.64 L40.4 58.37 L40.59 58.54 L40.67 57.97 L40.84 57.88 L40.91 57.53 L40.9 56.96 L40.55 56.38 L40.45 55.84 L39.91 55.46 L39.57 54.97 L39.04 54.84 L38.38 53.91 L37.29 53.1 L35.65 52.08 L33.27 50.92 L33.29 50.74 L33.45 50.7 L33.45 50.42 L33.65 50.35 L33.62 50.15 L33.26 49.99 L33.52 49.76 L33.53 49.49 L35.31 49.34 L35.33 48.45 L36.2 48.31 L36.15 48 L35.85 48 L35.76 47.37 L35.93 47.34 L35.91 47.06 L34.83 47.26 L34.66 46.76 L35.28 45.29 L35.29 44.98 L34.59 44.31 L32.86 43.51 L32.55 43.22 L32.52 42.93 L33.09 42.27 L33.11 41.77 L32.74 40.91 L32.67 39.95 L31.71 38.47 L31.7 38.36 L31.93 38.43 L32.29 38.89 L33.08 39.1 L33.4 39.34 L33.85 39.3 L34.47 39.53 L34.66 39.41 L34.4 38.54 L34 38.19 L34 37.59 L34.54 37.1 L34.59 36.67 L34.88 36.3 L35.15 35 L34.91 34.2 L34.81 32.82 L34.2 32.1 L34.24 31.29 L33.84 31.34 L33.36 30.97 L33.06 30.48 L33.14 30 L32.82 29.01 L31.9 27.9 L31.22 28.05 L29.94 27.97 L28.58 28.51 L27.73 28.39 L27.13 28.56 L26.68 28.48 L26.35 28.78 L26.24 28.68 L26.85 28.07 L26.85 27.72 L27.37 27.53 L27.39 27.25 L27.07 26.68 L27.22 26.39 L26.93 26 L26.83 25.46 L26.14 24.81 L25.54 24.67 L25.52 24.27 L25.71 24.05 L25.52 24 L25.47 23.29 L25.92 23.16 L26.21 23.31 L26.21 23.48 L26.97 23.44 L27.17 23.73 L27.39 23.81 L27.39 23.61 L27.69 23.44 L27.91 23.02 L27.79 22.27 L27.86 21.61 L28.08 21.36 L28.08 21.14 L27.81 19.93 L27.39 19.54 L26.83 18.34 L26.53 18.16 L25.42 16.78 L25.47 16.48 L25.76 16.51 L26.04 16.22 L25.84 15.38 L27.23 14.87 L27.92 14.12 L29.05 13.65 L30.13 13.64 L30.78 13.99 L31.24 13.57 L32.26 13.57 L32.23 13.23 L31.52 12.63 L31.43 11.92 L30.98 11.7 L31 11.21 L31.34 10.81 L31.71 10.64 L32.6 11.05 L33.58 10.73 L34.25 9.73 L35.49 8.91 L35.65 8 L36.2 7.02 L36.25 6.36 L37.13 6 L37.37 6.07 L37.51 6.47 L38.47 6.25 L39.21 6.68 L39.81 7.37 L41 7.96 L41.42 8.61 L42.22 9.09 L42.7 9.57 L41.84 10.35 L41.69 11.21 L40.23 12.66 L40.01 13.09 L40.42 13.49 L40.47 14.43 L40.85 14.97 L40.93 15.57 L41.73 15.45 L42.44 15.9 L43.49 16.18 L44.36 15.7 L44.77 15.95 L45.13 15.89 L45.38 16.08 L44.98 17.05 L45.44 18.17 L44.81 19.42 L44.92 19.63 L45.71 19.45 L46.52 19.92 L46.74 20.34 L47.11 20.49 L47.24 21.02 L47.51 21.35 L47.96 21.73 L48.58 21.78 L49.06 22.2 L50.06 21.77 L50.71 21.14 L50.69 20.23 L51.78 19.89 L52.42 19.96 L53.21 20.38 L53.73 20.17 L54.12 21.07 L55.35 21.59 L57.97 21.23 L60.2 21.91 L60.44 22.28 L59.13 23.76 L57.52 24.47 L56.91 25.1 L56.55 25.76 L56.28 25.91 L54.42 25.86 L53.78 25.55 L53.22 25.75 L52.47 25.52 L51.6 25.66 L51.35 26.23 L51.45 27.12 L51.54 27.61 L51.91 28.08 L51.26 28.51 L50.12 28.78 L49.49 29.16 L48.82 29.08 L48.98 30.12 L48.25 31.52 L48.79 32.27 L49.5 32.39 L50.78 31.9 L51.95 31.8 L52.4 31.92 L52.1 32.65 L52.27 33.35 L51.76 33.57 L51.52 33.87 L50.96 33.97 L50.78 34.26 L50.4 35.61 L50.55 36.12 L50.36 36.61 L50.77 37.25 L50.44 37.55 L49.53 37.97 L49.22 38.73 L49.79 39.12 L50.26 40.28 L50.49 40.28 L51.04 39.79 L52.1 40.11 L52.77 40.03 L53.24 39.65 L55.86 38.67 L56.24 38.2 L56.57 38.11 L57.57 38.74 L58.21 38.93 L58.35 38.83 L58.66 37.89 L59.29 37.35 L60.28 37.46 L61.53 37.38 L62.36 36.47 L63.12 36.22 L64.31 35.32 L64.72 35.16 L65.26 34.62 L66.24 34.36 L67.28 32.69 L67.44 32.81 L67.65 33.46 L68.76 34.27 L69.46 34.27 L70.2 34.64 L70.44 35.33 L71.28 35.97 L71.47 36.63 L71.88 36.58 L72.55 36.82 L72.59 37.18 L72.39 37.63 L72.48 37.83 L74.63 40.04 L74.31 40.58 L74.55 41.05 L73.92 41.28 L73.28 41.96 L72.55 42.27 L72.1 42.23 L71.08 42.94 L70.88 42.97 L70.47 42.71 L69.83 42.67 L68.92 43.16 L68.39 43.17 L68.06 43.52 L67.94 44 L68.51 44.79 L68.81 46.01 L69.09 46.57 L69.92 46.98 L71.52 48.4 L71.92 49.39 L72.04 50.27 L70.96 51.67 L69.23 51.52 L68.2 52.73 L68.56 53.55 L68.92 53.98 L69.92 54.12 L70.52 54.92 L71.49 55.37 L70.44 56.39 L70.83 57.4 L71.49 58.36 L71.96 58.64 L72.13 59.04 L72.45 59.24 L73.2 59.22 L73.03 59.69 L73.6 60.66 L73.91 60.94 L74.33 62.42 L74.99 62.82 L75.28 63.3 L76.55 63.78 L76.67 63.94 L76.69 64.94 L76.29 65.54 L76.34 66.12 L75.75 67.32 L75.73 67.71 L75.37 68.54 L74.94 68.84 L74.07 69.13 L73.76 70.81 L72.98 71.23 L72.38 72.19 L72.02 72.18 L71.6 73.41 L71.71 73.86 L71.41 74.3 L71.27 75.13 L71.95 75.75 L72.58 75.81 L72.59 76.02 L72.05 76.62 L72.02 77.02 L71.31 77.64 L70.7 77.49 L69.91 77.62 L69.4 78.02 L68.4 78.48 L68.33 78.65 L68 78.67 L67.73 78.97 L66.77 78.97 L66.06 79.15 L65.59 79.03 L64.78 79.06 L64.75 80.2 L65.03 82.11 L64.69 83.25 L65.21 85.1 L64.96 85.99 L64.75 86.26 L63.45 87.35 L63.18 87.76 L62.04 88.25 L61.69 88.68 L62.23 89.69 L62.3 90 L62.18 90 Z M52.27 71.55 L52.22 71.68 L52.18 71.68 L52.15 71.45 L52.3 71.4 L52.27 71.55 Z M51.58 70.47 L51.8 70.74 L51.78 71.03 L51.54 70.98 L51.36 70.74 L51.49 70.71 L51.49 70.39 L51.58 70.47 Z M24.31 25.31 L24.34 25.48 L24.19 25.5 L24.16 25.25 L24.31 25.21 L24.31 25.31 Z M19.73 23.7 L19.85 23.66 L19.53 24.24 L19.46 24.1 L19.31 24.17 L19.31 23.95 L19.5 23.98 L19.65 23.61 L19.73 23.7 Z" /></svg>