<svg xmlns="http://www.w3.org/2000/svg" viewBox="0 0 96 96"><path fill="#efd0a0" fill-rule="evenodd" d="M27.83 90 L27.73 89.95 L27.74 89.9 L27.73 89.85 L27.77 89.77 L27.75 89.71 L27.68 89.61 L27.65 89.51 L27.68 89.44 L27.66 89.34 L27.67 89.28 L27.7 89.26 L27.68 89.2 L27.71 89.13 L27.72 88.97 L27.78 88.91 L27.77 88.69 L27.74 88.65 L27.8 88.48 L27.77 88.41 L27.73 88.16 L27.77 88.11 L27.87 88.08 L27.88 88.05 L27.87 87.98 L27.88 87.9 L27.81 87.79 L27.79 87.69 L27.76 87.66 L27.79 87.58 L27.85 87.53 L27.93 87.38 L27.98 87.36 L27.99 87.33 L27.98 87.29 L27.96 87.08 L27.92 86.96 L27.82 86.8 L27.78 86.7 L27.74 86.66 L27.72 86.57 L27.67 86.47 L27.62 86.44 L27.5 86.28 L27.55 86.17 L27.64 86.15 L27.74 86.07 L27.79 86.09 L27.83 86.04 L27.89 86.02 L27.91 85.99 L27.95 85.99 L27.98 85.94 L28.24 85.78 L28.29 85.73 L28.27 85.64 L28.18 85.46 L28.19 85.3 L28.15 85.27 L28.17 85.22 L28.14 85.19 L28.08 85.19 L28.06 85.18 L28.06 85.09 L28.02 85 L28.04 84.84 L28.08 84.76 L28.07 84.6 L28.09 84.52 L28.06 84.4 L28.02 84.34 L28.02 84.3 L28.05 84.26 L28.11 84.22 L28.14 84.18 L28.16 84.12 L28.15 83.98 L28.22 83.91 L28.27 83.89 L28.34 83.91 L28.39 83.9 L28.43 83.91 L28.46 83.9 L28.55 83.92 L28.65 83.85 L28.71 83.87 L28.81 83.87 L28.88 83.76 L28.95 83.78 L28.97 83.72 L28.96 83.63 L28.99 83.54 L28.99 83.42 L28.97 83.28 L28.94 83.17 L29.03 82.96 L29.02 82.79 L28.96 82.74 L28.96 82.67 L28.9 82.61 L28.91 82.58 L28.88 82.47 L28.81 82.44 L28.74 82.49 L28.7 82.48 L28.58 82.56 L28.55 82.57 L28.54 82.54 L28.5 82.56 L28.46 82.56 L28.43 82.6 L28.4 82.6 L28.32 82.65 L28.22 82.69 L28.21 82.74 L28.16 82.79 L28.11 82.77 L28.04 82.66 L27.98 82.7 L27.9 82.69 L27.82 82.8 L27.78 82.82 L27.61 82.81 L27.51 82.75 L27.52 82.66 L27.56 82.63 L27.59 82.6 L27.58 82.55 L27.6 82.5 L27.59 82.39 L27.65 82.38 L27.67 82.34 L27.73 82.31 L27.73 82.27 L27.6 82.23 L27.6 82.16 L27.47 82.16 L27.42 82.19 L27.37 82.11 L27.39 82.02 L27.42 81.98 L27.39 81.89 L27.36 81.86 L27.36 81.8 L27.23 81.68 L27.24 81.62 L27.22 81.61 L27.19 81.55 L27.08 81.42 L27.07 81.38 L27.09 81.33 L27.06 81.3 L27.06 81.26 L27.02 81.18 L26.97 81.11 L26.91 81.14 L26.86 81.15 L26.84 81.04 L26.8 80.97 L26.66 80.92 L26.66 80.9 L26.62 80.88 L26.6 80.58 L26.49 80.53 L26.46 80.5 L26.47 80.46 L26.45 80.35 L26.49 80.27 L26.49 80.17 L26.5 80.05 L26.64 79.94 L26.74 79.92 L26.76 79.88 L26.72 79.77 L26.71 79.67 L26.64 79.59 L26.61 79.51 L26.61 79.44 L26.64 79.34 L26.63 79.25 L26.61 79.23 L26.64 79.09 L26.63 79.01 L26.61 78.98 L26.28 78.78 L26.25 78.73 L26.15 78.54 L26.09 78.48 L26.04 78.39 L25.93 78.36 L25.81 78.25 L25.71 78.12 L25.6 77.92 L25.59 77.86 L25.46 77.66 L25.38 77.44 L25.36 77.43 L25.34 77.4 L25.35 77.32 L25.38 77.26 L25.38 77.2 L25.48 76.86 L25.52 76.78 L25.57 76.73 L25.54 76.63 L25.5 76.56 L25.49 76.49 L25.61 76.25 L25.79 76.09 L25.92 75.92 L25.94 75.86 L25.9 75.79 L25.9 75.75 L25.94 75.68 L26.03 75.6 L26.08 75.47 L26.16 75.4 L26.21 75.39 L26.35 75.27 L26.37 75.27 L26.38 75.32 L26.4 75.33 L26.48 75.27 L26.56 75.26 L26.68 75.18 L26.87 75.2 L26.99 75.18 L27.07 75.12 L27.21 75.06 L27.26 75 L27.34 74.82 L27.33 74.76 L27.37 74.67 L27.33 74.57 L27.32 74.5 L27.28 74.48 L27.33 74.3 L27.33 74.23 L27.31 74.15 L27.32 74.08 L27.31 73.99 L27.34 73.98 L27.34 73.93 L27.35 73.9 L27.34 73.86 L27.39 73.79 L27.39 73.71 L27.37 73.64 L27.42 73.51 L27.4 73.34 L27.36 73.3 L27.36 73.26 L27.35 73.24 L27.37 73.2 L27.37 73.15 L27.39 73.11 L27.37 73.06 L27.31 73.03 L27.29 72.95 L27.24 72.87 L27.19 72.85 L27.16 72.79 L27.08 72.73 L27.08 72.71 L27.18 72.65 L27.27 72.53 L27.34 72.47 L27.24 72.42 L27.14 72.3 L27.1 72.22 L27.1 72.06 L27.08 72.01 L27.02 71.93 L26.94 71.89 L26.86 71.82 L26.84 71.77 L26.82 71.66 L27.01 71.63 L27.13 71.65 L27.18 71.62 L27.26 71.63 L27.33 71.6 L27.34 71.56 L27.36 71.39 L27.44 71.19 L27.42 70.95 L27.43 70.89 L27.45 70.83 L27.51 70.77 L27.59 70.77 L27.63 70.76 L27.66 70.78 L27.7 70.76 L27.75 70.78 L27.79 70.76 L27.85 70.78 L27.93 70.77 L28.03 70.8 L28.11 70.87 L28.15 70.84 L28.18 70.86 L28.21 70.84 L28.25 70.89 L28.32 70.89 L28.36 70.94 L28.38 70.92 L28.41 70.94 L28.42 70.89 L28.48 70.86 L28.5 70.84 L28.53 70.84 L28.56 70.86 L28.63 70.83 L28.66 70.85 L28.7 70.81 L28.78 70.82 L28.77 70.77 L28.78 70.75 L28.83 70.78 L28.86 70.76 L28.88 70.8 L28.94 70.8 L28.94 70.74 L28.98 70.71 L29.02 70.7 L29 70.63 L29.05 70.61 L29.07 70.56 L29.13 70.56 L29.15 70.53 L29.19 70.53 L29.19 70.48 L29.26 70.42 L29.21 70.31 L29.17 70.24 L29.31 70.18 L29.42 70.19 L29.45 70.11 L29.49 70.06 L29.52 70.09 L29.6 70.2 L29.69 70.28 L29.67 70.34 L29.68 70.39 L29.66 70.43 L29.74 70.5 L29.77 70.59 L29.85 70.73 L29.87 70.79 L29.92 70.85 L29.92 70.9 L29.96 71 L30.01 71.04 L30 71.07 L30.14 71.21 L30.15 71.25 L30.19 71.27 L30.21 71.26 L30.3 71.28 L30.43 71.26 L30.46 71.22 L30.49 71.22 L30.56 71.26 L30.64 71.24 L30.78 71.36 L30.86 71.39 L30.86 71.53 L30.92 71.65 L30.92 71.76 L30.93 71.8 L30.92 71.85 L30.93 71.9 L30.99 71.98 L31.08 71.97 L31.12 71.94 L31.17 71.96 L31.38 71.87 L31.41 71.82 L31.49 71.77 L31.53 71.77 L31.58 71.75 L31.59 71.7 L31.65 71.68 L31.72 71.62 L31.75 71.62 L31.84 71.56 L31.89 71.56 L31.95 71.51 L32.03 71.5 L32.13 71.46 L32.17 71.44 L32.22 71.37 L32.22 71.3 L32.1 71.22 L32.07 71.09 L32.02 71.06 L32 71.03 L32.06 70.78 L32.09 70.47 L32.04 70.17 L32.01 70.1 L31.89 69.96 L31.93 69.83 L31.98 69.76 L31.91 69.7 L31.8 69.66 L31.84 69.56 L31.93 69.45 L31.94 69.39 L31.94 69.13 L31.99 69.06 L32.03 69.02 L32.07 68.92 L32.19 68.83 L32.21 68.78 L32.21 68.72 L32.2 68.63 L32.17 68.56 L32.06 68.43 L32.1 68.35 L32.07 68.28 L32.04 68.25 L32.05 68.21 L32.01 68.17 L32.01 68.12 L32 68.07 L31.95 68.06 L31.92 68.01 L31.95 67.97 L31.94 67.91 L31.85 67.82 L31.86 67.77 L31.89 67.71 L31.83 67.62 L31.82 67.58 L31.86 67.5 L31.88 67.43 L31.86 67.38 L31.87 67.33 L31.86 67.29 L31.88 67.21 L31.78 67.1 L31.78 67.08 L31.79 66.99 L31.85 66.91 L31.98 66.82 L32.17 66.75 L32.24 66.66 L32.3 66.57 L32.33 66.49 L32.33 66.32 L32.3 66.25 L32.18 66.14 L32.05 65.95 L31.91 65.8 L31.84 65.77 L31.63 65.72 L31.51 65.56 L31.21 65.22 L31.1 65.19 L30.96 65.19 L30.73 65.01 L30.65 65 L30.46 65.04 L30.34 65 L30.28 65.01 L30.23 65.07 L30.23 65.12 L30.17 65.17 L30.13 65.15 L30.09 65.2 L30.03 65.2 L29.98 65.18 L29.94 65.18 L29.84 65.22 L29.82 65.21 L29.82 65.19 L29.8 65.19 L29.79 65.18 L29.7 65.23 L29.68 65.22 L29.66 65.24 L29.64 65.21 L29.66 65.18 L29.63 65.17 L29.64 65.14 L29.66 65.14 L29.66 65.12 L29.68 65.13 L29.69 65.12 L29.7 65.08 L29.67 65.07 L29.69 65.04 L29.67 65.03 L29.67 65.02 L29.62 65.01 L29.62 64.98 L29.61 64.96 L29.59 64.97 L29.58 64.95 L29.56 64.96 L29.54 65 L29.54 64.97 L29.52 64.97 L29.51 64.95 L29.46 64.95 L29.46 64.92 L29.44 64.92 L29.44 64.88 L29.42 64.84 L29.36 64.81 L29.31 64.79 L29.3 64.81 L29.25 64.79 L29.21 64.94 L29.14 65.12 L29.1 65.18 L29.04 65.21 L28.93 65.21 L28.73 65.13 L28.59 65.1 L28.37 65.11 L28.24 65.17 L28.16 65.15 L28.07 65.09 L28.02 65.03 L27.89 64.8 L27.8 64.73 L27.72 64.72 L27.49 64.77 L27.42 64.73 L27.23 64.72 L27.14 64.75 L27.1 64.73 L27.03 64.73 L26.89 64.79 L26.84 64.76 L26.79 64.78 L26.76 64.76 L26.72 64.78 L26.61 64.88 L26.49 65.09 L26.19 65.24 L26.04 65.25 L25.79 65.18 L25.58 65.19 L25.37 65.17 L25.02 65.04 L24.81 65 L24.73 64.96 L24.55 64.76 L24.36 64.62 L24.27 64.48 L24.15 64.38 L24.1 64.32 L24.16 64.24 L24.18 64.12 L24.17 64.03 L24.19 63.99 L24.11 63.81 L24.1 63.5 L24.12 63.26 L24.19 62.93 L23.65 63.25 L23.51 63.3 L22.72 63.71 L22.55 63.86 L22.47 63.87 L22.41 63.85 L22.1 64.04 L21.91 63.95 L21.76 63.91 L21.73 63.89 L21.7 63.84 L21.48 63.94 L21.36 63.97 L21.26 63.93 L21.15 63.85 L21.05 63.84 L20.98 63.87 L20.93 63.91 L20.88 64.03 L20.82 64.09 L20.77 64.12 L20.72 64.12 L20.67 64.08 L20.55 63.93 L20.39 63.65 L20.05 63.09 L19.95 62.8 L19.97 62.74 L19.91 62.69 L19.96 62.59 L19.96 62.54 L19.93 62.51 L19.85 62.49 L19.8 62.44 L19.78 62.37 L19.79 62.3 L19.77 62.2 L19.62 62.05 L19.6 61.95 L19.5 61.88 L19.48 61.79 L19.44 61.75 L19.43 61.68 L19.36 61.62 L19.27 61.58 L19.14 61.63 L18.92 61.65 L18.85 61.62 L18.81 61.57 L18.75 61.39 L18.68 61.28 L18.61 61.23 L18.55 61.22 L18.28 61.07 L18.2 61.08 L18.07 61.06 L18.02 61 L17.97 60.98 L17.89 60.83 L17.81 60.76 L17.66 60.74 L17.51 60.64 L17.41 60.42 L17.37 60.38 L17.32 60.38 L17.17 60.43 L17.07 60.37 L16.97 60.33 L16.92 60.33 L16.84 60.36 L16.77 60.28 L16.56 60.25 L16.49 60.18 L16.45 60.07 L16.38 60.04 L16.21 60.03 L16.16 60.1 L16.09 60.12 L16.01 60.19 L15.84 60.17 L15.73 60.05 L15.65 60.04 L15.62 59.98 L15.42 59.79 L15.36 59.7 L15.28 59.62 L15.25 59.63 L15.2 59.69 L15.08 59.74 L14.75 59.82 L14.58 59.77 L14.54 59.8 L14.52 59.88 L14.48 59.9 L14.32 59.79 L14.22 59.75 L14.16 59.7 L13.99 59.59 L13.86 59.61 L13.75 59.69 L13.68 59.71 L13.51 59.69 L13.43 59.61 L13.35 59.46 L13.28 59.4 L13.19 59.41 L13.04 59.46 L12.99 59.47 L12.95 59.43 L12.94 59.37 L13.01 59.18 L13 59.07 L12.97 59 L12.98 58.83 L12.95 58.77 L12.66 58.44 L12.53 58.34 L12.39 58.19 L12.28 58.1 L12.24 58.1 L12.2 58.06 L12.11 58.04 L12.01 57.93 L11.89 57.85 L11.83 57.84 L11.77 57.85 L11.58 57.92 L11.46 57.99 L11.36 58 L11.16 58.07 L11.06 58.07 L11.01 58.09 L11 57.79 L11.06 57.57 L11.16 57.29 L11.18 56.88 L11.12 56.64 L11.06 56.49 L11 56.23 L10.93 56.05 L10.84 55.65 L10.81 55.3 L10.81 54.97 L10.75 54.39 L10.7 54.27 L10.66 54.03 L10.57 53.97 L10.61 53.89 L10.63 53.78 L10.63 53.69 L10.62 53.63 L10.59 53.59 L10.51 53.52 L10.41 53.48 L10.34 53.41 L10.28 53.26 L10.22 53.16 L10.2 53.08 L10.02 52.83 L9.95 52.69 L9.92 52.59 L9.92 52.48 L9.98 52.28 L10.08 52.11 L10.08 52.01 L10.04 51.88 L10.05 51.77 L10.13 51.59 L10.31 51.33 L10.46 51.21 L10.59 51.07 L10.7 50.91 L10.77 50.82 L10.85 50.79 L11.04 50.78 L11.09 50.75 L11.16 50.66 L11.33 50.34 L11.4 50.16 L11.41 49.89 L11.43 49.74 L11.47 49.46 L11.51 49.34 L11.6 49.28 L11.79 49.23 L11.93 49.12 L11.99 49.04 L12.16 48.66 L12.22 48.44 L12.24 48.26 L12.23 47.79 L12.14 47.44 L12.09 47.08 L12.09 46.94 L12.15 46.47 L12.28 46.1 L12.3 45.83 L12.4 45.53 L12.48 45.16 L12.51 44.94 L12.51 44.59 L12.53 44.44 L12.47 44.19 L12.45 43.74 L12.37 43.48 L12.3 43.38 L12.24 43.3 L12.09 43.04 L11.95 42.9 L11.77 42.77 L11.65 42.64 L11.59 42.52 L11.52 42.28 L11.52 42.19 L11.63 41.86 L11.69 41.61 L11.69 41.3 L11.65 41.02 L11.52 40.74 L11.31 40.26 L11.26 40.21 L10.88 39.97 L10.77 39.86 L10.71 39.77 L10.66 39.54 L10.45 39.22 L10.34 38.99 L10.27 38.68 L10.21 38.13 L10.22 37.61 L10.18 37.37 L10.19 37.07 L10.16 36.86 L10.16 36.61 L10.17 36.45 L10.09 35.87 L10.07 35.24 L10 35.01 L9.93 34.87 L9.91 34.76 L9.92 34.67 L9.87 34.61 L13.74 33.29 L13.74 33.25 L14.19 33.12 L15.98 32.51 L15.99 32.54 L20.73 30.93 L20.65 30.87 L21.2 30.68 L21.32 30.62 L21.41 30.53 L21.44 30.56 L21.41 30.59 L21.42 30.63 L21.37 30.62 L21.35 30.64 L21.41 30.66 L22.24 30 L22.19 29.97 L22.2 29.96 L22.18 29.92 L25.41 27.49 L25.42 27.49 L27.03 26.23 L31.47 20.65 L31.52 20.62 L31.55 20.64 L31.64 20.53 L31.67 20.53 L31.73 20.59 L31.77 20.59 L33.39 14.64 L33.38 14.6 L33.39 14.58 L33.45 14.59 L33.49 14.56 L33.53 14.58 L33.59 14.63 L33.62 14.71 L33.79 14.82 L33.82 14.93 L33.87 15.01 L33.92 15.06 L34.05 15.06 L34.17 15.2 L34.3 15.2 L34.43 15.07 L34.55 15.04 L34.65 15.05 L34.71 15.09 L34.91 15.07 L35 15.11 L35.13 15.07 L35.18 15.12 L35.33 15.06 L35.21 14.93 L35.11 14.9 L34.96 14.79 L34.88 14.66 L34.87 14.62 L34.9 14.55 L35 14.4 L34.98 14.24 L35 14.09 L34.99 14.02 L34.97 13.98 L34.9 13.92 L34.81 13.9 L34.78 13.87 L34.71 13.74 L34.7 13.69 L34.77 13.58 L34.8 13.49 L34.8 13.37 L34.73 13.33 L34.54 13.25 L34.55 13.17 L34.65 13.11 L34.67 13.09 L34.68 13.04 L34.61 12.94 L34.53 12.91 L34.5 12.88 L34.46 12.8 L34.43 12.69 L34.44 12.53 L34.56 12.42 L34.65 12.4 L34.67 12.33 L34.59 12.28 L34.48 12.13 L34.48 12.04 L34.61 11.93 L34.61 11.9 L34.62 11.95 L34.6 11.97 L34.64 11.98 L34.65 11.86 L34.68 11.89 L34.73 11.9 L34.74 11.89 L34.71 11.85 L34.76 11.82 L34.81 11.88 L34.82 11.85 L34.8 11.81 L34.83 11.77 L34.82 11.75 L34.86 11.72 L34.95 11.71 L34.95 11.69 L34.92 11.68 L34.95 11.67 L34.95 11.66 L34.92 11.6 L34.89 11.6 L34.84 11.56 L34.84 11.49 L34.91 11.49 L34.89 11.47 L34.81 11.45 L34.84 11.42 L34.82 11.41 L34.82 11.35 L34.84 11.34 L34.84 11.28 L34.82 11.26 L34.82 11.23 L34.84 11.23 L34.87 11.25 L34.93 11.2 L34.97 11.15 L34.93 11.15 L34.93 11.12 L34.9 11.11 L34.86 11.05 L34.91 11.04 L34.92 11.02 L34.88 10.99 L34.89 10.96 L34.81 10.94 L34.74 10.9 L34.78 10.88 L34.79 10.85 L34.77 10.83 L34.78 10.82 L34.76 10.8 L34.75 10.76 L34.77 10.75 L34.73 10.72 L34.72 10.66 L34.68 10.66 L34.67 10.7 L34.65 10.7 L34.61 10.75 L34.59 10.75 L34.6 10.79 L34.57 10.8 L34.57 10.78 L34.54 10.76 L34.57 10.74 L34.58 10.7 L34.54 10.71 L34.54 10.69 L34.5 10.69 L34.47 10.62 L34.49 10.59 L34.51 10.6 L34.51 10.57 L34.53 10.55 L34.51 10.54 L34.52 10.52 L34.51 10.51 L34.5 10.53 L34.5 10.5 L34.48 10.5 L34.47 10.52 L34.42 10.46 L34.37 10.44 L34.38 10.46 L34.35 10.49 L34.36 10.51 L34.33 10.5 L34.28 10.53 L34.27 10.51 L34.28 10.49 L34.26 10.48 L34.26 10.44 L34.23 10.43 L34.23 10.4 L34.19 10.42 L34.17 10.4 L34.15 10.43 L34.14 10.4 L34.11 10.42 L34.11 10.38 L34.1 10.37 L34.09 10.35 L34.14 10.33 L34.11 10.3 L34.14 10.28 L34.12 10.27 L34.13 10.25 L34.11 10.26 L34.1 10.24 L34.11 10.23 L34.13 10.23 L34.13 10.22 L34.11 10.21 L34.1 10.14 L34.08 10.15 L34.08 10.12 L34.06 10.1 L34.05 10.13 L33.97 10.09 L33.97 10.05 L33.99 10.05 L33.99 10.01 L33.93 10 L33.9 10.03 L33.91 10.05 L33.89 10.06 L33.88 10.09 L33.86 10.08 L33.84 10.1 L33.82 10.09 L33.81 10.12 L33.77 10.12 L33.75 10.08 L33.73 10.1 L33.74 10.08 L33.71 10.07 L33.71 10 L33.69 9.95 L33.63 9.95 L33.62 9.92 L33.6 9.92 L33.6 9.94 L33.58 9.94 L33.55 9.92 L33.55 9.9 L33.51 9.91 L33.5 9.87 L33.45 9.87 L33.44 9.85 L33.41 9.86 L33.41 9.84 L33.38 9.83 L33.34 9.75 L33.33 9.64 L33.26 9.56 L33.27 9.54 L33.25 9.52 L33.26 9.5 L33.2 9.49 L33.18 9.5 L33.11 9.47 L33.09 9.36 L33.05 9.32 L33.03 9.33 L33.01 9.29 L33.03 9.25 L33.02 9.23 L32.96 9.21 L32.94 9.18 L32.95 9.14 L32.9 9.1 L32.88 9.06 L32.86 9.05 L32.86 8.98 L32.83 8.92 L32.8 8.91 L32.77 8.85 L32.74 8.85 L32.72 8.81 L32.73 8.81 L32.74 8.78 L32.7 8.77 L32.68 8.75 L32.7 8.74 L32.65 8.7 L32.66 8.67 L32.62 8.64 L32.64 8.6 L32.62 8.56 L32.64 8.53 L32.61 8.5 L32.57 8.51 L32.54 8.46 L32.56 8.46 L32.56 8.4 L32.59 8.35 L32.58 8.34 L32.55 8.27 L32.51 8.24 L32.5 8.23 L32.5 8.19 L32.48 8.15 L32.5 8.09 L32.47 8.06 L32.47 7.92 L32.4 7.89 L32.4 7.87 L32.36 7.83 L32.31 7.83 L32.31 7.8 L32.28 7.77 L32.28 7.72 L32.19 7.65 L32.16 7.53 L32.12 7.52 L32.09 7.52 L32.05 7.45 L32 7.42 L31.93 7.33 L31.89 7.32 L31.84 7.36 L31.81 7.36 L31.73 7.38 L31.7 7.41 L31.62 7.42 L31.53 7.35 L31.44 7.46 L31.32 7.5 L31.29 7.48 L31.23 7.49 L31.22 6.72 L31.25 6.72 L31.24 6.7 L31.26 6.68 L31.31 6.69 L31.32 6.71 L31.34 6.71 L31.33 6.72 L31.34 6.74 L31.38 6.75 L31.36 6.79 L31.39 6.76 L31.4 6.8 L31.42 6.79 L31.42 6.81 L31.46 6.78 L31.47 6.8 L31.49 6.8 L31.5 6.78 L31.5 6.8 L31.54 6.79 L31.55 6.81 L31.59 6.83 L31.6 6.84 L31.58 6.85 L31.6 6.87 L31.63 6.85 L31.63 6.9 L31.67 6.87 L31.66 6.9 L31.72 6.88 L31.73 6.89 L31.76 6.87 L31.79 6.87 L31.78 6.89 L31.79 6.89 L31.79 6.82 L31.82 6.82 L31.86 6.77 L31.89 6.79 L31.88 6.76 L31.91 6.74 L31.95 6.76 L31.95 6.74 L31.97 6.75 L31.99 6.77 L32.03 6.75 L32.06 6.76 L32.09 6.74 L32.11 6.75 L32.14 6.74 L32.16 6.77 L32.2 6.77 L32.18 6.79 L32.24 6.77 L32.25 6.81 L32.24 6.82 L32.3 6.88 L32.4 6.88 L32.42 6.9 L32.44 6.89 L32.46 6.9 L32.45 6.92 L32.5 6.91 L32.49 6.93 L32.52 6.93 L32.51 6.95 L32.58 6.97 L32.58 6.99 L32.6 6.97 L32.62 6.99 L32.61 7.02 L32.63 7.02 L32.63 7.04 L32.66 7.06 L32.65 7.07 L32.68 7.1 L32.7 7.09 L32.72 7.1 L32.74 7.07 L32.76 7.1 L32.76 7.07 L32.82 7.12 L32.95 7.11 L32.98 7.13 L33.01 7.14 L33 7.15 L33.01 7.16 L33.04 7.15 L33.04 7.18 L33.08 7.18 L33.1 7.22 L33.14 7.24 L33.15 7.23 L33.16 7.25 L33.2 7.25 L33.24 7.21 L33.34 7.22 L33.4 7.25 L33.39 7.23 L33.41 7.24 L33.48 7.24 L33.49 7.22 L33.52 7.22 L33.51 7.19 L33.53 7.2 L33.56 7.18 L33.57 7.22 L33.58 7.14 L33.58 7.11 L33.61 7.04 L33.66 7.05 L33.67 7.07 L33.69 7.05 L33.72 7.06 L33.68 7.11 L33.7 7.14 L33.68 7.15 L33.7 7.16 L33.68 7.17 L33.65 7.15 L33.69 7.2 L33.78 7.13 L33.81 7.12 L33.87 7.14 L33.89 7.12 L33.91 7.13 L33.94 7.13 L33.97 7.15 L33.99 7.14 L34.01 7.17 L34.05 7.15 L34.07 7.16 L34.09 7.13 L34.11 7.14 L34.15 7.13 L34.17 7.08 L34.19 7.11 L34.24 7.09 L34.24 7.13 L34.27 7.06 L34.34 7.12 L34.36 7.09 L34.39 7 L34.49 6.9 L34.62 6.86 L34.66 6.78 L34.65 6.76 L34.75 6.69 L34.98 6.39 L35.01 6.34 L35.05 6.15 L35.09 6.09 L35.21 6.03 L35.31 6 L35.36 6 L35.55 6.05 L35.65 6.12 L35.7 6.2 L35.76 6.24 L35.88 6.3 L36.05 6.36 L36.36 6.4 L36.49 6.52 L36.59 6.66 L36.65 6.69 L36.74 6.71 L36.88 6.86 L36.93 6.98 L37.11 7.06 L37.31 7.07 L37.36 7.09 L37.41 7.15 L37.44 7.23 L37.51 7.31 L37.57 7.54 L37.62 7.57 L37.76 7.57 L37.79 7.63 L37.81 7.79 L37.84 7.83 L37.91 7.83 L37.93 7.81 L37.97 7.69 L37.95 7.64 L37.95 7.59 L37.97 7.58 L38.05 7.63 L38.11 7.76 L38.17 7.92 L38.25 7.96 L38.53 7.93 L38.61 7.88 L38.69 7.79 L38.73 7.65 L38.77 7.6 L38.82 7.57 L38.91 7.54 L39.01 7.45 L39.1 7.43 L39.15 7.45 L39.46 7.8 L39.64 8.29 L39.75 8.42 L39.77 8.61 L39.73 8.86 L39.77 8.92 L39.9 9 L39.95 9.01 L39.99 8.99 L40.08 8.86 L40.13 8.82 L40.2 8.81 L40.27 8.82 L40.28 8.85 L40.24 8.97 L40.24 9.05 L40.3 9.22 L40.34 9.24 L40.43 9.26 L40.46 9.24 L40.52 9.14 L40.76 9.08 L40.87 9.02 L40.92 9.02 L40.94 9.05 L40.94 9.09 L40.91 9.16 L41.01 9.21 L41.04 9.31 L41.07 9.33 L41.14 9.35 L41.37 9.51 L41.54 9.66 L41.61 9.97 L41.66 10.09 L41.71 10.15 L41.77 10.17 L41.83 10.18 L41.93 10.11 L41.99 10.1 L42.03 10.13 L42.04 10.17 L41.97 10.31 L42 10.35 L42.1 10.35 L42.19 10.22 L42.25 10.22 L42.28 10.24 L42.31 10.33 L42.34 10.35 L42.45 10.37 L42.6 10.45 L42.72 10.46 L42.76 10.48 L42.77 10.52 L42.73 10.71 L42.72 10.91 L42.77 10.96 L42.91 10.96 L42.97 10.87 L43.01 10.85 L43.03 10.87 L43.08 10.98 L43.06 11.2 L43.14 11.35 L43.14 11.43 L43.2 11.52 L43.3 11.56 L43.35 11.71 L43.33 11.79 L43.24 11.88 L43.21 11.93 L43.22 11.98 L43.29 12.06 L43.44 12.12 L43.47 12.12 L43.54 12.19 L43.55 12.22 L43.56 12.27 L43.55 12.34 L43.53 12.4 L43.46 12.47 L43.41 12.48 L43.36 12.53 L43.23 12.53 L43.19 12.58 L43.22 12.73 L43.24 12.77 L43.32 12.83 L43.4 12.86 L43.47 12.96 L43.52 12.99 L43.73 12.94 L43.84 12.98 L43.86 13.01 L43.84 13.1 L43.75 13.16 L43.75 13.28 L43.77 13.33 L43.82 13.31 L43.9 13.32 L43.93 13.29 L43.97 13.18 L44.02 13.14 L44.09 13.14 L44.12 13.16 L44.14 13.21 L44.14 13.26 L44.07 13.33 L44.05 13.39 L44.02 13.48 L44.02 13.56 L44.03 13.59 L44.13 13.66 L44.17 13.66 L44.26 13.63 L44.28 13.59 L44.4 13.56 L44.42 13.57 L44.46 13.64 L44.45 13.68 L44.36 13.69 L44.25 13.82 L44.22 13.91 L44.27 14.08 L44.21 14.17 L44.14 14.17 L44.12 14.13 L44.08 14.09 L44 14.02 L43.94 14.01 L43.88 14.01 L43.82 14.04 L43.75 14.13 L43.74 14.21 L43.82 14.31 L43.96 14.29 L44.02 14.35 L44.17 14.42 L44.2 14.51 L44.2 14.61 L44.31 14.78 L44.27 14.88 L44.19 14.97 L44.17 15.02 L44.17 15.07 L44.21 15.12 L44.29 15.17 L44.53 15.28 L44.65 15.38 L44.71 15.41 L44.82 15.43 L44.91 15.42 L45.12 15.36 L45.23 15.39 L45.34 15.45 L45.53 15.6 L45.73 15.68 L45.84 15.7 L45.98 15.77 L46.25 15.85 L46.34 15.82 L46.48 15.64 L46.49 15.59 L46.47 15.53 L46.49 15.42 L46.57 15.34 L46.65 15.34 L46.71 15.45 L46.71 15.49 L46.63 15.69 L46.61 15.81 L46.66 15.93 L46.67 16.08 L46.77 16.25 L46.84 16.31 L47.01 16.35 L47.06 16.31 L47.11 16.17 L47.18 16.13 L47.24 16.13 L47.3 16.18 L47.31 16.26 L47.28 16.32 L47.17 16.41 L47.15 16.51 L47.19 16.55 L47.28 16.6 L47.43 16.6 L47.48 16.59 L47.59 16.48 L47.63 16.46 L47.7 16.46 L47.74 16.49 L47.78 16.55 L47.85 16.79 L47.84 16.92 L47.88 17 L48.07 17.2 L48.12 17.28 L48.13 17.5 L48.18 17.54 L48.37 17.61 L48.53 17.6 L48.59 17.64 L48.67 17.73 L48.72 17.74 L48.81 17.73 L48.85 17.67 L48.88 17.65 L48.93 17.64 L48.97 17.68 L48.94 17.82 L49.04 17.85 L49.11 17.84 L49.15 17.8 L49.24 17.56 L49.24 17.31 L49.28 17.26 L49.33 17.26 L49.33 17.42 L49.37 17.65 L49.39 17.7 L49.46 17.76 L49.6 17.79 L49.73 17.77 L49.79 17.74 L49.85 17.68 L49.94 17.64 L50 17.66 L50.06 17.7 L50.1 17.73 L50.18 17.87 L50.29 17.93 L50.39 17.94 L50.47 17.91 L50.5 17.87 L50.53 17.88 L50.54 17.9 L50.55 18.01 L50.57 18.29 L50.6 18.41 L50.63 18.44 L50.76 18.51 L50.82 18.5 L50.96 18.41 L51.01 18.42 L51.03 18.45 L51.03 18.5 L51 18.56 L50.93 18.6 L50.91 18.65 L50.93 18.78 L50.94 18.84 L51.07 18.95 L51.12 19.03 L51.2 19.21 L51.19 19.33 L51.12 19.4 L51.08 19.4 L50.97 19.35 L50.9 19.34 L50.87 19.34 L50.84 19.37 L50.86 19.44 L50.97 19.5 L51.26 19.48 L51.37 19.53 L51.39 19.64 L51.39 19.79 L51.46 19.89 L51.59 20 L51.78 20.01 L51.82 20.12 L51.78 20.22 L51.74 20.25 L51.73 20.29 L51.74 20.33 L51.88 20.38 L51.89 20.46 L51.84 20.59 L51.72 20.65 L51.69 20.7 L51.69 20.79 L51.81 20.89 L51.87 20.91 L51.91 20.92 L51.95 20.88 L51.96 20.84 L52.01 20.82 L52.06 20.83 L52.09 20.86 L52.09 20.9 L52.03 21.04 L51.67 21.34 L51.53 21.49 L51.52 21.6 L51.54 21.69 L51.54 21.74 L51.45 21.85 L51.39 21.89 L51.32 21.95 L51.29 22.03 L51.31 22.11 L51.39 22.19 L51.49 22.26 L51.63 22.3 L51.7 22.39 L51.79 22.42 L52.02 22.45 L52.23 22.59 L52.34 22.82 L52.34 22.95 L52.37 22.98 L52.51 22.96 L52.74 22.82 L52.82 22.82 L52.92 22.87 L53.17 23.06 L53.25 23.07 L53.34 23.13 L53.39 23.3 L53.46 23.33 L53.53 23.34 L53.59 23.33 L53.63 23.31 L53.63 23.23 L53.55 23.14 L53.53 23.05 L53.53 22.96 L53.58 22.89 L53.64 22.85 L53.76 22.85 L53.96 22.92 L54.08 22.89 L54.13 22.89 L54.17 22.93 L54.18 22.99 L54.14 23.02 L54.05 23.04 L54.02 23.08 L54.04 23.14 L54.18 23.14 L54.25 23.1 L54.3 23.06 L54.31 22.98 L54.29 22.71 L54.32 22.62 L54.37 22.58 L54.42 22.58 L54.48 22.59 L54.67 22.97 L54.81 23.06 L54.9 23.09 L55.04 23.09 L55.11 23.12 L55.13 23.29 L55.04 23.54 L55.03 23.63 L55.09 23.72 L55.26 23.77 L55.38 23.77 L55.44 23.79 L55.48 23.87 L55.48 23.98 L55.39 24.12 L55.39 24.19 L55.45 24.53 L55.41 24.68 L55.41 24.81 L55.35 24.95 L55.35 25.1 L55.47 25.23 L55.55 25.25 L55.61 25.3 L55.64 25.39 L55.63 25.44 L55.44 25.65 L55.43 25.73 L55.47 25.79 L55.53 25.82 L55.62 25.83 L55.76 25.82 L55.82 25.82 L55.85 25.85 L55.86 25.92 L55.85 26 L55.8 26.04 L55.75 26.09 L55.48 26.22 L55.41 26.28 L55.38 26.36 L55.35 26.59 L55.29 26.74 L55.25 26.79 L55.21 26.82 L55.15 26.83 L54.94 26.82 L54.89 26.85 L54.88 26.95 L54.92 27.26 L54.99 27.41 L55.05 27.52 L55.22 27.68 L55.32 27.74 L55.34 27.8 L55.33 27.88 L55.36 27.96 L55.32 28.12 L55.33 28.15 L55.38 28.19 L55.47 28.19 L55.56 28.17 L55.59 28.18 L55.71 28.26 L55.79 28.28 L55.84 28.33 L55.88 28.42 L55.88 28.48 L55.93 28.54 L55.96 28.56 L56.01 28.56 L56.08 28.52 L56.13 28.47 L56.14 28.37 L56.13 28.23 L56.15 28.18 L56.29 28.16 L56.32 28.18 L56.35 28.21 L56.35 28.3 L56.39 28.41 L56.47 28.5 L56.54 28.53 L56.57 28.52 L56.62 28.48 L56.7 28.35 L56.75 28.34 L56.79 28.37 L56.82 28.42 L56.85 28.55 L56.95 28.67 L56.98 28.89 L57.02 28.94 L57.15 29.02 L57.21 29.11 L57.2 29.22 L57.14 29.35 L57.14 29.41 L57.17 29.44 L57.23 29.44 L57.35 29.34 L57.39 29.33 L57.57 29.33 L57.73 29.27 L57.79 29.28 L57.92 29.27 L58.19 29.17 L58.23 29.1 L58.47 28.98 L58.54 28.93 L58.6 28.85 L58.66 28.88 L58.7 28.84 L58.73 28.83 L58.83 28.87 L58.87 28.9 L58.89 29.07 L58.92 29.13 L58.97 29.15 L59.04 29.15 L59.13 29.07 L59.16 28.82 L59.25 28.76 L59.36 28.79 L59.51 28.96 L59.57 29.14 L59.52 29.25 L59.51 29.3 L59.55 29.38 L59.61 29.4 L59.74 29.32 L59.81 29.24 L59.81 29.07 L59.83 28.99 L59.92 28.9 L60 28.85 L60.06 28.77 L60.06 28.67 L60.01 28.58 L60.01 28.55 L60.05 28.49 L60.1 28.49 L60.2 28.52 L60.35 28.54 L60.46 28.57 L60.58 28.74 L60.72 28.89 L60.95 28.91 L61.27 29.03 L61.38 29.02 L61.46 29.08 L61.55 29.1 L61.63 29.08 L61.67 29.09 L61.75 29.12 L61.9 29.23 L62.04 29.26 L62.09 29.26 L62.19 29.15 L62.24 29.03 L62.28 29.04 L62.4 29.28 L62.55 29.4 L62.56 29.49 L62.54 29.65 L62.56 29.72 L62.64 29.76 L62.71 29.75 L62.81 29.68 L63.06 29.6 L63.11 29.6 L63.31 29.62 L63.36 29.61 L63.39 29.6 L63.43 29.55 L63.45 29.45 L63.47 29.41 L63.54 29.41 L63.68 29.46 L63.73 29.46 L63.76 29.4 L63.75 29.35 L63.71 29.31 L63.69 29.25 L63.73 29.2 L63.84 29.19 L63.92 29.19 L64.1 29.33 L64.14 29.34 L64.25 29.32 L64.45 29.17 L64.5 29.16 L64.58 29.17 L64.64 29.2 L64.67 29.29 L64.6 29.45 L64.6 29.54 L64.63 29.63 L64.69 29.66 L64.74 29.65 L64.8 29.59 L64.86 29.52 L64.89 29.44 L64.94 29.28 L64.93 29.11 L64.95 29.02 L64.97 28.98 L65.25 28.81 L65.31 28.75 L65.68 28.27 L65.8 28.26 L65.88 28.29 L65.98 28.36 L66.1 28.53 L66.14 28.57 L66.23 28.6 L66.35 28.57 L66.49 28.57 L66.61 28.49 L66.68 28.48 L66.76 28.5 L66.8 28.53 L66.86 28.69 L66.93 28.71 L66.98 28.69 L67.02 28.63 L67.02 28.55 L66.9 28.35 L66.85 28.24 L66.84 28.13 L66.84 28.09 L66.87 28.06 L66.94 28.02 L67.06 28.02 L67.24 28.06 L67.35 28.04 L67.48 27.87 L67.61 27.41 L67.81 26.95 L67.86 26.88 L67.9 26.86 L67.99 26.88 L68.09 27 L68.15 27.01 L68.2 26.97 L68.25 26.83 L68.31 26.79 L68.38 26.79 L68.44 26.76 L68.51 26.7 L68.63 26.7 L68.66 26.68 L68.71 26.63 L68.71 26.59 L68.67 26.45 L68.73 26.41 L68.88 26.39 L68.91 26.41 L68.95 26.45 L68.97 26.63 L68.96 26.71 L68.89 26.89 L68.86 27.03 L68.86 27.13 L68.94 27.19 L69.02 27.21 L69.11 27.2 L69.25 27.12 L69.41 27 L69.52 26.96 L69.64 26.96 L69.82 27.01 L70.01 27.22 L70.12 27.25 L70.3 27.35 L70.58 27.42 L70.83 27.42 L70.89 27.44 L70.92 27.48 L70.92 27.72 L70.89 27.92 L70.96 28.12 L70.99 28.28 L71.03 28.36 L71.08 28.42 L71.13 28.44 L71.22 28.45 L71.29 28.38 L71.29 28.29 L71.27 28.22 L71.14 27.9 L71.12 27.78 L71.13 27.71 L71.16 27.68 L71.21 27.66 L71.35 27.64 L71.47 27.67 L71.54 27.71 L71.61 27.79 L71.66 27.91 L71.73 28 L71.76 28.1 L71.82 28.17 L72.06 28.35 L72.1 28.43 L72.08 28.56 L71.99 28.75 L72 28.82 L72.05 28.95 L72.09 28.97 L72.16 28.97 L72.21 28.94 L72.27 28.9 L72.32 28.83 L72.45 28.75 L72.53 28.73 L72.72 28.73 L72.82 28.69 L72.9 28.61 L72.94 28.48 L73 28.36 L73.11 28.31 L73.21 28.32 L73.24 28.36 L73.25 28.43 L73.24 28.51 L73.12 28.68 L73.12 28.72 L73.17 28.77 L73.22 28.78 L73.26 28.77 L73.31 28.73 L73.47 28.4 L73.57 28.32 L73.66 28.31 L73.71 28.32 L73.79 28.38 L73.93 28.59 L74.04 28.69 L74.12 28.71 L74.21 28.7 L74.28 28.61 L74.3 28.33 L74.34 28.29 L74.46 28.27 L74.6 28.35 L74.64 28.35 L74.67 28.31 L74.67 28.21 L74.65 28.15 L74.56 27.99 L74.55 27.9 L74.66 27.78 L74.78 27.74 L74.97 27.75 L75.08 27.73 L75.18 27.69 L75.45 27.63 L75.51 27.59 L75.58 27.57 L75.61 27.58 L75.72 27.65 L75.81 27.74 L75.93 27.91 L75.97 27.93 L76.04 27.95 L76.1 27.93 L76.14 27.88 L76.12 27.75 L76.1 27.69 L76 27.58 L75.91 27.41 L75.87 27.26 L75.91 27.15 L75.98 27.07 L76.04 27.05 L76.16 27.05 L76.33 27.09 L76.42 27.16 L76.45 27.3 L76.49 27.35 L76.61 27.45 L76.74 27.48 L76.79 27.48 L76.85 27.43 L76.97 27.29 L77 27.21 L77.03 27.19 L77.16 27.16 L77.31 27.17 L77.47 27.27 L77.63 27.72 L77.71 27.81 L77.83 27.88 L78.09 27.85 L78.21 27.87 L78.28 27.9 L78.35 27.95 L78.41 28.13 L78.52 28.21 L79.15 28.37 L79.25 28.4 L79.31 28.44 L79.33 28.51 L79.32 28.59 L79.2 28.76 L79.17 28.94 L79.22 29 L79.26 29.01 L79.41 29.01 L79.58 28.89 L79.64 28.88 L79.66 28.89 L79.67 28.97 L79.64 29.17 L79.54 29.36 L79.53 29.48 L79.55 29.52 L79.6 29.6 L79.69 29.67 L79.81 29.71 L80 29.73 L80.17 29.69 L80.33 29.6 L80.38 29.53 L80.38 29.44 L80.34 29.37 L80.27 29.32 L80.02 29.23 L79.97 29.17 L79.97 29.14 L80.02 29.1 L80.22 29.09 L80.32 29.12 L80.42 29.17 L80.55 29.35 L80.66 29.57 L80.73 29.62 L80.83 29.65 L80.93 29.62 L81.1 29.48 L81.15 29.47 L81.17 29.48 L81.33 29.72 L81.38 29.96 L81.42 30.05 L81.54 30.15 L81.63 30.16 L81.71 30.13 L81.94 29.9 L82.04 29.84 L82.13 29.81 L82.28 29.84 L82.49 29.92 L82.66 29.91 L82.72 29.93 L82.77 29.97 L82.78 30.02 L82.78 30.07 L82.74 30.16 L82.71 30.2 L82.59 30.25 L82.38 30.26 L82.25 30.32 L82.2 30.37 L82.17 30.43 L82.17 30.48 L82.19 30.53 L82.28 30.6 L82.4 30.66 L82.58 30.66 L82.7 30.62 L82.86 30.51 L83.02 30.33 L83.1 30.31 L83.26 30.36 L83.36 30.44 L83.44 30.57 L83.46 30.65 L83.46 30.96 L83.5 31.19 L83.56 31.35 L83.59 31.39 L83.67 31.43 L83.77 31.42 L83.82 31.36 L83.9 31.17 L83.96 31.16 L84.04 31.19 L84.1 31.25 L84.14 31.32 L84.16 31.39 L84.15 31.47 L84.1 31.65 L84.09 31.7 L84.14 31.75 L84.27 31.82 L84.41 31.86 L84.46 31.85 L84.5 31.82 L84.53 31.76 L84.63 31.54 L84.68 31.35 L84.76 31.3 L84.78 31.29 L84.81 31.31 L84.99 31.53 L85.02 31.61 L85.03 31.81 L84.99 31.99 L84.98 32.14 L85.01 32.26 L85.12 32.42 L84.98 32.7 L84.89 32.78 L83.65 34.71 L82.41 36.69 L78.86 42.27 L78.76 42.4 L78.98 42.39 L79.03 42.41 L79.1 42.46 L79.15 42.52 L79.22 42.78 L79.26 42.83 L79.34 42.88 L79.68 42.93 L79.95 42.85 L80.06 42.86 L80.12 42.89 L80.21 42.97 L80.35 43.16 L80.39 43.19 L80.69 43.28 L80.83 43.3 L81 43.29 L81.26 43.24 L81.6 43.13 L81.7 43.06 L81.98 42.74 L82.11 42.63 L82.22 42.58 L82.32 42.57 L82.39 42.59 L82.71 42.73 L82.82 42.8 L82.87 42.85 L82.98 43.03 L83.06 43.2 L83.11 43.25 L83.12 43.31 L83.21 43.38 L83.42 43.48 L83.74 43.54 L83.81 43.57 L83.84 43.61 L83.9 43.83 L83.94 44.08 L83.94 44.18 L83.92 44.28 L83.95 44.52 L84.02 44.72 L84.08 44.83 L84.15 44.89 L84.28 44.97 L84.79 45.07 L84.9 45.12 L85.03 45.22 L85.11 45.43 L85.27 45.7 L85.42 45.9 L85.47 46.08 L85.62 46.33 L85.76 46.44 L85.94 46.48 L86.04 46.52 L86.09 46.57 L86.1 46.61 L86.12 46.62 L86.13 46.73 L86.08 47.25 L85.9 47.6 L85.86 47.76 L85.88 47.86 L85.96 48 L86.05 48.1 L86.06 48.15 L86.02 48.17 L85.94 48.16 L85.72 48.06 L85.45 48.03 L85.37 47.99 L85.32 47.93 L85.25 47.82 L85.23 47.69 L85.2 47.62 L85.13 47.57 L85 47.56 L84.93 47.53 L84.89 47.5 L84.87 47.46 L84.87 47.4 L84.91 47.36 L85.11 47.38 L85.2 47.35 L85.24 47.3 L85.23 47.25 L85.18 47.24 L85.05 47.27 L84.93 47.19 L84.89 47.18 L84.76 47.22 L84.7 47.2 L84.66 47.16 L84.65 46.95 L84.63 46.92 L84.57 46.9 L84.55 46.9 L84.52 46.92 L84.51 46.97 L84.53 47.09 L84.49 47.16 L84.46 47.18 L84.39 47.17 L84.21 47.05 L84.16 47.04 L84.1 47.08 L84.07 47.22 L84 47.29 L83.97 47.37 L84.01 47.43 L84.12 47.48 L84.15 47.52 L84.15 47.6 L84.11 47.64 L83.99 47.64 L83.93 47.66 L83.91 47.69 L83.89 47.83 L83.84 47.89 L83.75 47.9 L83.69 47.88 L83.67 47.83 L83.69 47.74 L83.65 47.57 L83.58 47.46 L83.58 47.34 L83.56 47.3 L83.52 47.31 L83.51 47.43 L83.49 47.47 L83.45 47.48 L83.11 47.4 L83.05 47.33 L83.03 47.27 L83.05 47.26 L83.19 47.22 L83.24 47.19 L83.25 47.14 L83.25 47.08 L83.19 47.04 L83.14 47.04 L82.88 47.2 L82.82 47.2 L82.79 47.18 L82.87 47.12 L82.88 47.05 L82.67 46.94 L82.63 46.87 L82.63 46.82 L82.69 46.76 L82.89 46.7 L82.93 46.65 L82.91 46.52 L82.84 46.35 L82.83 46.25 L82.86 46.05 L82.79 45.96 L82.64 45.93 L82.55 45.81 L82.51 45.79 L82.47 45.8 L82.44 45.84 L82.45 46.02 L82.44 46.07 L82.4 46.12 L82.35 46.15 L82.3 46.13 L82.21 46.06 L82.13 45.94 L82.08 45.8 L81.96 45.71 L81.92 45.7 L81.83 45.74 L81.76 45.74 L81.58 45.72 L81.43 45.68 L81.37 45.72 L81.34 45.77 L81.43 45.88 L81.44 45.93 L81.43 45.97 L81.37 46 L81.29 45.95 L81.23 45.95 L81.17 46.09 L81.13 46.12 L81.09 46.09 L81.02 45.98 L80.98 45.96 L80.93 45.97 L80.89 46.04 L80.85 46.28 L80.82 46.32 L80.76 46.35 L80.7 46.34 L80.66 46.31 L80.64 46.27 L80.65 46.24 L80.72 46.14 L80.75 46.04 L80.75 45.96 L80.7 45.87 L80.56 45.74 L80.55 45.74 L80.46 45.83 L80.35 45.76 L80.29 45.74 L80.27 45.78 L80.29 45.81 L80.38 45.86 L80.38 45.93 L80.35 45.96 L80.26 45.99 L80.22 46.04 L80.22 46.08 L80.27 46.25 L80.27 46.32 L80.24 46.38 L80.19 46.44 L80.09 46.46 L80.05 46.44 L80.05 46.4 L80.17 46.22 L80.18 46.16 L80.17 46.12 L80.11 46.09 L79.93 46.23 L79.84 46.23 L79.65 46.29 L79.6 46.28 L79.49 46.16 L79.48 46.1 L79.5 46.02 L79.63 45.77 L79.65 45.67 L79.62 45.64 L79.37 45.65 L79.33 45.71 L79.32 45.78 L79.32 46 L79.29 45.99 L79.26 45.87 L79.23 45.82 L79.17 45.8 L79.13 45.81 L79.17 45.98 L79.16 46.08 L79.11 46.32 L79.02 46.42 L79 46.42 L78.98 46.4 L78.98 46.32 L78.93 46.24 L78.87 46.22 L78.69 46.24 L78.62 46.22 L78.54 46.17 L78.4 45.98 L78.35 45.96 L78.28 45.95 L78.2 45.98 L78.01 46.21 L77.95 46.22 L77.89 46.17 L77.86 46.18 L77.83 46.29 L77.8 46.31 L77.69 46.34 L77.62 46.47 L77.45 46.52 L77.42 46.59 L77.42 46.62 L77.45 46.65 L77.48 46.65 L77.58 46.56 L77.63 46.54 L77.68 46.55 L77.71 46.58 L77.71 46.64 L77.64 46.72 L77.59 46.84 L77.54 46.88 L77.5 46.88 L77.46 46.87 L77.37 46.8 L77.31 46.81 L77.27 46.83 L77.25 46.87 L77.26 46.93 L77.32 47.01 L77.42 47.07 L77.43 47.12 L77.4 47.15 L77.32 47.16 L77.25 47.2 L77.17 47.23 L77.11 47.27 L77.1 47.35 L77.14 47.45 L77.14 47.53 L77.1 47.56 L76.97 47.55 L76.9 47.58 L76.84 47.71 L76.8 47.85 L76.76 47.91 L76.74 47.92 L76.65 47.85 L76.58 47.88 L76.56 47.98 L76.58 48.1 L76.55 48.14 L76.45 48.07 L76.33 48.1 L76.24 48.09 L76.21 48.06 L76.2 47.93 L76.17 47.88 L76.08 47.8 L76 47.75 L75.96 47.77 L75.95 47.81 L76.04 47.92 L76.05 48.07 L76.04 48.12 L75.98 48.16 L75.89 48.17 L75.75 48.1 L75.7 48.2 L75.58 48.29 L75.52 48.28 L75.49 48.24 L75.49 48.2 L75.51 48.04 L75.47 47.98 L75.44 47.97 L75.4 48 L75.38 48.15 L75.32 48.19 L75.16 48.24 L75.12 48.2 L75.18 48.12 L75.18 48.05 L75.14 48.02 L75.03 48.03 L74.92 48.05 L74.87 48.09 L74.87 48.16 L74.9 48.23 L74.9 48.3 L74.87 48.35 L74.81 48.36 L74.76 48.34 L74.66 48.17 L74.6 48.13 L74.5 48.1 L74.46 48.13 L74.5 48.28 L74.47 48.32 L74.42 48.32 L74.41 48.22 L74.39 48.2 L74.31 48.23 L74.16 48.23 L74.14 48.25 L74.13 48.28 L74.12 48.46 L74.05 48.51 L74.02 48.5 L74 48.47 L73.93 48.29 L73.95 48.24 L74.01 48.15 L74.01 48.1 L73.98 48.08 L73.87 48.06 L73.84 48.08 L73.81 48.19 L73.82 48.31 L73.8 48.34 L73.76 48.35 L73.72 48.32 L73.75 48.21 L73.73 48.16 L73.69 48.12 L73.66 48.12 L73.58 48.19 L73.54 48.2 L73.39 48.13 L73.31 48.13 L73.26 48.15 L73.24 48.18 L73.23 48.26 L73.25 48.28 L73.34 48.21 L73.39 48.22 L73.41 48.24 L73.41 48.27 L73.34 48.34 L73.33 48.38 L73.38 48.47 L73.4 48.54 L73.38 48.57 L73.24 48.68 L73.19 48.69 L73.09 48.65 L73.05 48.61 L73 48.49 L72.94 48.43 L72.9 48.42 L72.83 48.46 L72.83 48.52 L72.85 48.56 L73.02 48.72 L72.99 48.82 L72.93 48.9 L72.91 48.88 L72.93 48.78 L72.9 48.71 L72.83 48.68 L72.64 48.68 L72.62 48.66 L72.62 48.57 L72.58 48.54 L72.54 48.55 L72.48 48.6 L72.44 48.62 L72.4 48.61 L72.27 48.53 L72.21 48.52 L72.16 48.55 L72.08 48.62 L72.05 48.71 L71.96 48.77 L71.88 48.91 L71.76 49.01 L71.71 49.03 L71.68 49.01 L71.68 48.97 L71.76 48.97 L71.79 48.95 L71.79 48.91 L71.73 48.85 L71.73 48.8 L71.76 48.74 L71.8 48.71 L71.91 48.69 L71.94 48.65 L71.93 48.63 L71.82 48.65 L71.74 48.56 L71.69 48.57 L71.68 48.61 L71.72 48.68 L71.73 48.73 L71.69 48.77 L71.6 48.76 L71.56 48.73 L71.58 48.64 L71.56 48.59 L71.46 48.68 L71.36 48.62 L71.32 48.61 L71.29 48.64 L71.31 48.72 L71.3 48.79 L71.26 48.84 L71.21 48.83 L71.06 48.66 L71.03 48.65 L70.99 48.69 L71.03 48.77 L71.02 48.85 L71.12 48.94 L71.15 49.01 L71.16 49.07 L71.14 49.12 L71.1 49.11 L71.04 49.03 L70.97 49.01 L70.92 48.97 L70.94 48.9 L70.93 48.88 L70.84 48.92 L70.73 48.9 L70.7 48.95 L70.74 49.03 L70.74 49.08 L70.71 49.08 L70.65 49.03 L70.52 49.04 L70.51 49.08 L70.57 49.08 L70.59 49.11 L70.51 49.17 L70.43 49.32 L70.18 49.51 L70.08 49.54 L69.99 49.54 L69.92 49.52 L69.83 49.44 L69.78 49.37 L69.79 49.34 L69.86 49.31 L69.92 49.26 L69.98 49.11 L70.01 49.03 L70.01 48.98 L70 48.95 L69.97 48.93 L69.91 48.96 L69.85 49.02 L69.88 49.14 L69.65 49.29 L69.62 49.28 L69.64 49.2 L69.66 49.06 L69.63 49.01 L69.59 48.97 L69.55 48.97 L69.53 49 L69.53 49.03 L69.57 49.08 L69.59 49.16 L69.59 49.2 L69.54 49.27 L69.4 49.31 L69.37 49.26 L69.26 49.23 L69.07 49.36 L68.97 49.31 L68.93 49.24 L68.79 49.22 L68.76 49.18 L68.76 49.09 L68.73 48.99 L68.69 48.95 L68.65 48.94 L68.62 48.97 L68.67 49.06 L68.68 49.13 L68.66 49.18 L68.61 49.24 L68.5 49.29 L68.48 49.29 L68.46 49.28 L68.47 49.19 L68.45 49.14 L68.39 49.1 L68.3 49.09 L68.28 49.1 L68.28 49.12 L68.34 49.18 L68.34 49.21 L68.32 49.22 L68.27 49.22 L68.24 49.21 L68.25 49.12 L68.24 49.1 L68.19 49.15 L68.11 49.16 L68.08 49.19 L68.07 49.2 L68.11 49.27 L68.1 49.3 L68.05 49.27 L67.97 49.26 L67.91 49.22 L67.87 49.22 L67.85 49.23 L67.85 49.26 L67.91 49.33 L67.88 49.4 L67.85 49.42 L67.83 49.4 L67.82 49.33 L67.79 49.31 L67.74 49.34 L67.62 49.38 L67.57 49.49 L67.54 49.52 L67.51 49.51 L67.46 49.44 L67.41 49.41 L67.35 49.42 L67.36 49.46 L67.34 49.48 L67.28 49.41 L67.14 49.41 L67.12 49.43 L67.13 49.46 L67.19 49.49 L67.24 49.47 L67.27 49.49 L67.35 49.57 L67.35 49.62 L67.34 49.64 L67.3 49.64 L67.26 49.57 L67.23 49.55 L67.12 49.56 L67.03 49.54 L66.99 49.62 L67.02 49.64 L66.97 49.67 L66.94 49.71 L66.95 49.73 L67 49.76 L67.02 49.88 L67 49.89 L66.96 49.85 L66.92 49.85 L66.89 49.89 L66.94 49.94 L66.87 50.01 L66.84 50.02 L66.75 50.02 L66.71 50.04 L66.73 50.1 L66.79 50.17 L66.78 50.19 L66.74 50.2 L66.71 50.22 L66.72 50.25 L66.75 50.3 L66.68 50.32 L66.62 50.28 L66.57 50.34 L66.52 50.31 L66.46 50.34 L66.39 50.26 L66.29 50.32 L66.28 50.35 L66.3 50.37 L66.37 50.35 L66.37 50.41 L66.41 50.45 L66.41 50.49 L66.4 50.5 L66.32 50.48 L66.22 50.51 L66.19 50.58 L66.19 50.67 L66.16 50.66 L66.11 50.61 L66.08 50.53 L65.83 50.45 L65.82 50.47 L65.83 50.51 L65.88 50.59 L65.87 50.64 L65.85 50.66 L65.8 50.65 L65.8 50.73 L65.78 50.75 L65.76 50.75 L65.71 50.71 L65.68 50.7 L65.58 50.8 L65.59 50.83 L65.66 50.89 L65.66 50.94 L65.63 50.96 L65.6 50.96 L65.59 50.87 L65.56 50.84 L65.46 50.89 L65.45 50.94 L65.5 50.98 L65.49 51.01 L65.44 51.04 L65.4 51.01 L65.37 51.02 L65.36 51.1 L65.28 51.18 L65.25 51.26 L65.15 51.25 L65.13 51.27 L65.14 51.32 L65.09 51.31 L65.04 51.35 L65.03 51.38 L65.07 51.47 L65.02 51.53 L64.97 51.54 L64.94 51.5 L64.97 51.46 L65 51.44 L65.01 51.41 L64.95 51.39 L64.89 51.31 L64.82 51.43 L64.68 51.47 L64.67 51.49 L64.7 51.53 L64.69 51.54 L64.57 51.53 L64.49 51.59 L64.37 51.64 L64.36 51.65 L64.41 51.67 L64.42 51.69 L64.37 51.81 L64.35 51.81 L64.34 51.8 L64.37 51.74 L64.3 51.76 L64.28 51.7 L64.21 51.66 L64.18 51.72 L64.12 51.71 L64.08 51.73 L64.1 51.77 L64.16 51.76 L64.18 51.78 L64.17 51.81 L64.14 51.86 L64.08 51.9 L64.03 51.86 L64.01 51.94 L63.95 51.93 L63.89 51.98 L63.86 51.99 L63.83 51.95 L63.82 51.85 L63.76 51.83 L63.74 51.85 L63.73 51.93 L63.7 51.98 L63.76 52.03 L63.77 52.08 L63.75 52.09 L63.71 52.04 L63.67 52.03 L63.65 52.05 L63.63 52.14 L63.6 52.16 L63.5 52.15 L63.48 52.13 L63.49 52.1 L63.55 52.06 L63.55 51.92 L63.53 51.89 L63.51 51.9 L63.49 52.01 L63.36 51.94 L63.31 51.93 L63.27 52.08 L63.23 52.07 L63.2 52.03 L63.24 51.98 L63.23 51.92 L63.08 51.97 L63.05 51.99 L63.05 52.03 L63.13 52.06 L63.1 52.13 L63.12 52.24 L63.1 52.28 L63.08 52.3 L63.07 52.29 L63.1 52.22 L63.08 52.19 L62.95 52.21 L62.98 52.14 L62.95 52.1 L62.92 52.12 L62.91 52.21 L62.89 52.24 L62.77 52.23 L62.69 52.2 L62.65 52.21 L62.63 52.25 L62.68 52.33 L62.75 52.37 L62.75 52.4 L62.71 52.42 L62.63 52.38 L62.57 52.39 L62.53 52.41 L62.53 52.43 L62.61 52.45 L62.63 52.48 L62.51 52.47 L62.46 52.5 L62.48 52.52 L62.56 52.51 L62.59 52.53 L62.59 52.56 L62.53 52.61 L62.51 52.66 L62.51 52.7 L62.54 52.74 L62.48 52.75 L62.46 52.78 L62.48 52.81 L62.53 52.84 L62.54 52.86 L62.51 52.89 L62.49 52.89 L62.45 52.83 L62.4 52.88 L62.35 52.89 L62.33 52.92 L62.34 53 L62.3 53.03 L62.25 53 L62.24 52.91 L62.19 52.89 L62.15 52.91 L62.13 52.93 L62.13 52.96 L62.21 53.02 L62.18 53.07 L62.21 53.12 L62.2 53.15 L62.13 53.14 L62.07 53.16 L62.06 53.23 L62.03 53.24 L61.98 53.23 L61.94 53.12 L61.83 53.15 L61.83 53.06 L61.76 53.08 L61.68 53.05 L61.66 53.08 L61.7 53.11 L61.69 53.19 L61.74 53.17 L61.76 53.24 L61.83 53.25 L61.86 53.29 L61.8 53.31 L61.79 53.37 L61.67 53.35 L61.64 53.38 L61.61 53.45 L61.64 53.51 L61.64 53.55 L61.56 53.63 L61.52 53.64 L61.5 53.63 L61.54 53.55 L61.53 53.49 L61.5 53.46 L61.46 53.48 L61.43 53.57 L61.43 53.61 L61.42 53.62 L61.32 53.58 L61.35 53.53 L61.34 53.48 L61.3 53.51 L61.18 53.45 L61.18 53.52 L61.16 53.58 L61.17 53.72 L61.15 53.71 L61.14 53.66 L61.12 53.65 L61.08 53.72 L61.01 53.76 L60.99 53.74 L61.03 53.69 L61.03 53.66 L60.98 53.65 L60.88 53.67 L60.88 53.76 L60.73 53.87 L60.72 53.95 L60.67 53.95 L60.6 53.92 L60.58 53.93 L60.58 54.06 L60.56 54.09 L60.51 54.06 L60.51 53.97 L60.47 53.94 L60.43 53.95 L60.43 54.05 L60.35 54.04 L60.32 54.06 L60.32 54.09 L60.34 54.1 L60.42 54.1 L60.4 54.14 L60.39 54.2 L60.28 54.26 L60.29 54.3 L60.35 54.4 L60.34 54.48 L60.33 54.49 L60.32 54.48 L60.3 54.42 L60.25 54.44 L60.22 54.49 L60.22 54.59 L60.19 54.62 L60.17 54.6 L60.16 54.5 L60.13 54.48 L60.11 54.5 L60.12 54.58 L60.08 54.66 L60.01 54.72 L59.99 54.71 L60.02 54.64 L60 54.57 L59.9 54.61 L59.88 54.7 L59.84 54.73 L59.82 54.72 L59.83 54.65 L59.79 54.68 L59.76 54.68 L59.71 54.57 L59.69 54.58 L59.69 54.62 L59.62 54.61 L59.58 54.62 L59.52 54.7 L59.46 54.69 L59.34 54.59 L59.32 54.6 L59.3 54.65 L59.27 54.68 L59.15 54.62 L59.14 54.63 L59.19 54.68 L59.18 54.72 L59.15 54.73 L59.1 54.69 L59.06 54.71 L59.07 54.76 L59.13 54.79 L59.14 54.83 L59.12 54.86 L59.06 54.85 L59.05 54.96 L59.03 54.98 L58.99 54.96 L58.9 54.87 L58.88 54.86 L58.88 54.93 L58.83 54.93 L58.81 54.95 L58.84 54.99 L58.84 55.02 L58.79 55.04 L58.76 55.08 L58.72 55.08 L58.66 55.02 L58.62 55.02 L58.62 55.06 L58.65 55.11 L58.61 55.14 L58.61 55.19 L58.59 55.21 L58.57 55.2 L58.55 55.13 L58.5 55.18 L58.43 55.2 L58.31 55.11 L58.28 55.11 L58.26 55.15 L58.3 55.22 L58.29 55.32 L58.33 55.4 L58.31 55.45 L58.29 55.45 L58.26 55.39 L58.24 55.38 L58.22 55.4 L58.24 55.46 L58.22 55.49 L58.2 55.5 L58.15 55.45 L58.09 55.49 L57.97 55.51 L57.96 55.49 L57.98 55.43 L57.96 55.42 L57.88 55.46 L57.85 55.52 L57.8 55.49 L57.8 55.57 L57.73 55.57 L57.67 55.65 L57.61 55.69 L57.61 55.72 L57.64 55.8 L57.65 55.81 L57.68 55.78 L57.7 55.79 L57.69 55.91 L57.71 55.91 L57.74 55.87 L57.73 55.82 L57.78 55.84 L57.76 55.91 L57.73 55.92 L57.72 55.96 L57.78 56 L57.78 56.06 L57.77 56.07 L57.74 56.06 L57.73 56.08 L57.76 56.1 L57.82 56.1 L57.83 56.12 L57.83 56.15 L57.8 56.15 L57.79 56.21 L57.81 56.24 L57.8 56.3 L57.83 56.37 L57.81 56.39 L57.8 56.45 L57.75 56.51 L57.79 56.53 L57.78 56.64 L57.86 56.73 L57.8 56.76 L57.82 56.8 L57.79 56.84 L57.79 56.9 L57.78 56.91 L57.73 56.91 L57.76 56.96 L57.72 56.98 L57.73 57.04 L57.69 57.04 L57.67 57.07 L57.64 57.05 L57.61 57.07 L57.6 57.1 L57.64 57.09 L57.65 57.11 L57.61 57.14 L57.63 57.19 L57.59 57.17 L57.57 57.18 L57.6 57.23 L57.59 57.25 L57.57 57.26 L57.56 57.25 L57.53 57.25 L57.45 57.35 L57.44 57.38 L57.46 57.4 L57.48 57.37 L57.5 57.32 L57.53 57.32 L57.52 57.42 L57.48 57.43 L57.46 57.48 L57.51 57.49 L57.54 57.43 L57.59 57.51 L57.51 57.49 L57.45 57.53 L57.4 57.61 L57.44 57.64 L57.43 57.7 L57.39 57.69 L57.37 57.72 L57.3 57.75 L57.33 57.79 L57.34 57.82 L57.29 57.84 L57.29 57.92 L57.23 57.98 L57.24 58.05 L57.13 58.16 L57.13 58.2 L57.16 58.23 L57.11 58.25 L57.12 58.3 L57.09 58.37 L57.06 58.36 L56.99 58.41 L57 58.42 L57.05 58.43 L57.04 58.51 L56.93 58.61 L56.96 58.64 L56.93 58.67 L56.92 58.76 L56.93 58.77 L56.98 58.73 L57.02 58.76 L57.01 58.78 L56.96 58.81 L56.95 58.87 L56.9 58.9 L56.93 58.94 L56.89 59 L56.93 59.06 L56.92 59.16 L56.97 59.18 L56.98 59.24 L57 59.31 L56.98 59.35 L56.99 59.38 L57.02 59.38 L57.04 59.34 L57.12 59.35 L57.09 59.4 L57.04 59.41 L56.96 59.49 L56.95 59.52 L56.98 59.52 L57.01 59.57 L56.92 59.64 L56.93 59.67 L56.98 59.69 L56.92 59.72 L56.93 59.74 L56.99 59.74 L56.99 59.76 L56.96 59.77 L56.93 59.83 L56.88 59.83 L56.89 59.88 L56.79 60.03 L56.81 60.08 L56.77 60.12 L56.8 60.15 L56.83 60.12 L56.85 60.13 L56.87 60.2 L56.85 60.25 L56.88 60.29 L56.86 60.35 L56.89 60.37 L56.93 60.47 L56.9 60.49 L56.89 60.52 L56.81 60.47 L56.76 60.51 L56.68 60.52 L56.66 60.56 L56.64 60.57 L56.63 60.63 L56.67 60.64 L56.71 60.68 L56.66 60.72 L56.68 60.82 L56.6 60.85 L56.63 60.9 L56.62 60.94 L56.6 60.94 L56.58 60.9 L56.55 60.88 L56.51 60.95 L56.51 60.98 L56.54 60.97 L56.53 61.01 L56.57 61.02 L56.57 61.07 L56.51 61.07 L56.49 61.11 L56.46 61.11 L56.44 61.13 L56.44 61.16 L56.49 61.16 L56.48 61.2 L56.36 61.19 L56.27 61.21 L56.34 61.26 L56.34 61.28 L56.27 61.34 L56.24 61.34 L56.18 61.39 L56.13 61.4 L56.12 61.43 L56.08 61.45 L56.1 61.52 L56.06 61.57 L56.11 61.61 L56.1 61.63 L56.04 61.63 L56.02 61.62 L56 61.63 L56 61.65 L56.03 61.65 L56.05 61.69 L56.02 61.74 L56 61.75 L56.02 61.79 L56.01 61.82 L55.98 61.83 L55.95 61.8 L55.93 61.8 L55.93 61.83 L55.87 61.87 L55.85 61.84 L55.83 61.84 L55.82 61.9 L55.78 61.87 L55.76 61.87 L55.7 61.96 L55.73 61.98 L55.79 61.96 L55.78 62 L55.76 62.02 L55.68 62.01 L55.6 62.05 L55.61 62.07 L55.65 62.05 L55.67 62.05 L55.64 62.08 L55.66 62.14 L55.62 62.11 L55.55 62.11 L55.53 62.14 L55.49 62.13 L55.43 62.18 L55.44 62.24 L55.41 62.3 L55.44 62.43 L55.41 62.46 L55.39 62.47 L55.38 62.43 L55.35 62.42 L55.28 62.47 L55.3 62.5 L55.28 62.54 L55.21 62.47 L55.2 62.48 L55.23 62.52 L55.22 62.53 L55.18 62.53 L55.14 62.51 L55.12 62.54 L55.08 62.51 L55.03 62.56 L54.97 62.68 L54.98 62.69 L54.99 62.65 L55.01 62.64 L55.04 62.7 L54.91 62.79 L54.94 62.82 L54.91 62.86 L54.96 62.89 L54.95 62.9 L54.91 62.9 L54.92 62.96 L54.89 62.98 L54.86 63.02 L54.88 63.06 L54.85 63.12 L54.83 63.12 L54.83 63.07 L54.79 63.08 L54.78 63.21 L54.76 63.21 L54.73 63.26 L54.74 63.31 L54.78 63.33 L54.74 63.38 L54.74 63.41 L54.8 63.43 L54.77 63.47 L54.81 63.48 L54.82 63.5 L54.78 63.55 L54.78 63.61 L54.74 63.62 L54.73 63.69 L54.71 63.69 L54.69 63.65 L54.67 63.69 L54.7 63.7 L54.69 63.74 L54.74 63.81 L54.68 63.81 L54.67 63.85 L54.62 63.81 L54.58 63.86 L54.53 63.84 L54.52 63.89 L54.44 63.93 L54.45 63.96 L54.5 63.97 L54.49 63.98 L54.45 64 L54.42 63.97 L54.4 63.98 L54.39 64 L54.42 64.02 L54.42 64.04 L54.34 64.05 L54.34 64.09 L54.32 64.12 L54.28 64.1 L54.25 64.11 L54.27 64.15 L54.24 64.18 L54.24 64.2 L54.3 64.17 L54.33 64.17 L54.31 64.23 L54.28 64.22 L54.27 64.25 L54.28 64.26 L54.32 64.27 L54.32 64.29 L54.28 64.37 L54.32 64.42 L54.34 64.5 L54.31 64.52 L54.23 64.51 L54.23 64.53 L54.3 64.63 L54.25 64.63 L54.24 64.68 L54.26 64.72 L54.23 64.72 L54.22 64.75 L54.19 64.75 L54.19 64.81 L54.14 64.81 L54.17 64.84 L54.14 64.87 L54.16 64.91 L54.14 64.95 L54.14 65.01 L54.13 65.03 L54.17 65.06 L54.16 65.1 L54.18 65.13 L54.16 65.2 L54.19 65.26 L54.22 65.27 L54.23 65.3 L54.26 65.33 L54.3 65.34 L54.32 65.39 L54.42 65.48 L54.45 65.54 L54.46 65.62 L54.38 65.63 L54.38 65.64 L54.41 65.66 L54.41 65.69 L54.46 65.67 L54.5 65.71 L54.46 65.76 L54.46 65.78 L54.43 65.82 L54.45 65.87 L54.42 65.9 L54.49 65.95 L54.5 65.94 L54.48 65.92 L54.49 65.9 L54.53 65.89 L54.55 65.99 L54.58 66 L54.6 66.05 L54.63 66.09 L54.67 66.11 L54.68 66.2 L54.7 66.22 L54.73 66.22 L54.72 66.25 L54.74 66.28 L54.76 66.3 L54.79 66.26 L54.81 66.29 L54.86 66.29 L54.86 66.32 L54.89 66.33 L54.9 66.37 L54.99 66.43 L54.98 66.5 L55.01 66.51 L55.02 66.57 L55.02 66.58 L54.98 66.56 L54.98 66.57 L55.03 66.65 L55.01 66.69 L55.04 66.81 L55.03 66.89 L55.07 66.93 L55.09 66.9 L55.12 66.89 L55.1 66.96 L55.1 67.04 L55.13 67.04 L55.17 66.99 L55.18 67 L55.16 67.03 L55.18 67.07 L55.17 67.09 L55.2 67.23 L55.23 67.22 L55.28 67.27 L55.27 67.28 L55.25 67.28 L55.23 67.33 L55.23 67.34 L55.27 67.36 L55.25 67.4 L55.25 67.43 L55.26 67.44 L55.3 67.4 L55.31 67.43 L55.3 67.48 L55.33 67.56 L55.34 67.57 L55.36 67.53 L55.39 67.52 L55.55 67.71 L55.53 67.84 L55.46 67.84 L55.4 67.94 L55.47 68.03 L55.48 68.09 L55.46 68.12 L55.49 68.14 L55.48 68.2 L55.47 68.2 L55.46 68.17 L55.44 68.17 L55.43 68.24 L55.41 68.28 L55.39 68.25 L55.36 68.27 L55.31 68.25 L55.31 68.31 L55.29 68.35 L55.32 68.39 L55.27 68.43 L55.22 68.45 L55.22 68.48 L55.19 68.5 L55.19 68.53 L55.23 68.52 L55.22 68.56 L55.27 68.55 L55.28 68.57 L55.25 68.59 L55.28 68.65 L55.26 68.72 L55.23 68.77 L55.17 68.79 L55.19 68.72 L55.16 68.7 L55.08 68.81 L55.07 68.91 L54.98 68.9 L54.95 68.91 L54.96 68.94 L54.95 68.96 L54.92 68.93 L54.95 68.89 L54.89 68.83 L54.86 68.85 L54.88 68.89 L54.86 68.92 L54.81 68.88 L54.72 68.87 L54.72 68.93 L54.8 68.94 L54.83 68.99 L54.8 69.01 L54.79 69.04 L54.75 69.03 L54.72 69.04 L54.78 69.09 L54.71 69.08 L54.68 69.12 L54.67 69.07 L54.66 69.06 L54.64 69.11 L54.6 69.1 L54.66 69.17 L54.63 69.2 L54.59 69.16 L54.57 69.17 L54.57 69.23 L54.63 69.25 L54.63 69.26 L54.6 69.32 L54.58 69.33 L54.58 69.36 L54.54 69.36 L54.54 69.39 L54.48 69.39 L54.43 69.33 L54.43 69.28 L54.4 69.27 L54.31 69.35 L54.3 69.43 L54.34 69.47 L54.34 69.5 L54.31 69.51 L54.28 69.48 L54.19 69.46 L54.18 69.49 L54.24 69.53 L54.21 69.55 L54.16 69.47 L54.1 69.44 L54.09 69.47 L54.06 69.45 L54.05 69.49 L54.01 69.5 L53.99 69.48 L53.94 69.51 L53.94 69.56 L53.92 69.49 L53.89 69.5 L53.87 69.48 L53.86 69.5 L53.85 69.48 L53.83 69.5 L53.81 69.47 L53.8 69.51 L53.8 69.49 L53.77 69.49 L53.77 69.5 L53.7 69.51 L53.66 69.6 L53.6 69.55 L53.5 69.57 L53.48 69.53 L53.46 69.56 L53.47 69.58 L53.46 69.57 L53.43 69.58 L53.39 69.56 L53.39 69.58 L53.37 69.57 L53.37 69.59 L53.35 69.6 L53.36 69.63 L53.35 69.64 L53.31 69.56 L53.26 69.55 L53.25 69.57 L53.24 69.55 L53.22 69.56 L53.21 69.55 L53.19 69.57 L53.2 69.6 L53.18 69.6 L53.11 69.56 L53.11 69.6 L53.08 69.61 L53.07 69.66 L53.05 69.64 L53.02 69.68 L52.98 69.68 L52.98 69.71 L52.99 69.72 L52.97 69.76 L52.95 69.76 L52.95 69.7 L52.92 69.7 L52.9 69.73 L52.91 69.76 L52.82 69.83 L52.84 69.86 L52.83 69.88 L52.86 69.89 L52.83 69.9 L52.86 69.94 L52.85 69.97 L52.79 69.95 L52.78 69.99 L52.73 70 L52.75 70.03 L52.69 70.02 L52.68 70.05 L52.64 70.01 L52.61 70.03 L52.63 70.04 L52.62 70.05 L52.59 70.03 L52.52 70.03 L52.5 70.06 L52.51 70.08 L52.44 70.09 L52.45 70.12 L52.43 70.15 L52.4 70.13 L52.36 70.13 L52.34 70.11 L52.28 70.12 L52.24 70.18 L52.22 70.17 L52.22 70.19 L52.19 70.18 L52.2 70.2 L52.17 70.23 L52.16 70.21 L52.14 70.23 L52.13 70.21 L52.09 70.28 L52.07 70.26 L52.04 70.29 L52 70.27 L51.99 70.28 L51.97 70.25 L51.95 70.27 L51.92 70.29 L51.91 70.27 L51.88 70.28 L51.85 70.31 L51.86 70.33 L51.83 70.34 L51.81 70.33 L51.78 70.35 L51.74 70.32 L51.72 70.35 L51.7 70.31 L51.7 70.33 L51.68 70.34 L51.67 70.33 L51.64 70.35 L51.64 70.33 L51.57 70.36 L51.57 70.38 L51.55 70.39 L51.54 70.41 L51.53 70.38 L51.49 70.37 L51.49 70.39 L51.46 70.4 L51.46 70.42 L51.41 70.41 L51.43 70.43 L51.42 70.45 L51.4 70.43 L51.38 70.45 L51.34 70.43 L51.33 70.47 L51.3 70.46 L51.31 70.53 L51.26 70.56 L51.25 70.59 L51.19 70.61 L51.17 70.64 L51.17 70.68 L51.09 70.75 L51.09 70.81 L51.03 70.81 L51.01 70.83 L50.97 70.82 L50.93 70.84 L50.91 70.83 L50.89 70.85 L50.85 70.82 L50.85 70.85 L50.83 70.85 L50.82 70.86 L50.79 70.86 L50.79 70.89 L50.77 70.88 L50.76 70.91 L50.71 70.89 L50.69 70.93 L50.65 70.94 L50.66 70.96 L50.63 70.96 L50.62 70.99 L50.56 70.99 L50.54 71 L50.55 71.02 L50.49 71.04 L50.48 71.06 L50.5 71.08 L50.48 71.08 L50.48 71.11 L50.47 71.09 L50.44 71.1 L50.42 71.09 L50.35 71.12 L50.34 71.16 L50.32 71.15 L50.29 71.21 L50.3 71.32 L50.27 71.33 L50.27 71.35 L50.24 71.34 L50.21 71.36 L50.2 71.44 L50.18 71.44 L50.18 71.46 L50.16 71.45 L50.16 71.48 L50.14 71.49 L50.14 71.51 L50.11 71.51 L50.07 71.56 L50.08 71.62 L49.9 71.72 L49.9 71.77 L49.87 71.78 L49.87 71.8 L49.84 71.87 L49.84 71.89 L49.79 71.92 L49.79 71.95 L49.77 71.94 L49.75 71.95 L49.75 71.92 L49.72 71.95 L49.67 71.94 L49.65 71.95 L49.63 72.05 L49.62 72.07 L49.63 72.09 L49.59 72.13 L49.61 72.13 L49.61 72.16 L49.6 72.17 L49.6 72.18 L49.59 72.18 L49.59 72.2 L49.56 72.2 L49.55 72.22 L49.55 72.28 L49.56 72.31 L49.54 72.31 L49.51 72.36 L49.53 72.38 L49.52 72.4 L49.49 72.41 L49.43 72.5 L49.37 72.52 L49.35 72.55 L49.3 72.6 L49.28 72.72 L49.27 72.72 L49.22 72.82 L49.21 72.81 L49.18 72.84 L49.15 72.91 L49.19 72.98 L49.26 73.05 L49.27 73.11 L49.31 73.13 L49.32 73.16 L49.32 73.18 L49.23 73.25 L49.17 73.26 L49.15 73.29 L49.17 73.34 L49.29 73.42 L49.47 73.47 L49.5 73.5 L49.49 73.55 L49.49 73.72 L49.48 73.75 L49.49 73.84 L49.43 73.9 L49.4 73.91 L49.34 73.9 L49.24 73.84 L49.19 73.85 L49.18 73.87 L49.2 73.92 L49.18 74.01 L49.04 74.17 L48.89 74.42 L48.84 74.51 L48.82 74.61 L48.92 74.68 L49 74.78 L49.21 74.97 L49.26 75.09 L49.3 75.25 L49.36 75.39 L49.46 75.5 L49.61 75.64 L49.67 75.73 L49.69 75.8 L49.7 76.05 L49.73 76.15 L49.86 76.38 L49.87 76.45 L49.82 76.55 L49.7 76.65 L49.39 76.78 L49.31 76.77 L49.17 76.73 L49.15 76.75 L49.07 76.76 L48.99 76.75 L48.91 76.77 L48.58 76.78 L48.5 76.8 L48.45 76.84 L48.36 76.97 L48.3 77 L48.21 77.1 L48.12 77.14 L48.03 77.14 L47.92 77.1 L47.74 77.01 L47.45 76.93 L47.37 76.87 L47.29 76.86 L47.29 77 L47.33 77.12 L47.57 77.55 L47.64 77.72 L47.66 77.84 L47.65 77.95 L47.55 78.14 L47.48 78.32 L47.47 78.36 L47.45 78.39 L47.39 78.55 L47.36 78.6 L47.31 78.63 L47.06 78.67 L47 78.65 L46.96 78.66 L46.85 78.53 L46.75 78.51 L46.55 78.37 L46.39 78.2 L46.03 78.02 L45.83 78 L45.54 78.04 L45.38 78.05 L45.19 78.04 L45 77.99 L44.86 77.86 L44.61 77.54 L44.42 77.33 L44.32 77.23 L44.13 77.13 L43.58 76.91 L43.32 76.83 L43.07 76.6 L42.53 76.46 L42.43 76.42 L42.36 76.43 L42.26 76.4 L42.14 76.39 L42.03 76.34 L41.96 76.42 L41.88 76.41 L41.81 76.43 L41.73 76.55 L41.65 76.62 L41.6 76.65 L41.48 76.87 L41.37 76.99 L41.25 77.23 L41.23 77.34 L41.14 77.42 L40.91 77.82 L40.89 77.97 L40.83 78.1 L40.76 78.19 L40.68 78.26 L40.62 78.35 L40.61 78.39 L40.62 78.46 L40.58 78.51 L40.62 78.68 L40.63 78.75 L40.56 78.93 L40.56 78.98 L40.6 79.1 L40.76 79.18 L40.95 79.42 L41.02 79.48 L41.06 79.48 L41.07 79.55 L41.11 79.6 L41.25 79.68 L41.25 79.73 L41.28 79.8 L41.3 80.01 L41.26 80.09 L41.22 80.1 L41.19 80.14 L41.18 80.3 L41.2 80.34 L41.27 80.43 L41.3 80.56 L41.32 80.6 L41.44 80.7 L41.53 80.69 L41.54 80.77 L41.57 80.8 L41.62 80.82 L41.72 80.83 L41.81 80.89 L41.81 80.93 L41.75 81.03 L41.78 81.09 L41.75 81.13 L41.53 81.18 L41.5 81.24 L41.46 81.26 L41.4 81.35 L41.33 81.41 L41.26 81.56 L41.09 81.84 L40.69 82.42 L40.49 82.68 L40.22 82.9 L40 83.02 L39.64 83.14 L39.34 83.29 L39.31 83.3 L39.19 83.26 L39.1 83.27 L38.94 83.33 L38.72 83.45 L38.56 83.49 L38.41 83.5 L38.31 83.49 L37.53 83.3 L37.3 83.23 L37.11 83.12 L37.02 83.09 L36.73 83.02 L36.55 83 L36.47 83.01 L36.26 83.08 L35.95 83.23 L35.39 83.44 L35.29 83.5 L35.2 83.56 L35.13 83.67 L35.1 84.02 L35.04 84.2 L35.03 84.35 L34.93 84.48 L34.9 84.61 L34.87 84.66 L34.7 84.68 L34.65 84.68 L34.6 84.63 L34.57 84.57 L34.51 84.53 L34.49 84.49 L34.43 84.48 L34.38 84.44 L34.28 84.39 L34.03 84.42 L33.71 84.64 L33.6 84.67 L33.45 84.74 L33.37 84.75 L33.3 84.81 L33.22 84.82 L33.11 84.87 L33.04 85.01 L32.87 85.08 L32.82 85.12 L32.79 85.17 L32.79 85.21 L32.74 85.24 L32.71 85.29 L32.69 85.37 L32.53 85.43 L32.44 85.55 L32.4 85.56 L32.34 85.64 L32.19 85.82 L32.18 85.88 L32.19 85.94 L32.18 86.17 L32.2 86.24 L32.36 86.44 L32.46 86.49 L32.49 86.53 L32.55 86.63 L32.54 86.66 L32.49 86.69 L32.48 86.72 L32.5 86.75 L32.49 86.81 L32.5 86.87 L32.53 86.88 L32.6 86.94 L32.66 86.96 L32.81 86.93 L32.94 87.04 L32.95 87.23 L32.92 87.31 L32.92 87.35 L32.85 87.45 L32.77 87.49 L32.35 87.45 L32.29 87.42 L32.18 87.31 L32.09 87.31 L31.97 87.28 L31.78 87.2 L31.72 87.19 L31.66 87.16 L31.41 87.12 L31.34 87.13 L31.2 87.12 L31.06 87.17 L30.88 87.17 L30.72 87.22 L30.54 87.26 L30.47 87.31 L30.4 87.39 L30.32 87.56 L30.24 87.69 L30.19 87.82 L30.2 87.91 L30.09 87.95 L30.01 87.95 L29.95 88 L29.84 88.01 L29.77 87.99 L29.69 88.04 L29.58 88.04 L29.53 88.1 L29.45 88.16 L29.46 88.2 L29.51 88.21 L29.54 88.24 L29.59 88.37 L29.6 88.49 L29.54 88.61 L29.49 88.65 L29.43 88.93 L29.37 89.04 L29.28 89.11 L29.2 89.23 L29.19 89.26 L29.21 89.37 L29.2 89.42 L29.07 89.46 L28.97 89.4 L28.94 89.4 L28.86 89.49 L28.78 89.51 L28.72 89.55 L28.66 89.56 L28.53 89.59 L28.39 89.79 L28.29 89.81 L28.16 89.89 L28.06 89.92 L28.01 89.97 L27.83 90 Z" /></svg>