<svg xmlns="http://www.w3.org/2000/svg" viewBox="0 0 96 96"><path fill="#efd0a0" fill-rule="evenodd" d="M50.81 81.13 L50.83 80.86 L50.71 80.71 L50.44 80.48 L50.01 80.48 L49.8 80.38 L49.59 80.35 L49.33 80.43 L49.06 80.45 L48.92 80.54 L48.78 80.74 L48.78 80.82 L48.86 80.9 L48.78 81.05 L48.58 81.12 L48.44 81.31 L48.28 81.37 L48.22 81.48 L47.9 81.46 L47.58 81.37 L47.26 81.34 L46.39 81.1 L46.3 81.14 L46.2 81.14 L46.04 81.1 L45.82 80.96 L45.7 80.93 L45.45 80.91 L45.21 80.97 L45.01 80.85 L44.83 80.9 L44.67 81.02 L44.55 81.05 L44.4 81.21 L44.22 81.24 L44.04 81.22 L43.88 81.32 L43.62 81.25 L43.16 81.19 L42.79 81.28 L42.67 81.27 L42.44 81.17 L42.08 80.94 L41.9 80.89 L41.81 80.76 L41.64 80.62 L41.6 80.5 L41.51 80.44 L40.95 80.37 L40.79 80.48 L40.73 80.65 L40.4 80.66 L40.05 80.46 L39.94 80.44 L39.84 80.46 L39.81 80.37 L39.71 80.26 L39.2 80.09 L39.14 80 L38.96 79.92 L38.43 79.82 L38.32 79.76 L38.12 79.75 L37.98 79.63 L37.89 79.49 L37.76 79.62 L37.52 79.62 L37.19 79.55 L36.85 79.4 L36.5 79.3 L36.15 79.39 L36.12 79.43 L36.14 79.5 L36.09 79.52 L36.01 79.41 L36.01 79.27 L35.92 79.26 L35.92 79.2 L35.84 79.14 L35.83 79.08 L35.72 79.09 L35.63 79.05 L35.53 79.25 L35.48 79.24 L35.42 79.13 L35.38 79.13 L35.41 79.19 L35.28 79.3 L35.29 79.35 L35.24 79.44 L35.17 79.4 L35.13 79.43 L35.14 79.58 L35.11 79.62 L35.04 79.62 L34.99 79.56 L34.87 79.61 L34.87 79.55 L34.8 79.54 L34.76 79.44 L34.62 79.32 L34.28 79.15 L34.08 79 L33.75 78.87 L33.59 78.75 L33.22 78.56 L32.89 78.4 L32.8 78.42 L32.73 78.37 L32.64 78.37 L32.21 78.21 L31.9 78.16 L31.65 78.02 L31.6 78.05 L31.39 78.02 L31.28 77.96 L31.22 77.85 L31.17 77.85 L31.13 77.8 L31.09 77.82 L31.08 77.76 L30.91 77.73 L30.87 77.65 L30.79 77.61 L30.68 77.61 L30.55 77.38 L30.46 77.38 L30.4 77.27 L30.3 77.3 L30.26 77.16 L30.19 77.16 L30.17 77.07 L30.07 77.04 L30 76.97 L29.83 76.65 L29.55 76.46 L29.41 76.3 L29.3 76.3 L29.2 76.46 L28.89 76.63 L28.77 76.58 L28.63 76.39 L28.4 76.49 L28.32 76.37 L28.2 76.32 L28.1 76.2 L27.88 76.25 L27.82 76.15 L27.83 76 L27.53 76.05 L27.47 75.9 L27.33 75.82 L27.27 75.66 L27.33 75.54 L27.23 75.46 L27.23 75.42 L27.17 75.43 L27.18 75.54 L27.1 75.48 L27.05 75.55 L26.97 75.51 L26.88 75.59 L26.76 75.51 L26.48 75.46 L26.28 75.3 L26.24 75.34 L26.08 75.23 L26.02 75.26 L26 75.18 L25.8 75.14 L25.75 75.08 L25.68 75.07 L25.53 74.92 L25.36 74.87 L25.1 74.71 L25.03 74.71 L24.99 74.64 L24.88 74.59 L24.76 74.61 L24.72 74.58 L24.59 74.59 L24.41 74.67 L23.93 74.53 L23.68 74.57 L23.62 74.69 L23.49 74.77 L23.18 74.73 L23.02 74.89 L22.75 75.29 L22.48 75.45 L22.12 75.54 L21.66 75.24 L21.49 75.23 L21.42 75.09 L21.33 75.04 L21.14 74.84 L21.23 74.66 L21.13 74.57 L21.06 74.12 L21.01 74.1 L20.9 74.19 L20.85 74.18 L20.65 74.28 L20.49 74.25 L20.37 74.14 L20.33 73.88 L20.27 73.79 L20.27 73.68 L20.19 73.65 L20.12 73.44 L20.06 73.47 L20 73.62 L19.76 73.59 L19.66 73.64 L19.49 73.6 L19.36 73.32 L19.44 73.1 L19.4 72.84 L19.31 72.74 L19.05 72.59 L18.78 72.53 L18.59 72.56 L18.35 72.55 L17.93 72.61 L17.1 72.83 L17.07 72.72 L16.87 72.65 L16.81 72.6 L16.85 72.28 L16.78 72.16 L16.53 72.02 L16.12 71.91 L15.88 71.73 L15.83 71.54 L15.84 71.38 L16.07 70.96 L15.99 70.23 L15.61 69.77 L15.41 69.42 L15.29 69.33 L15.05 69.23 L15 69.1 L15.01 68.78 L14.79 68.5 L14.82 68.2 L14.78 68.06 L14.68 67.97 L14.6 67.95 L14.26 67.91 L14.05 67.94 L13.95 67.88 L13.75 67.85 L13.62 67.78 L13.34 67.43 L13.36 67.36 L13.55 67.19 L13.69 66.95 L13.67 66.63 L13.76 66.32 L13.83 66.17 L13.98 65.99 L14.19 65.6 L14.34 65.53 L14.66 65.6 L14.73 65.59 L14.82 65.5 L14.95 65.24 L15.02 65.18 L15.22 65.12 L15.5 64.74 L15.76 64.29 L16.08 63.99 L16.13 63.86 L16.27 63.72 L16.28 63.46 L16.34 63.35 L16.55 63.17 L16.68 63.01 L16.55 62.86 L16.23 62.79 L16.02 62.8 L15.82 62.91 L15.49 62.86 L14.78 62.54 L14.55 62.28 L14.42 62.21 L13.92 62.18 L13.74 62.22 L13.45 62.05 L13.38 61.95 L13.28 61.89 L13.22 61.76 L12.96 61.74 L12.87 61.69 L12.77 61.49 L12.71 61.19 L12.74 61.06 L12.87 60.89 L12.92 60.72 L12.79 60.38 L12.8 60.26 L13.07 59.72 L12.95 59.41 L12.9 58.55 L12.83 58.38 L12.67 58.29 L12.35 58.25 L12.01 58.08 L11.84 58.08 L11.51 58 L11.14 57.84 L10.89 57.88 L10.75 57.83 L10.1 57.91 L9.8 57.88 L9.63 57.91 L9.27 57.82 L9 57.67 L8.97 57.44 L9.04 57.27 L8.86 57.11 L8.91 56.99 L8.84 56.86 L8.91 56.73 L8.91 56.62 L8.8 56.43 L8.63 55.95 L8.57 55.9 L8.44 55.87 L7.79 55.87 L7.55 55.8 L7.43 55.71 L7.47 55.43 L7.38 55.22 L7.29 54.75 L7.37 54.54 L7.36 54.32 L7.3 54.09 L7.29 53.83 L7.15 53.54 L7.09 53.23 L6.97 53.05 L6.64 52.69 L6.43 52.37 L6.3 52.24 L6.25 52.14 L6.12 52.04 L6.02 51.85 L6.05 51.74 L6 51.66 L6.19 51.36 L6.24 51.14 L6.32 51 L6.32 50.24 L6.47 50.05 L6.92 49.76 L6.98 49.63 L7.01 49.39 L7.18 49.18 L7.19 49.1 L7 48.83 L6.91 48.6 L6.92 48.54 L6.99 48.47 L7.02 48.18 L7.07 48.13 L7.29 48.06 L7.38 47.93 L7.54 47.84 L7.66 47.68 L7.95 47.42 L8.06 46.82 L8.06 46.61 L8.16 46.45 L8.22 46.22 L8.13 45.85 L8.13 45.41 L8.27 45.18 L8.51 45 L8.59 44.65 L8.49 44.19 L8.53 44.05 L8.48 43.93 L8.49 43.82 L8.57 43.74 L8.6 43.59 L8.73 43.51 L8.79 43.33 L9.06 43.03 L9.11 42.91 L9.28 42.88 L9.51 42.71 L9.53 42.49 L9.64 42.36 L9.6 42.23 L9.71 41.75 L9.66 41.42 L9.61 41.37 L9.6 41.24 L9.72 41.01 L9.78 40.81 L9.91 40.76 L10.03 40.84 L10.13 40.8 L10.31 40.56 L10.33 40.43 L10.43 40.3 L10.57 40.01 L10.52 39.88 L10.61 39.71 L10.66 39.51 L10.62 39.4 L10.63 39.22 L10.55 38.81 L10.6 38.48 L10.66 38.41 L10.88 38.4 L10.94 38.36 L10.89 38.19 L10.99 37.79 L11.27 37.74 L11.43 37.61 L11.61 37.57 L11.79 37.45 L12.07 37.12 L12.3 36.89 L12.4 36.72 L12.3 36.37 L12.14 36.34 L12.04 36.23 L11.85 36.17 L11.75 36.05 L11.47 36.12 L11.37 36.11 L11.29 36.02 L11.23 35.78 L10.95 35.5 L10.94 35.3 L11.08 35.14 L11.16 34.76 L11.04 34.5 L10.86 34.34 L10.99 34.24 L11.13 34.02 L11.18 34.03 L11.33 34.16 L11.52 34.19 L11.57 34.14 L11.59 33.97 L11.74 33.92 L11.86 33.82 L11.98 33.78 L12.15 33.83 L12.29 33.98 L12.42 34.03 L12.59 34.01 L12.68 33.94 L12.77 33.96 L12.95 34.17 L13.07 34.19 L13.4 33.89 L13.91 33.9 L13.97 33.84 L13.88 33.75 L13.91 33.66 L13.98 33.7 L14.12 33.7 L14.15 33.8 L14.29 33.92 L14.42 33.65 L14.6 33.58 L14.63 33.67 L14.67 33.66 L14.76 33.35 L15.04 33.06 L15.3 32.99 L15.71 32.93 L16.3 32.98 L16.63 32.89 L16.73 32.9 L17.07 33.07 L17.67 33.01 L18.24 33.24 L18.49 33.46 L18.61 33.63 L18.83 33.8 L19.1 33.94 L19.46 34.07 L20.66 33.97 L22.17 33.78 L22.75 33.74 L23.79 33.87 L25.12 33.8 L26.54 33.63 L27.44 33.45 L28 33.37 L29.26 33.36 L29.44 33.31 L29.66 33.18 L29.97 32.94 L30.4 32.44 L31.62 30.66 L31.84 30.21 L32.07 29.47 L32.16 27.73 L32.24 27.16 L32.34 26.82 L32.66 26.2 L33.14 25.64 L33.65 24.8 L33.93 24.43 L34.58 23.69 L34.93 23.43 L35.65 23.05 L36.07 22.73 L36.42 22.39 L37.25 21.83 L37.9 21.25 L38.21 20.86 L39.48 19.99 L39.87 19.61 L40.4 18.7 L40.66 18.06 L40.73 17.5 L40.78 16.47 L40.77 15.51 L41.05 14.45 L41.33 13.79 L41.65 13.35 L43.46 11.8 L44.06 11.35 L44.37 11.17 L44.75 11.03 L44.86 10.88 L45.14 10.68 L45.21 10.55 L45.22 10.44 L45.15 10.15 L45.15 10.05 L45.28 9.85 L45.33 9.62 L45.46 9.4 L45.5 9.19 L45.6 9.09 L45.79 9.02 L45.77 34.19 L45.98 34.05 L46.12 33.91 L46.23 33.75 L46.36 33.45 L46.56 33.25 L47.49 32.74 L47.65 32.69 L47.9 32.7 L48.21 32.83 L48.54 33.14 L48.71 33.21 L48.82 33.32 L49.01 33.36 L49.18 33.46 L49.35 33.78 L49.58 33.92 L49.74 34.12 L50.01 34.7 L49.93 34.86 L49.95 34.93 L50.03 35.01 L50.13 35.01 L50.27 34.96 L50.58 35.05 L50.68 35.17 L50.98 35.14 L51.24 35.19 L51.32 35.39 L51.43 35.48 L51.54 35.43 L51.89 35.44 L51.97 35.58 L52.03 35.61 L52.22 35.6 L52.29 35.65 L52.47 35.58 L52.86 35.68 L53 35.67 L53.07 35.6 L53.18 35.59 L53.46 35.39 L53.67 35.45 L53.83 35.4 L53.87 35.28 L54.02 35.29 L54.24 35.2 L54.33 35.21 L54.4 35.18 L54.58 35.27 L54.65 35.26 L54.68 35.22 L54.77 35.27 L55.1 35.25 L55.32 35.3 L55.51 35.25 L55.55 35.15 L55.79 35.1 L55.84 35.03 L56.05 35.05 L56.12 34.99 L56.17 35.05 L56.22 35.05 L56.26 35 L56.28 34.88 L56.6 34.78 L56.68 34.65 L56.86 34.61 L57.01 34.41 L57.2 34.32 L57.18 34.25 L57.21 34.22 L57.3 34.19 L57.33 34.28 L57.38 34.29 L57.41 34.23 L57.41 34.01 L57.45 33.95 L57.58 33.92 L57.63 33.95 L57.61 34.01 L57.53 33.97 L57.5 34.01 L57.48 34.07 L57.53 34.1 L57.7 34.02 L57.73 33.84 L57.78 33.82 L57.9 33.88 L57.99 33.76 L58.02 33.87 L58.12 33.86 L58.29 33.95 L58.37 33.95 L58.4 33.91 L58.37 33.81 L58.51 33.83 L58.69 33.74 L58.81 33.58 L58.93 33.59 L59 33.46 L59.21 33.52 L59.56 33.38 L59.77 33.24 L59.81 33.32 L59.85 33.31 L59.93 33.18 L59.91 33.06 L59.95 32.99 L60.09 33.09 L60.16 33.1 L60.19 33.07 L60.18 32.92 L60.22 32.82 L60.33 32.95 L60.39 32.96 L60.63 32.76 L60.76 32.77 L60.77 32.74 L60.68 32.66 L60.74 32.63 L60.79 32.7 L60.82 32.7 L60.87 32.61 L60.86 32.49 L60.99 32.43 L61.14 32.47 L61.3 32.36 L61.53 32.43 L61.52 32.57 L61.58 32.62 L61.67 32.58 L61.66 32.46 L61.69 32.42 L61.78 32.38 L61.92 32.39 L62.04 32.32 L62.4 32.42 L62.55 32.41 L62.64 32.56 L62.78 32.47 L62.87 32.46 L62.93 32.5 L62.98 32.63 L63.02 32.6 L63.08 32.44 L63.15 32.41 L63.32 32.42 L63.41 32.52 L63.57 32.49 L63.57 32.62 L63.77 32.61 L63.97 32.53 L64.04 32.44 L64.28 32.46 L64.35 32.58 L64.42 32.63 L64.57 32.52 L64.72 32.65 L64.79 32.65 L64.97 32.53 L65.01 32.6 L64.92 32.65 L64.89 32.75 L65.08 32.81 L65.15 32.74 L65.19 32.75 L65.48 33.08 L65.52 33.24 L65.65 33.33 L65.61 33.48 L65.68 33.54 L65.93 33.41 L66.03 33.31 L66.1 33.38 L66.15 33.56 L66.28 33.53 L66.51 33.33 L66.55 33.35 L66.55 33.46 L66.59 33.49 L66.74 33.28 L66.82 33.31 L67.07 33.19 L67.24 33.25 L67.47 33.03 L67.71 33.05 L68.02 33.14 L68.26 32.99 L68.34 32.98 L68.42 33 L68.5 33.14 L68.54 33.15 L68.56 33.11 L68.51 33.01 L68.56 32.89 L68.81 32.79 L68.95 32.89 L69.04 32.88 L69.14 32.94 L69.15 32.88 L69.04 32.78 L69.31 32.8 L69.37 32.91 L69.35 32.98 L69.4 32.97 L71.73 36.72 L74.98 42.06 L76.49 44.34 L78.89 48.35 L82.88 54.53 L90 67.63 L89.97 67.9 L89.85 68 L89.8 68.11 L89.93 68.25 L89.96 68.36 L89.93 68.45 L89.9 68.5 L89.79 68.49 L89.79 68.37 L89.73 68.24 L89.58 68.25 L89.37 68.19 L89.31 68.21 L89.34 68.31 L89.49 68.36 L89.54 68.63 L89.51 68.86 L89.46 68.91 L89.12 68.97 L89.11 69.11 L88.93 69.3 L88.98 69.44 L89.1 69.52 L89.1 69.59 L88.97 69.67 L88.95 69.5 L88.91 69.46 L88.87 69.59 L88.67 69.76 L88.61 70.04 L88.49 70.05 L88.46 69.99 L88.41 69.99 L88.36 70.08 L88.2 70.16 L88.16 70.49 L88 70.69 L88.16 70.9 L88.22 71.08 L88.21 71.14 L88.08 71.21 L88.16 71.45 L88.2 71.48 L88.26 71.43 L88.28 71.54 L88.33 71.6 L88.37 71.46 L88.46 71.43 L88.53 71.66 L88.65 71.73 L88.47 71.89 L88.29 71.91 L88.14 71.99 L88.13 72.06 L88.2 72.1 L88.28 71.96 L88.34 71.96 L88.37 72.08 L88.32 72.16 L88.2 72.19 L88.12 72.27 L87.96 72.36 L88.03 72.47 L88.14 72.38 L88.28 72.42 L88.29 72.46 L88.14 72.55 L88 72.57 L87.98 72.73 L87.88 72.85 L87.74 72.87 L87.69 72.94 L87.42 73.12 L87.38 73.11 L87.35 73.03 L87.19 73.02 L87.17 72.89 L87.13 72.88 L87.11 72.98 L87.04 73.06 L87.06 73.17 L86.98 73.24 L86.97 73.39 L86.88 73.51 L86.68 73.41 L86.59 73.41 L86.57 73.46 L86.61 73.59 L86.5 73.63 L86.58 73.72 L86.58 73.76 L86.48 73.88 L86.59 74.05 L86.54 74.08 L86.42 74.04 L86.29 74.14 L86.27 74.22 L86.32 74.36 L86.4 74.36 L86.45 74.4 L86.52 74.6 L86.46 74.63 L86.36 74.51 L86.23 74.54 L86.15 74.5 L86.12 74.7 L86.07 74.7 L85.99 74.62 L85.93 74.63 L85.91 74.82 L85.8 74.92 L85.81 74.98 L85.98 74.98 L86.03 75.04 L86.03 75.09 L85.97 75.11 L85.88 75.04 L85.8 75.05 L85.91 75.15 L85.93 75.25 L85.99 75.32 L85.98 75.39 L85.92 75.4 L85.82 75.33 L85.74 75.37 L85.92 75.64 L85.92 75.7 L85.86 75.73 L85.71 75.67 L85.62 75.86 L85.54 75.9 L85.45 75.83 L85.44 75.71 L85.4 75.7 L85.36 75.85 L85.11 75.92 L85.11 76.02 L85.21 76.01 L85.26 76.05 L85.2 76.21 L85.05 76.38 L85.06 76.41 L85.2 76.46 L85.24 76.52 L85.21 76.57 L85.11 76.57 L85.05 76.61 L85.18 76.7 L85.09 76.82 L85 77.05 L85.07 77.12 L85.23 77.14 L85.35 77.22 L85.33 77.26 L85.23 77.26 L85.21 77.38 L85.04 77.42 L85.01 77.5 L85.03 77.53 L85.33 77.63 L85.37 77.71 L85.3 77.74 L85.14 77.71 L85.05 77.62 L84.99 77.74 L84.99 77.84 L84.84 77.84 L84.81 77.88 L84.94 77.9 L85.03 78.09 L85.03 78.23 L84.97 78.36 L84.99 78.42 L85.12 78.44 L85.06 78.31 L85.19 78.2 L85.23 78.23 L85.24 78.34 L85.3 78.4 L85.31 78.49 L85.26 78.54 L85.14 78.57 L85.01 78.53 L84.92 78.6 L84.96 78.66 L85.11 78.59 L85.21 78.77 L85.19 78.85 L82.47 80.13 L82.27 80.28 L70.97 85.59 L68.14 86.98 L50.83 81.34 L50.81 81.13 Z" /></svg>