<svg xmlns="http://www.w3.org/2000/svg" viewBox="0 0 96 96"><path fill="#efd0a0" fill-rule="evenodd" d="M32.53 85.57 L32.61 85.76 L32.57 86.04 L32.05 85.93 L31.74 86.21 L31.65 86.47 L31.65 86.93 L31.35 87.38 L31.26 87.69 L30.81 88.3 L30.83 88.79 L30.73 89.3 L30.53 89.6 L30.17 89.86 L29.81 90 L28.94 89.76 L28.9 89.64 L28.64 89.52 L28.57 89.27 L28.29 89.12 L28.39 88.95 L28.28 88.85 L28.23 88.52 L28.1 88.51 L27.92 88.18 L27.56 88.03 L27.29 88.41 L27.26 88.34 L27.51 88 L27.35 87.83 L23.86 85.92 L23 85.59 L23.03 85.53 L22.76 85.35 L21.62 84.72 L20.45 84.18 L19.97 84.09 L19.78 84.15 L19.76 84.54 L19.56 84.74 L19.36 84.81 L19.15 84.7 L19.1 84.89 L18.97 84.83 L18.97 84.51 L19.43 84.08 L19.33 83.88 L19.38 83.55 L19.51 83.5 L19.53 83.31 L19.64 83.16 L19.85 83.07 L19.85 82.88 L19.98 82.75 L20.08 82.51 L20.39 82.24 L20.54 81.86 L20.71 81.78 L20.72 81.63 L20.79 81.57 L20.68 81.4 L20.68 81.18 L20.53 81.08 L20.54 80.98 L20.68 80.98 L20.74 80.91 L20.59 80.38 L20.47 80.25 L20.19 79.75 L20.18 79.58 L20.01 79.37 L20.1 79.25 L20.1 79.1 L20 79.04 L20.08 78.93 L20.05 78.38 L19.83 77.94 L19.8 77.54 L19.68 77.35 L19.8 77.33 L19.91 77.13 L19.72 76.49 L19.58 76.31 L19.67 75.97 L19.92 75.73 L19.9 75.45 L19.73 75.15 L19.82 74.99 L19.8 74.78 L19.37 74.24 L19.34 73.85 L19.12 73.29 L19.02 73.21 L18.92 72.57 L18.73 72.27 L18.73 72.06 L18.63 71.96 L18.65 71.88 L18.81 71.93 L18.89 71.75 L18.82 71.49 L18.71 71.45 L18.77 71.12 L18.68 70.9 L18.58 70.86 L18.58 70.73 L18.44 70.67 L18.36 70.34 L18.08 70.12 L17.89 70.21 L17.92 70.02 L17.74 70 L17.7 69.91 L17.56 69.95 L17.47 69.73 L17.28 69.78 L17.27 69.58 L17.2 69.48 L17.09 69.48 L17.12 69.28 L17.03 69.16 L16.78 69.33 L16.68 69.31 L16.64 69.18 L16.7 69 L16.62 68.86 L16.69 68.58 L16.46 68.06 L16.26 68.06 L16.15 67.98 L16.1 67.76 L15.89 67.85 L15.53 67.74 L15.37 67.5 L15.07 67.38 L14.98 67.11 L14.98 67.2 L14.83 67.2 L14.66 67.32 L14.66 66.97 L14.78 66.53 L14.92 66.47 L14.86 66.16 L14.46 65.95 L14.3 65.74 L13.97 65.6 L14.32 65.28 L14.52 64.88 L14.9 64.62 L15.05 64.27 L15.41 64.1 L15.94 64.09 L16.23 64 L16.58 63.6 L17.08 63.35 L17.63 62.35 L19.3 60.7 L20.36 59.32 L21.39 58.84 L21.54 58.7 L21.71 58.35 L21.98 58.19 L22.04 58.04 L21.96 57.82 L22.42 57.28 L22.48 56.93 L22.3 56.63 L22.27 56.43 L21.99 56.15 L22.03 55.78 L21.97 55.61 L21.83 55.41 L21.65 55.36 L21.55 55.24 L21.59 54.97 L21.84 54.6 L21.78 54.41 L21.28 54.11 L20.86 53.56 L20.36 53.73 L20.08 53.69 L19.82 53.53 L19.71 53.22 L19.24 53.48 L18.91 53.55 L18.8 53.51 L18.65 52.69 L18.39 52.28 L18.36 51.95 L18.53 51.68 L18.52 51.54 L18.02 51.08 L18.03 50.68 L17.69 50.51 L17.33 50.51 L16.73 50.8 L16.52 50.76 L16.42 50.66 L16.22 50.59 L15.87 50.78 L15.57 50.8 L15.3 50.71 L15.17 50.49 L15.15 50.31 L15.42 50.02 L15.44 49.77 L15.61 49.56 L16.22 49.53 L16.27 49.32 L16.74 49.23 L16.99 48.98 L17.03 48.85 L17 48.49 L17.14 47.8 L16.71 47.4 L16.32 46.35 L16.28 45.42 L16.55 45.09 L16.41 44.97 L16.4 44.87 L16.29 44.86 L16.23 44.77 L16.15 43.94 L16.27 43.51 L16.49 43.3 L16.48 43.14 L16.66 42.89 L16.64 42.63 L16.86 42.28 L16.9 41.96 L16.78 41.68 L16.81 41.28 L17.06 40.74 L17.36 40.69 L17.7 40.38 L17.94 40.28 L18.23 40.37 L18.43 40.35 L18.92 40.18 L19.53 39.83 L19.73 39.86 L20.35 40.15 L20.61 40.88 L20.85 41.04 L21.22 41.09 L21.48 41.35 L21.61 41.32 L22.07 40.96 L22.17 40.71 L22.88 40.42 L23.2 40.16 L23.2 39.86 L23.33 39.6 L22.84 39.41 L22.75 39.18 L22.82 38.98 L22.75 38.8 L23.03 38.46 L23.3 38.32 L23.41 38.14 L23.39 37.46 L23.58 36.99 L23.63 36.15 L23.58 35.79 L23.72 34.93 L23.92 34.73 L24.34 34.76 L24.5 34.65 L24.51 33.95 L24.39 33.72 L25.06 32.63 L25.25 30.99 L25.54 29.99 L25 29.06 L25.21 28.75 L25.23 28.61 L25.13 28.4 L25.31 28.17 L25.57 28.3 L25.74 28.28 L25.96 28.07 L26.23 28.06 L26.85 28.21 L27.44 28.58 L28.62 28.6 L29.09 28.53 L29.36 28.64 L29.97 28.73 L30.1 28.64 L30.11 28.44 L30.29 28.4 L30.65 28.1 L31.33 28.33 L31.54 28.1 L31.62 28.21 L31.86 28.23 L32.05 28.14 L32.18 27.91 L32.45 27.98 L32.64 27.9 L32.78 27.99 L32.92 28.27 L33.04 28.31 L33.47 28.1 L33.84 28.14 L34.16 27.84 L34.21 27.89 L34.16 28.08 L34.35 28.19 L34.45 28.34 L34.29 28.54 L34.41 28.86 L34.63 28.96 L34.63 29.19 L35.48 29.27 L35.73 29.84 L35.98 29.68 L36.25 29.84 L36.61 29.72 L37.23 29.01 L37.91 28.95 L38.31 28.6 L38.43 28.38 L38.44 28.04 L37.92 27.43 L37.88 27.19 L37.95 26.9 L37.62 26.63 L37.45 26.16 L37.47 25.79 L37.79 25.66 L37.98 25.3 L37.93 25.2 L37.57 25.03 L37.49 24.87 L37.48 24.67 L37.73 23.97 L37.44 23.53 L37.56 23.18 L37.33 22.89 L37.3 22.31 L36.97 21.78 L37.02 21.43 L36.96 21.22 L37.44 21.14 L37.55 21.19 L38.48 21.18 L38.9 21.43 L39.05 21.21 L39.11 20.73 L40.18 19.96 L40.77 19.75 L41.18 19.88 L41.49 20.08 L41.74 20.08 L41.95 19.91 L42.1 19.39 L42.33 19.15 L42.85 18.23 L43.41 17.86 L43.36 17.67 L43.18 17.52 L42.38 17.36 L42.42 17.07 L42.96 16.47 L42.98 16.07 L42.94 15.75 L42.77 15.32 L42.47 14.99 L42.05 14.91 L41.86 14.71 L42.35 14.02 L42.35 13.8 L42.13 13.58 L42.18 13.23 L42.35 12.92 L42.01 12.82 L41.52 12.5 L41.32 12.17 L41.07 11.98 L41.29 11.71 L41.46 11.65 L41.57 11.72 L42.02 11.43 L41.89 10.83 L42.24 10.82 L42.44 10.72 L42.45 10.3 L42.86 9.69 L44.25 9.56 L45.22 9.64 L45.1 8.99 L44.58 8.65 L44.48 8.49 L44.79 7.81 L44.79 7.58 L44.68 7.26 L44.53 7.17 L44.18 7.16 L44.12 7.07 L44.18 6.64 L44.48 6.16 L44.62 6.21 L44.95 6.55 L45.09 6.58 L45.2 6.47 L45.27 6 L45.43 6 L45.68 6.34 L45.64 6.75 L45.9 6.98 L46.04 7.25 L46.31 7.44 L46.45 7.71 L46.59 7.77 L46.72 7.73 L46.82 7.8 L46.82 7.89 L47.01 7.94 L47.39 7.75 L47.73 7.89 L48.07 7.87 L48.37 8.12 L48.62 8.54 L48.94 8.69 L49.12 8.68 L49.23 8.58 L49.37 8.66 L49.7 8.58 L49.88 8.42 L50.13 8.38 L50.36 8.13 L50.54 8.06 L50.76 8.1 L50.89 7.89 L51.08 7.84 L51.15 7.68 L51.37 7.75 L51.71 7.32 L51.97 7.26 L52.22 6.91 L52.44 6.9 L52.54 6.65 L52.66 6.66 L52.66 6.55 L53.17 7.03 L53.23 7.17 L53.36 7.21 L53.64 7.17 L53.99 6.87 L54.84 6.75 L55.1 6.57 L55.39 6.61 L55.53 6.73 L55.79 6.68 L56.2 6.38 L56.33 6.59 L56.65 6.87 L56.94 6.98 L57.37 7.68 L57.75 7.83 L57.79 8.21 L58.12 8.55 L58.29 8.65 L58.58 8.46 L58.74 8.87 L58.93 8.84 L59.34 9.01 L59.9 8.94 L60.04 9.12 L60.4 9.38 L60.66 9.44 L61.45 8.7 L61.62 8.67 L61.77 8.78 L62.05 9.93 L62.27 10.03 L62.4 10.28 L62.69 10.35 L62.9 10.6 L63.14 10.57 L63.48 11.16 L63.3 11.76 L63.51 11.81 L63.54 11.9 L63.37 12.46 L63.23 12.66 L63.57 13.99 L64.13 14.27 L64.3 14.69 L64.86 15.19 L65.05 15.54 L65.09 15.85 L65.03 16.19 L65.37 16.56 L65.49 16.64 L66.37 16.28 L66.78 16.41 L66.85 16.71 L67.07 17.08 L66.88 17.37 L66.91 17.75 L66.56 17.92 L66.46 18.29 L66.09 18.75 L66.12 19 L66.32 19.42 L66.14 20.08 L65.96 20.37 L66.15 20.65 L66.01 20.84 L66.05 21.09 L66.38 21.78 L66.16 22.41 L66.04 22.53 L66.07 22.96 L65.96 23.28 L65.56 23.61 L65.58 23.85 L64.94 23.9 L64.9 24.17 L64.63 24.52 L64.4 24.65 L65.11 24.97 L65.61 25.34 L65.62 25.5 L65.37 25.71 L65.36 25.8 L65.9 26.01 L66.26 25.99 L66.67 25.84 L67.16 26.34 L67.43 26.79 L67.39 27.36 L67.89 27.48 L67.85 27.68 L67.46 28.26 L67.4 28.63 L67.79 28.59 L68.11 28.89 L68.6 29.07 L68.94 29.32 L70.04 29.78 L70.72 29.98 L70.77 30.05 L71.33 30.13 L71.79 30.48 L71.99 30.89 L72.64 31.64 L73.36 31.54 L73.53 31.8 L73.57 32.45 L73.79 32.65 L73.75 33.12 L73.89 33.86 L73.77 34.16 L74.07 34.41 L74.14 34.9 L74.56 35.15 L74.97 35.11 L75.22 35.31 L75.31 35.52 L75.8 35.88 L76.25 36.11 L76.53 36.17 L77.39 36.81 L77.84 36.88 L78.09 36.51 L78.41 36.3 L78.74 36.18 L79.18 36.19 L79.53 35.69 L79.95 35.79 L80.28 35.99 L80.71 35.84 L80.84 36.06 L81.19 36.27 L81.32 36.54 L81.57 36.7 L81.71 36.94 L81.86 37.8 L81.28 38.36 L81.25 38.53 L81.33 38.98 L81.76 39.18 L81.98 39.44 L82.03 40.28 L81.82 40.38 L81.34 40.83 L81 40.86 L80.63 40.79 L80.18 40.92 L80.16 41.03 L80.34 41.22 L80.38 41.36 L79.97 41.54 L79.83 41.79 L79.46 41.89 L79.23 42.11 L79.35 42.59 L79.21 42.72 L79.17 42.95 L78.61 43.42 L78.35 43.44 L78.02 43.59 L78 43.83 L77.65 44.08 L77.63 46.17 L77.53 46.42 L77.61 46.74 L77.47 47 L77.44 47.66 L76.93 47.99 L76.6 48.87 L76.39 49.14 L75.67 49.64 L75.1 49.81 L75.01 49.61 L74.83 49.52 L75.04 49.23 L75 49.05 L74.09 48.81 L73.84 48.65 L73.67 48.83 L73.59 49.38 L73.23 49.75 L72.86 49.98 L72.24 50.05 L71.86 50.36 L71.59 50.82 L71.26 50.8 L70.85 50.65 L70.5 50.43 L70.35 50.25 L70.2 49.87 L70.39 49.49 L70.03 49.14 L70.16 48.63 L69.99 48.15 L70.17 47.86 L70.31 47.22 L70.72 46.15 L70.96 46.01 L71.53 46.13 L71.66 46.05 L71.72 45.76 L71.94 45.47 L72.49 45.27 L72.79 45.39 L73.39 45.03 L73.47 44.83 L73.51 44.31 L73.43 44.23 L72.97 44.32 L72.52 43.88 L72.13 43.97 L71.66 43.97 L70.45 43.58 L70.23 43.4 L70.23 42.96 L70.12 42.87 L69.86 42.82 L69.66 42.57 L69.77 42.27 L69.6 42.16 L69.05 42.46 L68.55 42.62 L68.08 42.48 L67.81 42.27 L67.65 42.29 L67.35 42.38 L67.34 42.55 L67.08 42.73 L66.58 42.82 L66.12 43.12 L65.71 43.02 L65.49 43.12 L65.42 43.35 L65.03 43.46 L64.85 43.42 L64.61 43.65 L64.55 44 L64.29 44.22 L63.58 44.37 L63.22 44.87 L62.96 44.84 L62.67 44.91 L62.13 45.31 L61.76 45.32 L61.62 45.97 L61.3 46.31 L61.45 46.87 L61.34 47.18 L61.69 47.5 L61.72 47.7 L61.26 48.05 L61.26 48.64 L60.92 49.08 L61.08 49.18 L61.15 49.46 L60.85 49.62 L60.67 50.13 L61.09 50.51 L61.59 50.82 L61.65 50.97 L61.55 51.36 L61.36 51.62 L61.32 51.87 L60.85 52.46 L60.73 52.82 L60.75 53.13 L60.86 53.29 L61.16 53.44 L61.16 53.65 L61.35 53.79 L61.4 54.19 L61.52 54.36 L61.61 54.67 L61.83 54.89 L61.48 55.47 L61.51 55.74 L61.42 55.87 L61.37 56.27 L61.12 56.37 L60.73 56.37 L60.5 56.64 L59.94 56.49 L59.48 56.7 L59.3 57.61 L58.98 57.99 L58.89 58.34 L58.73 58.58 L58.3 59.09 L58.11 59.79 L57.9 60.16 L57.77 60.33 L57.42 60.48 L57.33 60.64 L56.81 61.01 L56.79 61.28 L56.58 61.55 L56.46 61.58 L55.94 61.45 L55.77 61.58 L55.49 61.59 L55.22 61.85 L54.94 61.93 L54.56 62.16 L54.28 62.19 L54.07 62.35 L53.73 62.09 L53.16 62.32 L53.03 62.2 L52.14 62.12 L51.72 62.32 L51.5 62.33 L51.34 62.55 L51.12 62.61 L50.97 62.74 L50.71 62.75 L50.75 63 L50.57 63.24 L50.53 63.49 L50.31 63.58 L49.92 64.17 L49.78 64.74 L49.37 64.9 L49.28 65 L49.39 65.59 L49.72 65.75 L49.72 65.83 L49.25 66.31 L49.19 66.58 L48.38 67.38 L47.87 68.54 L47.58 69.81 L47.81 70.24 L48.38 70.85 L48.32 71.13 L47.87 71.62 L47.87 72.11 L47.62 72.24 L47.42 72.51 L47 72.64 L46.95 72.82 L46.79 72.96 L46.41 73.01 L46.07 73.47 L45.85 73.57 L45.76 73.81 L45.33 74.14 L45.24 74.37 L44.97 74.69 L44.44 75.06 L43.82 75.85 L43.76 76.1 L43.42 76.46 L43.16 76.66 L42.89 76.75 L42.83 76.93 L42.52 77.11 L42.48 77.33 L42.16 77.68 L41.79 77.86 L41.66 78.14 L41.73 78.46 L41.6 78.68 L41.6 79.07 L41.18 79.56 L41.05 80.04 L41.03 80.43 L40.72 80.86 L40.68 81.77 L40.46 82.27 L40.56 82.66 L40.43 82.84 L40.44 83.22 L40.31 83.82 L40.1 83.88 L39.46 83.86 L38.37 83.34 L37.89 83.34 L37.66 83.52 L37.15 83.73 L36.81 83.47 L36.65 83.47 L36.19 83.68 L36.1 84.08 L35.56 84.84 L35.42 84.82 L35.11 84.59 L34.71 84.85 L34.14 84.82 L33.64 85.33 L33 85.04 L32.55 85.21 L32.47 85.39 L32.53 85.57 Z M18.85 84.93 L18.75 85.03 L18.63 84.96 L18.75 84.85 L18.85 84.85 L18.85 84.93 Z" /></svg>