<svg xmlns="http://www.w3.org/2000/svg" viewBox="0 0 96 96"><path fill="#efd0a0" fill-rule="evenodd" d="M20.75 69.21 L20.82 69.25 L20.78 69.4 L20.89 69.37 L21.02 69.49 L21 69.55 L20.86 69.59 L20.95 69.71 L20.84 69.77 L20.85 69.85 L20.77 69.85 L20.81 69.97 L20.92 70.05 L20.88 70.15 L21 70.18 L20.98 70.58 L21.1 70.66 L21.09 70.79 L21.25 70.79 L21.32 70.89 L21.22 71.03 L21.32 71.2 L21.21 71.3 L21.41 71.55 L21.23 71.64 L21.21 71.7 L21.31 71.82 L21.49 71.86 L21.46 71.97 L21.51 72.12 L21.73 72.17 L21.7 72.31 L21.83 72.33 L21.85 72.39 L21.79 72.49 L21.85 72.58 L21.79 72.63 L21.79 72.8 L21.7 73.05 L21.7 73.33 L21.52 73.71 L21.49 74.2 L21.7 74.5 L21.76 74.55 L21.89 74.55 L22.11 74.78 L22.2 74.98 L22.31 74.98 L22.37 75.24 L22.54 75.32 L22.54 75.45 L22.66 75.68 L22.52 75.68 L22.3 75.84 L22.19 75.81 L21.78 75.45 L21.68 75.46 L21.37 75.72 L21.24 75.71 L20.54 75.3 L20.34 75.3 L20.1 75.15 L19.66 75.12 L19.33 74.4 L19.27 73.96 L19.33 73.79 L18.76 73.5 L18.57 73.57 L18.4 73.81 L18.26 73.88 L17.99 73.66 L17.23 73.42 L17.22 73.23 L17.02 73.13 L16.88 73.13 L16.74 73.29 L16 73.33 L15.84 73.28 L15.59 73.42 L15.18 73.15 L15 73.41 L14.86 73.36 L14.7 73.55 L14.42 73.57 L14.17 73.52 L13.73 73.72 L13.65 73.7 L12.97 73.05 L12.77 72.7 L12.59 72.52 L12.53 72.23 L12.38 71.94 L11.93 71.76 L11.62 71.57 L11.36 71.56 L11.21 71.27 L10.96 71.37 L10.85 71.16 L10.85 70.91 L10.92 70.67 L10.79 70.4 L10.87 70.24 L11.04 70.18 L11.06 70.03 L11.35 69.69 L11.27 69.49 L11.28 69.35 L11.18 69.25 L11.23 68.98 L11.17 68.87 L11.24 68.76 L11.13 68.36 L11.14 68.19 L11.01 68.03 L11 67.81 L10.86 67.47 L10.83 66.55 L10.72 66.1 L10.6 65.84 L10.56 65.59 L10.32 65.24 L10.28 65.06 L10.17 65.01 L10.15 64.87 L10.02 64.84 L9.73 64.91 L9.63 64.82 L9.36 64.32 L9.39 64.11 L9.15 63.89 L9.24 63.77 L9.25 63.58 L9.37 63.38 L9.22 63.01 L8.84 62.62 L8.64 62.11 L8.63 61.81 L8.47 61.58 L8.49 61.35 L8.36 61.2 L8.28 60.74 L8 60.57 L7.92 60.46 L7.95 60.35 L8.26 59.98 L8.29 59.69 L8.43 59.49 L8.18 59.05 L7.76 58.64 L7.85 58.31 L7.76 58 L7.6 57.9 L7.52 57.76 L7.33 57.74 L7.11 57.8 L6.85 57.59 L6.88 57.14 L6.83 56.88 L6.67 56.54 L6.62 55.98 L6.44 55.66 L6.42 55.39 L6.26 55.29 L6 54.95 L6.05 54.33 L6.13 54.19 L6.23 54.15 L6.25 53.76 L6.48 53.44 L6.93 53.41 L7.05 53.22 L6.99 53.06 L7.08 52.84 L7.65 52.66 L7.93 52.73 L8.07 52.69 L8.16 52.62 L8.15 52.47 L8.3 52.14 L8.53 52.09 L8.63 51.95 L9.05 51.92 L9.17 52 L9.3 51.93 L9.52 51.93 L9.99 51.58 L10.51 51.47 L10.4 51.27 L10.43 51.03 L10.55 50.94 L10.7 50.98 L10.77 50.8 L10.97 50.68 L11.06 50.71 L11.52 51.18 L11.6 51.16 L11.82 50.96 L12.1 51.03 L12.47 50.98 L12.65 50.71 L12.8 50.75 L12.94 50.86 L13.69 50.79 L13.75 50.7 L13.7 50.51 L13.89 50.36 L13.93 49.86 L14.19 49.73 L14.33 49.39 L14.01 49.09 L13.64 48.55 L13.92 48.61 L14.44 48.55 L14.7 48.69 L15.1 48.71 L15.21 48.85 L15.85 48.83 L16.48 48.49 L16.6 48.48 L16.81 48.29 L17.1 47.86 L17.57 47.99 L17.81 48.16 L18.11 48.11 L18.47 47.78 L18.73 47.76 L18.87 48.09 L19.07 48.38 L18.92 48.71 L19.16 48.98 L19.35 49.54 L19.33 49.69 L19.24 49.74 L19.27 49.85 L19.15 50.01 L19.15 50.1 L19.26 50.25 L19.26 50.51 L19.47 50.88 L19.63 51.4 L19.6 51.63 L19.74 51.89 L19.95 51.79 L20.3 51.97 L20.39 51.94 L20.64 51.6 L20.63 51.24 L20.75 51.09 L20.71 50.88 L20.9 50.46 L21.24 50.55 L21.76 50.94 L22.06 51.04 L22.1 51.18 L22.26 51.34 L22.29 51.22 L22.13 50.65 L22.14 50.53 L22.58 50.67 L23.01 50.69 L22.89 50.93 L22.88 51.08 L23.07 51.09 L23.21 51.2 L23.58 51.27 L23.81 51.67 L24.03 51.81 L24.3 51.88 L24.5 51.84 L24.71 51.72 L24.86 51.76 L25.02 51.72 L25.13 51.97 L25.32 52.1 L25.41 52.41 L25.74 52.31 L26.04 52.37 L26.24 52.59 L26.3 52.52 L26.44 52.54 L26.53 52.41 L26.6 52.39 L26.82 52.53 L27.04 52.55 L27.21 52.76 L27.07 53.11 L27.26 53.15 L27.73 53.55 L27.8 53.57 L27.95 53.51 L28.09 53.32 L28.37 53.2 L28.57 53.23 L28.62 53.55 L28.75 53.64 L28.89 53.41 L29.24 53.18 L29.31 53.86 L29.48 54.05 L29.49 54.28 L29.55 54.38 L29.6 54.36 L30.28 54.05 L30.67 53.7 L31.45 52.36 L31.84 52.02 L31.93 51.71 L32.05 51.59 L32.03 51.45 L31.82 51.11 L31.72 50.63 L31.78 50.45 L31.87 50.31 L32 50.24 L32.04 50.02 L32.16 49.97 L32.26 49.84 L32.39 49.79 L32.72 49.31 L33.01 49.03 L33.29 48.88 L33.53 48.65 L33.76 48.59 L34.24 48.26 L34.48 47.9 L34.5 47.65 L34.65 47.41 L34.63 47.15 L34.73 47.04 L34.69 46.97 L34.81 46.92 L34.77 46.83 L35.14 46.63 L35.22 46.52 L35.4 46.54 L35.68 46.4 L36.1 46.6 L36.56 46.66 L36.95 46.49 L37.36 46.2 L37.61 46.28 L37.97 46.03 L38.13 46.03 L38.24 46.09 L38.35 46.04 L38.7 45.74 L38.84 45.54 L38.99 45.46 L39.23 45.08 L39.27 44.84 L39.24 44.62 L39.33 44.19 L39.27 43.88 L39.14 43.7 L39.21 43.54 L39.15 43.45 L39.15 43.18 L39.41 42.43 L39.62 42.14 L39.42 41.91 L39.43 41.83 L39.56 41.47 L39.7 41.37 L39.8 41.2 L39.87 40.74 L40.03 40.44 L40.03 40.27 L40.11 40.16 L40.97 39.51 L41.8 39.42 L42.2 39.43 L42.36 39.36 L42.54 39.18 L42.68 38.89 L42.6 38.4 L42.68 38.15 L42.6 37.74 L42.65 37.51 L42.61 37.18 L42.73 36.8 L43.16 37.24 L43.73 37.48 L44.15 37.95 L44.93 37.91 L45.09 37.96 L45.59 37.85 L46.05 38.02 L46.45 38.3 L46.83 38.38 L46.92 38.33 L46.62 38.02 L46.53 37.75 L46.53 37.62 L46.7 37.4 L46.75 37.16 L46.81 37.11 L47.14 37.07 L47.49 36.5 L47.74 36.48 L48.3 36.67 L48.64 36.28 L48.83 36.24 L49.13 35.65 L48.99 35.47 L48.67 35.36 L48.66 35.08 L49.18 34.58 L49.4 34.48 L50.75 34.29 L50.93 34.37 L51.1 34.36 L51.26 34.47 L51.96 34.51 L52.34 34.59 L52.46 34.38 L52.6 34.34 L52.63 34.21 L52.83 34.09 L53 33.72 L52.3 32.17 L52.3 31.6 L52.39 31.44 L52.63 31.32 L52.77 31.32 L53.5 31.58 L53.78 31.6 L54.3 31.8 L54.92 32.11 L55.4 32.57 L56 33.02 L56.31 33.11 L56.72 33.32 L57.41 33.47 L57.64 33.43 L57.85 33.5 L58.08 33.41 L58.54 33.51 L59.11 33.4 L59.65 33.16 L59.81 32.85 L60.02 32.67 L60.51 32.93 L61.01 33.05 L61.28 33.04 L61.63 33.21 L61.77 33.11 L61.91 32.85 L62.19 32.61 L62.52 32.21 L63.37 31.54 L64.41 30.55 L64.77 30.32 L65.37 30.17 L65.79 30.2 L66.58 30.34 L67.43 30.37 L67.7 30.34 L67.89 30.21 L67.98 29.83 L67.94 28.9 L68.1 28.3 L68.69 27.42 L69.08 26.55 L69.31 25.89 L69.71 25.64 L69.79 25.05 L69.94 24.91 L70.27 24.79 L70.4 24.59 L70.41 24.24 L70.06 23.49 L70.06 23.21 L70.19 22.46 L70.54 21.99 L70.67 21.45 L71.17 20.86 L71.83 20.41 L72.52 20.16 L73.03 20.67 L73.37 20.87 L74.89 21.29 L75.18 21.43 L75.39 21.63 L75.76 22.11 L75.83 22.31 L75.65 23.06 L75.38 23.54 L75.38 24.24 L75.6 24.74 L75.93 24.92 L76.41 24.97 L76.57 25.03 L77.02 25.38 L77.43 25.5 L78.23 25.95 L78.71 26.33 L78.78 26.44 L78.75 26.88 L78.67 27.19 L78.81 27.31 L78.87 27.45 L78.85 28.6 L78.92 28.78 L78.95 29.51 L79.01 29.58 L79.3 29.74 L79.43 29.9 L79.56 30.4 L79.84 31.13 L79.76 32.8 L79.81 33.6 L80.41 34.68 L80.98 35.37 L81.1 35.65 L81.37 36.75 L81.44 38.73 L81.52 38.95 L81.78 39.24 L81.54 39.82 L81.64 40.29 L81.87 40.66 L82.99 41.43 L83.25 41.84 L83.42 42.37 L84.09 42.99 L84.44 43.63 L85.27 44.29 L86.25 45.44 L86.06 45.7 L85.71 45.95 L84.37 46.36 L83.84 46.92 L83.57 47.04 L83.11 47.37 L82.72 47.4 L82.51 47.33 L82.34 47.23 L82 46.89 L81.83 46.81 L81.65 46.78 L81.47 46.87 L81.36 46.98 L81.32 47.17 L81.46 47.51 L81.47 47.77 L81.05 48.5 L80.99 48.73 L81.05 49.07 L81.37 49.56 L82.16 50.17 L82.81 50.4 L83.78 50.52 L84.19 50.7 L84.37 50.99 L84.53 51.73 L84.92 52.19 L86.69 52.68 L87.18 52.93 L87.45 53.19 L87.91 53.28 L88.14 53.48 L88.34 54.27 L88.37 54.85 L88.77 55.68 L89.05 56.03 L89.2 56.37 L89.27 56.84 L89.59 57.26 L89.94 58.04 L89.91 58.13 L89.76 58.22 L89.71 58.39 L89.73 58.75 L89.82 58.93 L89.89 59.39 L90 59.68 L89.93 59.91 L89.8 60.07 L89.74 60.08 L89.67 60.01 L89.57 59.7 L89.17 59.54 L89.07 59.25 L88.88 59.14 L88.33 59.08 L87.96 59.16 L87.69 59.06 L87.38 59.18 L87.21 59.18 L87.11 59.14 L87 58.99 L86.89 58.98 L86.79 59.07 L86.68 59.31 L86.45 59.39 L85.96 59.94 L85.82 60.17 L85.79 60.35 L85.7 60.37 L85.63 60.29 L85.49 60.3 L85.38 60.37 L85.14 60.26 L84.99 60.29 L84.94 60.63 L84.55 61.15 L84.39 61.24 L84.35 61.4 L84.21 61.58 L84.02 61.65 L83.89 61.82 L83.69 61.91 L83.61 62.1 L83.44 62.19 L83.07 62.5 L82.98 62.65 L82.89 62.99 L82.75 63.19 L82.28 63.42 L82.26 63.64 L82.12 64.08 L81.66 64.75 L81.44 64.81 L81.15 64.55 L80.97 64.58 L80.59 64.85 L80.3 64.77 L80.15 64.92 L79.53 65.22 L79.15 65.55 L78.69 65.51 L78.39 65.76 L78.35 65.92 L78.48 66.1 L78.5 66.24 L78.28 66.63 L78.14 67.03 L78.13 67.37 L78.09 67.49 L78 67.53 L77.64 67.49 L77.25 67.37 L76.87 67.4 L76.61 67.21 L76.38 67.22 L76.14 67.32 L75.79 67.59 L75.74 67.92 L75.69 67.98 L75.16 67.95 L74.98 68 L74.4 67.75 L74.17 67.41 L73.8 67.17 L73.75 66.87 L73.65 66.72 L73.36 66.57 L73.15 66.59 L72.92 66.77 L72.64 66.77 L72.3 66.95 L72.29 67.14 L72.22 67.23 L71.96 67.24 L71.73 67.35 L71.54 67.04 L71.63 66.8 L71.42 66.54 L71.29 66.17 L70.99 65.93 L70.74 65.88 L70.58 65.56 L70.46 65.43 L70.3 65.54 L69.72 65.22 L69.37 65.34 L69.1 65.19 L68.68 65.37 L68.56 65.33 L68.02 64.72 L67.7 64.18 L67.35 63.72 L67.08 63.19 L67.05 63 L66.78 62.3 L66.51 62.01 L66.4 61.76 L66.27 61.63 L66.19 61.63 L66.1 62.09 L66.17 62.43 L66.14 62.77 L66.27 63.13 L65.74 63.19 L65.58 63.37 L65.44 63.38 L65.3 63.29 L65.04 62.97 L64.71 62.72 L64.53 62.89 L64.39 62.83 L64.2 62.88 L64.12 62.77 L63.88 62.73 L63.72 62.51 L63.56 62.48 L63.39 62.32 L62.48 62.77 L62.29 62.56 L62.32 62.31 L62.07 61.95 L62.06 61.75 L62 61.62 L62.05 61.25 L62.01 60.59 L61.91 60.31 L61.56 60.22 L61.14 60.51 L60.77 60.56 L60.67 60.47 L60.69 60.36 L60.64 60.23 L60.28 59.92 L60.17 59.73 L59.85 59.61 L59.62 59.81 L59.52 60.03 L59.61 60.41 L59.33 60.59 L59.07 60.61 L59.08 60.8 L58.99 60.88 L58.96 61.04 L58.82 61.12 L58.73 61.43 L58.35 61.92 L58.2 61.97 L58.06 62.11 L57.68 62.05 L57.53 61.97 L56.69 61.76 L56.26 61.8 L56.16 61.73 L55.88 61.73 L55.7 61.63 L55.33 61.67 L55.1 61.62 L55.03 61.66 L54.95 61.77 L54.92 62.04 L54.49 62.73 L54.32 62.61 L54.16 62.6 L54.02 62.66 L53.94 62.77 L54.05 62.97 L53.99 63.58 L54.07 64.01 L53.95 64.22 L53.9 64.47 L53.6 64.69 L53.49 64.91 L53.43 65.22 L53.33 65.31 L53.14 65.34 L52.74 65.71 L52.59 65.72 L52.51 65.63 L52.38 65.94 L52.17 66.12 L51.87 66.28 L51.78 66.4 L51.37 66.34 L51.21 66.47 L50.6 66.48 L50.45 66.39 L50.24 66.02 L50.08 65.95 L49.68 66.17 L49.42 66.59 L49.31 66.59 L49.2 66.51 L48.71 66.47 L48.66 66.42 L48.53 66.53 L48.5 66.65 L48.36 66.7 L48.25 66.95 L48.02 66.91 L47.77 66.96 L47.46 67.19 L47.39 67.48 L47.26 67.61 L46.9 67.63 L46.85 67.76 L46.54 67.61 L46.21 67.34 L46.11 67.09 L46.19 66.89 L46.12 66.57 L46.13 66.21 L45.97 65.96 L46.11 65.67 L46.05 65.39 L46.12 64.97 L46.37 64.57 L46.62 64.34 L46.73 64.3 L47.07 63.93 L47.08 63.73 L47.03 63.55 L46.8 63.29 L46.72 63.62 L46.56 63.74 L46.44 63.73 L46.34 63.63 L46.33 63.24 L46.22 63.21 L46.12 63.08 L46.11 62.97 L45.97 62.91 L45.87 63.02 L45.76 62.91 L45.68 63.02 L45.47 62.89 L45.34 62.96 L45.24 62.9 L45.08 62.9 L44.81 62.7 L44.77 62.55 L44.43 62.46 L44.32 62.48 L44.18 62.61 L43.95 62.57 L43.85 62.47 L43.74 62.12 L43.59 62.02 L43.55 62.32 L43.38 62.72 L43.39 63.33 L43.32 63.48 L43.33 63.76 L43.2 64.17 L43.07 64.44 L42.9 64.55 L42.79 64.73 L42.51 64.84 L42.29 65.15 L42.05 65.14 L41.47 65.24 L40.93 65.18 L40.53 65.24 L40.28 65.39 L40.14 65.59 L39.98 65.66 L39.53 65.5 L39.52 65.43 L39.66 65.24 L39.51 64.92 L39.06 64.88 L38.66 64.68 L38.27 64.66 L37.9 65.07 L37.35 65.35 L36.93 65.21 L36.47 65.18 L36.32 65.27 L35.58 65.89 L35.45 66.23 L35.48 66.32 L35.65 66.42 L35.54 66.66 L35.42 66.77 L35.22 66.75 L34.89 67.12 L34.74 67.11 L34.46 66.99 L34.42 66.79 L34.12 66.56 L33.97 66.85 L33.63 66.57 L33.44 66.64 L33.23 66.57 L33.07 66.64 L32.61 66.62 L32.31 66.76 L32.18 67.03 L31.83 67.06 L31.69 67.15 L31.6 67.02 L31.61 66.64 L31.29 66.48 L31.03 66.24 L30.95 66.12 L30.94 65.91 L30.84 65.83 L30.54 65.75 L30.24 65.36 L29.94 65.1 L29.79 65.04 L29.54 65.26 L29.37 65.31 L29.33 65.61 L29.17 65.7 L28.84 66.12 L28.46 66.45 L28.15 66.94 L27.94 67.05 L27.74 67.03 L27.42 67.14 L27.24 67.31 L26.95 67.42 L26.94 67.49 L26.81 67.6 L26.75 67.75 L26.65 67.81 L26.64 68 L26.54 68.26 L26.41 68.38 L26.41 68.56 L26.26 68.65 L26.19 68.84 L26.07 68.95 L26.06 69.09 L25.81 69.27 L25.62 69.58 L25.58 69.54 L25.71 69.39 L25.64 69.27 L25.55 69.22 L25.48 69.25 L25.23 69.08 L25.09 69.21 L24.92 69.07 L24.71 69.19 L24.43 69.2 L24.18 69.12 L24.12 69.2 L24.16 69.32 L24.04 69.28 L24.02 69.34 L23.87 69.36 L23.73 69.48 L23.54 69.55 L23.41 69.51 L23.41 69.42 L23.32 69.42 L23.32 69.29 L23.19 69.25 L23.15 69.05 L22.91 69 L22.83 68.91 L22.87 68.77 L22.73 68.62 L22.88 68.5 L22.82 68.21 L22.6 68.19 L22.37 68.07 L22.18 68.1 L22.14 68.22 L22.01 68.17 L21.67 68.28 L21.54 68.38 L21.37 68.32 L21.32 68.34 L21.17 68.24 L20.89 68.31 L20.66 68.2 L20.59 68.37 L20.68 68.65 L20.61 69 L20.65 69.22 L20.75 69.21 Z" /></svg>