<svg xmlns="http://www.w3.org/2000/svg" viewBox="0 0 96 96"><path fill="#efd0a0" fill-rule="evenodd" d="M35.46 86.39 L34.77 86.06 L34.56 85.89 L33.13 85.2 L33.03 85.11 L31.7 84.61 L31.35 84.43 L31.09 84.38 L29.75 83.68 L28.89 82.97 L28.76 82.74 L28.42 82.5 L27.8 81.78 L27.28 81.39 L27.08 81.15 L26.91 81.08 L26.88 80.99 L26.8 80.99 L26.06 80.47 L25.94 80.31 L25.74 80.24 L25.57 80.07 L25.44 80.04 L25.11 79.76 L24.95 79.74 L24.6 79.44 L24.36 79.35 L24.28 79.23 L23.53 78.89 L22.95 78.47 L22.78 78.46 L22.31 78.12 L21.88 77.94 L21.79 77.84 L21.34 77.7 L21.29 77.61 L21.01 77.43 L20.81 77.37 L20.63 77.13 L20.61 77.24 L20.56 77.24 L20.27 76.94 L20.11 76.91 L19.73 76.67 L19.71 76.6 L19.47 76.5 L19.42 76.37 L19.25 76.36 L19.16 76.2 L18.94 76.07 L18.46 75.47 L18.31 75.19 L18.37 75.01 L18.3 74.87 L18.21 74.85 L18.17 74.75 L18.06 74.68 L18.07 74.58 L17.98 74.6 L17.86 74.53 L17.3 73.46 L17.11 72.82 L17.14 72.68 L17.06 72.46 L17.15 72.38 L17.24 72.11 L17.07 71.38 L17.14 71.34 L17.1 71.15 L17.21 71.08 L17.25 70.86 L17.15 70.46 L17.25 70 L17.06 69.4 L17.37 69.04 L17.56 69.03 L17.68 68.63 L17.96 68.07 L17.98 67.67 L18.08 67.61 L18.45 67.61 L18.56 67.74 L18.86 67.73 L19.05 67.5 L19.14 67.3 L19.11 66.97 L19.2 67 L19.35 66.77 L19.45 66.36 L19.39 65.99 L19.48 65.87 L19.84 65.73 L19.89 65.67 L20.04 65.67 L20.55 66.14 L20.78 66.53 L20.92 66.59 L20.96 66.81 L21.2 67.03 L21.68 67.28 L21.84 67.29 L21.99 67.18 L22 67.3 L22.22 67.35 L22.36 67.5 L22.7 67.4 L22.8 67.59 L23.25 67.59 L23.46 67.71 L23.51 67.81 L23.79 67.77 L23.89 67.85 L24.11 67.87 L24.39 67.86 L25.02 67.61 L25.68 67.17 L26.2 66.63 L26.45 66.18 L26.72 65.42 L27.07 64.97 L27.3 64.44 L27.47 63.85 L27.63 62.44 L27.67 61.43 L27.6 60.48 L27.24 59.52 L27.11 58.89 L26.89 58.24 L26.77 58.06 L26.55 57.44 L26.07 56.47 L25.98 56.01 L24.84 54.21 L23.87 53.03 L23.33 52.6 L22.42 51.6 L22.37 51.63 L22.1 51.43 L21.97 51.21 L21.66 50.97 L20.53 49.83 L19.69 49.23 L19.67 49.15 L19.58 49.18 L19.46 49.07 L19.3 49.14 L19.14 49.02 L19.08 49.12 L18.98 49.12 L18.83 49.25 L18.55 49.25 L18.57 49.21 L18.43 49.02 L18.4 48.78 L18.26 48.47 L18.08 48.27 L17.97 48.25 L17.94 48.05 L17.84 47.96 L17.78 47.73 L17.56 47.42 L17.14 47.29 L17.11 47.18 L16.4 46.52 L16.33 46.39 L16.18 46.31 L15.95 46.05 L15.81 46.02 L15.59 45.78 L15.52 45.55 L15.6 45.51 L15.58 45.41 L15.74 45.26 L15.74 45.03 L15.78 44.97 L15.89 45 L15.97 44.83 L16.1 44.86 L16.16 44.81 L16.3 44.59 L16.32 44.45 L16.41 44.41 L16.38 44.3 L16.5 44.02 L16.5 43.64 L16.35 43.31 L16.29 43.3 L16.28 43.22 L16.18 43.12 L16.14 42.96 L16.18 42.93 L16.09 42.93 L16.07 42.83 L16.26 42.81 L16.3 42.74 L16.47 42.79 L16.49 42.66 L16.61 42.66 L16.78 42.53 L16.76 42.11 L16.68 41.8 L16.59 41.61 L16.53 41.58 L16.53 41.42 L16.36 41.3 L16.47 41.23 L16.46 41.01 L16.61 40.95 L16.76 40.75 L16.75 40.7 L16.97 40.82 L17 40.89 L17.22 40.97 L17.62 40.77 L17.72 40.6 L18.07 40.73 L18.42 41.14 L18.61 41.17 L18.84 41.06 L19.21 41.07 L19.38 41 L19.59 40.68 L19.72 40.69 L19.79 40.56 L19.85 40.56 L20.08 40.04 L20.22 39.97 L20.29 39.38 L20.21 38.93 L19.76 37.71 L19.26 36.83 L18.99 36.47 L17.63 35.09 L17.13 34.28 L16.94 34.14 L16.13 33.04 L15.15 31.91 L13.29 29.87 L12.58 28.97 L11.25 27.56 L10.96 27.13 L10.89 27.11 L10.84 26.94 L10.93 26.97 L10.9 26.82 L10.8 26.71 L10.86 26.55 L11.05 26.52 L11.18 26.63 L11.17 26.55 L11.36 26.5 L11.56 26.3 L11.69 25.65 L11.87 25.43 L11.88 25.07 L12.02 24.83 L11.99 24.35 L12.17 23.89 L12.32 23.69 L12.33 23.29 L12.5 23.18 L12.57 23.31 L12.62 23.18 L12.78 23.12 L12.57 22.62 L12.54 22.44 L12.61 22.35 L12.59 22.11 L12.05 21.27 L11.92 20.63 L11.73 20.25 L11.76 20.13 L11.66 19.94 L11.81 19.83 L11.79 19.75 L11.97 19.63 L11.88 19.21 L12.04 19.18 L12.13 19.05 L12.19 19.05 L12.17 19 L12.28 18.95 L12.36 19.04 L12.5 19.02 L12.67 18.9 L12.71 18.74 L12.77 18.78 L12.83 18.64 L12.81 18.54 L13.04 18.18 L13.09 18.18 L13.24 17.4 L13.29 17.33 L13.42 17.3 L13.5 17.11 L13.52 16.74 L13.57 16.71 L13.52 16.69 L13.54 16.24 L13.5 16.16 L13.59 16.11 L13.61 16.03 L13.59 15.07 L13.41 14.24 L13.21 13.94 L13.3 13.88 L13.43 13.47 L13.49 13.03 L13.44 12.81 L13.54 12.64 L13.65 12.57 L13.72 12.35 L13.97 12 L13.98 11.88 L14.19 11.9 L14.39 11.76 L14.63 11.76 L14.9 11.47 L15 11.23 L15.06 11.23 L15.25 11.04 L15.59 10.98 L15.86 10.76 L16.07 10.75 L16.37 10.61 L16.52 10.43 L16.53 10.33 L16.8 10.08 L16.92 9.84 L17.17 9.56 L17.24 9.35 L17.33 9.35 L17.38 9.28 L17.42 9.36 L17.61 9.39 L17.92 9.24 L18.86 7.58 L19.07 7.48 L19.25 7.27 L19.29 7.3 L19.49 7.13 L19.64 7.1 L19.77 6.96 L19.83 7 L20.01 6.99 L20.03 6.93 L20.12 6.96 L20.33 6.77 L20.47 6.81 L20.74 6.4 L20.66 6.38 L20.68 6.3 L20.78 6.2 L20.81 6.25 L20.89 6.17 L20.99 6.23 L21.03 6.4 L21.15 6.47 L21.24 6.65 L21.45 6.85 L21.61 6.89 L21.79 7.14 L22.07 7.15 L22.42 7.01 L22.65 7.25 L22.86 7.26 L22.91 7.36 L23.06 7.43 L23.18 7.58 L23.41 7.59 L23.55 7.89 L23.55 8.05 L23.67 8.12 L23.75 8.27 L23.61 8.73 L23.45 9 L23.57 9.18 L23.83 9.22 L24.36 9.03 L24.47 9.1 L24.56 9.28 L24.65 9.35 L24.8 9.29 L24.97 9.13 L25.23 9.11 L25.45 9.27 L25.83 9.36 L26.07 9.59 L26.27 9.61 L26.43 9.82 L26.67 9.87 L27.19 9.79 L27.38 9.7 L27.63 9.75 L27.83 9.66 L28.1 9.71 L28.36 9.6 L28.62 9.57 L29.28 9.26 L29.75 9.41 L29.96 9.36 L30.05 9.43 L30.08 9.26 L30.23 9.28 L30.49 9.19 L30.67 9.26 L30.77 9.25 L30.87 9.38 L31.01 9.41 L31.24 9.34 L31.31 9.4 L31.35 9.55 L31.47 9.47 L31.67 9.42 L31.67 9.35 L31.82 9.45 L31.92 9.45 L31.94 9.65 L32.06 9.76 L32.17 9.77 L32.27 9.92 L32.42 9.89 L32.6 9.74 L32.76 9.76 L32.9 9.69 L33.14 9.78 L33.3 9.99 L33.62 10.12 L33.71 10.33 L33.83 10.36 L33.88 10.47 L34.23 10.73 L34.4 10.78 L34.49 10.91 L34.82 11.06 L34.85 11.15 L35.16 11.12 L35.21 11.16 L35.33 11.1 L35.58 11.16 L35.64 11.22 L36.05 11 L36.17 10.67 L36.29 10.68 L36.28 10.49 L36.39 10.57 L36.8 10.63 L36.78 10.35 L36.84 10.23 L36.91 10.21 L36.91 10.08 L37.14 9.92 L37.26 9.95 L37.26 9.81 L37.38 9.71 L37.37 9.49 L37.81 9.27 L37.79 8.97 L37.96 8.98 L37.93 8.73 L38.13 8.66 L38.14 8.48 L38.25 8.41 L38.35 8.23 L38.37 8.06 L38.54 8.02 L38.59 7.78 L38.82 7.36 L38.88 7.31 L39.03 7.35 L39.03 7.07 L39.13 6.84 L39.3 6.67 L39.34 6.55 L39.48 6.53 L39.61 6.35 L39.82 6.26 L39.94 6.31 L40.02 6.17 L40.2 6.08 L40.33 6.1 L40.43 6 L40.58 6.19 L40.59 6.41 L40.74 6.47 L40.83 6.68 L41.25 7.15 L41.25 7.32 L41.07 7.52 L41.11 7.59 L41.23 7.63 L41.47 7.44 L41.64 7.48 L41.74 7.33 L41.8 7.35 L41.69 7.61 L41.74 7.63 L41.74 10.43 L41.86 10.37 L41.92 10.18 L42.21 9.99 L42.35 9.96 L42.54 10.11 L42.8 10.2 L42.9 10.53 L43.15 10.72 L43.88 10.19 L44.06 10.37 L44.22 10.28 L44.44 10.03 L44.58 10.01 L44.7 10.12 L44.7 10.35 L45.12 10.84 L45.2 10.75 L45.32 10.74 L45.31 10.55 L45.47 10.51 L45.51 10.43 L45.59 10.43 L45.7 10.58 L45.94 10.61 L46.08 10.43 L46.34 10.29 L46.51 10.03 L46.74 10.12 L46.54 10.43 L46.25 10.69 L46.22 10.65 L46.04 10.89 L45.94 10.93 L45.65 11.4 L45.55 11.51 L45.5 11.49 L45.47 11.61 L45.17 11.87 L45.08 12.07 L45.07 12.14 L45.12 12.16 L45.07 12.29 L44.64 12.57 L44.64 12.86 L44.57 13.05 L44.17 13.34 L44.02 13.36 L43.82 13.65 L43.63 13.76 L43.06 14.28 L42.85 14.66 L42.51 15.06 L42.44 15.25 L42.45 15.44 L42.34 15.55 L42.27 15.79 L41.92 16.03 L41.88 16.2 L41.62 16.54 L41.62 16.75 L41.85 16.91 L41.83 17.03 L41.7 16.97 L41.64 17.08 L41.8 17.24 L41.56 17.41 L41.75 17.81 L41.7 17.92 L41.7 18.22 L41.78 18.3 L41.8 18.46 L41.9 18.54 L41.81 18.67 L41.82 18.75 L42 18.79 L42.11 19.11 L42.22 19.1 L42.57 19.21 L42.56 19.34 L42.76 19.47 L42.8 19.45 L42.78 19.23 L42.87 19.23 L42.96 19.38 L43.07 19.38 L43.2 19.46 L43.25 19.56 L43.4 19.6 L43.6 19.81 L43.55 19.98 L43.89 20.18 L44.09 19.85 L44.77 19.93 L44.97 19.7 L45.12 19.68 L45.47 19.49 L45.94 19.4 L46.09 19.27 L46.19 19 L46.5 18.98 L46.69 18.87 L46.86 18.58 L47.28 18.37 L47.3 18.32 L47.25 18.34 L47.11 18.19 L47.12 18.03 L47.21 17.84 L47.42 17.74 L47.43 17.51 L47.49 17.42 L47.67 17.42 L47.74 17.3 L47.84 17.27 L48.13 17.53 L48.28 17.54 L48.44 17.2 L48.62 17.22 L48.77 17.15 L48.76 16.91 L48.9 16.78 L49.19 16.68 L49.31 16.42 L49.34 16.19 L49.41 16.16 L49.51 16.22 L49.52 16.34 L49.59 16.43 L49.77 16.3 L49.73 16.15 L49.63 16.08 L49.87 15.91 L49.79 15.65 L49.82 15.5 L49.91 15.52 L50.06 15.7 L50.17 15.62 L50.08 15.54 L50.1 15.45 L50.32 15.37 L50.51 15.44 L50.65 15.39 L50.55 15.16 L50.25 15.05 L50.35 14.88 L50.53 14.93 L50.77 14.86 L50.89 14.89 L50.93 14.76 L50.89 14.56 L50.97 14.23 L51.15 13.93 L51.2 13.63 L51.42 13.33 L51.53 13.26 L51.66 13.29 L51.66 13.67 L52.01 13.78 L52.08 13.73 L52.1 13.58 L52.22 13.54 L52.48 13.13 L52.59 13.17 L52.64 13.13 L52.77 13.15 L52.76 13.28 L52.62 13.39 L52.72 13.5 L53.19 13.43 L53.29 13.5 L53.38 13.45 L53.49 13.55 L53.69 13.58 L53.68 13.39 L53.84 13.33 L54.08 13.43 L54.27 13.67 L54.56 13.69 L54.88 13.87 L54.95 13.96 L55 13.93 L55.33 13.99 L55.46 14.3 L55.58 14.4 L55.6 14.62 L56.11 14.91 L56.12 15.09 L56.26 15.23 L56.29 15.34 L56.49 15.34 L56.69 15.51 L57.03 15.63 L57.17 15.94 L57.4 16.17 L57.65 16.28 L57.81 16.47 L58.28 16.41 L58.82 16.98 L58.92 16.98 L59.18 16.82 L59.47 17.01 L59.78 16.99 L60 16.91 L60.32 16.64 L60.41 16.74 L60.58 16.79 L60.63 16.87 L60.83 16.93 L60.99 17.11 L61.34 17.24 L61.57 17.5 L62.04 17.63 L62.28 17.87 L62.3 18.07 L62.42 18.1 L62.55 18.33 L62.63 18.37 L62.58 18.67 L62.63 18.69 L62.59 18.81 L62.65 18.96 L62.87 19.14 L63.09 19.46 L63.22 19.55 L63.21 19.61 L63.35 19.62 L63.91 20.12 L63.98 20.25 L64.53 20.23 L64.67 20.37 L64.75 20.37 L65.24 20.21 L65.85 20.17 L66.08 20.02 L66.41 20 L66.46 19.9 L66.66 19.88 L66.74 19.78 L67.07 19.64 L67.12 19.56 L67.36 19.52 L67.55 19.62 L67.77 19.65 L68 19.37 L68.22 19.31 L68.4 19.18 L68.44 18.98 L68.54 18.95 L68.65 18.81 L68.68 18.86 L68.94 18.81 L69.05 18.66 L69.18 18.65 L69.22 18.56 L69.36 18.59 L69.58 18.34 L69.84 18.42 L69.98 18.31 L70.2 18.47 L70.59 18.54 L70.94 18.75 L70.99 18.91 L71.15 18.92 L71.16 19.05 L71.23 19.07 L71.23 19.15 L71.52 19.12 L71.48 19.25 L71.65 19.28 L71.58 19.48 L71.72 19.56 L71.82 19.55 L71.79 19.78 L71.89 19.82 L71.91 19.92 L72.24 20.21 L72.15 20.31 L72.23 20.48 L72.19 20.57 L72.28 20.61 L72.41 20.78 L72.56 20.71 L72.66 20.83 L72.65 20.98 L72.76 20.91 L72.82 20.94 L72.79 21.07 L72.86 21.17 L72.9 21.19 L72.93 21.09 L73.01 21.07 L73.27 21.13 L73.33 21.24 L73.49 21.34 L73.5 21.55 L73.96 21.54 L74.08 21.68 L74.18 21.52 L74.3 21.56 L74.28 21.43 L74.32 21.4 L74.37 21.43 L74.49 21.34 L74.54 21.21 L74.63 21.21 L74.67 21.28 L74.86 21.24 L74.86 21.3 L75.17 21.38 L75.19 21.5 L75.46 21.61 L75.59 21.96 L75.63 22.5 L75.81 22.89 L75.77 22.98 L75.85 23.04 L75.73 23.2 L75.3 23.36 L75.23 23.49 L75.41 23.99 L75.39 24.46 L75.49 24.77 L75.44 25.02 L75.52 25.14 L75.68 25.17 L75.71 25.27 L75.81 25.32 L75.85 25.41 L75.94 25.42 L76.1 25.58 L76.1 25.71 L76.32 25.98 L76.27 26.24 L76.35 26.26 L76.34 26.39 L76.43 26.49 L76.39 26.82 L76.47 26.86 L76.5 26.97 L76.48 27.17 L76.55 27.39 L76.51 27.5 L76.53 27.71 L76.76 28.03 L76.88 28.28 L77.35 28.68 L77.54 28.91 L77.53 29.15 L77.57 29.32 L78.73 32.25 L78.85 32.33 L79.13 32.27 L79.5 32.29 L79.75 32.47 L79.79 32.61 L79.9 32.72 L79.89 32.99 L80.11 33.43 L80.09 33.5 L80.2 33.72 L80.23 33.99 L80.44 34.17 L80.69 34.22 L80.72 34.15 L80.82 34.16 L80.85 34.1 L80.93 34.17 L80.91 34.25 L80.96 34.38 L81.25 34.53 L81.34 34.7 L81.64 34.71 L81.68 34.59 L81.83 34.63 L81.84 34.78 L82.04 35.05 L82 35.15 L82.03 35.29 L82.11 35.2 L82.43 35.9 L82.96 36.5 L83.27 37.03 L83.42 37.06 L84.12 36.97 L84.83 36.79 L85.09 36.86 L85.2 37.07 L85.15 37.34 L84.87 37.79 L84.27 38.15 L84.14 38.74 L83.91 39.41 L83.88 40.1 L83.76 40.09 L83.45 39.63 L83.13 39.6 L82.98 39.48 L82.79 39.74 L82.87 40.18 L82.78 40.48 L82.87 40.74 L82.73 41.21 L82.32 41.99 L82.08 42.13 L81.37 42.26 L81.05 42.46 L80.8 42.9 L80.61 43.12 L80.6 43.91 L80.4 44.04 L80.09 44.1 L79.88 44.3 L79.74 44.31 L79.33 44.84 L79.52 45.16 L79.6 45.59 L80.12 46.05 L80.37 46.42 L80.35 46.8 L80.42 47.02 L80.42 47.21 L80.18 47.59 L79.94 47.81 L80.04 48.14 L79.87 48.31 L80.17 48.45 L80.45 48.71 L80.5 48.98 L80.86 49.06 L81.08 49.29 L80.99 49.72 L81.31 50.76 L81.44 50.94 L81.67 50.99 L81.77 51.07 L81.71 51.38 L81.86 51.68 L81.87 52.14 L81.93 52.4 L81.86 52.64 L81.89 53.19 L82.1 53.38 L82.24 53.6 L82.12 54.31 L82.35 54.66 L82.49 55.02 L82.74 55.22 L82.68 55.4 L82.82 55.71 L82.79 55.89 L82.95 56.06 L82.95 56.21 L83.04 56.32 L82.78 56.56 L82.59 56.66 L81.87 56.55 L81.66 56.45 L81.44 56.76 L80.96 56.99 L80.76 56.81 L80.42 56.8 L80.19 56.71 L79.71 56.77 L79.36 56.59 L78.96 56.54 L78.58 56.99 L78.65 57.33 L78.77 57.44 L78.76 57.56 L79.05 57.9 L79.15 58.1 L79.28 58.68 L79.2 58.79 L79.2 58.91 L79.51 59.25 L79.49 59.4 L79.37 59.52 L79.36 59.86 L79.22 60.33 L79.24 60.62 L79.32 60.71 L79.3 60.88 L79.14 61.08 L79.14 61.2 L79.06 61.3 L79.13 61.45 L79.07 61.6 L79.12 61.7 L79 61.87 L78.98 62.31 L78.61 62.73 L78.56 62.93 L78.55 63.17 L78.65 63.47 L78.54 63.89 L78.59 64.13 L78.55 64.44 L78.5 64.5 L78.61 65.05 L78.59 65.23 L78.62 65.35 L78.8 65.54 L78.81 65.72 L78.94 66.01 L79.07 66.14 L79.19 66.15 L79.38 66.3 L79.4 66.64 L79.33 66.72 L79.42 66.92 L79.42 67.09 L79.51 67.19 L79.61 67.49 L79.89 67.76 L80 67.78 L79.99 67.92 L80.09 67.97 L80.09 68.07 L80.3 68.18 L80.29 68.24 L80.14 68.33 L80.23 68.56 L80.19 68.79 L80.67 69.13 L80.64 69.45 L80.84 69.57 L80.35 69.99 L80.14 70.22 L80.05 70.44 L79.95 70.48 L79.99 70.58 L79.88 70.67 L79.88 70.91 L79.8 70.93 L79.65 71.1 L79.21 71.2 L78.6 71.53 L77.85 72.26 L77.21 71.67 L76.36 71.36 L76.24 70.94 L76.14 70.81 L75.73 70.59 L75.45 70.53 L75.37 70.43 L75.13 70.34 L75.04 70.43 L74.93 70.37 L74.72 70.39 L74.65 70.35 L74.55 70.51 L74.44 70.48 L74.33 70.22 L74.08 70.22 L73.89 70.42 L73.91 70.52 L73.76 70.57 L73.64 70.49 L73.63 70.66 L73.51 70.66 L73.4 70.83 L73.27 70.86 L73.15 71.11 L72.8 70.98 L72.52 71.1 L72.29 70.98 L71.98 71.12 L71.7 70.96 L71.6 71 L71.52 71.13 L71.16 70.58 L71.19 70.39 L71.11 70.27 L71.11 69.85 L71.05 69.59 L70.92 69.48 L70.59 69.35 L70.62 68.93 L70.48 68.69 L70.48 68.5 L70.36 68.32 L70.21 68.26 L70.28 68.1 L70.47 68.09 L70.52 67.9 L70.53 67.67 L70.4 67.3 L70.65 67.13 L70.72 66.97 L70.83 66.38 L70.71 66.18 L70.44 66.3 L70.32 66.56 L70.15 66.69 L69.72 66.84 L69.44 67.23 L69.32 67.48 L69.05 67.52 L68.56 67.91 L68.4 67.95 L68.13 67.9 L67.9 67.74 L67.65 67.68 L67.51 67.58 L67.22 67.63 L66.71 67.59 L66.65 67.44 L66.68 67.2 L66.54 66.89 L66.56 66.74 L66.68 66.59 L66.65 66.22 L66.85 66.05 L66.79 65.8 L67.08 65.57 L67.39 64.61 L67.33 64.4 L67.44 64.19 L67.25 63.96 L66.77 63.54 L66.48 63.42 L66.45 63.16 L66.03 62.97 L65.85 62.77 L66.45 62.22 L66.45 61.92 L66.07 61.9 L65.7 61.43 L65.54 61.34 L65.21 61.28 L65 60.93 L64.86 60.86 L64.34 60.88 L64.1 61.12 L63.93 61.55 L63.84 61.53 L63.77 61.27 L63.61 61.11 L63.56 60.84 L63.46 60.78 L63.33 60.84 L63.31 60.64 L62.78 59.6 L62.63 59.2 L62.65 59.04 L62.47 58.76 L62.39 58.36 L62.45 58.19 L62.24 57.9 L62.3 57.58 L62.26 57.42 L62.61 56.81 L62.34 56.52 L62.08 56.42 L61.99 56.24 L61.81 56.1 L61.73 55.69 L61.51 55.39 L61.14 55.07 L60.95 55.06 L60.95 55.27 L60.83 55.49 L60.3 55.73 L60.2 55.91 L59.87 55.93 L59.83 56.11 L59.67 56.33 L59.38 56.28 L59.2 56.67 L58.85 58.28 L58.87 58.47 L58.66 58.55 L58.55 58.81 L58.38 60.64 L58.4 60.97 L58.56 61.13 L58.56 61.2 L58.37 61.46 L58.33 61.65 L58.13 62 L58.11 62.41 L58 62.96 L57.68 63.63 L57.72 63.89 L57.63 64.1 L57.7 64.54 L57.43 65.01 L56.83 65.3 L56.34 65.81 L56.29 65.97 L56.19 66.03 L56.03 66.31 L55.64 66.64 L55.49 66.91 L55.19 67.04 L55.04 67.24 L54.85 67.38 L54.83 67.46 L54.69 67.5 L54.37 67.85 L54.28 68.06 L53.92 68.37 L53.79 68.59 L53.25 68.79 L53.11 69.46 L52.34 69.35 L51.38 69.47 L50.75 69.48 L49.7 69.62 L49.2 69.77 L47.14 70.7 L46.57 71.09 L45.52 71.96 L45.25 72.23 L44.7 73.01 L35.57 86.34 L35.5 86.42 L35.46 86.39 Z M27.77 86.62 L27.86 86.7 L27.84 86.78 L27.61 87.11 L27.57 87.28 L27.47 87.33 L27.56 87.53 L27.39 87.57 L27.38 87.62 L27.45 87.65 L27.44 87.82 L27.56 87.94 L27.65 87.92 L27.67 88.07 L27.73 88.11 L27.77 88.25 L27.98 88.34 L27.94 88.46 L27.88 88.48 L27.98 88.55 L28.01 88.65 L27.95 88.72 L27.84 88.69 L27.88 88.77 L27.78 88.83 L28.02 89.05 L27.91 89.15 L27.85 89.14 L27.84 89.21 L27.87 89.29 L28.02 89.28 L27.9 89.52 L27.94 89.59 L28.05 89.61 L28.02 89.74 L28.12 89.76 L28.15 89.87 L28.02 89.92 L28.01 89.8 L27.84 89.72 L27.76 89.85 L27.78 89.97 L27.65 89.97 L27.57 89.86 L27.46 89.91 L27.4 89.84 L27.41 89.95 L27.29 90 L27.15 89.85 L27.2 89.78 L27.13 89.6 L27.2 89.49 L27.16 89.4 L27.25 89.38 L27.25 89.28 L27.39 89.28 L27.37 89.01 L27.32 88.96 L27.21 89.04 L27.15 88.96 L26.93 88.87 L26.93 88.77 L27.01 88.76 L26.99 88.59 L26.88 88.62 L26.78 88.56 L26.55 88.55 L26.67 88.52 L26.71 88.44 L26.85 88.44 L27.01 88.27 L27.08 88.29 L27.05 88.16 L27.16 88.24 L27.14 88.1 L27.19 88.04 L27.12 87.92 L27.27 87.86 L27.27 87.8 L27.11 87.71 L27.11 87.59 L26.99 87.57 L26.93 87.45 L27.04 87.41 L27.15 87.54 L27.26 87.55 L27.38 87.28 L27.29 87.17 L27.39 86.99 L27.36 86.92 L27.47 86.85 L27.61 86.61 L27.73 86.58 L27.77 86.62 Z M27.2 86.7 L27.24 86.74 L27.22 86.79 L27.13 86.74 L27.15 86.65 L27.2 86.7 Z M15.17 45.39 L15.36 45.62 L15.24 45.73 L15.07 45.66 L15.05 45.48 L14.9 45.4 L14.87 45.33 L14.97 45.34 L15.09 45.24 L15.17 45.39 Z" /></svg>