<svg xmlns="http://www.w3.org/2000/svg" viewBox="0 0 96 96"><path fill="#efd0a0" fill-rule="evenodd" d="M55.81 88.03 L55.66 88.17 L55.6 88.3 L55.4 88.34 L55.36 88.31 L55.31 88.39 L55.18 88.46 L55.14 88.52 L55.13 88.65 L55.08 88.68 L55.09 88.71 L54.88 89.34 L54.65 89.58 L54.5 89.52 L54.45 89.64 L54.33 89.73 L54.4 89.84 L54.31 89.83 L54.27 89.77 L54.29 89.72 L54.19 89.67 L54.2 89.62 L54.13 89.52 L54.05 89.52 L53.92 89.6 L53.81 89.59 L53.57 89.68 L53.51 89.62 L53.45 89.67 L53.35 89.58 L53.24 89.67 L53.16 89.66 L53.08 89.73 L53.02 89.74 L53.02 89.83 L52.94 89.92 L52.77 89.94 L52.76 89.97 L52.71 89.96 L52.65 90 L52.61 89.93 L52.49 89.95 L52.37 89.89 L52.25 89.77 L52.17 89.78 L52.05 89.71 L51.96 89.58 L51.98 89.39 L51.95 89.34 L51.72 89.05 L51.62 88.98 L51.59 88.88 L51.51 88.84 L51.32 88.75 L51.24 88.8 L51.1 88.79 L51.03 88.87 L50.94 88.89 L50.91 88.94 L50.76 88.93 L50.67 89 L50.5 88.96 L50.42 89 L50.3 88.99 L50.15 88.78 L50.08 88.76 L50.04 88.77 L49.91 88.72 L49.86 88.58 L49.79 88.56 L49.66 88.58 L49.56 88.54 L49.37 88.54 L49.3 88.47 L49.2 88.44 L49.13 88.36 L49 88.32 L48.89 88.2 L48.51 88.1 L48.42 87.97 L48.33 87.95 L48.21 87.87 L48.17 87.78 L48.01 87.71 L47.93 87.47 L47.75 87.52 L47.64 87.3 L47.63 87.18 L47.41 87.12 L47.1 86.94 L46.9 86.61 L46.84 86.65 L46.8 86.62 L46.75 86.64 L46.67 86.71 L46.59 86.72 L46.56 86.57 L46.48 86.41 L46.46 86.18 L46.56 85.75 L46.51 85.46 L46.55 85.37 L46.28 85.18 L46.08 84.96 L45.94 84.92 L45.77 84.66 L45.44 84.34 L45.43 84.3 L45.48 84.2 L45.43 84.06 L45.5 83.93 L45.3 83.78 L45.08 83.69 L45.04 83.61 L45.04 83.45 L44.93 83.37 L44.87 83.25 L44.7 83.12 L44.55 83.12 L44.5 83.02 L44.74 82.95 L45.05 82.74 L45.14 82.62 L45.28 82.24 L45.5 82.1 L45.52 81.81 L45.58 81.7 L45.54 81.56 L45.59 81.45 L45.59 80.56 L45.75 80.45 L45.75 80.35 L45.9 80.28 L46.01 80.27 L46.25 80.07 L46.27 79.97 L46.33 79.91 L46.28 79.71 L46.38 79.61 L46.53 79.57 L46.59 79.47 L46.77 79.39 L46.75 79.33 L46.68 79.25 L46.68 79.2 L46.88 79.14 L47.04 79.17 L47.18 79.16 L47.39 78.96 L47.48 78.92 L47.46 78.56 L47.36 78.45 L47.18 78.36 L47.15 78.17 L47.16 78.1 L47.41 77.85 L47.34 77.48 L47.28 77.38 L47.18 77.31 L47.12 77.2 L46.97 77.11 L46.91 77.01 L46.73 77.07 L46.58 76.99 L46.43 76.94 L46.39 76.96 L46.25 77.16 L45.99 77.18 L45.79 77.3 L45.7 77.44 L45.6 77.46 L45.48 77.43 L45.11 77.15 L44.99 77.13 L44.8 77.03 L44.59 76.87 L44.55 76.78 L44.44 76.7 L44.27 76.71 L44.14 76.65 L44.07 76.57 L44.06 76.4 L43.92 76.29 L43.98 76.16 L43.92 75.84 L43.94 75.64 L43.84 75.55 L43.82 75.27 L43.75 75.16 L43.44 75.2 L43.16 74.88 L43.07 74.71 L42.88 74.55 L42.64 74.52 L42.61 74.49 L42.32 74.4 L41.85 74.21 L41.7 74.1 L41.49 74.02 L41.35 73.89 L41.19 73.91 L41.21 73.75 L41.38 73.5 L41.39 73.41 L41.18 73.36 L41.2 73.11 L41.08 72.92 L40.87 72.71 L40.7 72.77 L40.54 72.78 L40.31 72.69 L40.31 72.65 L40.42 72.56 L40.41 72.49 L40.2 72.33 L39.9 72.2 L39.99 72.14 L40.11 71.99 L40.13 71.87 L40.4 71.85 L40.39 71.75 L40.57 71.59 L40.62 71.44 L40.6 71.28 L40.65 71.23 L40.75 70.96 L40.6 70.66 L40.58 70.56 L40.65 70.48 L40.56 70.35 L40.64 70.23 L40.72 69.94 L40.64 69.76 L40.62 69.66 L40.78 69.46 L40.82 69.3 L40.97 69.23 L40.96 69.07 L41.04 68.94 L40.95 68.78 L40.92 68.65 L40.85 68.61 L40.74 68.59 L40.62 68.63 L40.36 68.75 L40.23 68.64 L40.16 68.54 L40.19 68.41 L40.17 68.28 L40.09 68.13 L39.85 67.91 L39.78 67.73 L39.57 67.63 L39.51 67.57 L39.49 67.39 L39.39 67.03 L39.45 66.95 L39.52 66.71 L39.51 66.67 L39.42 66.65 L39.5 66.39 L39.35 66.14 L39.25 66.15 L39.16 66.04 L39.03 66.01 L38.98 65.91 L38.88 65.86 L38.76 65.37 L38.7 65.32 L38.63 65.33 L38.28 65.65 L38.17 65.62 L38.02 65.51 L37.96 65.43 L37.72 65.46 L37.54 65.39 L37.46 65.4 L37.39 65.23 L37.26 65.31 L37.19 65.27 L37.05 65.12 L37.03 64.96 L36.87 64.89 L36.68 64.59 L36.56 64.54 L36.42 64.42 L36.37 64.33 L36.19 64.46 L36.08 64.48 L36.02 64.43 L35.89 64.42 L35.78 64.49 L35.42 64.55 L35.27 64.67 L35.14 64.69 L35.09 64.67 L35.06 64.61 L34.84 64.41 L34.84 64.46 L34.79 64.45 L34.75 64.56 L34.65 64.56 L34.55 64.71 L34.43 64.74 L34.29 64.93 L34.19 64.89 L34.16 64.96 L34.08 64.98 L34.02 65.07 L33.93 65.06 L33.85 65.09 L33.75 65.19 L33.65 65.21 L33.57 65.28 L33.43 65.32 L33.36 65.28 L33.32 65.32 L33.24 65.33 L33.1 65.26 L33 65.08 L32.87 64.97 L32.72 64.98 L32.57 64.92 L32.41 65.01 L32.33 64.98 L32.33 64.94 L32.29 64.91 L32.23 64.93 L32.17 64.91 L32.11 64.79 L31.99 64.71 L31.93 64.59 L31.82 64.5 L31.84 64.32 L31.71 64.16 L31.66 64.17 L31.62 64.39 L31.56 64.42 L31.34 64.24 L31.16 64.23 L31.08 64.17 L30.96 64.14 L30.9 64.07 L30.93 63.9 L30.91 63.84 L31.06 63.75 L31.08 63.68 L31.04 63.61 L30.97 63.58 L31.01 63.49 L30.94 63.43 L30.95 63.35 L30.87 63.24 L30.89 63.18 L30.86 63.14 L30.76 63.11 L30.77 63.03 L30.67 62.83 L30.53 62.75 L30.51 62.64 L30.42 62.5 L30.26 62.46 L30.07 62.58 L30.01 62.55 L29.95 62.46 L29.84 62.25 L29.89 62.18 L29.9 62.05 L29.86 61.88 L29.97 61.75 L29.85 61.66 L29.76 61.5 L29.65 61.4 L29.6 61.23 L29.5 61.12 L29.4 60.89 L29.39 60.74 L29.07 60.45 L28.95 60.25 L28.97 60.22 L29.07 60.2 L29.15 60.14 L29.26 59.95 L29.26 59.81 L29.33 59.69 L29.6 59.58 L29.68 59.51 L29.77 59.15 L29.77 59.03 L29.59 58.88 L29.58 58.81 L29.53 58.76 L29.43 58.55 L29.41 58.31 L29.46 58.08 L29.42 57.69 L29.25 57.42 L29.16 57.4 L29.11 57.33 L29.03 57.3 L29.01 57.18 L28.89 57.17 L28.81 57.09 L28.7 57.05 L28.58 56.95 L28.47 56.96 L28.16 56.79 L28.1 56.68 L27.97 56.54 L27.94 56.46 L27.79 56.36 L27.7 56.23 L27.65 56.07 L27.73 55.9 L27.68 55.81 L27.68 55.72 L27.63 55.67 L27.54 55.65 L27.53 55.53 L27.46 55.45 L27.54 55.31 L27.66 55.25 L27.62 55.1 L27.47 54.93 L27.46 54.88 L27.53 54.66 L27.72 54.54 L27.91 54.34 L27.95 54.22 L27.96 54.07 L27.84 53.86 L27.76 53.81 L27.74 53.75 L27.56 53.65 L27.28 53.55 L27.25 53.38 L27.1 53.15 L27.06 53.02 L27.12 52.75 L27.28 52.52 L27.33 52.35 L27.44 52.25 L27.59 51.94 L27.59 51.8 L27.69 51.66 L28.1 51.29 L28.26 51.34 L28.58 51.34 L28.63 51.31 L28.73 51.2 L28.8 51 L28.78 50.86 L28.62 50.63 L28.42 50.52 L28.31 50.42 L28.27 50.21 L28.14 50.11 L28.1 49.96 L28.15 49.88 L28.27 49.84 L28.31 49.72 L28.4 49.65 L28.41 49.59 L28.49 49.5 L28.51 49.39 L28.57 49.33 L28.43 49.18 L28.46 49.06 L28.35 48.95 L28.35 48.75 L28.38 48.63 L28.28 48.53 L28.29 48.23 L28.18 48.02 L28.25 47.93 L28.27 47.84 L28.28 47.63 L28.24 47.54 L28.21 47.19 L27.94 46.94 L27.96 46.81 L27.91 46.69 L27.92 46.39 L27.86 46.22 L27.94 46.01 L27.95 45.81 L27.88 45.67 L27.89 45.46 L27.74 45.09 L27.77 44.77 L27.73 44.67 L27.74 44.53 L27.89 44.38 L27.86 44.31 L27.88 44.19 L28.11 44.03 L28.07 43.86 L27.99 43.68 L28.01 43.54 L28.08 43.45 L28.04 43.3 L27.95 43.22 L27.89 43.02 L27.9 42.73 L27.96 42.71 L27.95 42.48 L27.99 42.39 L27.95 42.23 L27.88 42.1 L27.88 42.03 L27.97 41.98 L27.92 41.91 L27.9 41.8 L27.96 41.74 L28.13 41.71 L28.24 41.65 L28.26 41.47 L28.22 41.41 L28.26 41.3 L28.19 41.17 L28.2 41.04 L28.14 40.9 L28.2 40.66 L28.28 40.62 L28.31 40.52 L28.19 40.32 L28 40.21 L27.89 40.18 L27.83 40.11 L27.72 40.09 L27.56 40.01 L27.42 40.14 L27.37 40.29 L27.28 40.39 L27.19 40.38 L27.11 40.24 L26.85 40.29 L26.73 40.25 L26.67 40.18 L26.57 39.92 L26.08 39.5 L26.1 39.14 L25.93 38.96 L25.8 38.93 L25.77 38.81 L25.68 38.73 L25.6 38.59 L25.51 38.23 L25.62 38.11 L25.68 37.94 L25.96 37.91 L26.21 37.85 L26.31 37.89 L26.38 37.88 L26.47 37.78 L26.78 37.58 L26.85 37.44 L27.02 37.26 L27.25 37.12 L27.33 37.11 L27.54 37.21 L27.62 37.22 L27.56 37.09 L27.42 36.99 L27.44 36.92 L27.53 36.84 L27.78 36.73 L27.85 36.74 L27.94 36.75 L28.01 36.86 L28.25 36.94 L28.29 36.92 L28.32 36.84 L28.34 36.69 L28.47 36.66 L28.36 36.39 L28.18 36.24 L28.16 36.17 L28.23 36.14 L28.23 36.07 L28.06 35.83 L27.87 35.42 L27.82 35.37 L28.08 35.28 L28.03 35.06 L28.15 34.82 L28.11 34.63 L28.04 34.55 L28.05 34.44 L28.16 34.33 L28.42 34.28 L28.55 34.21 L28.48 34.16 L28.46 34.03 L28.33 33.93 L28.33 33.71 L28.23 33.69 L28.1 33.46 L28.23 33.27 L28.2 33.09 L28.1 32.95 L28.23 32.95 L28.26 32.91 L28.29 32.93 L28.4 32.92 L28.55 32.6 L28.83 32.43 L28.94 32.41 L29.2 32.2 L29.3 32.2 L29.42 32.27 L29.53 32.22 L29.55 32.13 L29.62 32.05 L29.5 31.86 L29.51 31.46 L29.91 31.16 L29.95 30.87 L30.16 30.82 L30.12 30.49 L29.95 30.31 L29.93 30.2 L29.83 30.16 L29.78 30.07 L29.84 29.93 L29.82 29.84 L29.89 29.62 L30.03 29.55 L30.12 29.4 L30.11 29.33 L29.98 29.19 L30.03 28.92 L30.12 28.83 L30.28 28.89 L30.35 28.84 L30.41 28.85 L30.51 28.66 L30.58 28.63 L30.67 28.65 L30.75 28.51 L30.84 28.44 L30.92 28.43 L31.08 28.32 L31.33 28.29 L31.32 28.15 L31.56 27.96 L31.61 27.88 L31.63 27.81 L31.61 27.48 L31.83 27.26 L31.95 27.09 L31.78 26.93 L31.41 26.86 L31.36 26.86 L31.26 26.97 L31.16 27.02 L31.11 26.9 L31.13 26.82 L30.79 26.61 L30.73 26.34 L30.53 26.11 L30.56 25.95 L30.67 25.8 L30.75 25.74 L30.89 25.75 L30.95 25.71 L30.93 25.66 L30.73 25.56 L30.7 25.49 L30.88 25.06 L30.81 24.94 L30.81 24.84 L30.96 24.64 L31.06 24.36 L31.45 24.01 L31.51 23.92 L31.54 23.79 L31.52 23.7 L31.44 23.57 L31.14 23.48 L31.23 23.12 L31.14 22.96 L31.12 22.75 L30.98 22.65 L30.68 22.65 L30.51 22.46 L30.35 22.44 L30.27 22.39 L30.16 22.27 L30.19 22.1 L30.16 22.01 L30.18 21.93 L30.51 21.62 L30.69 21.59 L30.72 21.63 L30.76 21.91 L30.99 22.02 L31.18 22.16 L31.41 22.03 L31.56 22.05 L31.66 22.01 L31.79 22.07 L31.85 21.96 L32.35 21.89 L32.55 21.94 L32.67 21.94 L32.96 22.08 L33.13 22.1 L33.16 22.15 L33.28 22.19 L33.39 22.3 L33.48 22.44 L33.52 22.45 L33.5 22.34 L33.52 22.2 L33.56 22.1 L33.65 22 L33.65 21.86 L33.69 21.67 L33.58 21.53 L33.57 21.36 L33.47 21.16 L33.41 21.09 L33.26 21.05 L33.31 20.93 L33.17 20.59 L33.02 20.43 L33.05 20.01 L32.99 19.91 L33.07 19.8 L33.27 19.67 L33.28 19.35 L33.4 19.23 L33.37 19.05 L33.39 18.94 L33.67 18.86 L33.78 18.77 L33.87 18.74 L34.17 18.89 L34.4 18.89 L34.51 18.76 L34.7 18.62 L34.89 18.39 L35.16 18.21 L35.24 17.99 L35.32 17.89 L35.43 17.88 L35.63 17.69 L35.9 17.67 L35.99 17.5 L36.13 17.53 L36.2 17.44 L36.43 17.44 L36.47 17.38 L36.53 17.36 L36.61 17.25 L36.65 17.24 L36.74 17.3 L36.77 17.29 L36.8 16.95 L36.7 16.69 L36.9 16.25 L37.19 16.04 L37.37 15.82 L37.6 15.78 L37.7 15.7 L37.92 15.34 L38.06 15.18 L38.14 15.13 L38.26 14.91 L38.4 14.78 L38.42 14.67 L38.49 14.59 L38.37 14.53 L38.14 14.49 L38.13 14.45 L38.3 14.18 L38.4 14.1 L38.41 14 L38.52 13.91 L38.57 13.64 L38.69 13.56 L38.63 13.4 L38.62 13.26 L38.51 13.05 L38.51 13 L38.86 12.92 L38.93 12.83 L39.03 12.88 L39.2 12.86 L39.25 12.96 L39.55 13.15 L39.56 12.94 L39.69 12.62 L39.67 12.45 L39.6 12.39 L39.71 12.19 L39.67 12.02 L39.86 11.92 L39.97 11.98 L40.11 11.98 L40.16 11.88 L40.49 11.95 L40.56 11.99 L40.6 11.98 L40.62 11.94 L40.56 11.76 L40.58 11.63 L40.44 11.59 L40.36 11.47 L40.21 11.4 L40.05 11.23 L39.82 11.15 L39.55 11.16 L39.43 11.12 L39.41 11 L39.16 10.93 L39.1 10.82 L39.1 10.76 L39.18 10.72 L39.22 10.62 L39.4 10.53 L39.43 10.44 L39.72 10.44 L39.8 10.27 L39.74 10.18 L39.83 9.96 L39.84 9.76 L39.8 9.64 L39.88 9.51 L39.88 9.37 L39.83 9.28 L39.84 9.13 L39.8 9.06 L39.6 8.94 L39.56 8.87 L39.8 8.49 L39.69 8.42 L39.47 8.56 L39.38 8.59 L39.29 8.56 L39.24 8.5 L39.33 8.4 L39.52 8.35 L39.53 8.12 L54.65 13.05 L57.13 11.83 L67 7.19 L67.17 7.07 L69.43 6 L69.43 6.05 L69.55 6.14 L69.52 6.19 L69.38 6.2 L69.38 6.26 L69.43 6.34 L69.5 6.34 L69.72 6.22 L69.83 6.29 L69.82 6.33 L69.72 6.37 L69.7 6.52 L69.57 6.53 L69.54 6.59 L69.66 6.68 L69.77 6.59 L69.84 6.61 L69.88 6.7 L69.8 6.74 L69.78 6.79 L69.8 6.83 L69.9 6.85 L69.91 6.89 L69.88 6.93 L69.66 6.88 L69.62 6.9 L69.64 7.09 L69.69 7.12 L69.78 7.11 L69.78 7.25 L69.72 7.31 L69.68 7.42 L69.51 7.51 L69.49 7.57 L69.69 7.83 L69.59 8.13 L69.47 8.15 L69.39 8.21 L69.4 8.28 L69.43 8.29 L69.54 8.25 L69.56 8.29 L69.48 8.37 L69.43 8.55 L69.35 8.59 L69.32 8.65 L69.4 8.74 L69.42 8.72 L69.44 8.6 L69.53 8.59 L69.56 8.66 L69.46 8.88 L69.56 8.83 L69.62 8.91 L69.73 8.91 L69.55 9.05 L69.58 9.2 L69.56 9.23 L69.46 9.24 L69.58 9.34 L69.7 9.3 L69.76 9.31 L69.61 9.42 L69.69 9.58 L69.65 9.6 L69.5 9.47 L69.44 9.48 L69.43 9.52 L69.52 9.58 L69.54 9.71 L69.63 9.69 L69.67 9.72 L69.67 9.84 L69.76 9.91 L69.84 10.09 L69.84 10.18 L69.79 10.23 L69.71 10.11 L69.64 10.13 L69.66 10.24 L69.62 10.38 L69.65 10.4 L69.73 10.31 L69.78 10.3 L69.79 10.44 L69.72 10.51 L69.71 10.57 L69.88 10.59 L69.9 10.69 L69.98 10.8 L69.9 10.85 L69.83 10.83 L69.78 10.85 L69.67 11.01 L69.7 11.06 L69.79 11.04 L69.83 11.08 L69.69 11.13 L69.66 11.19 L69.89 11.25 L69.83 11.35 L69.7 11.24 L69.65 11.26 L69.64 11.31 L69.71 11.44 L69.81 11.52 L69.79 11.54 L69.7 11.52 L69.66 11.56 L69.67 11.63 L69.75 11.69 L69.73 11.77 L69.65 11.8 L69.58 11.74 L69.5 11.81 L69.52 11.88 L69.66 11.88 L69.64 11.96 L69.69 12.07 L69.64 12.1 L69.64 12.23 L69.6 12.24 L69.55 12.2 L69.49 12.2 L69.45 12.34 L69.34 12.37 L69.29 12.45 L69.33 12.49 L69.42 12.43 L69.53 12.48 L69.53 12.5 L69.44 12.52 L69.4 12.59 L69.28 12.67 L69.37 12.72 L69.41 12.8 L69.54 12.81 L69.53 12.89 L69.42 12.86 L69.36 12.92 L69.49 12.93 L69.54 12.97 L69.43 12.99 L69.43 13.07 L69.4 13.1 L69.33 13.07 L69.27 13.1 L69.33 13.19 L69.33 13.25 L69.21 13.21 L69.12 13.23 L69.25 13.42 L69.23 13.45 L69.11 13.4 L69.07 13.44 L69.09 13.54 L69.14 13.46 L69.17 13.48 L69.21 13.61 L69.19 13.74 L69.15 13.79 L69.04 13.76 L69 13.8 L69.05 13.89 L69.18 13.83 L69.17 13.94 L69.14 13.96 L69.09 13.91 L69.05 13.98 L68.95 14.02 L69.01 14.1 L68.97 14.22 L69.08 14.25 L69.03 14.33 L69.07 14.4 L68.89 14.48 L68.89 14.53 L68.98 14.64 L68.95 14.72 L68.91 14.73 L68.85 14.65 L68.86 14.57 L68.84 14.55 L68.8 14.56 L68.76 14.69 L68.9 14.8 L68.91 14.91 L68.97 14.94 L68.99 15.04 L68.95 15.07 L68.92 14.98 L68.87 14.99 L68.84 15.05 L68.89 15.13 L68.87 15.2 L68.79 15.13 L68.71 15.14 L68.72 15.17 L68.8 15.2 L68.81 15.26 L68.56 15.46 L68.58 15.54 L68.66 15.47 L68.76 15.48 L68.78 15.52 L68.75 15.56 L68.65 15.54 L68.61 15.57 L68.61 15.6 L68.75 15.65 L68.74 15.69 L68.64 15.68 L68.59 15.71 L68.59 15.74 L68.68 15.76 L68.69 15.81 L68.47 15.91 L68.44 15.96 L68.47 16 L68.55 15.95 L68.59 15.95 L68.61 16.02 L68.57 16.09 L68.59 16.16 L68.55 16.16 L68.48 16.07 L68.28 16.15 L68.24 16.21 L68.27 16.3 L68.23 16.35 L68.17 16.32 L68.16 16.28 L68.21 16.19 L68.16 16.14 L68.07 16.3 L68.01 16.31 L68.02 16.44 L67.87 16.45 L68.03 16.59 L67.96 16.63 L67.86 16.75 L67.9 16.8 L67.99 16.8 L68.02 16.85 L68 16.98 L67.95 17.05 L67.98 17.15 L67.84 17.2 L67.87 17.38 L67.76 17.48 L67.79 17.59 L67.88 17.74 L67.87 17.8 L67.71 17.77 L67.61 17.81 L67.54 17.74 L67.46 17.74 L67.43 17.78 L67.48 17.88 L67.46 17.94 L67.39 17.88 L67.32 17.89 L67.3 17.94 L67.22 17.93 L67.1 18.07 L66.95 18.08 L66.97 18.17 L66.86 18.15 L66.84 18.2 L66.94 18.31 L67 18.36 L67.07 18.34 L67.14 18.41 L67 18.5 L67.05 18.62 L67.09 18.65 L67.04 18.74 L66.91 18.76 L66.84 18.72 L66.74 18.73 L66.71 18.78 L66.62 18.76 L66.56 18.84 L66.49 18.78 L66.46 18.7 L66.42 18.72 L66.37 18.79 L66.28 18.75 L66.22 18.62 L66.25 18.58 L66.3 18.57 L66.29 18.48 L66.23 18.48 L66.16 18.55 L66.07 18.56 L66.05 18.63 L65.95 18.69 L65.91 18.78 L65.71 18.85 L65.69 18.92 L65.73 19.04 L65.7 19.14 L65.63 19.13 L65.67 19.27 L65.62 19.39 L65.64 19.43 L65.79 19.49 L65.8 19.54 L65.86 19.53 L65.9 19.64 L65.85 19.71 L65.96 19.74 L65.98 19.86 L66.02 19.86 L66.03 19.9 L66.14 19.94 L66.14 20.02 L66.2 20 L66.2 19.94 L66.25 19.98 L66.28 20.09 L66.31 20.1 L66.28 20.13 L66.32 20.19 L66.27 20.22 L66.34 20.26 L66.44 20.43 L66.54 20.39 L66.58 20.43 L66.65 20.39 L66.64 20.43 L66.69 20.45 L66.71 20.42 L66.78 20.4 L66.82 20.46 L66.95 20.5 L66.99 20.56 L67.07 20.57 L67.15 20.66 L67.13 20.71 L67.25 20.73 L67.39 20.81 L67.43 20.86 L67.41 20.96 L67.46 21.21 L67.11 22.13 L67.05 22.5 L67.21 22.8 L67.36 23.19 L67.37 23.37 L67.27 23.48 L67.29 23.58 L67.25 23.66 L67.25 23.82 L67.33 23.97 L67.27 24.16 L67.37 24.24 L67.42 24.41 L67.5 24.51 L67.64 24.51 L67.66 24.55 L67.64 24.59 L67.54 24.62 L67.51 24.66 L67.49 24.89 L67.41 24.93 L67.35 25.06 L67.43 25.18 L67.58 25.24 L67.66 25.35 L67.64 25.43 L67.74 25.55 L67.83 25.62 L67.99 25.61 L67.99 25.8 L68.14 25.83 L68.12 25.91 L68.06 25.94 L68.15 25.98 L68.19 26.05 L68.26 26.08 L68.3 26.05 L68.35 26.14 L68.37 26.09 L68.43 26.13 L68.52 26.1 L68.54 26.05 L68.57 26.08 L68.55 26.13 L68.59 26.21 L68.72 26.25 L68.72 26.33 L68.84 26.31 L69.09 26.45 L69.03 26.54 L69.25 26.7 L69.25 26.77 L69.3 26.83 L69.24 26.87 L69.24 26.94 L69.31 26.98 L69.25 27.03 L69.21 27.19 L69.31 27.28 L69.39 27.25 L69.38 27.39 L69.41 27.43 L69.39 27.48 L69.45 27.7 L69.69 27.97 L69.71 28.06 L69.76 28.07 L69.82 28.12 L69.81 28.17 L69.87 28.17 L69.88 28.24 L69.92 28.24 L69.98 28.29 L70.1 28.28 L70.12 28.35 L70.19 28.35 L70.15 28.4 L70.21 28.46 L70.2 28.56 L70.14 28.51 L70.05 28.54 L69.95 28.53 L69.86 28.58 L69.82 28.7 L69.76 28.69 L69.76 28.74 L69.83 28.79 L69.8 28.96 L69.88 29.03 L69.83 29.09 L69.86 29.18 L69.96 29.25 L69.93 29.38 L69.99 29.38 L70.01 29.43 L70.08 29.44 L70.17 29.5 L70.19 29.54 L70.24 29.55 L70.28 29.67 L70.32 29.69 L70.3 29.79 L70.32 30.03 L70.22 30.12 L69.95 30.18 L69.69 30.15 L69.11 30.15 L68.61 30.19 L68.28 30.14 L67.92 30.18 L67.24 30.18 L67.21 30.83 L67.26 31.61 L67.25 32.09 L67.12 32.33 L67.09 32.7 L66.91 33.06 L66.65 33.17 L66.56 33.3 L66.46 33.54 L66.2 33.79 L66 34.3 L65.74 34.56 L65.09 34.99 L64.96 34.99 L64.73 35.08 L64.68 35.4 L64.56 35.5 L64.43 35.44 L64.29 35.42 L64.03 35.56 L64.04 35.63 L64.13 35.68 L64.19 35.84 L64.16 36 L64.05 36.12 L64.06 36.58 L64.03 36.81 L63.71 36.95 L63.6 36.89 L63.47 36.96 L63.38 36.88 L63.25 36.86 L63.06 37.01 L62.54 36.9 L62.51 36.99 L62.57 37.17 L62.52 37.24 L62.44 37.25 L62.36 37.62 L62.45 37.68 L62.52 37.81 L62.44 37.94 L62.25 38.44 L62.14 38.54 L62.1 38.65 L62.04 38.65 L61.9 38.95 L61.99 39.27 L62.2 39.55 L62.32 39.57 L62.37 39.68 L62.36 39.74 L62.52 39.94 L62.44 40.18 L62.34 40.32 L62.21 40.39 L61.71 40.55 L61.63 40.56 L61.49 40.52 L61.05 40.55 L60.76 40.69 L60.31 41.07 L60.23 41.06 L60.12 41.12 L59.95 41.44 L60 41.8 L60.02 42.32 L60.23 42.8 L60.05 43.61 L59.99 43.71 L59.82 43.72 L59.9 44.29 L60.05 44.61 L60.49 45.03 L60.56 45.15 L60.55 45.2 L60.6 45.2 L60.58 45.26 L60.62 45.31 L60.6 45.34 L60.63 45.35 L60.62 45.42 L60.69 45.54 L60.69 45.65 L60.78 45.82 L60.79 45.93 L60.86 45.88 L60.86 45.96 L60.91 45.96 L60.95 45.89 L60.97 45.91 L60.97 46.02 L61.06 46.02 L61.09 46.04 L60.99 46.16 L61.09 46.29 L61.09 46.38 L61.15 46.43 L61.1 46.48 L61.18 46.5 L61.16 46.55 L61.25 46.56 L61.27 46.71 L61.21 46.73 L61.22 46.77 L61.33 46.73 L61.36 46.99 L61.44 46.94 L61.42 47.04 L61.47 47.07 L61.47 47.1 L61.53 47.1 L61.6 47.14 L61.59 47.19 L61.51 47.22 L61.53 47.28 L61.59 47.29 L61.6 47.21 L61.64 47.21 L61.64 47.15 L61.67 47.15 L61.7 47.16 L61.67 47.23 L61.72 47.25 L61.7 47.36 L61.72 47.38 L61.75 47.38 L61.8 47.25 L61.89 47.27 L61.91 47.32 L62.02 47.28 L62.09 47.36 L62.19 47.29 L62.18 47.34 L62.23 47.4 L62.17 47.45 L62.17 47.48 L62.23 47.49 L62.32 47.44 L62.31 47.51 L62.38 47.52 L62.37 47.57 L62.45 47.61 L62.46 47.69 L62.53 47.66 L62.56 47.77 L62.7 47.77 L62.74 47.88 L62.91 47.97 L63.09 48.14 L63.11 48.19 L63.23 48.2 L63.21 48.32 L63.52 48.63 L63.64 48.82 L63.69 48.84 L63.69 48.89 L63.96 49 L63.95 49.05 L64.01 49.11 L64.02 49.27 L64.21 49.33 L64.25 49.39 L64.3 49.39 L64.35 49.46 L64.37 49.58 L64.34 49.89 L64.46 49.93 L64.56 50.04 L64.6 50.16 L64.57 50.19 L64.39 50.16 L64.28 50.09 L64.05 50.25 L63.97 50.36 L63.88 50.35 L63.74 50.02 L63.51 50.21 L63.41 50.52 L63.19 50.88 L63.12 51.24 L62.91 51.44 L62.73 51.31 L62.43 51.67 L62.24 52 L62.11 52.36 L62.1 52.92 L62.05 53.45 L62.38 53.73 L62.24 54.11 L61.99 54.28 L61.27 53.65 L61.03 54.1 L60.77 54.28 L60.98 54.49 L60.91 54.65 L60.82 54.75 L60.9 54.84 L60.91 54.94 L60.8 55.14 L60.8 55.24 L60.55 55.53 L59.09 56.96 L63.08 67.88 L64.95 69.11 L64.96 69.14 L65.13 69.06 L65.42 68.98 L65.73 68.72 L65.86 68.54 L66.41 68.77 L66.54 68.87 L66.61 69.03 L66.78 68.96 L66.85 68.69 L66.97 68.57 L67.15 68.5 L67.24 68.41 L67.36 68.38 L67.42 68.43 L67.67 68.42 L69 69.66 L69.06 69.75 L70.49 70.96 L70.49 71.54 L66.95 73.43 L66.31 75.2 L66.41 75.56 L66.36 75.63 L66.24 75.67 L66.16 75.86 L66.27 76.08 L66.25 76.15 L66.28 76.49 L66.31 76.55 L66.51 76.71 L66.75 77.05 L66.98 77.17 L67 77.22 L66.97 77.41 L66.76 77.71 L66.67 77.76 L66.64 77.74 L66.5 77.8 L66.46 77.83 L66.43 77.9 L66.32 77.93 L66.19 78.01 L66.09 78.13 L66 78.09 L65.89 78.1 L65.82 78.19 L65.23 78.4 L64.98 78.57 L64.6 78.67 L64.51 78.67 L64.34 78.55 L64.07 78.71 L63.63 78.89 L63.39 79.47 L63.28 80.25 L63.05 80.27 L62.8 80.72 L62.66 81.03 L61.99 81.5 L60.99 82.59 L60.6 83.29 L60.68 83.46 L60.56 83.44 L60.4 83.85 L60.3 83.98 L59.74 84.01 L59.5 84.36 L59.45 84.37 L59.45 84.42 L59.23 84.66 L59.23 84.72 L59.43 84.84 L59.46 84.97 L59.66 85.22 L59.63 85.64 L59.25 86 L58.98 86.18 L58.49 86.38 L58.12 86.06 L57.58 86.48 L56.86 87.15 L56.25 87.42 L56.03 87.46 L55.94 87.66 L55.76 87.87 L55.81 88.03 Z" /></svg>