<svg xmlns="http://www.w3.org/2000/svg" viewBox="0 0 96 96"><path fill="#efd0a0" fill-rule="evenodd" d="M54.96 80.86 L54.8 80.75 L54.63 80.54 L54.47 80.5 L54.45 80.57 L54.34 80.58 L53.61 81.28 L53.49 81.32 L53.35 81.31 L52.96 82.02 L52.83 82.19 L52.78 82.35 L52.69 82.43 L52.68 82.53 L52.59 82.63 L52.57 82.76 L52.65 82.89 L52.59 83.01 L52.59 83.2 L52.41 83.33 L52.47 83.47 L52.35 83.82 L52.1 84.13 L52.23 84.49 L52.16 84.6 L52.23 85.11 L52 85.3 L51.87 85.53 L51.69 85.58 L51.62 85.54 L51.52 85.6 L51.26 85.6 L51.25 85.53 L51.18 85.53 L51.16 85.43 L51.04 85.33 L50.95 85.1 L51.02 84.98 L51.01 84.92 L51.11 84.8 L51.24 84.75 L51.4 84.86 L51.47 84.8 L51.42 84.05 L51.39 83.95 L51.28 83.85 L51.22 83.58 L51.12 83.6 L50.99 83.54 L50.95 83.46 L50.61 83.17 L50.39 83.04 L50.24 82.8 L50.26 82.66 L50.15 82.63 L50.06 82.65 L50.01 82.75 L49.69 82.91 L49.44 82.88 L49.3 82.96 L49.04 82.89 L48.85 83.02 L48.28 83.01 L48.14 83.09 L48.01 83.07 L47.91 83.24 L47.86 83.26 L47.77 83.22 L47.39 83.3 L47.3 83.2 L47.16 83.2 L47.06 83.35 L46.85 83.4 L46.78 83.48 L46.53 83.63 L46.4 83.8 L46.2 83.73 L46.1 83.6 L45.88 83.49 L45.7 83.28 L45.48 83.34 L45.17 83.21 L44.89 83.34 L44.78 83.29 L44.3 83.33 L44.2 83.26 L44.05 83.01 L43.92 83.05 L43.8 83.21 L43.68 83.12 L43.53 83.22 L43.41 83.23 L43.14 83.16 L42.96 83.37 L42.93 83.5 L42.85 83.61 L42.82 83.84 L42.66 83.97 L42.45 84.03 L42.3 84.23 L42.22 84.24 L42.11 84.15 L41.89 84.19 L41.84 84.1 L41.79 84.09 L41.59 84.25 L41.57 84.38 L41.42 84.33 L41.14 84.44 L40.85 84.41 L40.73 84.35 L40.62 84.36 L40.6 84.25 L40.5 84.13 L40.47 83.99 L40.29 83.83 L40.25 83.85 L40.12 83.82 L39.98 84.03 L39.81 84.2 L39.58 84.19 L39.54 84.15 L39.2 84.08 L39.04 83.9 L38.92 83.85 L38.71 83.68 L38.4 83.76 L38.24 83.73 L38.07 84.04 L37.72 84 L37.62 83.93 L37.6 83.81 L37.52 83.78 L37.53 83.63 L37.16 83.57 L37.15 83.39 L36.92 83.35 L36.76 83.11 L36.78 83.03 L36.91 82.95 L36.92 82.77 L37.03 82.63 L37.01 82.38 L36.91 82.38 L36.82 82.28 L36.76 82.28 L36.68 82.36 L36.61 82.35 L36.51 82.41 L36.44 82.28 L36.29 82.17 L36.22 82.25 L36.06 82.2 L35.99 82.32 L35.65 82.28 L35.54 82.21 L35.47 82.11 L35.56 82.02 L35.57 81.91 L35.7 81.78 L35.77 81.29 L36.02 81.41 L36.22 81.4 L36.44 81.33 L36.48 81.11 L36.58 81.15 L36.7 81.1 L36.69 80.92 L36.71 80.87 L36.79 80.83 L36.85 80.7 L36.82 80.54 L36.84 80.37 L36.89 80.3 L36.99 80.27 L37.17 80.34 L37.38 80.16 L37.94 80.37 L38.12 80.37 L38.65 80.1 L39.04 79.79 L39.23 79.99 L39.25 80.11 L39.29 80.16 L39.34 80.36 L39.45 80.37 L39.58 80.29 L39.61 80.18 L39.69 80.16 L39.75 80.09 L39.7 79.69 L39.86 79.5 L40.03 79.54 L40.11 79.52 L40.26 79.62 L40.36 79.49 L40.43 79.23 L40.6 79.22 L40.73 79.27 L40.82 79.2 L40.86 79.02 L40.75 78.93 L40.73 78.83 L41.18 78.39 L41.16 78.28 L41.23 78.06 L41.33 77.9 L41.33 77.79 L41.26 77.71 L41.25 77.64 L41.3 77.58 L41.43 77.54 L41.48 77.41 L41.42 77.21 L41.44 76.98 L41.3 76.88 L41.35 76.77 L41.26 76.52 L41.33 76.29 L41.14 76.16 L40.87 75.74 L40.78 75.55 L40.82 75.51 L40.89 75.55 L40.95 75.4 L41.16 75.2 L41.31 74.53 L41.2 74.3 L40.89 74.02 L40.65 73.92 L40.58 73.79 L40.26 73.77 L39.87 73.44 L39.72 73.36 L39.5 73.34 L39.42 73.29 L39.35 72.96 L39.26 72.8 L39.21 72.61 L38.89 72.41 L38.66 72.07 L38.5 71.94 L38.02 71.8 L37.71 71.78 L36.76 71.51 L36.41 71.09 L36.25 71.02 L36.02 71.03 L35.77 71.16 L35.33 71.16 L34.95 70.93 L34.79 70.87 L34.57 70.93 L34.02 70.68 L33.87 70.67 L33.75 70.73 L33.54 70.67 L33.2 70.68 L33.07 70.75 L32.77 71.1 L32.68 71.43 L32.57 71.59 L32.08 71.57 L31.68 71.95 L31.55 71.96 L31.41 71.79 L31.16 71.78 L31.04 71.83 L30.93 71.71 L30.83 71.72 L30.72 71.78 L30.43 71.7 L30.31 71.8 L30.12 71.8 L29.93 71.95 L29.83 71.97 L29.73 71.85 L29.56 71.79 L29.5 71.73 L29.62 71.49 L29.61 71.32 L29.76 71.19 L29.7 71.03 L29.63 71.02 L29.47 70.89 L29.32 70.65 L29.17 70.59 L29.01 70.33 L28.98 70.21 L29.15 69.95 L29.12 69.72 L29.46 69.5 L29.39 69.3 L29.38 69.11 L29.51 68.98 L29.48 68.8 L29.56 68.66 L29.59 68.51 L29.76 68.4 L29.7 68.31 L29.71 68.14 L29.42 68.11 L29.16 67.87 L28.98 68 L28.92 67.96 L28.54 67.36 L28.49 67.1 L28.21 66.69 L28.22 66.63 L28.38 66.51 L28.27 66.32 L28.3 66.2 L28.11 66.06 L28.07 65.96 L28.09 65.8 L27.91 65.65 L27.9 65.59 L27.42 65.52 L27.23 65.56 L27.15 65.41 L26.95 65.3 L26.86 65.13 L26.73 65.1 L26.58 64.95 L26.59 64.8 L26.53 64.72 L26.1 64.69 L26.1 64.54 L26.03 64.41 L26.06 64.29 L26.26 64.15 L26.4 64.2 L26.78 63.96 L26.8 63.8 L26.95 63.71 L27.11 63.49 L27.08 62.97 L27.41 62.78 L27.67 62.73 L27.68 62.54 L27.5 62.36 L27.41 62.42 L27.28 62.44 L27.18 62.55 L26.77 62.67 L26.46 62.42 L26.5 62.21 L26.42 62.05 L26.42 61.94 L26.12 61.87 L26.03 61.95 L25.9 61.82 L25.73 61.76 L25.77 61.64 L25.99 61.55 L26.13 61.36 L26.1 61.17 L25.98 61.05 L26 60.91 L26.39 60.82 L26.58 60.92 L26.65 60.85 L26.79 60.89 L26.99 60.73 L27.02 60.59 L26.77 60.12 L26.71 60.11 L26.65 60.18 L26.56 60.21 L26.46 60.08 L26.29 60.13 L26.18 59.96 L25.92 60.03 L25.79 60.1 L25.69 59.98 L25.7 59.91 L25.78 59.83 L25.7 59.76 L25.68 59.64 L25.77 59.57 L25.81 59.46 L25.88 59.42 L25.85 59.35 L25.86 59.21 L25.81 59.15 L25.97 59 L25.94 58.87 L25.99 58.66 L25.97 58.49 L26.02 58.41 L26.16 58.35 L26.14 58.24 L25.99 58.19 L25.85 58.28 L25.73 58.26 L25.65 58.12 L25.64 58.01 L25.5 57.99 L25.46 57.94 L25.35 57.56 L25.2 57.32 L25.21 57.2 L25.18 57.17 L24.8 56.89 L24.61 56.84 L24.43 56.68 L24.25 56.79 L24.09 56.54 L23.96 56.46 L23.87 56.23 L23.89 56.09 L23.49 55.95 L23.61 55.64 L23.69 55.52 L23.45 55.06 L23.43 54.89 L23.33 54.6 L23.37 54.4 L23.26 54.25 L23.37 54.12 L23.42 53.95 L23.43 53.88 L23.38 53.78 L23.52 53.72 L23.52 53.61 L23.38 53.27 L23.34 53.11 L23.36 52.98 L23.3 52.92 L23.27 52.73 L23.07 52.42 L23.33 52.02 L23.22 51.98 L23.11 52.01 L23.06 51.71 L23.31 51.79 L23.32 51.64 L23.41 51.5 L23.65 51.37 L23.83 51.34 L24.1 51.16 L24.04 50.97 L24.05 50.84 L23.91 50.85 L23.69 50.47 L23.85 50.19 L23.85 50.12 L23.63 49.97 L23.4 49.96 L23.28 49.75 L23.25 49.54 L23.17 49.42 L22.95 49.38 L22.56 49.13 L22.19 49 L22.05 48.73 L21.82 48.71 L21.44 48.43 L21.41 48.17 L21.31 47.91 L21.56 47.66 L21.6 47.48 L21.53 47.41 L21.32 47.37 L21.15 47.21 L20.8 46.67 L20.75 46.41 L20.62 46.27 L20.68 46.09 L20.58 45.85 L20.67 45.47 L20.45 45.19 L20.47 45.02 L20.5 44.95 L20.6 44.87 L20.62 44.75 L20.79 44.51 L20.8 44.28 L20.99 44.08 L20.94 43.93 L21.18 43.78 L21.24 43.65 L21.37 43.62 L21.48 43.45 L21.3 43.19 L21.19 42.8 L21.02 42.62 L21.03 42.42 L20.95 42.43 L20.92 42.4 L20.93 42.31 L21.02 42.3 L20.98 42.15 L20.95 42.12 L20.92 42.18 L20.84 42.08 L20.81 41.87 L20.73 41.76 L20.74 41.67 L20.32 40.95 L20.28 40.81 L20.32 40.66 L20.39 40.58 L20.57 40.54 L20.89 40.73 L21.04 40.63 L21.16 40.44 L21.16 40.37 L21.05 40.28 L20.96 40.11 L20.91 39.89 L20.73 39.73 L20.66 39.55 L20.74 39.26 L20.74 39.05 L20.96 38.6 L20.79 38.39 L20.8 38.27 L20.97 38.16 L20.84 37.95 L20.84 37.83 L21 37.66 L21.21 37.56 L21.29 37.46 L21.33 37.12 L21.4 36.85 L21.45 36.79 L21.58 36.79 L21.76 36.86 L21.92 37.06 L22.07 37.14 L22.17 37.15 L22.4 37.09 L22.59 37.1 L22.73 37.03 L23.09 36.6 L23.55 36.23 L23.69 36.23 L23.78 36.29 L23.94 36.24 L24.19 36.31 L24.28 36.49 L24.65 36.79 L24.86 36.77 L25 36.87 L25.17 37.1 L25.34 37.6 L25.45 37.63 L25.64 37.79 L25.89 37.73 L26.18 37.86 L26.37 38.23 L26.39 38.35 L26.67 38.69 L26.7 38.86 L26.76 38.79 L26.88 38.79 L26.91 38.71 L27.01 38.64 L27.02 38.44 L27.09 38.34 L27.12 38.15 L27.18 38.08 L27.31 38.05 L27.52 38.16 L27.51 37.93 L27.55 37.89 L27.65 37.93 L27.74 37.9 L28.05 38.18 L28.41 38.73 L28.49 38.77 L28.73 38.74 L28.8 38.79 L28.96 39 L29.14 39.36 L29.45 39.35 L29.55 39.22 L29.59 39.05 L29.71 39.04 L29.69 38.85 L29.75 38.5 L29.55 38.23 L29.37 37.87 L29.27 37.78 L29.15 37.51 L28.98 37.35 L28.97 37.29 L29.06 37.24 L28.95 37 L28.82 36.92 L28.74 36.95 L28.55 36.93 L28.58 36.85 L28.47 36.79 L28.44 36.47 L28.36 36.37 L28.36 36.2 L28.3 36.04 L28.32 35.98 L28.75 35.95 L28.86 35.98 L28.95 35.94 L29.05 36.05 L29.21 36.04 L29.32 35.96 L29.37 35.74 L29.57 35.52 L29.76 35.39 L29.85 35.26 L30.18 35.14 L30.21 35 L30.47 34.61 L30.74 34.4 L30.76 34.11 L30.71 33.93 L30.86 33.66 L30.8 33.16 L30.93 32.88 L30.97 32.68 L31.22 32.48 L31.37 32.41 L31.5 32.27 L31.54 31.98 L31.67 31.59 L31.9 31.49 L32.27 31.16 L32.17 30.73 L32.2 30.63 L32.32 30.64 L32.51 30.56 L32.81 30.7 L32.96 30.87 L33.16 31.22 L33.4 31.27 L33.58 31.49 L33.79 31.56 L34.12 31.55 L34.35 31.41 L34.45 31.31 L34.77 31.26 L35.09 31.06 L35.14 30.84 L35.1 30.69 L35 30.52 L34.99 30.42 L35.19 30.36 L35.31 30.25 L35.43 29.59 L35.73 29.13 L35.69 28.93 L35.73 28.59 L35.6 28.37 L35.39 28.21 L35.09 27.82 L34.94 27.72 L34.71 27.24 L34.49 27.15 L34.23 26.97 L33.78 26.47 L33.7 26.12 L33.61 25.95 L33.69 25.84 L34 25.63 L34.01 25.57 L33.97 25.44 L33.81 25.23 L33.75 25.07 L33.25 24.85 L33.04 24.82 L32.73 24.56 L32.49 24.55 L32.1 24.65 L31.87 24.46 L31.65 24.45 L31.37 24.27 L30.96 24.23 L30.79 24.01 L30.47 23.71 L30.31 23.19 L30.29 22.91 L30.11 22.91 L29.91 23.07 L29.79 23.03 L29.72 22.88 L29.66 22.82 L29.67 22.67 L29.62 22.61 L29.5 22.3 L29.54 22.24 L29.44 22.11 L29.34 22.11 L29.24 21.93 L29.11 21.8 L29.05 21.79 L28.94 21.98 L28.83 21.94 L28.78 21.97 L28.77 22.37 L28.74 22.42 L28.66 22.39 L28.62 22.41 L28.59 22.55 L28.63 22.71 L28.55 22.74 L28.34 22.5 L28.18 22.43 L28.1 22.32 L28.03 22.28 L27.99 22.14 L27.9 22.07 L27.95 21.9 L27.72 21.67 L27.75 21.53 L27.55 21.35 L27.45 21.18 L27.39 21.18 L27.2 21.27 L27.16 21.72 L27 21.82 L26.87 21.83 L26.58 22.04 L26.48 22.2 L26.36 22.29 L26.26 22.55 L26.1 22.75 L25.95 22.69 L25.86 22.56 L25.92 22.36 L25.87 22.21 L26 22.08 L26.03 21.99 L25.8 21.72 L25.7 21.7 L25.51 21.83 L25.34 21.86 L25.04 21.82 L24.78 21.6 L24.8 21.34 L24.58 21.06 L24.46 21.09 L24.24 21.25 L24.09 21.25 L23.75 21.39 L23.61 21.39 L23.51 21.32 L23.28 20.79 L23.12 20.7 L22.93 20.52 L22.8 20.22 L22.95 19.74 L22.96 19.51 L22.76 19.12 L22.68 18.85 L22.57 18.15 L22.34 17.84 L22.26 17.43 L22.1 17.11 L22.01 17.01 L21.87 16.95 L21.5 16.91 L20.91 16.94 L20.5 16.7 L20.23 16.61 L20 15.28 L20.03 15.07 L20.2 14.84 L20.24 14.73 L20.02 14.17 L19.96 13.68 L19.98 13.48 L20.1 13.27 L20.52 12.78 L20.54 12.69 L20.49 12.27 L20.55 12.16 L20.89 11.83 L20.98 11.61 L20.92 11.28 L20.92 11.03 L20.71 10.71 L20.44 9.57 L20.44 9.42 L20.58 8.95 L20.51 8.83 L20.18 8.47 L20.13 8.32 L20.17 8.19 L20.4 8.03 L20.59 7.83 L20.6 7.72 L20.52 7.43 L20.69 6.96 L20.65 6.55 L20.8 6.39 L21.02 6.37 L21.15 6.55 L21.28 6.63 L21.8 6.67 L22.02 6.59 L22.28 6.57 L22.78 6.4 L23.03 6.38 L23.35 6.19 L23.83 6.03 L24.03 6 L24.22 6.07 L24.43 6.23 L24.68 6.51 L24.91 6.56 L25.02 6.65 L25.11 6.66 L25.39 6.88 L25.76 7.28 L26.08 7.53 L26.83 8.36 L26.9 8.51 L26.87 8.94 L26.95 9.11 L26.97 9.39 L26.8 9.84 L26.86 10.07 L26.97 10.13 L27.43 9.97 L27.7 9.98 L27.88 10.17 L28.08 10.53 L28.28 10.7 L28.73 10.75 L28.86 10.7 L29.14 10.49 L29.46 10.44 L29.9 10.71 L30.05 10.86 L30.31 10.94 L30.71 11.23 L30.81 11.18 L30.86 10.98 L30.95 10.9 L31.39 11.03 L32.22 10.83 L32.54 10.68 L32.65 10.55 L32.72 10.52 L32.93 10.71 L33.08 10.95 L33.59 11.42 L33.68 11.58 L33.88 11.62 L34.12 11.87 L34.22 11.93 L34.58 11.97 L34.79 11.79 L34.96 11.73 L35.08 11.55 L35.52 11.57 L35.69 11.65 L35.8 11.92 L35.98 12.12 L36.52 12.18 L36.69 12.38 L36.89 12.32 L37.03 12.32 L37.27 12.41 L37.52 12.56 L37.97 12.44 L38.08 12.47 L38.3 12.82 L38.41 13.1 L38.79 13.35 L39.16 13.41 L39.35 13.58 L39.56 13.96 L39.69 14.01 L39.82 14.16 L40.14 14.22 L40.36 14.19 L41.04 14.58 L41.18 14.61 L41.38 14.72 L41.56 15 L41.69 15.47 L41.8 15.6 L41.99 15.66 L42.53 15.61 L42.86 15.49 L43.02 15.54 L43.25 15.72 L43.3 15.93 L43.38 16.01 L43.45 16.24 L43.67 16.37 L43.72 16.46 L43.75 16.69 L43.89 16.8 L44.17 17.13 L44.19 17.37 L44.15 17.5 L44.22 17.68 L44.34 17.8 L44.53 17.84 L44.61 17.94 L44.62 18.04 L44.5 18.3 L44.64 18.43 L44.58 18.58 L44.85 19.32 L45.72 20.74 L46.11 21.45 L46.41 21.84 L46.55 21.95 L46.66 21.95 L46.79 21.86 L46.94 21.7 L47.08 21.42 L47.2 21.31 L47.38 21.23 L47.62 21.26 L47.91 21.45 L48.17 21.56 L48.48 21.47 L49.03 21.22 L49.11 21.36 L49.19 21.41 L49.56 21.51 L50.05 21.74 L50.83 21.25 L50.99 21.3 L51.18 21.27 L51.61 20.89 L53.62 19.87 L53.97 19.72 L55.36 18.91 L55.17 19.76 L55.12 20.37 L55.16 21.15 L55.36 21.6 L55.31 21.72 L55.32 21.94 L55.27 22.25 L55.13 22.44 L55.24 22.59 L55.57 22.87 L55.78 23.22 L56.28 23.57 L56.72 24.08 L56.92 24.19 L57.47 24.28 L58.36 24.6 L58.88 24.65 L59.41 24.64 L60.05 24.8 L60.44 24.79 L61.19 24.39 L61.49 23.87 L61.78 23.61 L61.88 23.57 L61.94 23.6 L62.09 23.55 L62.22 23.63 L62.57 23.48 L62.75 23.48 L62.83 23.53 L63.07 23.46 L63.56 23.49 L63.73 23.58 L64.32 23.47 L64.51 23.5 L64.74 23.68 L65.08 24.25 L65.22 24.4 L65.44 24.55 L65.63 24.61 L65.98 24.46 L66.52 24.42 L66.88 24.5 L67.39 24.71 L67.68 24.69 L67.82 24.62 L67.93 24.48 L68.11 24.01 L68.2 23.64 L68.32 23.7 L68.35 23.65 L68.49 23.68 L68.65 23.76 L68.7 23.87 L68.68 23.98 L68.73 23.97 L68.74 24.03 L68.87 24.05 L68.88 24.1 L68.94 24.1 L68.95 24.17 L68.99 24.06 L69.04 24.04 L69.06 24.09 L69.11 24.07 L69.15 24.11 L69.14 24.21 L69.28 24.21 L69.27 24.26 L69.33 24.28 L69.28 24.36 L69.34 24.38 L69.33 24.48 L69.28 24.52 L69.24 24.47 L69.25 24.53 L69.2 24.52 L69.16 24.6 L69.23 24.63 L69.19 24.71 L69.25 24.77 L69.29 24.73 L69.35 24.77 L69.56 24.62 L69.59 24.67 L69.66 24.66 L69.65 24.71 L69.7 24.73 L69.95 24.64 L70.06 24.63 L70.19 24.69 L70.33 24.68 L70.45 24.57 L70.53 24.61 L70.7 24.47 L70.69 24.34 L70.81 24.2 L70.96 24.18 L71.27 24.27 L71.76 24.17 L71.96 24.19 L72.56 24.66 L72.91 24.65 L73.17 24.74 L73.94 25.59 L74.22 25.99 L74.86 26.15 L75.15 26.38 L75.65 27.06 L75.96 27.41 L76.04 27.62 L76.03 27.95 L75.95 28.17 L75.8 28.4 L75.61 28.61 L75.14 28.78 L74.8 29.02 L74.66 29.23 L74.63 29.45 L74.63 29.52 L74.87 29.78 L74.82 29.99 L74.86 30.08 L74.82 30.21 L74.88 30.33 L74.84 30.53 L74.73 30.71 L74.74 30.83 L74.9 31.06 L74.82 31.21 L74.81 31.34 L75.03 31.56 L75.07 31.71 L74.99 31.82 L75.07 31.95 L75.19 31.97 L75.22 32.08 L75.2 32.21 L75.32 32.32 L75.28 32.42 L75.37 32.5 L75.44 32.67 L75.34 32.87 L75.61 33.21 L75.69 33.4 L75.72 33.63 L75.71 33.78 L75.66 33.89 L75.35 34.12 L75.27 34.39 L75.15 34.49 L75.02 34.66 L75.03 35.33 L75 35.47 L74.78 35.74 L74.69 36.01 L74.95 36.11 L75.13 36.27 L75 36.42 L74.91 36.77 L75.21 37.12 L75.28 37.29 L75.41 38.06 L75.34 38.86 L75.19 39.49 L75.23 39.55 L75.36 39.63 L75.43 39.97 L75.74 40.17 L75.76 40.31 L75.68 40.45 L75.51 40.57 L75.26 40.67 L75.06 40.7 L74.91 40.82 L74.78 40.83 L74.55 40.97 L74.47 40.98 L74.31 41.13 L74.15 41.18 L74.11 41.31 L74 41.36 L73.88 41.36 L73.67 41.49 L73.62 41.62 L73.08 41.85 L72.95 41.8 L72.86 41.87 L72.63 41.9 L72.46 41.69 L72.43 41.56 L72.48 41.45 L72.44 41.35 L72.43 41.06 L72.29 40.76 L72.28 40.41 L72.1 40.33 L71.74 40.02 L71.53 40.06 L71.35 39.97 L71.28 39.98 L71.19 40.07 L70.87 40.11 L70.63 40.08 L70.59 40.1 L70.48 40.05 L70.45 39.94 L70.11 39.58 L70.13 39.51 L70 39.41 L69.9 39.16 L69.91 39.03 L69.78 38.87 L69.73 38.72 L69.52 38.37 L69.44 38.14 L69.24 37.96 L69.3 37.86 L69.26 37.74 L69.31 37.58 L69.08 37.39 L68.89 37.1 L68.8 37.02 L68.7 37.15 L68.63 37.36 L68.36 37.33 L68 37.48 L68.11 37.65 L68.22 37.94 L68.05 38.08 L68.04 38.21 L67.96 38.21 L67.9 38.29 L67.74 38.29 L67.69 38.41 L67.56 38.47 L67.61 38.65 L67.51 38.66 L67.42 38.75 L67.4 38.89 L67.25 38.89 L67.2 38.81 L67.13 38.85 L67.01 38.78 L66.98 38.83 L67.02 38.95 L66.8 38.94 L66.71 39.03 L66.64 38.97 L66.45 39.05 L66.37 38.99 L66.29 39 L66.26 39.06 L66.09 39.14 L66.06 39.24 L66 39.21 L65.93 39.25 L65.83 39.12 L65.67 39.12 L65.57 39.01 L65.49 39.05 L65.41 39 L65.31 39.07 L65.1 38.91 L64.85 38.82 L64.64 38.84 L64.49 38.8 L64.39 38.84 L64.27 38.79 L64.16 38.84 L64.08 38.79 L63.99 38.83 L63.79 38.82 L63.63 38.98 L63.59 39.12 L63.57 39.29 L63.6 39.88 L63.41 40.39 L63.36 40.82 L63.32 40.94 L63.15 41 L62.95 40.99 L62.81 41.05 L62.51 40.99 L62.04 41.08 L62.08 41.37 L62.14 41.5 L62.35 41.68 L62.54 41.77 L62.7 41.97 L62.74 42.11 L62.74 42.51 L62.84 42.71 L63.11 43 L63.34 43.14 L63.19 43.28 L62.96 43.6 L62.69 43.76 L62.69 43.8 L62.88 43.94 L62.97 44.1 L63.1 44.16 L63.23 44.36 L63.28 44.56 L63.44 44.64 L63.48 44.76 L63.43 44.87 L63.43 45 L63.37 45.1 L63.41 45.16 L63.41 45.25 L63.52 45.34 L63.55 45.79 L63.42 46.11 L63.47 46.29 L63.47 46.49 L63.35 46.68 L63.38 46.77 L63.35 46.85 L63.35 46.98 L63.29 47 L63.31 47.22 L63.27 47.4 L63.34 47.6 L63.34 47.78 L63.19 48.24 L63.29 48.3 L63.32 48.47 L63.43 48.72 L63.32 48.95 L63.35 49.1 L63.15 49.55 L62.98 49.75 L62.66 49.87 L62.46 50.01 L62.19 50.08 L61.67 50.02 L61.36 50.22 L61.18 50.26 L60.97 50.41 L60.91 50.38 L60.88 50.25 L60.85 50.24 L60.48 50.55 L60.35 50.58 L60.16 50.75 L60.03 51.07 L59.81 51.3 L59.7 51.47 L59.7 51.58 L59.8 51.74 L59.75 51.9 L59.43 52.32 L58.96 52.75 L58.82 53.06 L58.7 53.25 L58.66 53.42 L58.68 53.53 L58.79 53.69 L58.87 53.94 L58.74 54.09 L58.64 54.3 L58.37 55.16 L58.36 55.29 L58.29 55.46 L58.28 55.66 L58.33 55.74 L58.39 55.76 L58.57 56.3 L58.91 56.84 L58.94 56.97 L59.22 57.5 L59.46 57.82 L59.77 58.1 L60.06 58.16 L60.19 58.39 L60.33 58.54 L60.58 59.04 L60.67 59.15 L61.5 59.67 L61.56 59.74 L61.58 59.96 L61.5 60.29 L61.54 60.35 L61.57 60.58 L61.49 60.82 L61.51 61.02 L61.57 61.21 L61.76 61.42 L61.79 61.68 L61.89 61.95 L61.82 62.06 L61.57 62.12 L61.21 62.38 L61.19 62.69 L61.21 62.93 L61.09 63.14 L61.15 63.44 L61.11 63.53 L61.19 63.61 L61.48 63.73 L61.53 64.49 L61.61 64.53 L61.63 64.6 L61.98 64.73 L62.08 64.89 L62.14 65.17 L62.27 65.16 L62.41 65.08 L62.54 65.26 L62.64 65.47 L62.64 65.56 L62.72 65.63 L62.68 65.76 L62.7 65.87 L62.98 66.19 L63.04 66.34 L63.09 66.37 L63.07 66.52 L63.41 66.83 L63.41 66.99 L63.47 67.04 L63.55 67.29 L63.48 67.39 L63.43 67.6 L63.56 67.81 L63.69 67.74 L64.01 67.74 L64.01 67.91 L64.34 68.01 L64.34 68.13 L64.19 68.19 L64.13 68.29 L63.98 68.33 L64 68.62 L63.95 68.72 L63.98 68.85 L63.92 68.95 L63.82 69 L63.77 69.23 L64.04 69.38 L64.47 69.41 L64.58 69.36 L64.77 69.09 L64.97 69.11 L65.13 69.02 L65.31 69.29 L65.43 69.33 L65.55 69.2 L65.6 69.08 L65.84 68.99 L66.03 68.86 L66.11 68.86 L66.21 68.76 L66.29 68.76 L66.39 68.71 L66.43 68.77 L66.5 68.76 L66.79 68.56 L66.92 68.58 L67.08 68.44 L67.19 68.48 L67.25 68.54 L67.31 68.73 L67.31 68.89 L67.48 69.04 L67.46 69.21 L67.61 69.35 L67.64 69.53 L67.62 69.82 L67.41 70.3 L67.49 70.58 L67.53 70.93 L67.53 71.24 L67.48 71.47 L67.5 71.71 L67.45 71.85 L67.25 71.8 L67.08 72.07 L66.82 72.09 L66.68 72.04 L66.42 72.21 L66.21 72.15 L66.12 72.18 L66.01 72.15 L65.88 72.18 L65.71 72.14 L65.58 72.17 L65.4 72.36 L65.43 72.71 L65.39 72.87 L65.3 72.97 L65.15 73.07 L65.08 73.18 L65.09 73.27 L65.19 73.42 L65.26 73.73 L65.2 73.94 L65.23 74.35 L65.14 74.55 L65.09 74.96 L65.18 75.18 L65.19 75.4 L65.24 75.44 L65.39 75.43 L65.46 75.5 L65.4 75.63 L65.5 75.71 L65.49 76.12 L65.71 76.58 L65.76 76.72 L65.75 76.84 L64.98 77.35 L64.89 77.47 L64.79 77.47 L64.74 77.54 L64.6 77.59 L64.5 77.71 L64.36 77.68 L64.12 77.86 L63.89 77.93 L63.77 78.21 L63.64 78.18 L63.52 78.3 L63.35 78.37 L63.3 78.47 L63.17 78.55 L63.08 78.57 L62.86 78.5 L62.56 78.53 L62.26 78.33 L62.1 78.34 L62.05 78.4 L62.02 78.59 L61.85 78.61 L61.66 78.69 L61.54 78.67 L61.45 78.72 L61.3 78.9 L60.77 79.18 L60.61 79.43 L60.51 79.5 L60.51 79.57 L60.57 79.64 L60.77 79.69 L60.83 80.04 L60.7 80.24 L60.74 80.29 L60.83 80.27 L60.88 80.3 L60.94 80.62 L60.73 80.87 L60.69 81.04 L60.74 81.27 L60.62 81.45 L60.66 81.59 L60.64 81.72 L60.76 81.97 L60.71 82.08 L60.78 82.25 L60.48 82.53 L60.53 83.06 L60.48 83.18 L60.51 83.42 L60.47 83.53 L60.51 83.82 L60.42 84.02 L60.21 84.23 L60.3 84.4 L60.33 84.53 L60.42 84.61 L60.42 84.66 L60.51 84.7 L60.49 84.78 L60.64 84.91 L60.64 84.97 L60.59 85.02 L60.6 85.21 L60.55 85.26 L60.63 85.37 L60.66 85.48 L60.64 85.73 L60.59 85.76 L60.71 85.91 L60.65 85.96 L60.76 86.06 L60.83 86.01 L60.89 86.13 L60.92 86.09 L60.97 86.13 L60.99 86.11 L61.03 86.3 L60.93 86.47 L60.82 86.49 L60.86 86.54 L60.8 86.56 L60.8 86.59 L60.68 86.47 L60.62 86.49 L60.59 86.46 L60.52 86.53 L60.43 86.5 L60.41 86.56 L60.43 86.69 L60.39 86.72 L60.38 86.66 L60.29 86.74 L60.24 86.73 L60.2 86.76 L60.17 86.86 L60.28 86.94 L60.23 86.96 L60.26 87.01 L60.14 87.12 L60.16 87.17 L60.1 87.17 L60.11 87.24 L60.05 87.25 L60.07 87.43 L59.95 87.52 L60.01 87.74 L59.91 87.82 L59.94 87.87 L60.07 87.9 L60 88.06 L59.92 88.05 L59.89 88.17 L59.85 88.18 L59.87 88.29 L59.78 88.45 L59.65 88.36 L59.59 88.4 L59.62 88.54 L59.55 88.66 L59.62 88.69 L59.52 88.96 L59.59 89.01 L59.42 89.02 L59.32 89.06 L59.19 89.02 L58.99 89.06 L58.82 89.04 L58.76 89.1 L58.69 89.38 L58.54 89.46 L58.4 89.35 L58.33 89.68 L58.26 89.73 L58.15 89.71 L58.07 89.74 L57.97 90 L57.82 89.92 L57.81 89.8 L57.91 89.59 L57.71 89.33 L57.73 89.2 L57.89 89.17 L57.93 89.08 L57.84 89.01 L57.7 88.99 L57.62 88.87 L57.67 88.81 L57.81 88.86 L57.93 88.83 L58 88.8 L58.01 88.72 L57.72 88.38 L57.61 88.04 L57.3 87.82 L57.35 87.61 L57.34 87.43 L57.26 87.37 L57.1 87.38 L57.03 87.29 L57.08 87.2 L57.18 87.15 L57.28 87.19 L57.43 87.31 L57.52 87.3 L57.55 87.25 L57.42 86.77 L57.31 86.64 L57.06 86.51 L57.01 86.42 L57.03 86.3 L57.18 86.12 L57.14 86.05 L57.01 85.95 L56.99 85.84 L57.19 85.53 L56.93 85.3 L56.96 85.09 L56.65 84.85 L56.74 84.61 L56.68 84.45 L56.6 84.41 L56.29 84.47 L56.12 84.12 L56.11 83.96 L55.91 83.89 L55.87 83.84 L55.9 83.66 L55.88 83.53 L55.64 83.33 L55.64 83.19 L55.69 83.06 L55.92 82.87 L55.95 82.79 L55.9 82.66 L55.68 82.54 L55.55 82.2 L55.56 82.11 L55.67 82.02 L55.69 81.93 L55.53 81.74 L55.55 81.54 L55.42 81.31 L55.43 81.01 L55.27 80.85 L54.96 80.86 Z" /></svg>