<svg xmlns="http://www.w3.org/2000/svg" viewBox="0 0 96 96"><path fill="#efd0a0" fill-rule="evenodd" d="M72.52 75.87 L70.3 78.58 L67.99 80.23 L65.01 83.18 L64.05 83.56 L60.77 83.54 L55.8 86.05 L53.38 86.2 L49.52 85.57 L48.15 85.53 L47.34 85.64 L46.14 86.07 L45.67 86.35 L45.04 86.85 L44.42 87.59 L44.28 87.59 L44.33 87.63 L44.3 87.68 L43.32 86.81 L41.98 85.78 L37.75 82.93 L33.54 80.46 L30.91 79.15 L29.56 78.32 L29.16 78.17 L28.06 77.28 L27.95 77.07 L27.66 76.92 L27.6 76.6 L27.52 76.6 L27.32 76.37 L27.07 76.29 L26.95 76.11 L26.68 76.07 L26.67 75.87 L26.59 75.8 L26.66 75.68 L26.6 75.48 L25.83 74.86 L25.5 74.72 L25.47 74.51 L25.22 74.19 L24.3 73.64 L24.06 73.31 L23.21 72.75 L22.91 72.58 L22.61 72.61 L22.47 72.54 L22.52 72.26 L22.23 71.96 L21.62 71.75 L20.94 71.71 L20.9 71.51 L20.76 71.5 L20.66 71.39 L20.55 71.44 L20.22 71.35 L20.05 71.12 L19.9 71.13 L19.85 71.02 L19.71 71.08 L19.34 70.8 L19.2 70.78 L19.21 70.85 L19.1 70.9 L19.12 70.74 L19 70.62 L18.95 70.66 L18.83 70.53 L18.72 70.58 L18.6 70.2 L18.7 70.12 L18.68 69.98 L18.81 70.01 L18.78 69.94 L18.99 69.65 L18.77 69.23 L18.65 69.17 L18.61 68.47 L18.46 68.46 L18.36 68.22 L18.17 68.26 L18.14 68.14 L17.85 67.97 L17.64 67.68 L17.6 67.75 L17.52 67.72 L17.48 67.52 L17.61 67.39 L17.54 67.25 L17.41 67.29 L17.14 67.02 L16.97 67.02 L16.48 66.71 L15.91 66.55 L15.73 66.37 L15.62 66.39 L15.13 66.1 L15.02 66.13 L14.84 66.03 L14.13 65.56 L13.96 65.55 L13.95 65.46 L13.51 65.18 L13.15 65.04 L13.02 64.88 L12.23 64.45 L12.18 64.31 L11.6 64.32 L11.56 64.24 L11.42 64.29 L11.24 64.07 L11.07 64.03 L10.85 64.21 L10.78 64.1 L10.53 64.14 L10.29 64.04 L10.14 63.77 L9.83 63.83 L9.65 63.72 L8.55 63.55 L8.4 63.59 L8.18 63.44 L8.2 63.22 L8.09 62.93 L7.77 62.7 L7.86 62.59 L7.81 62.3 L6.48 61.38 L6 61.14 L6.71 60.69 L6.99 60.26 L7.02 59.24 L7.52 58.58 L7.62 58.23 L7.95 57.74 L7.95 57.23 L8.05 56.95 L8.39 56.63 L8.62 56.63 L8.9 56.77 L9 56.7 L9.01 56.45 L8.85 56.03 L9 55.8 L9.44 55.65 L10.14 55.97 L10.69 55.41 L11.33 55.45 L11.77 55.16 L12.11 55.41 L12.26 55.43 L12.86 54.59 L12.95 54.15 L13.47 53.92 L13.64 53.92 L14.01 54.2 L14.58 53.97 L14.84 53.77 L15.36 53.77 L16.57 54.35 L17.27 54.37 L17.51 54.31 L17.65 53.64 L17.64 53.22 L17.78 53.03 L17.67 52.59 L17.91 52.04 L17.96 51.04 L18.3 50.56 L18.32 50.13 L18.46 49.61 L18.93 49.06 L18.92 48.64 L19.07 48.39 L19 48.04 L19.14 47.73 L19.55 47.53 L19.9 47.14 L19.95 46.9 L20.29 46.7 L20.35 46.5 L20.65 46.4 L20.94 46.18 L21.31 45.78 L21.38 45.51 L22.06 44.64 L22.64 44.23 L22.94 43.88 L23.05 43.62 L23.52 43.25 L23.62 43 L23.87 42.88 L24.24 42.38 L24.66 42.32 L24.83 42.16 L24.89 41.96 L25.35 41.82 L25.58 41.53 L25.84 41.38 L25.84 40.84 L26.35 40.3 L26.41 39.99 L25.78 39.32 L25.53 38.84 L25.85 37.44 L26.42 36.16 L27.31 35.28 L27.37 34.99 L27.89 34.45 L27.89 34.36 L27.52 34.18 L27.41 33.53 L27.5 33.42 L27.96 33.25 L28.11 32.62 L28.54 31.96 L28.78 31.87 L28.83 31.59 L29.03 31.32 L28.98 31.05 L29.27 31.04 L29.43 30.9 L29.68 30.84 L29.86 30.59 L30.09 30.57 L30.56 30.35 L31.55 30.44 L31.68 30.58 L32.31 30.32 L32.69 30.6 L32.92 30.43 L33.23 30.4 L33.65 30.14 L33.96 30.06 L34.26 29.77 L34.56 29.76 L34.75 29.62 L35.33 29.76 L35.46 29.72 L35.69 29.43 L35.71 29.13 L36.28 28.72 L36.38 28.54 L36.77 28.38 L36.92 28.19 L37.15 27.78 L37.36 27.01 L37.83 26.45 L38.02 26.18 L38.11 25.8 L38.47 25.38 L38.66 24.38 L39.16 24.14 L39.78 24.3 L40.04 24.01 L40.47 24.01 L40.79 23.84 L40.81 23.46 L40.91 23.32 L40.87 23.01 L41.26 22.37 L41.01 22.13 L40.92 21.79 L40.78 21.61 L40.72 21.16 L40.51 21.01 L40.51 20.78 L40.18 20.62 L40.06 20.43 L40.04 20.09 L40.17 19.7 L40.69 19.04 L40.73 18.77 L40.95 18.48 L41.06 18.05 L40.99 17.89 L40.44 17.54 L39.98 17.12 L40.17 16.56 L40.5 16.39 L40.43 16.07 L40.25 15.96 L40.63 15.48 L40.63 14.83 L41.14 14.44 L41.1 14.22 L40.71 13.87 L40.83 13.53 L40.66 12.91 L41.03 12.54 L41.14 11.88 L41.24 11.8 L41.59 11.81 L42.18 11.36 L42.51 11.28 L42.79 11.31 L43.18 10.77 L43.97 10.61 L44.26 10.36 L44.33 9.97 L44.59 9.72 L44.79 9.76 L45.22 9.64 L45.29 9.39 L45.53 9.28 L45.99 9.38 L46.49 9.06 L47.05 8.96 L47.34 8.75 L47.34 8.57 L47.86 8.45 L48.15 8.68 L48.67 8.83 L49.22 8.66 L49.83 8.32 L50.02 8.45 L49.89 8.78 L50.11 9.06 L50.41 9.11 L50.53 9.21 L50.52 9.69 L50.77 9.9 L52.1 10.32 L52.62 10.33 L53.05 10.22 L53.54 10.72 L53.93 10.61 L54.12 10.66 L54.1 11.28 L54.01 11.49 L53.35 11.9 L53.02 11.76 L52.41 11.98 L52.16 12.3 L52.1 12.62 L51.96 12.71 L51.33 12.57 L51.17 12.64 L51 12.83 L50.61 13.91 L50.46 14.62 L50.26 14.94 L50.44 15.47 L50.31 16.03 L50.7 16.42 L50.49 16.83 L50.66 17.26 L50.82 17.46 L51.21 17.7 L51.66 17.86 L52.03 17.89 L52.32 17.38 L52.75 17.03 L53.42 16.96 L53.84 16.7 L54.23 16.3 L54.32 15.68 L54.51 15.49 L54.78 15.66 L55.79 15.93 L55.83 16.12 L55.6 16.45 L55.8 16.55 L55.96 16.96 L56.02 17.03 L56.29 17 L56.57 17.11 L57.28 17.88 L57.29 18.28 L57.39 18.47 L57.96 18.71 L58.47 19.11 L58.29 19.44 L58.41 19.79 L58.29 20.05 L58.36 20.2 L59.17 20.98 L59.61 21.63 L59.96 21.73 L60.46 22.31 L61.15 22.79 L61.06 23.03 L61.18 23.76 L60.92 24.87 L60.97 25.45 L61.18 25.88 L61.25 26.24 L61.47 26.23 L61.68 26.04 L61.81 26 L61.91 26.07 L62.05 25.97 L62.57 26.82 L63.36 27.28 L63.93 27.42 L63.95 27.73 L64.23 28.31 L64.69 28.17 L64.91 28.8 L65.31 28.98 L65.42 29.2 L65.74 29.41 L65.95 29.47 L66.19 29.79 L67.17 30.05 L67.46 30.36 L67.77 30.47 L67.96 30.68 L68.22 30.73 L68.39 30.91 L68.89 30.91 L69.15 31.03 L69.48 30.96 L69.65 31.03 L69.78 31.37 L70.11 31.52 L70.22 31.47 L70.4 31.54 L70.79 32.08 L71.07 32.09 L71.29 32 L71.72 32.09 L71.96 31.91 L72.35 31.94 L72.41 31.82 L72.64 31.76 L72.83 31.57 L73.19 31.58 L73.39 31.47 L73.89 31.68 L74.08 31.8 L74.18 32.06 L74.42 32.23 L75.01 32.98 L75.08 33.11 L75.04 33.59 L75.27 33.93 L75.57 34.09 L75.78 34.07 L76.1 34.38 L76.39 34.52 L76.7 34.49 L76.76 34.66 L76.96 34.56 L77.1 34.59 L77.11 34.52 L77.55 34.46 L77.74 34.22 L77.75 33.99 L77.91 33.97 L78.12 33.78 L78.33 33.81 L78.6 33.59 L78.86 33.82 L79 33.68 L79.16 33.84 L79.77 33.61 L80.08 33.63 L80.39 33.44 L80.61 33.43 L80.78 33.68 L80.76 33.82 L81 33.94 L80.97 34.08 L81.15 34.28 L84.58 34.47 L87.72 37.03 L89.93 38.59 L90 40.69 L89.96 44.87 L85.76 48.72 L82.4 51.09 L80.17 52.88 L79.84 52.91 L75.24 52.37 L73.48 52.26 L72.2 54.27 L72 55.16 L72.16 57.17 L72.39 57.34 L72.55 57.86 L73.02 58.35 L73.26 58.45 L73.17 59.38 L73.38 63.28 L74.35 65.61 L75.84 67.38 L75.63 69.35 L72.52 75.87 Z" /></svg>