<svg xmlns="http://www.w3.org/2000/svg" viewBox="0 0 96 96"><path fill="#efd0a0" fill-rule="evenodd" d="M40.05 84.05 L39.82 83.7 L39.52 83.62 L39.27 83.07 L38.45 82.72 L38.14 82.26 L37.57 81.94 L37.05 82.13 L36.62 82.07 L36.14 82.46 L35.75 82.54 L35.49 82.16 L35.2 82.13 L34.89 81.83 L34.84 81.32 L34.58 81.33 L34.36 81.11 L34.19 81.07 L34.2 81.26 L33.68 81.37 L33.36 81.59 L33.25 81.19 L33.07 81.04 L32.48 81.22 L32.1 81.15 L31.84 80.8 L31.57 80.83 L31.12 80.64 L30.42 80.89 L30.04 80.83 L29.96 81.26 L29.74 81.08 L29.18 81.22 L27.96 80.82 L26.24 81.63 L25.55 81.7 L24.86 82.01 L24.17 81.88 L23.64 82.12 L22.99 81.99 L22.5 82.2 L21.13 82.41 L20.5 82.29 L20.1 81.74 L19.56 81.68 L18.94 81.08 L17.94 80.86 L17.37 80.43 L16.7 80.49 L16.25 80.9 L15.86 81.05 L15.62 80.89 L15.39 80.4 L15.1 80.23 L13.72 80.73 L13.05 80.61 L12.72 80.14 L13.15 79.43 L13.52 78.24 L13.29 77.84 L12.99 77.66 L12.98 77.24 L12.62 76.46 L12.03 76.45 L11.71 76.05 L11.32 75.88 L11.19 75.6 L10.64 75.58 L10.04 74.95 L9.12 75.33 L8.4 75.28 L7.93 74.64 L7.5 74.54 L6.94 74 L6.73 73.53 L6.41 73.36 L6.29 72.91 L6 72.67 L6 72.24 L7.19 70.97 L7.85 69.57 L8.87 68.86 L10.12 66.26 L10.2 65.5 L10.81 64.78 L10.01 64.74 L10.86 64.74 L11.19 63.38 L12.51 62.65 L13.35 60.94 L13.6 60.97 L14.16 60.69 L15.23 59.74 L15.69 59.7 L20.27 56.84 L21.45 55.62 L23.32 55.01 L23.94 54.22 L24.73 53.82 L25.06 53.49 L25.39 52.75 L25.51 52.72 L25.39 52.29 L25.39 51.11 L25.61 50.43 L25.93 50.38 L25.67 50.25 L25.69 49.8 L26.37 48.22 L26.5 48.35 L26.89 48.29 L27.4 47 L26.99 46.79 L27.22 46.31 L28.09 45.29 L28.16 44.89 L28.03 44.56 L28.82 42.72 L29.12 42.54 L29.41 41.81 L29.89 41.35 L30.25 41.38 L30.5 41.05 L30.71 41.09 L30.98 40.86 L31.4 40.08 L32.41 39.06 L33.73 38.65 L34.02 38.4 L34.27 38.44 L34.22 38.24 L34.37 38.5 L34.83 38.57 L34.88 38.27 L36.43 37.4 L37.38 36.61 L37.6 36.61 L37.65 36.44 L38.95 35.39 L39.41 35.31 L39.59 35.44 L40.24 35.27 L41.45 34.25 L41.83 34.48 L42.1 34.38 L42.36 34.48 L42.36 34.28 L42.66 34.22 L43.1 34.38 L43.61 34.32 L43.76 34.05 L44.32 33.86 L44.58 33.46 L44.91 33.28 L45.11 32.79 L45.54 32.52 L45.6 32.22 L46 31.67 L46.33 31.67 L46.38 31.4 L47.07 31.57 L47.67 31.32 L48.09 31.5 L48.52 31.22 L50.76 28.44 L51.47 27.41 L52.34 25.67 L52.59 25.46 L53.89 22.74 L54.5 20.94 L55.24 19.33 L55.75 19.41 L55.65 19.59 L55.46 19.39 L55.26 19.49 L55.19 20.25 L55.9 19.52 L56.03 19.75 L55.87 19.95 L56.16 19.82 L56.1 19.54 L56.3 19.46 L55.82 19.26 L55.8 19.13 L56.3 18.9 L57.78 18.78 L58.27 19.41 L58.8 19.33 L58.82 19.18 L58.75 18.98 L58.11 18.78 L58.49 18.72 L58.82 18.45 L58.91 18.57 L59.24 18.49 L59.11 18.72 L59.44 18.8 L59.24 19.13 L59.34 19.54 L59.59 18.82 L59.84 18.62 L60.23 18.7 L60.04 19.05 L60.38 18.88 L60.33 19.11 L59.84 19.23 L59.84 19.39 L60.76 19.16 L60.78 19 L60.89 19.21 L61.14 19.23 L61.6 19.11 L61.67 18.95 L61.6 18.75 L60.91 18.8 L61.09 18.57 L62.09 18.55 L63.53 18.09 L63.95 18.09 L63.99 18.34 L63.63 18.19 L63.15 18.47 L63.61 18.34 L63.86 18.57 L63.61 19.18 L63.03 19.31 L62.82 19.59 L62.82 19.85 L63.23 19.89 L64.09 19.69 L64.22 19.44 L64.68 19.44 L64.35 19.16 L64.91 18.75 L65.06 19.31 L65.21 19.31 L65.77 18.85 L66.44 18.72 L66.91 18.47 L66.97 18.16 L67.33 17.79 L67.66 17.68 L68.07 17.79 L68.01 17.53 L68.19 17.63 L68.24 17.37 L68.52 17.12 L68.19 17.04 L71.05 14.32 L71.73 13.15 L71.95 13.08 L71.85 12.95 L72.39 12.01 L72.47 11.49 L72.87 11.32 L72.95 10.69 L73.12 10.46 L73.08 10.23 L73.23 10.04 L73.23 10.43 L73.56 10.37 L74.2 11.29 L74.17 11.55 L74.5 12.23 L74.55 12.01 L74.37 11.72 L74.45 11.49 L74.98 12.08 L75.83 12.34 L75.62 12.85 L75.9 13.35 L75.85 12.56 L77.35 12.03 L78.15 12.39 L78.98 12.19 L80 12.15 L80.63 12.38 L81.32 13.06 L81.38 13.94 L80.67 14.5 L80.4 14.57 L80.18 14.94 L79.6 15.4 L79.64 15.61 L79.43 15.9 L79.53 16.26 L79.65 16.26 L79.68 16.88 L79.17 17 L79.35 17.24 L79.12 17.78 L79.25 17.79 L79.32 17.62 L79.57 17.68 L79.65 17.92 L79.9 17.69 L80.16 17.85 L80.52 18.44 L80.61 19.11 L80.88 19.12 L80.97 18.95 L81.12 19.12 L81.17 18.99 L81.3 19.06 L81.6 18.87 L81.94 19.16 L81.81 19.81 L82.01 20.42 L82.34 20.72 L82 21.07 L82.41 21.54 L82.25 21.76 L82.41 21.86 L82.52 21.74 L82.53 21.95 L82.72 22.06 L82.63 22.37 L82.41 22.36 L82.86 23.5 L82.8 23.79 L82.51 23.81 L82.31 24.27 L82.33 24.58 L82.07 25.14 L82.2 25.42 L81.6 25.73 L81.64 25.88 L82.45 27.39 L83.14 27.26 L83.1 27.39 L83.37 27.41 L84.28 27.96 L84.35 28.13 L84.03 28.79 L84.11 29.33 L83.55 29.7 L83.53 29.89 L83.68 30.42 L84.32 30.51 L84.41 30.85 L84.61 32.43 L84.46 33.32 L84.48 34.55 L84.33 34.78 L83.94 34.8 L84.17 35.29 L83.76 35.49 L83.33 36.19 L84.08 38.19 L84.71 38.63 L84.7 39.05 L85.19 39.61 L85.1 40.03 L85.25 40.57 L84.95 40.66 L85.18 41.03 L84.76 41.27 L84.8 42.01 L84.36 41.76 L84.21 42.4 L84.37 43.12 L84.3 44.08 L83.92 44.12 L84.01 44.23 L84.6 44.12 L85.47 45.77 L85.81 45.6 L86.9 46.65 L86.79 46.92 L87.02 47.24 L86.9 47.71 L86.76 47.76 L86.79 48.18 L86.95 48.33 L86.67 48.97 L87.14 49.69 L86.93 50.23 L87.54 50.79 L87.54 51.33 L87.75 51.47 L87.51 51.5 L87.38 51.83 L87.25 51.69 L87.14 51.85 L87.3 52.22 L87.2 52.63 L87.05 52.7 L87.98 53.74 L88.52 54.12 L88.69 54.06 L89.43 54.67 L89.92 54.5 L89.78 54.82 L90 55.15 L89.36 55.59 L89.4 55.94 L88.86 56.26 L88.77 56.76 L87.08 56.78 L86.82 57.35 L86.55 57.58 L85.72 57.96 L85.05 57.89 L85.2 58.02 L84.65 58.16 L84.42 58.91 L83.49 59.74 L82.19 60.4 L81.8 60.77 L81.58 60.77 L81.67 60.47 L81.43 60.3 L80.57 60.56 L80.31 60.05 L80.11 60 L79.99 60.5 L79.62 60.68 L79.54 60.92 L79.59 61.16 L79.91 61.17 L79.95 61.32 L79.07 62.08 L78.77 62.72 L78.45 62.99 L78.1 64.1 L77.54 64.75 L77.15 64.94 L76.63 65.48 L75.98 65.58 L75.57 65.9 L75.1 65.77 L74.28 66.31 L73.67 66.14 L73.26 65.85 L71.92 65.75 L71.54 65.35 L71.32 64.81 L70.51 64.14 L70.07 64.41 L69.11 64.26 L68.07 63.07 L67.52 63.35 L67.26 63.77 L67.01 63.81 L66.45 63.62 L65.89 63.74 L65.12 63.02 L63.87 63.96 L63.13 63.89 L62.68 64.44 L62.51 64.33 L62.46 63.95 L62.08 63.85 L61.33 64.27 L60.85 64.37 L60.67 64.54 L60.81 64.99 L61.2 65.28 L60.88 65.42 L61.05 65.69 L60.97 66.2 L60.78 66.35 L59.94 66.2 L59.8 66.34 L59.83 66.6 L60.22 66.86 L60.31 67.59 L59.73 67.92 L58.74 67.87 L58.48 69.17 L57.49 69.9 L58.11 70.12 L58.25 70.54 L57.94 70.87 L58.38 71.39 L58.43 71.72 L58.14 72.48 L57.18 72.2 L56.81 72.58 L56.47 72.53 L55.98 72.76 L55.78 73.11 L55.43 73.01 L54.93 73.24 L54.59 73.71 L54.21 73.75 L54.11 74.07 L53.67 74.49 L53.42 75.1 L53.42 75.83 L53.02 75.73 L52.86 75.87 L52.26 76.95 L52.13 77.6 L51.7 77.68 L51.64 78.15 L51.38 78.61 L51.08 78.8 L51.05 79.25 L50.54 79.43 L50.62 80.08 L50.16 80.07 L50.21 80.86 L49.09 81.43 L49.1 82 L48.78 82.25 L48.79 82.64 L48.46 82.55 L47.88 82.97 L47.88 83.31 L47.68 83.36 L47.54 83.67 L47.58 84.4 L46.5 84.24 L46.24 84.03 L46.26 84.54 L45.94 84.52 L45.63 85.37 L44.57 85.96 L44.4 85.78 L43.74 85.64 L43.44 85.8 L43.3 85.67 L42.5 85.76 L42.41 85.52 L41.56 85.13 L41.31 84.8 L40.87 84.66 L40.05 84.05 Z M66.67 18.28 L66.48 18.49 L66.31 18.36 L66.28 18.59 L65.8 18.75 L65.26 18.57 L65.26 18.45 L65.7 18.29 L66.48 18.19 L66.67 18.28 Z M66.15 17.73 L65.49 18.06 L64.98 17.91 L64.42 18.26 L64.12 18.13 L64.15 18.02 L65.98 17.7 L66.23 17.56 L66.15 17.73 Z M63.84 19.54 L63.63 19.69 L63.56 19.66 L63.73 19.41 L63.84 19.54 Z M73.91 10.27 L73.64 10.35 L73.64 10.2 L73.91 10.17 L73.91 10.27 Z M76.36 12.26 L76.16 12.19 L76.84 12.06 L76.77 12.19 L76.36 12.26 Z M76.24 12.03 L76.26 12.01 L76.26 12.03 L76.24 12.03 Z" /></svg>