<svg xmlns="http://www.w3.org/2000/svg" viewBox="0 0 96 96"><path fill="#efd0a0" fill-rule="evenodd" d="M63.04 78.01 L62.94 78.05 L62.84 77.93 L62.73 77.91 L62.67 77.86 L62.44 77.78 L62.36 77.71 L62.22 77.71 L62.1 77.69 L62.13 77.74 L62.03 77.84 L62.03 77.88 L61.99 77.89 L61.99 77.92 L61.95 77.98 L62 77.99 L61.99 78.01 L61.91 78.01 L61.86 78.06 L61.86 77.94 L61.69 77.92 L61.62 77.95 L61.65 77.97 L61.62 78.04 L61.55 78.06 L61.54 78.04 L61.46 78.03 L61.43 78.1 L61.37 78.14 L61.32 78.14 L61.32 78.18 L61.27 78.2 L61.16 78.23 L61.15 78.2 L61.12 78.2 L61.1 78.16 L61.09 78.23 L61.05 78.18 L61 78.18 L60.96 78.23 L60.99 78.28 L60.96 78.26 L60.92 78.29 L60.89 78.41 L60.83 78.4 L60.86 78.35 L60.79 78.33 L60.74 78.35 L60.77 78.39 L60.76 78.44 L60.73 78.44 L60.7 78.41 L60.71 78.35 L60.68 78.35 L60.61 78.49 L60.64 78.53 L60.62 78.56 L60.57 78.55 L60.52 78.48 L60.48 78.48 L60.41 78.55 L60.35 78.52 L60.31 78.54 L60.28 78.59 L60.29 78.73 L60.13 78.69 L60.15 78.78 L60.05 78.83 L59.96 78.8 L59.93 78.77 L59.93 78.82 L59.89 78.87 L59.95 78.9 L59.95 78.97 L59.93 78.99 L59.85 78.99 L59.8 78.97 L59.76 79.06 L59.74 79.06 L59.74 79.03 L59.7 79.02 L59.68 79.07 L59.65 79.04 L59.66 79.01 L59.62 78.99 L59.59 79.08 L59.54 79.1 L59.45 79.02 L59.36 79.06 L59.38 79.11 L59.34 79.11 L59.42 79.18 L59.34 79.2 L59.33 79.26 L59.3 79.21 L59.27 79.21 L59.25 79.28 L59.22 79.25 L59.25 79.19 L59.2 79.2 L59.16 79.14 L59.09 79.22 L59.18 79.27 L59.12 79.36 L59.04 79.32 L59.04 79.35 L58.99 79.39 L59.04 79.54 L58.96 79.6 L58.94 79.5 L58.91 79.48 L58.87 79.49 L58.85 79.55 L58.9 79.7 L58.86 79.72 L58.77 79.7 L58.74 79.75 L58.76 79.82 L58.68 79.8 L58.64 79.83 L58.62 79.81 L58.61 79.76 L58.65 79.72 L58.67 79.66 L58.63 79.6 L58.58 79.64 L58.59 79.75 L58.44 79.72 L58.39 79.79 L58.4 79.86 L58.44 79.89 L58.42 79.96 L58.34 79.88 L58.35 79.75 L58.33 79.71 L58.28 79.72 L58.22 79.77 L58.12 79.71 L57.97 79.82 L57.88 79.82 L57.87 79.8 L57.93 79.73 L57.92 79.7 L57.89 79.69 L57.75 79.73 L57.73 79.83 L57.67 79.85 L57.65 79.78 L57.73 79.73 L57.74 79.71 L57.69 79.65 L57.67 79.53 L57.58 79.5 L57.53 79.56 L57.55 79.71 L57.48 79.84 L57.43 79.81 L57.48 79.67 L57.25 79.63 L57.22 79.6 L57.24 79.55 L57.33 79.52 L57.34 79.49 L57.24 79.42 L57.17 79.48 L57.11 79.46 L57.09 79.44 L57.12 79.35 L57.08 79.3 L56.98 79.32 L56.94 79.42 L56.91 79.42 L56.85 79.3 L56.79 79.27 L56.82 79.19 L56.77 79.16 L56.7 79.17 L56.62 79.15 L56.61 79.03 L56.59 79.01 L56.55 79.01 L56.51 79.05 L56.46 79.03 L56.38 79.04 L56.26 79.16 L56.18 79.15 L56.18 79.04 L56.07 78.92 L55.96 78.93 L55.91 78.9 L55.9 78.79 L55.84 78.6 L55.93 78.54 L55.95 78.5 L55.94 78.45 L55.88 78.42 L55.78 78.45 L55.81 78.56 L55.79 78.64 L55.71 78.61 L55.72 78.51 L55.71 78.47 L55.66 78.45 L55.54 78.48 L55.48 78.42 L55.32 78.57 L55.18 78.65 L55.08 78.79 L54.91 78.85 L54.77 78.84 L54.61 78.98 L54.58 78.97 L54.57 78.92 L54.68 78.79 L54.69 78.73 L54.66 78.67 L54.56 78.67 L54.53 78.72 L54.58 78.78 L54.54 78.99 L54.51 79.01 L54.47 78.97 L54.44 78.86 L54.31 78.91 L54.31 78.85 L54.26 78.84 L54.17 78.92 L54.16 78.96 L54.22 79.02 L54.19 79.06 L54 79.01 L53.93 79.03 L53.86 79.01 L53.85 78.98 L53.87 78.94 L53.9 78.91 L54 78.91 L54 78.83 L53.94 78.77 L53.83 78.81 L53.84 78.65 L53.79 78.64 L53.71 78.68 L53.65 78.56 L53.61 78.53 L53.46 78.55 L53.4 78.67 L53.35 78.68 L53.33 78.64 L53.36 78.53 L53.28 78.48 L53.27 78.56 L53.19 78.55 L53.14 78.48 L53.17 78.38 L53.13 78.34 L53.09 78.35 L53.06 78.38 L53.12 78.51 L53.07 78.58 L52.95 78.48 L52.83 78.47 L52.76 78.38 L52.67 78.35 L52.62 78.36 L52.59 78.41 L52.61 78.45 L52.68 78.5 L52.68 78.53 L52.49 78.46 L52.46 78.41 L52.47 78.36 L52.62 78.26 L52.67 78.21 L52.67 78.15 L52.61 78.1 L52.51 78.16 L52.41 78.18 L52.37 78.28 L52.31 78.29 L52.24 78.27 L52.23 78.15 L52.07 78.21 L52.02 78.21 L51.99 78.16 L52 78.13 L52.11 78.1 L52.18 78.11 L52.21 78.06 L52.18 77.98 L52.06 77.97 L52.07 77.9 L52.31 77.83 L52.34 77.88 L52.28 77.92 L52.34 78.02 L52.4 78.02 L52.43 77.98 L52.42 77.91 L52.49 77.85 L52.49 77.76 L52.45 77.74 L52.4 77.77 L52.14 77.76 L52.2 77.67 L52.18 77.58 L52.33 77.6 L52.43 77.56 L52.44 77.53 L52.39 77.46 L52.38 77.4 L52.3 77.35 L52.3 77.31 L52.17 77.29 L52.12 77.26 L52.13 77.12 L52.06 77.13 L52.03 77.21 L51.94 77.14 L51.95 76.97 L51.85 76.92 L51.83 76.53 L51.86 76.46 L51.98 76.41 L51.8 76.32 L51.74 76.32 L51.63 76.39 L51.53 76.55 L51.2 76.75 L51.19 76.84 L51.15 76.86 L51.11 77.03 L51.06 77.1 L50.83 77.25 L50.69 77.28 L50.48 77.39 L50.39 77.37 L50.18 77.25 L50.08 77.25 L49.96 77.28 L49.64 77.48 L49.36 77.53 L49.17 77.54 L48.98 77.5 L48.91 77.53 L48.85 77.43 L48.73 77.46 L48.65 77.41 L48.48 77.54 L48.33 77.47 L48.18 77.61 L47.82 77.63 L47.7 77.77 L47.62 77.79 L47.47 77.8 L47.35 77.77 L47.06 77.82 L46.91 77.75 L46.75 77.79 L46.64 77.72 L46.59 77.76 L46.47 77.78 L46.32 77.84 L46.12 78.03 L46.06 78.14 L45.89 78.31 L45.76 78.33 L45.7 78.37 L45.59 78.66 L45.44 78.83 L45.27 78.86 L45.21 78.93 L45.14 78.96 L45.04 78.93 L44.97 78.86 L44.88 78.85 L44.73 78.75 L44.67 78.76 L44.61 78.81 L44.5 78.58 L44.35 78.47 L44.29 78.31 L44.24 78.31 L44.1 78.46 L44.05 78.43 L44.02 78.32 L44.02 78.25 L44.09 78.13 L44.11 78.01 L44.04 77.9 L44.21 77.75 L44.35 77.74 L44.44 77.68 L44.42 77.59 L44.36 77.54 L44.38 77.45 L44.36 77.37 L44.4 77.24 L44.49 77.08 L44.49 76.83 L44.57 76.65 L44.55 76.52 L44.59 76.43 L44.57 76.41 L44.51 76.43 L44.46 76.37 L44.46 76.29 L44.41 76.21 L44.44 76.04 L44.35 75.86 L44.38 75.77 L44.32 75.57 L44.39 75.43 L44.4 75.29 L44.23 75.13 L44.16 74.97 L44.19 74.92 L44.3 74.83 L44.3 74.71 L44.19 74.53 L44.24 74.44 L44.23 74.31 L44.15 74.21 L44.06 74.02 L43.98 73.97 L43.92 73.96 L43.8 74.02 L43.67 73.95 L43.57 73.98 L43.47 73.98 L43.35 73.92 L43.15 73.71 L43.11 73.39 L43.05 73.29 L43.04 73.18 L43 73.15 L43.02 73.11 L42.91 73.07 L42.94 72.97 L42.86 72.86 L42.86 72.68 L42.74 72.57 L42.65 72.36 L42.66 72.27 L42.77 72.06 L42.73 71.64 L42.78 71.5 L42.78 71.38 L42.72 71.28 L42.59 71.21 L42.41 70.83 L42.37 70.8 L42.14 70.75 L42.03 70.69 L41.67 70.35 L41.29 70.1 L41.27 70.03 L41.19 70.02 L41.17 69.97 L41.21 69.89 L41.12 69.81 L41.01 69.82 L40.77 69.6 L40.61 69.55 L40.45 69.37 L40.28 69.33 L40.2 69.28 L40.15 69.2 L40.13 69.05 L40.06 68.98 L39.74 69.03 L39.62 69.12 L39.61 69.22 L39.56 69.35 L39.43 69.37 L39.47 69.62 L39.44 69.74 L39.34 69.91 L39.27 69.94 L39.29 70.1 L39.24 70.2 L39.13 70.24 L38.96 70.13 L38.88 70.18 L38.86 70.34 L38.89 70.44 L38.8 70.52 L38.81 70.66 L38.88 70.74 L38.89 70.85 L38.83 71.2 L38.86 71.24 L38.93 71.27 L38.95 71.35 L38.83 71.47 L38.87 71.55 L38.73 71.7 L38.78 71.86 L38.69 71.95 L38.66 72.04 L38.58 72.06 L38.49 72.14 L38.44 72.29 L38.28 72.43 L38.25 72.62 L38.18 72.72 L38.2 72.83 L38.17 72.93 L38.17 73.18 L38.12 73.45 L38.12 73.62 L38.18 74.14 L38.18 74.45 L38.15 74.64 L38.21 75.03 L38.19 75.18 L38.22 75.43 L38.17 75.54 L38.02 75.63 L37.94 75.78 L37.79 75.87 L37.63 75.69 L37.51 75.61 L37.3 75.56 L37.19 75.58 L37.08 75.56 L36.87 75.42 L36.76 75.38 L36.68 75.22 L36.56 75.08 L36.45 75.01 L36.37 74.7 L36.37 74.54 L36.33 74.5 L36.41 74.37 L36.4 74.15 L36.24 73.89 L36.16 73.39 L36.05 73.22 L36.01 73.02 L35.96 72.95 L35.75 72.97 L35.57 72.9 L35.45 72.82 L35.3 72.94 L35.16 72.97 L35.06 72.95 L34.9 72.95 L34.56 72.86 L34.46 72.85 L34.25 72.92 L34.06 72.85 L33.94 72.89 L33.85 73.03 L33.64 73.04 L33.54 72.97 L33.39 72.95 L33.26 72.85 L33.14 72.84 L33.08 72.88 L33.12 73.08 L33.09 73.11 L33.04 73.11 L33.01 73.14 L32.97 73.39 L32.94 73.45 L32.72 73.44 L32.65 73.39 L32.33 73.33 L32.2 73.35 L32.02 73.45 L31.89 73.46 L31.81 73.51 L31.64 73.44 L31.5 73.54 L31.17 73.6 L30.84 73.89 L30.64 73.92 L30.55 73.88 L30.23 73.83 L30.19 73.77 L29.98 73.75 L29.72 73.59 L29.59 73.39 L29.65 73.3 L29.61 73.25 L29.61 73.19 L29.72 73.08 L29.71 73.03 L29.4 72.89 L29.3 72.69 L29.15 72.59 L29.06 72.45 L28.99 72.43 L28.82 72.49 L28.75 72.48 L28.64 72.31 L28.35 71.99 L27.76 71.99 L27.62 71.83 L27.32 71.76 L27.24 71.71 L27.28 71.52 L27.46 71.39 L27.57 71.35 L27.68 71.34 L27.8 71.43 L27.98 71.41 L28.17 71.47 L28.34 71.49 L28.38 71.47 L28.4 71.41 L28.4 71.25 L28.47 71.06 L28.58 70.88 L28.57 70.81 L28.5 70.73 L28.52 70.65 L28.67 70.53 L28.89 70.55 L29.07 70.39 L29.36 70.25 L29.44 70.18 L29.57 70.22 L29.75 70.09 L29.84 70.07 L29.98 70.2 L30.08 70.17 L30.3 69.85 L30.37 69.64 L30.38 69.54 L30.6 69.43 L30.66 69.33 L30.71 69.17 L30.75 69.1 L30.93 68.95 L31.01 68.91 L31.05 68.82 L31.14 68.78 L31.2 68.69 L31.29 68.66 L31.36 68.57 L31.38 68.5 L31.46 68.46 L31.64 68.21 L31.67 68.05 L31.74 68.03 L31.85 68.08 L31.91 68.05 L31.97 68.05 L32 68.08 L32.05 68.08 L32.06 67.99 L32.13 67.88 L32.36 67.62 L32.47 67.58 L32.52 67.46 L32.57 67.42 L32.62 67.43 L32.68 67.5 L32.72 67.52 L32.8 67.52 L32.95 67.46 L33.08 67.51 L33.26 67.47 L33.52 67.5 L33.61 67.55 L33.66 67.69 L33.84 67.76 L33.93 67.94 L33.96 67.94 L34.02 67.86 L34.05 67.76 L34 67.62 L33.96 67.4 L33.92 67.31 L33.91 67.14 L33.94 67.06 L34.02 66.99 L34 66.9 L33.86 66.6 L33.7 66.4 L33.67 66.18 L33.6 66.02 L33.46 65.85 L33.28 65.46 L33.26 65.18 L33.19 64.86 L33.13 64.76 L33.05 64.71 L32.84 64.67 L32.71 64.54 L32.48 64.42 L31.63 64.19 L31.45 63.97 L31.37 63.62 L31.29 63.48 L31.09 63.39 L30.63 63.34 L30.32 63.23 L29.94 62.94 L29.79 62.71 L29.76 62.54 L29.79 62.43 L29.99 62.09 L29.99 61.96 L29.92 61.8 L29.94 61.71 L29.99 61.66 L30.08 61.62 L30.16 61.63 L30.24 61.67 L30.4 61.83 L30.49 61.88 L30.59 61.91 L30.77 61.9 L30.99 61.74 L31.12 61.68 L31.37 61.42 L32.01 61.22 L32.18 61.1 L32.27 60.98 L31.8 60.43 L31.41 60.12 L31.24 59.81 L30.92 59.52 L30.84 59.26 L30.71 59.07 L30.18 58.7 L30.07 58.52 L30.02 58.3 L30.14 58.02 L30.01 57.89 L29.98 57.78 L29.94 56.84 L29.81 56.32 L29.76 56.18 L29.49 55.86 L29.2 55.34 L29.18 54.96 L29.22 54.17 L29.08 53.82 L29.02 53.58 L28.96 53.5 L28.82 53.43 L28.79 53.4 L28.78 53.05 L28.74 52.96 L28.75 52.42 L28.73 52.35 L28.66 52.29 L28.7 52.14 L28.69 52.04 L28.71 51.96 L28.7 51.91 L28.45 51.7 L28.07 51.49 L27.87 51.43 L27.66 51.27 L27.58 51.24 L27.35 51.21 L27.21 51.14 L27.09 50.89 L27.08 50.62 L27.11 50.49 L27.22 50.32 L27.31 50 L27.27 49.87 L27.1 49.65 L26.96 49.53 L26.69 49.43 L26.31 49.35 L26.14 49.29 L25.98 49.19 L25.67 48.85 L25.57 48.59 L25.59 48.43 L25.69 48.24 L26.3 47.88 L26.46 47.75 L26.9 47.19 L27.04 46.85 L26.98 46.79 L26.99 46.42 L26.83 46.22 L26.8 46.15 L26.72 46.1 L26.62 45.96 L26.54 45.75 L26.54 45.41 L26.52 45.21 L26.46 45.04 L26.33 44.87 L26.29 44.73 L26.33 44.35 L26.25 44.19 L25.83 43.54 L25.98 43.32 L26 43.17 L26.06 43.03 L25.99 42.95 L26 42.87 L26.04 42.78 L26.1 42.72 L26.2 42.46 L26.19 42.37 L26.1 42.22 L26.02 41.99 L26.05 41.86 L25.97 41.79 L25.95 41.73 L26.18 41.44 L26.19 41.36 L26.12 41.16 L26.19 41 L26.36 40.92 L26.45 40.75 L26.57 40.25 L26.57 39.63 L26.65 39.53 L26.76 39.46 L27.37 39.24 L27.69 38.96 L27.96 38.85 L28.14 38.7 L28.24 38.5 L28.26 38.36 L28.24 38 L28.17 37.57 L27.99 37.17 L27.82 36.97 L27.59 36.78 L27.08 36.58 L26.69 36.47 L26.26 36.45 L25.78 36.5 L25.3 36.58 L24.88 36.72 L24.73 36.69 L24.59 36.71 L24.5 36.63 L24.2 36.52 L23.74 36.64 L23.75 36.71 L23.66 36.82 L23.54 36.88 L23.49 36.98 L23.39 36.97 L23.36 36.99 L23.3 37.15 L23.15 37.26 L23.13 37.39 L23.04 37.51 L23.03 37.67 L23.05 37.88 L23 38.02 L22.98 38.16 L23.01 38.52 L22.95 38.66 L22.72 38.96 L22.31 39.29 L22.06 39.55 L21.97 39.72 L21.94 39.92 L21.95 40.3 L21.93 40.5 L21.75 41.1 L21.65 41.28 L21.41 41.3 L21.35 41.35 L21.32 41.33 L21.26 41.34 L21.1 41.45 L21.05 41.53 L20.96 41.53 L20.91 41.5 L20.83 41.29 L20.51 40.98 L20.34 40.95 L20.02 40.8 L19.88 40.8 L19.61 40.96 L19.49 40.99 L19.32 41.12 L19.26 41.15 L19.18 41.14 L19.11 41.18 L18.9 41.42 L18.75 41.5 L18.75 41.62 L18.66 41.76 L18.49 41.88 L18.49 41.95 L18.54 42.06 L18.39 42.3 L18.4 42.4 L18.47 42.5 L18.5 42.66 L18.4 42.83 L18.4 42.89 L18.37 42.92 L18.41 42.96 L18.4 43.1 L18.32 43.24 L18.3 43.33 L18.23 43.34 L18.21 43.37 L18.25 43.55 L18.12 43.93 L17.97 44.05 L17.86 44.09 L17.84 44.3 L17.8 44.35 L17.63 44.33 L17.54 44.42 L17.47 44.41 L17.42 44.49 L17.43 44.54 L17.5 44.65 L17.48 44.73 L17.52 44.84 L17.47 44.94 L17.47 45.13 L17.55 45.5 L17.5 45.89 L17.25 46.02 L17.07 46.16 L16.94 46.33 L16.71 46.41 L16.74 46.51 L16.69 46.61 L16.72 46.71 L16.69 46.77 L16.53 46.96 L16.45 46.99 L16.41 47.02 L16.37 47.01 L16.28 47.1 L16.14 47.07 L15.9 46.93 L15.72 46.87 L15.59 46.88 L15.59 46.94 L15.53 46.98 L15.4 46.95 L15.2 47.02 L15.09 47.01 L14.96 47.05 L14.83 47 L14.65 46.84 L14.4 46.84 L14.25 46.81 L14.01 46.86 L13.85 46.85 L13.81 46.83 L13.73 46.85 L13.7 46.95 L13.71 47 L13.66 47.08 L13.67 47.3 L13.36 47.71 L13.27 47.92 L13.18 48.04 L12.32 48.4 L11.71 48.59 L11.27 48.64 L10.99 48.61 L10.79 48.51 L10.64 48.37 L10.59 48.28 L10.45 47.85 L10.26 47.66 L10.16 47.41 L9.99 47.15 L9.9 46.86 L9.77 46.61 L9.69 46.49 L9.48 46.31 L9.44 46.24 L9.43 45.99 L9.32 45.74 L9.07 45.46 L8.9 45.39 L8.72 45.37 L8.69 45.34 L8.58 45 L8.46 44.91 L8.29 44.52 L8.24 44.37 L8.23 44.14 L8.16 43.93 L8.1 43.85 L7.91 43.74 L7.8 43.59 L7.78 43.32 L7.71 43.13 L7.64 43.05 L7.5 42.95 L7.42 42.85 L7.32 42.78 L7.2 42.64 L7.15 42.52 L7.07 42.07 L7.07 41.86 L7 41.66 L7.01 41.53 L6.97 41.33 L6.9 41.18 L6.67 40.89 L6.72 40.67 L6.69 40.59 L6.69 40.47 L6.58 40.37 L6.53 40.28 L6.5 40.08 L6.43 39.92 L6.44 39.78 L6.4 39.6 L6.4 39.35 L6.51 39.02 L6.48 38.84 L6.41 38.75 L6.36 38.61 L6.29 38.52 L6.19 38.19 L6.06 38.11 L6 38.04 L6 37.94 L6.04 37.79 L6.02 37.68 L6.2 37.64 L6.28 37.57 L6.44 37.52 L6.64 37.4 L6.79 37.37 L7.02 37.05 L7.22 36.99 L7.32 36.99 L7.42 36.92 L7.55 36.89 L7.68 36.75 L7.72 36.74 L7.88 36.84 L8.09 36.78 L8.11 36.71 L8.07 36.53 L8.08 36.47 L8.21 36.29 L8.36 36.17 L8.45 36 L8.55 35.56 L8.62 35.49 L8.71 35.3 L8.7 35.11 L8.63 34.91 L8.57 34.86 L8.5 34.85 L8.48 34.77 L8.61 34.69 L8.7 34.59 L8.86 34.58 L8.99 34.51 L9.1 34.54 L9.28 34.52 L9.38 34.44 L9.5 34.44 L9.67 34.39 L9.66 34.24 L9.73 34.03 L9.86 33.83 L9.99 33.55 L10.1 33.43 L10.22 33.35 L10.5 33.29 L10.76 33.21 L11.03 33.2 L11.26 33.13 L11.47 33.15 L11.59 33.13 L12 33.19 L12.08 33.25 L12.17 33.26 L12.48 33.39 L12.68 33.43 L12.82 33.43 L12.99 33.6 L13.09 33.66 L13.74 33.71 L13.87 33.66 L13.98 33.5 L13.98 33.42 L14.03 33.31 L14.01 33.01 L13.81 32.83 L13.58 32.88 L13.48 32.84 L13.37 32.75 L13.32 32.74 L13.3 32.63 L13.32 32.55 L13.29 32.49 L13.31 32.44 L13.38 32.4 L13.39 32.35 L13.31 32.2 L13.25 32.13 L13.09 32.06 L12.85 31.74 L12.82 31.62 L12.83 31.25 L12.81 31.16 L12.83 31.06 L13.06 30.78 L13.17 30.66 L13.23 30.64 L13.38 30.45 L13.61 30.36 L13.65 30.22 L13.7 30.15 L13.78 30.09 L13.78 30.04 L13.83 29.95 L13.91 29.9 L14.17 29.78 L14.29 29.57 L14.47 29.48 L14.59 29.47 L14.71 29.37 L14.83 29.36 L15.06 29.25 L15.24 29.2 L15.75 28.85 L16.14 28.81 L16.3 28.88 L16.38 28.94 L16.47 28.96 L16.51 29.02 L16.6 29.08 L16.66 29.18 L16.73 29.26 L16.82 29.27 L17.07 29.22 L17.13 29.15 L17.18 28.95 L17.34 28.73 L17.35 28.5 L17.45 28.21 L17.49 27.66 L17.6 27.48 L17.74 27.38 L17.91 27.29 L18.79 26.96 L19.29 26.72 L19.62 26.61 L19.75 26.59 L20.04 26.63 L20.49 26.73 L20.63 26.78 L20.94 26.96 L21.3 27.07 L22.53 27.36 L22.7 27.39 L22.94 27.37 L23.18 27.3 L23.53 27.12 L23.79 27.02 L23.93 27.01 L24.13 27.06 L24.17 27.05 L24.64 26.81 L25.23 26.62 L25.56 26.44 L26 26.08 L26.31 25.68 L26.95 24.75 L27.22 24.32 L27.32 24.08 L27.45 23.97 L27.54 23.83 L27.6 23.8 L27.65 23.7 L28 23.63 L28.05 23.56 L28 23.47 L28.1 23.3 L28.09 23.24 L27.95 23.15 L27.8 23.14 L27.7 23.1 L27.67 23.05 L27.65 22.93 L27.51 22.94 L27.32 22.79 L27.28 22.73 L27.24 22.52 L27.12 22.38 L27.09 22.32 L27.1 22.06 L27.15 21.99 L27.22 21.97 L27.28 21.86 L27.25 21.52 L27.2 21.41 L27.19 21.32 L26.98 21.2 L26.92 21.12 L26.91 21.02 L26.84 21 L26.73 20.91 L26.43 20.53 L26.18 20.4 L26.11 20.21 L26.11 20.14 L26.21 19.85 L26.21 19.73 L26.14 19.47 L26.2 19.39 L26.19 19.29 L26.2 19.21 L26.29 19.07 L26.42 18.97 L26.53 18.82 L26.63 18.62 L26.67 18.38 L27.02 17.75 L27.16 17.61 L27.2 17.43 L27.39 17.06 L27.57 16.87 L27.75 16.52 L27.83 16.48 L27.96 16.36 L28.08 16.18 L28.2 16.13 L28.32 16.15 L28.44 16.04 L28.61 16.11 L28.8 16.12 L28.97 16.17 L29.07 16.15 L29.22 16.21 L30.09 16.44 L30.48 16.8 L30.89 16.93 L31.76 17.28 L32.07 17.44 L32.23 17.59 L32.53 17.93 L32.93 18.45 L33.1 18.61 L33.2 18.66 L33.44 18.72 L33.76 18.74 L34.01 18.73 L34.47 18.66 L34.68 18.67 L34.78 18.7 L35.23 18.9 L35.36 18.97 L35.56 19.21 L35.78 19.38 L35.93 19.47 L36.08 19.51 L36.26 19.71 L36.24 19.77 L36.23 19.99 L36.25 20.08 L36.31 20.17 L36.39 20.23 L36.56 20.25 L36.78 20.48 L37.05 20.83 L37.46 21.11 L37.81 21.27 L37.84 21.34 L37.82 21.57 L37.85 21.64 L38.19 21.95 L38.28 21.95 L38.35 21.91 L38.45 21.93 L38.53 22.1 L38.64 22.22 L38.83 22.56 L39 22.64 L39.28 22.63 L39.43 22.66 L39.63 22.75 L39.87 22.76 L39.94 22.78 L40.13 22.92 L40.33 23.01 L40.4 23.11 L40.66 23.23 L40.88 23.46 L40.95 23.61 L40.97 23.77 L40.91 24.11 L40.94 24.41 L40.93 24.54 L40.75 24.68 L40.65 24.91 L40.58 24.96 L40.17 24.96 L40 24.93 L39.83 24.71 L39.78 24.69 L39.72 24.71 L39.68 24.78 L39.68 24.92 L39.72 25.01 L39.84 25.17 L39.87 25.25 L39.82 25.31 L39.61 25.35 L39.58 25.37 L39.55 25.44 L39.82 25.6 L39.94 25.9 L39.96 26.03 L39.94 26.16 L39.97 26.24 L40.14 26.28 L40.25 26.4 L40.35 26.28 L40.61 26.32 L40.75 26.29 L40.84 26.55 L40.93 26.62 L41.04 26.79 L41.03 26.9 L41.13 27.01 L41.28 27.05 L41.49 27.08 L41.63 27.14 L41.73 27.22 L41.82 27.44 L41.87 27.82 L41.94 28.01 L42.28 28.47 L42.37 28.65 L42.51 29.46 L42.48 29.98 L42.57 30.31 L42.7 30.5 L43.19 30.92 L43.23 31 L43.25 31.2 L43.24 31.36 L43.3 31.78 L43.32 32.31 L43.75 32.79 L43.89 32.86 L44.09 32.85 L44.19 32.88 L44.39 33.08 L44.81 33.42 L44.99 33.62 L45.14 33.94 L45.27 34.09 L45.45 34.18 L45.81 34.14 L46.11 34.21 L46.2 34.25 L46.41 34.41 L46.46 34.48 L46.46 34.59 L46.28 34.88 L46.21 35.05 L46.17 35.58 L46.21 35.88 L46.31 36.03 L46.34 36.18 L46.42 36.32 L46.66 36.58 L47.17 37.26 L47.4 37.51 L47.59 37.55 L48.11 37.48 L48.37 37.48 L48.7 37.64 L49 37.83 L49.07 37.94 L49.12 38.26 L49.23 38.55 L49.39 38.78 L49.8 39.17 L49.9 39.33 L50.03 39.62 L50.69 40.56 L50.87 40.8 L51.35 41.29 L51.76 41.6 L52.07 41.88 L52.19 42.1 L52.12 42.44 L52.04 42.47 L52.02 42.49 L52.12 42.58 L52.1 42.64 L52.19 42.72 L52.25 42.73 L52.27 42.76 L52.27 43.01 L52.33 43.12 L52.24 43.27 L52.22 43.35 L52.34 43.55 L52.38 43.76 L52.3 43.87 L52.33 43.97 L52.29 44.04 L52.29 44.15 L52.19 44.25 L52.14 44.34 L52.06 44.34 L52.11 44.39 L52.1 44.49 L52.01 44.51 L51.96 44.49 L51.97 44.57 L51.86 44.65 L51.8 44.66 L51.72 44.74 L51.67 44.74 L51.58 44.8 L51.54 44.76 L51.48 44.77 L51.24 44.9 L51.2 45.02 L51.22 45.1 L51.47 45.19 L51.49 45.27 L51.32 45.6 L51.08 45.78 L50.93 45.89 L50.84 45.9 L50.71 45.9 L50.61 45.84 L50.46 45.81 L50.29 45.84 L50.16 45.92 L50.05 46.23 L49.75 46.58 L49.73 46.72 L49.75 46.8 L49.83 46.88 L49.81 46.99 L49.27 47.31 L49.07 47.61 L48.94 47.68 L48.73 47.72 L48.56 47.83 L48.51 47.93 L48.46 48.32 L48.4 48.43 L48.27 48.52 L48.23 48.66 L55.82 48.64 L55.83 48.71 L55.81 48.7 L55.78 48.75 L55.81 48.76 L55.81 48.81 L55.88 48.85 L55.89 48.91 L55.95 48.92 L56.01 48.97 L56.06 48.89 L56.08 48.89 L56.1 48.95 L56.06 49 L56.14 48.96 L56.14 49.05 L56.19 49.05 L56.18 49 L56.2 48.99 L56.29 49.04 L56.28 48.97 L56.33 48.96 L56.39 49.01 L56.38 49.05 L56.44 49.07 L56.48 49.03 L56.55 49.03 L56.55 49.11 L56.59 49.09 L56.59 49.12 L56.63 49.12 L56.66 49.19 L56.73 49.17 L56.72 49.23 L56.74 49.25 L56.79 49.23 L56.81 49.16 L56.92 49.19 L56.9 49.13 L56.96 49.14 L56.93 49.1 L57.09 49.14 L57.18 49.1 L57.17 49.16 L57.2 49.17 L57.23 49.13 L57.26 49.16 L57.25 49.21 L57.28 49.21 L57.29 49.27 L57.32 49.22 L57.35 49.25 L57.43 49.2 L57.44 49.25 L57.54 49.24 L57.54 49.27 L57.62 49.32 L57.71 49.29 L57.86 49.37 L57.9 49.37 L57.94 49.31 L57.97 49.31 L57.94 49.39 L57.96 49.44 L58.03 49.43 L58.1 49.37 L58.11 49.46 L58.2 49.43 L58.18 49.54 L58.2 49.57 L58.22 49.57 L58.23 49.48 L58.27 49.46 L58.29 49.47 L58.3 49.54 L58.33 49.47 L58.37 49.51 L58.42 49.51 L58.43 49.47 L58.49 49.48 L58.48 49.52 L58.51 49.57 L58.53 49.57 L58.55 49.51 L58.57 49.55 L58.56 49.6 L58.6 49.57 L58.64 49.58 L58.63 49.61 L58.66 49.67 L58.7 49.65 L58.73 49.67 L58.68 49.72 L58.77 49.77 L58.79 49.83 L58.84 49.85 L58.88 49.84 L58.9 49.75 L58.99 49.75 L59.04 49.78 L59.11 49.69 L59.15 49.7 L59.2 49.74 L59.26 49.68 L59.32 49.67 L59.44 49.78 L59.48 49.74 L59.51 49.75 L59.53 49.72 L59.55 49.76 L59.61 49.76 L59.65 49.78 L59.68 49.76 L59.71 49.79 L59.74 49.76 L59.77 49.78 L59.75 49.81 L59.78 49.8 L59.85 49.83 L59.85 49.79 L59.89 49.78 L59.87 49.74 L59.96 49.7 L60.01 49.73 L60.05 49.63 L60.07 49.7 L60.13 49.74 L60.16 49.69 L60.18 49.73 L60.2 49.7 L60.24 49.7 L60.27 49.72 L60.27 49.77 L60.33 49.69 L60.37 49.69 L60.39 49.72 L60.43 49.73 L60.49 49.72 L60.56 49.63 L60.59 49.7 L60.64 49.68 L60.63 49.73 L60.69 49.72 L60.74 49.81 L60.81 49.78 L60.88 49.87 L60.97 49.85 L60.99 49.91 L61.07 49.91 L61.18 49.83 L61.26 49.94 L61.34 49.9 L61.46 50.05 L61.52 50.02 L61.51 50.05 L61.59 50.1 L61.58 50.17 L61.61 50.19 L61.6 50.23 L61.63 50.21 L61.63 50.24 L61.56 50.28 L61.56 50.31 L61.61 50.3 L61.62 50.33 L61.68 50.32 L61.69 50.43 L61.73 50.43 L61.77 50.52 L61.82 50.53 L61.85 50.6 L61.94 50.67 L62.03 50.69 L62.05 50.62 L62.12 50.62 L62.14 50.58 L62.2 50.57 L62.2 50.5 L62.3 50.5 L62.37 50.53 L62.41 50.58 L62.4 50.61 L62.48 50.61 L62.5 50.64 L62.5 50.81 L62.46 50.85 L62.49 50.92 L62.44 51.06 L62.48 51.09 L62.44 51.11 L62.48 51.19 L62.44 51.21 L62.45 51.25 L62.43 51.35 L62.47 51.41 L62.44 51.41 L62.46 51.47 L62.43 51.49 L62.4 51.57 L62.47 51.67 L62.51 51.67 L62.51 51.69 L62.7 51.85 L62.76 51.83 L62.77 51.79 L62.84 51.75 L62.92 51.75 L62.95 51.79 L62.95 51.89 L62.91 51.92 L62.9 52 L62.87 52.02 L62.88 52.1 L62.85 52.12 L62.82 52.17 L62.87 52.3 L62.92 52.32 L62.96 52.4 L63.04 52.41 L63.05 52.47 L63.01 52.59 L63 52.71 L62.95 52.79 L62.98 52.89 L62.95 53.03 L62.96 53.1 L62.88 53.17 L62.86 53.26 L62.88 53.48 L62.92 53.59 L62.79 53.75 L62.8 53.85 L62.84 53.87 L63.07 53.85 L63.14 54.01 L63.22 54.06 L63.29 54.03 L63.48 54.16 L63.48 54.22 L63.52 54.27 L63.86 54.25 L63.96 54.27 L64.12 54.36 L64.23 54.36 L64.32 54.5 L64.51 54.56 L64.47 54.64 L64.52 54.73 L64.46 54.77 L64.46 54.86 L64.36 54.88 L64.37 55 L64.33 55.06 L64.43 55.1 L64.46 55.14 L64.49 55.25 L64.43 55.33 L64.57 55.73 L64.64 55.78 L64.73 55.73 L64.75 55.77 L64.68 55.91 L64.56 55.98 L64.52 56.23 L64.42 56.31 L64.29 56.29 L64.32 56.37 L64.24 56.43 L64.22 56.54 L64.15 56.63 L64.24 56.7 L64.28 56.77 L64.45 56.8 L64.35 56.92 L64.35 56.98 L64.38 57.02 L64.53 57.07 L64.54 57.17 L64.49 57.25 L64.43 57.24 L64.43 57.31 L64.39 57.37 L64.12 57.45 L64.09 57.52 L64.1 57.62 L64.07 57.68 L76.44 57.69 L76.68 57.42 L76.71 57.42 L76.77 57.47 L76.84 57.44 L76.81 57.33 L76.86 57.25 L76.94 57.17 L76.98 57.17 L77.01 57.21 L77.14 57.27 L77.26 57.46 L77.36 57.46 L77.42 57.56 L77.5 57.5 L77.64 57.55 L77.74 57.4 L77.82 57.46 L77.9 57.45 L78.03 57.35 L78.09 57.33 L78.19 57.37 L78.25 57.36 L78.36 57.27 L78.37 57.21 L78.32 57.14 L78.33 57.11 L78.37 57.12 L78.43 57.1 L78.51 57.17 L78.59 57.14 L78.65 57.15 L78.81 57.22 L79 57.14 L78.99 56.96 L79.08 56.85 L79.16 56.8 L79.23 56.8 L79.26 56.78 L79.27 56.63 L79.32 56.54 L79.31 56.47 L79.34 56.44 L79.38 56.47 L79.48 56.42 L79.46 56.27 L79.56 56.17 L79.59 55.99 L79.64 55.98 L79.73 55.9 L79.8 55.71 L79.95 55.67 L80.07 55.48 L80.16 55.43 L80.36 55.4 L80.42 55.42 L80.48 55.41 L80.53 55.45 L80.58 55.42 L80.64 55.42 L80.67 55.34 L80.76 55.3 L80.82 55.24 L80.91 55.22 L81.03 55.04 L81.3 54.99 L81.34 54.97 L81.35 54.91 L81.42 54.85 L81.54 54.9 L81.66 54.87 L81.73 54.82 L81.86 54.89 L81.92 54.85 L81.99 54.88 L82.07 54.85 L82.23 54.89 L82.31 54.87 L82.35 54.78 L82.3 54.68 L82.35 54.6 L82.33 54.53 L82.37 54.46 L82.43 54.43 L82.43 54.39 L82.51 54.27 L82.5 54.24 L82.52 54.15 L82.61 54.05 L82.63 53.98 L82.69 53.97 L82.67 53.93 L82.75 53.92 L82.78 53.81 L82.81 53.88 L82.94 53.71 L82.99 53.76 L83 53.72 L83.08 53.71 L83.16 53.75 L83.23 53.7 L83.39 53.69 L83.41 53.67 L83.39 53.65 L83.44 53.65 L83.49 53.55 L83.54 53.51 L83.54 53.47 L83.58 53.45 L83.58 53.49 L83.62 53.43 L83.62 53.39 L83.66 53.38 L83.7 53.29 L83.75 53.27 L83.79 53.28 L83.81 53.2 L83.79 53.18 L83.8 53.12 L83.87 53.06 L83.94 52.9 L84.06 52.88 L84.07 52.77 L84.11 52.76 L84.13 52.69 L84.19 52.67 L84.2 52.62 L84.25 52.6 L84.21 52.58 L84.23 52.53 L84.28 52.53 L84.48 52.38 L84.56 52.38 L84.58 52.42 L84.63 52.38 L84.7 52.4 L84.75 52.24 L84.74 52.19 L84.79 52.24 L84.84 52.25 L84.85 52.19 L84.93 52.22 L84.96 52.18 L85.02 52.21 L85.02 52.16 L85.07 52.19 L85.08 52.15 L85.11 52.14 L85.22 52.2 L85.26 52.16 L85.3 52.17 L85.34 52.11 L85.4 52.13 L85.39 52.06 L85.45 52 L85.41 51.97 L85.41 51.95 L85.49 51.88 L85.53 51.88 L85.52 51.85 L85.47 51.84 L85.51 51.8 L85.5 51.74 L85.57 51.71 L85.6 51.72 L85.61 51.68 L85.68 51.7 L85.69 51.65 L85.72 51.63 L85.82 51.63 L85.8 51.54 L85.91 51.61 L85.96 51.6 L85.93 51.56 L85.96 51.53 L85.98 51.45 L85.94 51.34 L85.96 51.3 L85.92 51.28 L85.97 51.27 L85.94 51.21 L86 51.21 L85.98 51.16 L86.07 51.06 L86.03 51.04 L85.99 51.07 L85.98 51.05 L86.04 50.99 L86.05 50.92 L86.12 50.96 L86.17 50.94 L86.18 50.9 L86.2 50.92 L86.25 50.9 L86.28 50.97 L86.38 51.01 L86.38 51.07 L86.49 50.97 L86.46 50.93 L86.49 50.89 L86.43 50.87 L86.51 50.86 L86.52 50.83 L86.56 50.83 L86.62 50.72 L86.68 50.73 L86.77 50.66 L86.8 50.7 L86.84 50.63 L86.95 50.61 L86.95 50.54 L87.02 50.55 L87.02 50.52 L87.04 50.49 L87.16 50.52 L87.17 50.49 L87.13 50.49 L87.13 50.47 L87.23 50.45 L87.24 50.42 L87.26 50.43 L87.27 50.4 L87.36 50.33 L87.37 50.29 L87.4 50.3 L87.38 50.38 L87.4 50.39 L87.41 50.35 L87.44 50.32 L87.48 50.25 L87.55 50.28 L87.56 50.26 L87.5 50.22 L87.54 50.16 L87.56 50.21 L87.6 50.18 L87.61 50.07 L87.57 50 L87.61 50.01 L87.62 49.97 L87.72 50 L87.72 49.98 L87.66 49.95 L87.71 49.91 L87.8 50.02 L87.82 50.01 L87.81 49.92 L87.87 49.91 L87.9 49.88 L87.84 49.84 L87.8 49.77 L87.88 49.75 L87.88 49.67 L87.98 49.64 L88.01 49.52 L88.05 49.52 L88.12 49.61 L88.1 49.53 L88.18 49.49 L88.16 49.43 L88.19 49.32 L88.26 49.36 L88.29 49.32 L88.33 49.36 L88.38 49.34 L88.41 49.37 L88.43 49.34 L88.39 49.31 L88.43 49.27 L88.4 49.25 L88.41 49.19 L88.44 49.21 L88.46 49.19 L88.42 49.15 L88.42 49.1 L88.5 49.07 L88.56 49.11 L88.52 49.15 L88.54 49.16 L88.67 49.05 L88.72 49.05 L88.77 48.99 L88.82 49.05 L88.82 48.96 L88.87 48.98 L88.89 48.93 L88.91 48.97 L88.96 48.9 L89 48.99 L89.06 48.95 L89.14 48.99 L89.18 48.86 L89.25 48.93 L89.33 48.96 L89.31 49.03 L89.51 48.88 L89.53 48.91 L89.47 48.98 L89.51 49.02 L89.52 48.99 L89.6 48.96 L89.58 48.9 L89.67 48.87 L89.75 48.81 L89.81 48.8 L89.8 48.85 L89.85 48.81 L89.87 48.87 L89.97 48.82 L90 48.91 L89.97 49.08 L89.9 49.13 L89.73 49.18 L89.73 49.22 L89.83 49.37 L89.83 49.42 L89.69 49.46 L89.68 49.36 L89.64 49.33 L89.56 49.34 L89.53 49.37 L89.57 49.47 L89.58 49.61 L89.84 49.91 L89.83 50.06 L89.79 50.08 L89.76 50.05 L89.75 49.89 L89.69 49.88 L89.64 49.92 L89.64 50.01 L89.58 50.07 L89.55 50.08 L89.48 50.03 L89.43 50.05 L89.42 50.1 L89.45 50.17 L89.43 50.24 L89.37 50.25 L89.27 50.19 L89.22 50.21 L89.18 50.3 L89.19 50.39 L89.2 50.42 L89.3 50.43 L89.32 50.48 L89.3 50.54 L89.26 50.58 L89.08 50.6 L88.92 50.47 L88.88 50.47 L88.82 50.51 L88.93 50.62 L88.86 50.74 L88.85 50.83 L88.9 50.88 L88.98 50.88 L89.05 50.93 L89.09 51.03 L89.06 51.11 L89.01 51.14 L88.88 51.11 L88.75 50.97 L88.62 51.04 L88.56 51.02 L88.55 50.96 L88.61 50.84 L88.57 50.76 L88.53 50.74 L88.46 50.75 L88.42 50.79 L88.36 50.95 L88.59 51.13 L88.57 51.3 L88.51 51.32 L88.58 51.33 L88.6 51.37 L88.56 51.44 L88.56 51.49 L88.53 51.55 L88.47 51.58 L88.46 51.61 L88.43 51.6 L88.4 51.64 L88.43 51.72 L88.49 51.77 L88.48 51.87 L88.51 51.87 L88.51 51.93 L88.57 51.99 L88.56 52.03 L88.63 52.09 L88.6 52.15 L88.69 52.19 L88.73 52.3 L88.76 52.29 L88.77 52.4 L88.88 52.53 L88.89 52.57 L88.93 52.59 L88.97 52.56 L88.99 52.58 L89.09 52.58 L89.12 52.6 L89.17 52.74 L89.2 52.73 L89.26 52.76 L89.34 52.96 L89.33 52.99 L89.39 53.09 L89.38 53.16 L89.42 53.17 L89.44 53.27 L89.47 53.26 L89.52 53.29 L89.46 53.34 L89.49 53.38 L89.48 53.46 L89.37 53.6 L89.41 53.65 L89.39 53.73 L89.41 53.77 L89.3 53.85 L89.3 53.92 L89.35 54.01 L89.35 54.08 L89.21 54.22 L89.2 54.27 L89 54.44 L88.95 54.44 L88.83 54.36 L88.75 54.28 L88.71 54.27 L88.58 54.38 L88.59 54.5 L88.53 54.54 L88.5 54.65 L88.34 54.61 L88.24 54.62 L88.18 54.69 L88.08 54.91 L87.91 54.97 L87.97 55.12 L87.97 55.83 L87.84 55.88 L87.76 55.95 L87.74 56.09 L87.65 56.25 L87.61 56.4 L87.53 56.54 L87.52 56.61 L87.57 56.81 L87.56 56.88 L87.52 56.97 L87.33 57.11 L87.25 57.21 L86.9 57.36 L86.43 57.69 L85.16 58.77 L85.03 58.91 L84.94 59.05 L84.71 59.56 L84.53 60.24 L84.5 61.4 L84.44 62.04 L84.26 62.49 L83.89 63.11 L83.63 63.37 L82.76 63.97 L82.54 64.24 L82.1 64.63 L81.53 65.02 L81.29 65.25 L80.99 65.47 L80.5 65.74 L80.27 65.92 L79.81 66.42 L79.63 66.67 L79.27 67.25 L78.94 67.64 L78.73 68.06 L78.65 68.3 L78.6 68.69 L78.56 69.73 L78.53 69.94 L78.4 70.33 L78.23 70.7 L78.08 70.93 L77.83 71.25 L77.58 71.66 L77.15 72.21 L76.88 72.43 L76.73 72.52 L76.61 72.56 L75.74 72.56 L75.35 72.62 L74.74 72.74 L74.19 72.82 L73.23 72.9 L72.74 72.9 L72.13 72.82 L71.73 72.84 L70 73.05 L69.83 73.03 L69.52 72.91 L69.29 72.74 L69.21 72.63 L69.04 72.47 L68.65 72.32 L68.23 72.35 L68 72.24 L67.93 72.23 L67.7 72.29 L67.29 72.26 L67.01 72.3 L66.84 72.35 L66.64 72.55 L66.58 72.76 L66.56 72.77 L66.53 72.71 L66.41 72.76 L66.32 72.94 L66.22 72.86 L66.2 72.79 L66.11 72.79 L66.06 72.77 L66.04 72.83 L66.1 72.88 L66.06 72.93 L65.71 72.92 L65.48 73.13 L65.4 73.11 L65.28 72.97 L65.22 72.96 L65.16 73 L65.04 73.02 L64.95 72.98 L64.85 72.88 L64.73 72.85 L64.65 72.87 L64.57 72.94 L64.47 72.97 L64.45 73.09 L64.42 73.12 L64.29 73.11 L64.19 73.02 L64.15 73.01 L64.05 73.16 L63.97 73.23 L64.09 73.34 L64.17 73.52 L64.12 73.78 L64.02 73.89 L64.03 74.02 L64.22 74.22 L64.26 74.39 L64.32 74.45 L64.38 74.45 L64.58 74.4 L64.64 74.48 L64.77 74.53 L64.84 74.61 L64.96 74.62 L65.02 74.86 L64.96 74.98 L64.79 75.14 L64.6 75.37 L64.48 75.45 L64.35 75.48 L64.24 75.57 L64.1 75.58 L64.04 75.63 L64.03 75.76 L63.98 75.87 L64.02 75.99 L63.98 76.02 L63.82 76.03 L63.75 76.23 L63.8 76.58 L63.8 76.71 L63.83 76.78 L63.79 76.92 L63.73 77.04 L63.76 77.12 L63.67 77.33 L63.6 77.41 L63.58 77.51 L63.46 77.67 L63.39 77.69 L63.31 77.64 L63.22 77.68 L63.18 77.81 L63.1 77.97 L63.11 78.05 L63.04 78.01 Z" /></svg>